%TF.GenerationSoftware,KiCad,Pcbnew,10.0.5*%
%TF.CreationDate,2026-08-21T12:39:19-07:00*%
%TF.ProjectId,kbdrelay-carrier,6b626472-656c-4617-992d-636172726965,rev?*%
%TF.SameCoordinates,Original*%
%TF.FileFunction,Copper,L2,Bot*%
%TF.FilePolarity,Positive*%
%FSLAX46Y46*%
G04 Gerber Fmt 4.6, Leading zero omitted, Abs format (unit mm)*
G04 Created by KiCad (PCBNEW 10.0.5) date 2026-08-21 12:39:19*
%MOMM*%
%LPD*%
G01*
G04 APERTURE LIST*
G04 Aperture macros list*
%AMRoundRect*
0 Rectangle with rounded corners*
0 $1 Rounding radius*
0 $2 $3 $4 $5 $6 $7 $8 $9 X,Y pos of 4 corners*
0 Add a 4 corners polygon primitive as box body*
4,1,4,$2,$3,$4,$5,$6,$7,$8,$9,$2,$3,0*
0 Add four circle primitives for the rounded corners*
1,1,$1+$1,$2,$3*
1,1,$1+$1,$4,$5*
1,1,$1+$1,$6,$7*
1,1,$1+$1,$8,$9*
0 Add four rect primitives between the rounded corners*
20,1,$1+$1,$2,$3,$4,$5,0*
20,1,$1+$1,$4,$5,$6,$7,0*
20,1,$1+$1,$6,$7,$8,$9,0*
20,1,$1+$1,$8,$9,$2,$3,0*%
G04 Aperture macros list end*
%ADD10C,0.300000*%
%TA.AperFunction,NonConductor*%
%ADD11C,0.300000*%
%TD*%
%TA.AperFunction,ComponentPad*%
%ADD12C,2.000000*%
%TD*%
%TA.AperFunction,ComponentPad*%
%ADD13R,1.700000X1.700000*%
%TD*%
%TA.AperFunction,ComponentPad*%
%ADD14C,1.700000*%
%TD*%
%TA.AperFunction,ComponentPad*%
%ADD15C,1.600000*%
%TD*%
%TA.AperFunction,ComponentPad*%
%ADD16RoundRect,0.250000X-0.750000X-0.750000X0.750000X-0.750000X0.750000X0.750000X-0.750000X0.750000X0*%
%TD*%
%TA.AperFunction,ComponentPad*%
%ADD17R,1.800000X1.800000*%
%TD*%
%TA.AperFunction,ComponentPad*%
%ADD18C,1.800000*%
%TD*%
%TA.AperFunction,ComponentPad*%
%ADD19RoundRect,0.250000X1.350000X1.350000X-1.350000X1.350000X-1.350000X-1.350000X1.350000X-1.350000X0*%
%TD*%
%TA.AperFunction,ComponentPad*%
%ADD20C,3.200000*%
%TD*%
%TA.AperFunction,ComponentPad*%
%ADD21R,2.000000X2.000000*%
%TD*%
%TA.AperFunction,Conductor*%
%ADD22C,1.500000*%
%TD*%
%TA.AperFunction,Conductor*%
%ADD23C,0.700000*%
%TD*%
G04 APERTURE END LIST*
D10*
D11*
X152195237Y-129862019D02*
X151966665Y-129957257D01*
X151966665Y-129957257D02*
X151890475Y-130052495D01*
X151890475Y-130052495D02*
X151814284Y-130242971D01*
X151814284Y-130242971D02*
X151814284Y-130528685D01*
X151814284Y-130528685D02*
X151890475Y-130719161D01*
X151890475Y-130719161D02*
X151966665Y-130814400D01*
X151966665Y-130814400D02*
X152119046Y-130909638D01*
X152119046Y-130909638D02*
X152728570Y-130909638D01*
X152728570Y-130909638D02*
X152728570Y-128909638D01*
X152728570Y-128909638D02*
X152195237Y-128909638D01*
X152195237Y-128909638D02*
X152042856Y-129004876D01*
X152042856Y-129004876D02*
X151966665Y-129100114D01*
X151966665Y-129100114D02*
X151890475Y-129290590D01*
X151890475Y-129290590D02*
X151890475Y-129481066D01*
X151890475Y-129481066D02*
X151966665Y-129671542D01*
X151966665Y-129671542D02*
X152042856Y-129766780D01*
X152042856Y-129766780D02*
X152195237Y-129862019D01*
X152195237Y-129862019D02*
X152728570Y-129862019D01*
X150823808Y-128909638D02*
X150519046Y-128909638D01*
X150519046Y-128909638D02*
X150366665Y-129004876D01*
X150366665Y-129004876D02*
X150214284Y-129195352D01*
X150214284Y-129195352D02*
X150138094Y-129576304D01*
X150138094Y-129576304D02*
X150138094Y-130242971D01*
X150138094Y-130242971D02*
X150214284Y-130623923D01*
X150214284Y-130623923D02*
X150366665Y-130814400D01*
X150366665Y-130814400D02*
X150519046Y-130909638D01*
X150519046Y-130909638D02*
X150823808Y-130909638D01*
X150823808Y-130909638D02*
X150976189Y-130814400D01*
X150976189Y-130814400D02*
X151128570Y-130623923D01*
X151128570Y-130623923D02*
X151204761Y-130242971D01*
X151204761Y-130242971D02*
X151204761Y-129576304D01*
X151204761Y-129576304D02*
X151128570Y-129195352D01*
X151128570Y-129195352D02*
X150976189Y-129004876D01*
X150976189Y-129004876D02*
X150823808Y-128909638D01*
X149680952Y-128909638D02*
X148766666Y-128909638D01*
X149223809Y-130909638D02*
X149223809Y-128909638D01*
X148461904Y-128909638D02*
X147547618Y-128909638D01*
X148004761Y-130909638D02*
X148004761Y-128909638D01*
X146709522Y-128909638D02*
X146404760Y-128909638D01*
X146404760Y-128909638D02*
X146252379Y-129004876D01*
X146252379Y-129004876D02*
X146099998Y-129195352D01*
X146099998Y-129195352D02*
X146023808Y-129576304D01*
X146023808Y-129576304D02*
X146023808Y-130242971D01*
X146023808Y-130242971D02*
X146099998Y-130623923D01*
X146099998Y-130623923D02*
X146252379Y-130814400D01*
X146252379Y-130814400D02*
X146404760Y-130909638D01*
X146404760Y-130909638D02*
X146709522Y-130909638D01*
X146709522Y-130909638D02*
X146861903Y-130814400D01*
X146861903Y-130814400D02*
X147014284Y-130623923D01*
X147014284Y-130623923D02*
X147090475Y-130242971D01*
X147090475Y-130242971D02*
X147090475Y-129576304D01*
X147090475Y-129576304D02*
X147014284Y-129195352D01*
X147014284Y-129195352D02*
X146861903Y-129004876D01*
X146861903Y-129004876D02*
X146709522Y-128909638D01*
X145338094Y-130909638D02*
X145338094Y-128909638D01*
X145338094Y-128909638D02*
X144804761Y-130338209D01*
X144804761Y-130338209D02*
X144271427Y-128909638D01*
X144271427Y-128909638D02*
X144271427Y-130909638D01*
D12*
%TO.P,F1,1*%
%TO.N,/+5V_PROT*%
X113040000Y-119500000D03*
%TO.P,F1,2*%
%TO.N,/+5V_KBD*%
X107960000Y-119500000D03*
%TD*%
D13*
%TO.P,J2,1,Pin_1_1*%
%TO.N,Net-(J2-Pin_1)*%
X164500000Y-119500000D03*
D14*
%TO.P,J2,2,Pin_2_2*%
%TO.N,Net-(J2-Pin_2)*%
X164500000Y-122040000D03*
%TO.P,J2,3,Pin_3_3*%
%TO.N,GND*%
X164500000Y-124580000D03*
%TD*%
D15*
%TO.P,R9,1*%
%TO.N,Net-(U2-RX)*%
X178660000Y-124500000D03*
%TO.P,R9,2*%
%TO.N,Net-(J2-Pin_2)*%
X168500000Y-124500000D03*
%TD*%
%TO.P,R12,1*%
%TO.N,Net-(D2-K)*%
X138500000Y-126500000D03*
%TO.P,R12,2*%
%TO.N,GND*%
X148660000Y-126500000D03*
%TD*%
D16*
%TO.P,C1,1*%
%TO.N,/+5V_PROT*%
X112500000Y-126500000D03*
D12*
%TO.P,C1,2*%
%TO.N,GND*%
X117500000Y-126500000D03*
%TD*%
D15*
%TO.P,R4,1*%
%TO.N,/CS_KBD*%
X149500000Y-96500000D03*
%TO.P,R4,2*%
%TO.N,/CS_TGT*%
X159660000Y-96500000D03*
%TD*%
D17*
%TO.P,D2,1,K_1*%
%TO.N,Net-(D2-K)*%
X135960000Y-126500000D03*
D18*
%TO.P,D2,2,A_2*%
%TO.N,/+5V_KBD*%
X133420000Y-126500000D03*
%TD*%
D15*
%TO.P,C2,1*%
%TO.N,/+5V_PROT*%
X124500000Y-126500000D03*
%TO.P,C2,2*%
%TO.N,GND*%
X129500000Y-126500000D03*
%TD*%
D13*
%TO.P,J1,1,Pin_1_1*%
%TO.N,Net-(J1-Pin_1)*%
X125500000Y-83500000D03*
D14*
%TO.P,J1,2,Pin_2_2*%
%TO.N,Net-(J1-Pin_2)*%
X125500000Y-86040000D03*
%TO.P,J1,3,Pin_3_3*%
%TO.N,GND*%
X125500000Y-88580000D03*
%TD*%
D19*
%TO.P,D1,1,K_1*%
%TO.N,/+5V_PROT*%
X120500000Y-119500000D03*
D20*
%TO.P,D1,2,A_2*%
%TO.N,/+5V_IN*%
X133200000Y-119500000D03*
%TD*%
D13*
%TO.P,J3,1,Pin_1_1*%
%TO.N,/+5V_IN*%
X137500000Y-119500000D03*
D14*
%TO.P,J3,2,Pin_2_2*%
%TO.N,GND*%
X137500000Y-122040000D03*
%TD*%
D15*
%TO.P,R1,1*%
%TO.N,Net-(U1-GPIO4)*%
X149500000Y-111500000D03*
%TO.P,R1,2*%
%TO.N,Net-(U2-GPIO4)*%
X159660000Y-111500000D03*
%TD*%
%TO.P,R5,1*%
%TO.N,/DRDY_KBD*%
X149500000Y-91500000D03*
%TO.P,R5,2*%
%TO.N,/DRDY_TGT*%
X159660000Y-91500000D03*
%TD*%
%TO.P,R6,1*%
%TO.N,Net-(J1-Pin_1)*%
X112500000Y-83500000D03*
%TO.P,R6,2*%
%TO.N,Net-(U1-TX)*%
X122660000Y-83500000D03*
%TD*%
%TO.P,R2,1*%
%TO.N,Net-(U1-GPIO5)*%
X149500000Y-106500000D03*
%TO.P,R2,2*%
%TO.N,Net-(U2-GPIO5)*%
X159660000Y-106500000D03*
%TD*%
%TO.P,R3,1*%
%TO.N,Net-(U1-GPIO6)*%
X149500000Y-101500000D03*
%TO.P,R3,2*%
%TO.N,Net-(U2-GPIO6)*%
X159660000Y-101500000D03*
%TD*%
D21*
%TO.P,U2,1,VDD_1*%
%TO.N,unconnected-(U2-VDD-Pad1)*%
X189410000Y-97350000D03*
D12*
%TO.P,U2,2,GND_2*%
%TO.N,GND*%
X186870000Y-97350000D03*
%TO.P,U2,3,3V3(OUT)_3*%
%TO.N,unconnected-(U2-3V3(OUT)-Pad3)*%
X184330000Y-97350000D03*
%TO.P,U2,4,GPIO1_4*%
%TO.N,unconnected-(U2-GPIO1-Pad4)*%
X181790000Y-97350000D03*
%TO.P,U2,5,GPIO2_5*%
%TO.N,unconnected-(U2-GPIO2-Pad5)*%
X179250000Y-97350000D03*
%TO.P,U2,6,GPIO3_6*%
%TO.N,unconnected-(U2-GPIO3-Pad6)*%
X176710000Y-97350000D03*
%TO.P,U2,7,GPIO4_7*%
%TO.N,Net-(U2-GPIO4)*%
X174170000Y-97350000D03*
%TO.P,U2,8,GPIO5_8*%
%TO.N,Net-(U2-GPIO5)*%
X171630000Y-97350000D03*
%TO.P,U2,9,GPIO6_9*%
%TO.N,Net-(U2-GPIO6)*%
X169090000Y-97350000D03*
%TO.P,U2,10,GPIO7_10*%
%TO.N,/CS_TGT*%
X169090000Y-112590000D03*
%TO.P,U2,11,GPIO8_11*%
%TO.N,/DRDY_TGT*%
X171630000Y-112590000D03*
%TO.P,U2,12,GPIO9_12*%
%TO.N,unconnected-(U2-GPIO9-Pad12)*%
X174170000Y-112590000D03*
%TO.P,U2,13,GPIO10_13*%
%TO.N,unconnected-(U2-GPIO10-Pad13)*%
X176710000Y-112590000D03*
%TO.P,U2,14,GPIO11_14*%
%TO.N,unconnected-(U2-GPIO11-Pad14)*%
X179250000Y-112590000D03*
%TO.P,U2,15,GPIO12_15*%
%TO.N,unconnected-(U2-GPIO12-Pad15)*%
X181790000Y-112590000D03*
%TO.P,U2,16,GPIO13_16*%
%TO.N,unconnected-(U2-GPIO13-Pad16)*%
X184330000Y-112590000D03*
%TO.P,U2,17,RX_17*%
%TO.N,Net-(U2-RX)*%
X186870000Y-112590000D03*
%TO.P,U2,18,TX_18*%
%TO.N,Net-(U2-TX)*%
X189410000Y-112590000D03*
%TD*%
D15*
%TO.P,R7,1*%
%TO.N,Net-(J1-Pin_2)*%
X112500000Y-88500000D03*
%TO.P,R7,2*%
%TO.N,Net-(U1-RX)*%
X122660000Y-88500000D03*
%TD*%
D21*
%TO.P,U1,1,VDD_1*%
%TO.N,/+5V_KBD*%
X107590000Y-112650000D03*
D12*
%TO.P,U1,2,GND_2*%
%TO.N,GND*%
X110130000Y-112650000D03*
%TO.P,U1,3,3V3(OUT)_3*%
%TO.N,unconnected-(U1-3V3(OUT)-Pad3)*%
X112670000Y-112650000D03*
%TO.P,U1,4,GPIO1_4*%
%TO.N,unconnected-(U1-GPIO1-Pad4)*%
X115210000Y-112650000D03*
%TO.P,U1,5,GPIO2_5*%
%TO.N,unconnected-(U1-GPIO2-Pad5)*%
X117750000Y-112650000D03*
%TO.P,U1,6,GPIO3_6*%
%TO.N,unconnected-(U1-GPIO3-Pad6)*%
X120290000Y-112650000D03*
%TO.P,U1,7,GPIO4_7*%
%TO.N,Net-(U1-GPIO4)*%
X122830000Y-112650000D03*
%TO.P,U1,8,GPIO5_8*%
%TO.N,Net-(U1-GPIO5)*%
X125370000Y-112650000D03*
%TO.P,U1,9,GPIO6_9*%
%TO.N,Net-(U1-GPIO6)*%
X127910000Y-112650000D03*
%TO.P,U1,10,GPIO7_10*%
%TO.N,/CS_KBD*%
X127910000Y-97410000D03*
%TO.P,U1,11,GPIO8_11*%
%TO.N,/DRDY_KBD*%
X125370000Y-97410000D03*
%TO.P,U1,12,GPIO9_12*%
%TO.N,unconnected-(U1-GPIO9-Pad12)*%
X122830000Y-97410000D03*
%TO.P,U1,13,GPIO10_13*%
%TO.N,unconnected-(U1-GPIO10-Pad13)*%
X120290000Y-97410000D03*
%TO.P,U1,14,GPIO11_14*%
%TO.N,unconnected-(U1-GPIO11-Pad14)*%
X117750000Y-97410000D03*
%TO.P,U1,15,GPIO12_15*%
%TO.N,unconnected-(U1-GPIO12-Pad15)*%
X115210000Y-97410000D03*
%TO.P,U1,16,GPIO13_16*%
%TO.N,unconnected-(U1-GPIO13-Pad16)*%
X112670000Y-97410000D03*
%TO.P,U1,17,RX_17*%
%TO.N,Net-(U1-RX)*%
X110130000Y-97410000D03*
%TO.P,U1,18,TX_18*%
%TO.N,Net-(U1-TX)*%
X107590000Y-97410000D03*
%TD*%
D15*
%TO.P,R8,1*%
%TO.N,Net-(U2-TX)*%
X178660000Y-119500000D03*
%TO.P,R8,2*%
%TO.N,Net-(J2-Pin_1)*%
X168500000Y-119500000D03*
%TD*%
%TO.N,/+5V_PROT*%
D22*
X113040000Y-119500000D02*
X120500000Y-119500000D01*
X124450000Y-124250000D02*
X124500000Y-126500000D01*
X112500000Y-126500000D02*
X113040000Y-119500000D01*
X120500000Y-119500000D02*
X124450000Y-124250000D01*
%TO.N,/+5V_KBD*%
X122650000Y-115850000D02*
X133419999Y-126500000D01*
X107850000Y-115850000D02*
X122650000Y-115850000D01*
X107590000Y-112650000D02*
X107960000Y-119500000D01*
%TO.N,Net-(J2-Pin_1)*%
D23*
X164500000Y-119500000D02*
X168500000Y-119500000D01*
%TO.N,Net-(J2-Pin_2)*%
X166050000Y-122250000D02*
X168500000Y-124500000D01*
X164500000Y-122040000D02*
X166050000Y-122250000D01*
%TO.N,GND*%
D22*
X120250000Y-129250000D02*
X139050000Y-129250000D01*
X117500000Y-126500000D02*
X121650000Y-126850000D01*
X117500000Y-126500000D02*
X121650000Y-126850000D01*
X123450000Y-128650000D02*
X132850000Y-128650000D01*
X138650000Y-129250000D02*
X139250000Y-128650000D01*
X121650000Y-126850000D02*
X123450000Y-128650000D01*
X120250000Y-129250000D02*
X138650000Y-129250000D01*
X117500000Y-126500000D02*
X120250000Y-129250000D01*
X120250000Y-129250000D02*
X137250000Y-129250000D01*
X123450000Y-128650000D02*
X130650000Y-128650000D01*
X121650000Y-126850000D02*
X123450000Y-128650000D01*
X139050000Y-129250000D02*
X141050000Y-127250000D01*
X117500000Y-126500000D02*
X120050000Y-129050000D01*
X120050000Y-129050000D02*
X135050000Y-129050000D01*
X117500000Y-126500000D02*
X120250000Y-129250000D01*
X117500000Y-126500000D02*
X120250000Y-129250000D01*
%TO.N,Net-(U2-RX)*%
D23*
X191450000Y-111650000D02*
X190450000Y-110650000D01*
X191450000Y-113650000D02*
X191450000Y-111650000D01*
X189050000Y-116050000D02*
X191450000Y-113650000D01*
X190450000Y-110650000D02*
X188250000Y-110650000D01*
X178660000Y-124500000D02*
X187450000Y-116050000D01*
X188250000Y-110650000D02*
X186870000Y-112590000D01*
X187450000Y-116050000D02*
X189050000Y-116050000D01*
%TO.N,Net-(D2-K)*%
X135960000Y-126500000D02*
X138500000Y-126500000D01*
%TO.N,/CS_KBD*%
X129250000Y-96650000D02*
X149500000Y-96500000D01*
X127910000Y-97410000D02*
X129250000Y-96650000D01*
%TO.N,/CS_TGT*%
X159660000Y-96500000D02*
X157850000Y-98450000D01*
X157850000Y-112450000D02*
X158650000Y-113250000D01*
X168250000Y-113250000D02*
X169090000Y-112590000D01*
X157850000Y-98450000D02*
X157850000Y-112450000D01*
X158650000Y-113250000D02*
X168250000Y-113250000D01*
%TO.N,Net-(J1-Pin_1)*%
X114450000Y-81650000D02*
X123450000Y-81650000D01*
X123450000Y-81650000D02*
X125500000Y-83500000D01*
X112500000Y-83500000D02*
X114450000Y-81650000D01*
%TO.N,Net-(J1-Pin_2)*%
X114850000Y-86250000D02*
X125500000Y-86040000D01*
X112500000Y-88500000D02*
X114850000Y-86250000D01*
%TO.N,/+5V_IN*%
D22*
X133199999Y-119500000D02*
X137500000Y-119500000D01*
%TO.N,Net-(U1-GPIO4)*%
D23*
X146250000Y-114650000D02*
X149500000Y-111500000D01*
X123050000Y-113250000D02*
X124450000Y-114650000D01*
X122830000Y-112650000D02*
X123050000Y-113250000D01*
X124450000Y-114650000D02*
X146250000Y-114650000D01*
%TO.N,Net-(U2-GPIO4)*%
X172250000Y-99250000D02*
X172650000Y-99250000D01*
X172650000Y-99250000D02*
X174170000Y-97350000D01*
X159660000Y-111500000D02*
X172250000Y-99250000D01*
%TO.N,/DRDY_KBD*%
X125370000Y-97410000D02*
X125650000Y-96650000D01*
X130650000Y-91650000D02*
X149500000Y-91500000D01*
X125650000Y-96650000D02*
X130650000Y-91650000D01*
%TO.N,/DRDY_TGT*%
X156450000Y-113050000D02*
X158050000Y-114650000D01*
X170050000Y-114650000D02*
X171630000Y-112590000D01*
X159660000Y-91500000D02*
X156450000Y-94850000D01*
X158050000Y-114650000D02*
X170050000Y-114650000D01*
X156450000Y-94850000D02*
X156450000Y-113050000D01*
%TO.N,Net-(U1-TX)*%
X113850000Y-85250000D02*
X115450000Y-83650000D01*
X107590000Y-97410000D02*
X107850000Y-90450000D01*
X107850000Y-90450000D02*
X113050000Y-85250000D01*
X115450000Y-83650000D02*
X122660000Y-83500000D01*
X113050000Y-85250000D02*
X113850000Y-85250000D01*
%TO.N,Net-(U1-GPIO5)*%
X125650000Y-111850000D02*
X130850000Y-106650000D01*
X130850000Y-106650000D02*
X149500000Y-106500000D01*
X125370000Y-112650000D02*
X125650000Y-111850000D01*
%TO.N,Net-(U2-GPIO5)*%
X159660000Y-106500000D02*
X167050000Y-99450000D01*
X170050000Y-99450000D02*
X171630000Y-97350000D01*
X167050000Y-99450000D02*
X170050000Y-99450000D01*
%TO.N,Net-(U1-GPIO6)*%
X150450000Y-108250000D02*
X151250000Y-107450000D01*
X127910000Y-112650000D02*
X132850000Y-108250000D01*
X132850000Y-108250000D02*
X150450000Y-108250000D01*
X151250000Y-107450000D02*
X151250000Y-103450000D01*
X151250000Y-103450000D02*
X149500000Y-101500000D01*
%TO.N,Net-(U2-GPIO6)*%
X159660000Y-101500000D02*
X164050000Y-97450000D01*
X164050000Y-97450000D02*
X169090000Y-97350000D01*
%TO.N,Net-(U2-TX)*%
X178660000Y-119500000D02*
X183850000Y-114650000D01*
X183850000Y-114650000D02*
X187850000Y-114650000D01*
X187850000Y-114650000D02*
X189410000Y-112590000D01*
%TO.N,Net-(U1-RX)*%
X110450000Y-96650000D02*
X118450000Y-88650000D01*
X118450000Y-88650000D02*
X122660000Y-88500000D01*
X110130000Y-97410000D02*
X110450000Y-96650000D01*
%TD*%
%TA.AperFunction,Conductor*%
%TO.N,GND*%
G36*
X191925000Y-78020462D02*
G01*
X191979538Y-78075000D01*
X191999500Y-78149500D01*
X191999500Y-110778414D01*
X191979538Y-110852914D01*
X191925000Y-110907452D01*
X191850500Y-110927414D01*
X191776000Y-110907452D01*
X191745141Y-110883773D01*
X190928418Y-110067050D01*
X190928410Y-110067043D01*
X190854729Y-110017812D01*
X190854728Y-110017812D01*
X190805497Y-109984917D01*
X190805485Y-109984912D01*
X190668913Y-109928342D01*
X190668911Y-109928341D01*
X190668912Y-109928341D01*
X190523921Y-109899500D01*
X190523918Y-109899500D01*
X188263126Y-109899500D01*
X188258769Y-109899436D01*
X188198058Y-109897659D01*
X188190756Y-109898164D01*
X188190755Y-109898153D01*
X188183366Y-109898772D01*
X188183367Y-109898782D01*
X188176081Y-109899499D01*
X188116506Y-109911349D01*
X188112225Y-109912136D01*
X188052289Y-109922246D01*
X188045232Y-109924164D01*
X188045229Y-109924156D01*
X188038084Y-109926210D01*
X188038087Y-109926218D01*
X188031086Y-109928341D01*
X187974959Y-109951589D01*
X187970916Y-109953195D01*
X187914109Y-109974803D01*
X187907554Y-109978064D01*
X187907549Y-109978055D01*
X187900956Y-109981456D01*
X187900961Y-109981465D01*
X187894512Y-109984912D01*
X187894507Y-109984914D01*
X187894505Y-109984916D01*
X187843988Y-110018670D01*
X187840335Y-110021034D01*
X187788836Y-110053308D01*
X187783045Y-110057784D01*
X187783039Y-110057776D01*
X187777231Y-110062402D01*
X187777237Y-110062409D01*
X187771585Y-110067046D01*
X187728593Y-110110038D01*
X187725469Y-110113072D01*
X187681289Y-110154739D01*
X187676489Y-110160253D01*
X187676482Y-110160247D01*
X187671683Y-110165923D01*
X187671690Y-110165929D01*
X187667049Y-110171583D01*
X187633285Y-110222114D01*
X187630812Y-110225699D01*
X186989776Y-111126867D01*
X186930326Y-111176004D01*
X186868361Y-111189500D01*
X186759778Y-111189500D01*
X186672686Y-111203294D01*
X186542043Y-111223985D01*
X186332393Y-111292105D01*
X186135976Y-111392185D01*
X186135975Y-111392186D01*
X185957636Y-111521757D01*
X185957633Y-111521759D01*
X185801759Y-111677633D01*
X185801757Y-111677636D01*
X185720544Y-111789417D01*
X185660604Y-111837955D01*
X185584425Y-111850021D01*
X185512420Y-111822381D01*
X185479456Y-111789417D01*
X185441833Y-111737633D01*
X185398242Y-111677635D01*
X185242365Y-111521758D01*
X185132144Y-111441678D01*
X185064024Y-111392186D01*
X185064023Y-111392185D01*
X184867606Y-111292105D01*
X184657956Y-111223985D01*
X184536990Y-111204826D01*
X184440222Y-111189500D01*
X184219778Y-111189500D01*
X184132686Y-111203294D01*
X184002043Y-111223985D01*
X183792393Y-111292105D01*
X183595976Y-111392185D01*
X183595975Y-111392186D01*
X183417636Y-111521757D01*
X183417633Y-111521759D01*
X183261759Y-111677633D01*
X183261757Y-111677636D01*
X183180544Y-111789417D01*
X183120604Y-111837955D01*
X183044425Y-111850021D01*
X182972420Y-111822381D01*
X182939456Y-111789417D01*
X182901833Y-111737633D01*
X182858242Y-111677635D01*
X182702365Y-111521758D01*
X182592144Y-111441678D01*
X182524024Y-111392186D01*
X182524023Y-111392185D01*
X182327606Y-111292105D01*
X182117956Y-111223985D01*
X181996990Y-111204826D01*
X181900222Y-111189500D01*
X181679778Y-111189500D01*
X181592686Y-111203294D01*
X181462043Y-111223985D01*
X181252393Y-111292105D01*
X181055976Y-111392185D01*
X181055975Y-111392186D01*
X180877636Y-111521757D01*
X180877633Y-111521759D01*
X180721759Y-111677633D01*
X180721757Y-111677636D01*
X180640544Y-111789417D01*
X180580604Y-111837955D01*
X180504425Y-111850021D01*
X180432420Y-111822381D01*
X180399456Y-111789417D01*
X180361833Y-111737633D01*
X180318242Y-111677635D01*
X180162365Y-111521758D01*
X180052144Y-111441678D01*
X179984024Y-111392186D01*
X179984023Y-111392185D01*
X179787606Y-111292105D01*
X179577956Y-111223985D01*
X179456990Y-111204826D01*
X179360222Y-111189500D01*
X179139778Y-111189500D01*
X179052686Y-111203294D01*
X178922043Y-111223985D01*
X178712393Y-111292105D01*
X178515976Y-111392185D01*
X178515975Y-111392186D01*
X178337636Y-111521757D01*
X178337633Y-111521759D01*
X178181759Y-111677633D01*
X178181757Y-111677636D01*
X178100544Y-111789417D01*
X178040604Y-111837955D01*
X177964425Y-111850021D01*
X177892420Y-111822381D01*
X177859456Y-111789417D01*
X177821833Y-111737633D01*
X177778242Y-111677635D01*
X177622365Y-111521758D01*
X177512144Y-111441678D01*
X177444024Y-111392186D01*
X177444023Y-111392185D01*
X177247606Y-111292105D01*
X177037956Y-111223985D01*
X176916990Y-111204826D01*
X176820222Y-111189500D01*
X176599778Y-111189500D01*
X176512686Y-111203294D01*
X176382043Y-111223985D01*
X176172393Y-111292105D01*
X175975976Y-111392185D01*
X175975975Y-111392186D01*
X175797636Y-111521757D01*
X175797633Y-111521759D01*
X175641759Y-111677633D01*
X175641757Y-111677636D01*
X175560544Y-111789417D01*
X175500604Y-111837955D01*
X175424425Y-111850021D01*
X175352420Y-111822381D01*
X175319456Y-111789417D01*
X175281833Y-111737633D01*
X175238242Y-111677635D01*
X175082365Y-111521758D01*
X174972144Y-111441678D01*
X174904024Y-111392186D01*
X174904023Y-111392185D01*
X174707606Y-111292105D01*
X174497956Y-111223985D01*
X174376990Y-111204826D01*
X174280222Y-111189500D01*
X174059778Y-111189500D01*
X173972686Y-111203294D01*
X173842043Y-111223985D01*
X173632393Y-111292105D01*
X173435976Y-111392185D01*
X173435975Y-111392186D01*
X173257636Y-111521757D01*
X173257633Y-111521759D01*
X173101759Y-111677633D01*
X173101757Y-111677636D01*
X173020544Y-111789417D01*
X172960604Y-111837955D01*
X172884425Y-111850021D01*
X172812420Y-111822381D01*
X172779456Y-111789417D01*
X172741833Y-111737633D01*
X172698242Y-111677635D01*
X172542365Y-111521758D01*
X172432144Y-111441678D01*
X172364024Y-111392186D01*
X172364023Y-111392185D01*
X172167606Y-111292105D01*
X171957956Y-111223985D01*
X171836990Y-111204826D01*
X171740222Y-111189500D01*
X171519778Y-111189500D01*
X171432686Y-111203294D01*
X171302043Y-111223985D01*
X171092393Y-111292105D01*
X170895976Y-111392185D01*
X170895975Y-111392186D01*
X170717636Y-111521757D01*
X170717633Y-111521759D01*
X170561759Y-111677633D01*
X170561757Y-111677636D01*
X170480544Y-111789417D01*
X170420604Y-111837955D01*
X170344425Y-111850021D01*
X170272420Y-111822381D01*
X170239456Y-111789417D01*
X170201833Y-111737633D01*
X170158242Y-111677635D01*
X170002365Y-111521758D01*
X169892144Y-111441678D01*
X169824024Y-111392186D01*
X169824023Y-111392185D01*
X169627606Y-111292105D01*
X169417956Y-111223985D01*
X169296990Y-111204826D01*
X169200222Y-111189500D01*
X168979778Y-111189500D01*
X168892686Y-111203294D01*
X168762043Y-111223985D01*
X168552393Y-111292105D01*
X168355976Y-111392185D01*
X168355975Y-111392186D01*
X168177636Y-111521757D01*
X168177633Y-111521759D01*
X168021759Y-111677633D01*
X168021757Y-111677636D01*
X167892186Y-111855975D01*
X167892185Y-111855976D01*
X167792105Y-112052393D01*
X167723986Y-112262042D01*
X167706284Y-112373809D01*
X167674913Y-112444269D01*
X167612515Y-112489604D01*
X167559118Y-112499500D01*
X160710148Y-112499500D01*
X160635648Y-112479538D01*
X160581110Y-112425000D01*
X160561148Y-112350500D01*
X160581110Y-112276000D01*
X160589594Y-112262935D01*
X160686760Y-112129199D01*
X160772547Y-111960832D01*
X160830940Y-111781118D01*
X160860500Y-111594481D01*
X160860500Y-111441968D01*
X160880462Y-111367468D01*
X160905590Y-111335180D01*
X172511167Y-100043018D01*
X172578481Y-100005374D01*
X172627823Y-100001358D01*
X172659414Y-100004072D01*
X172683364Y-100001411D01*
X172699817Y-100000500D01*
X172723915Y-100000500D01*
X172723918Y-100000500D01*
X172758598Y-99993600D01*
X172771196Y-99991651D01*
X172806344Y-99987747D01*
X172809240Y-99986828D01*
X172829316Y-99980464D01*
X172845287Y-99976357D01*
X172868908Y-99971659D01*
X172868908Y-99971658D01*
X172868913Y-99971658D01*
X172901569Y-99958130D01*
X172913558Y-99953755D01*
X172947267Y-99943070D01*
X172968383Y-99931441D01*
X172983234Y-99924304D01*
X173005495Y-99915084D01*
X173034902Y-99895433D01*
X173045786Y-99888817D01*
X173076766Y-99871759D01*
X173095213Y-99856229D01*
X173108372Y-99846342D01*
X173128416Y-99832951D01*
X173153412Y-99807953D01*
X173162804Y-99799333D01*
X173189866Y-99776554D01*
X173204924Y-99757730D01*
X173215904Y-99745462D01*
X173232951Y-99728416D01*
X173252597Y-99699011D01*
X173260115Y-99688741D01*
X173881664Y-98911806D01*
X173965973Y-98806420D01*
X174028100Y-98760716D01*
X174082322Y-98750500D01*
X174280218Y-98750500D01*
X174280222Y-98750500D01*
X174497951Y-98716015D01*
X174497952Y-98716014D01*
X174497956Y-98716014D01*
X174588427Y-98686618D01*
X174707606Y-98647895D01*
X174904022Y-98547815D01*
X175082365Y-98418242D01*
X175238242Y-98262365D01*
X175319456Y-98150583D01*
X175379395Y-98102044D01*
X175455574Y-98089978D01*
X175527579Y-98117618D01*
X175560544Y-98150583D01*
X175641752Y-98262358D01*
X175641757Y-98262364D01*
X175641758Y-98262365D01*
X175797635Y-98418242D01*
X175896259Y-98489896D01*
X175975975Y-98547813D01*
X175975976Y-98547814D01*
X175975978Y-98547815D01*
X176172394Y-98647895D01*
X176259512Y-98676201D01*
X176382043Y-98716014D01*
X176382048Y-98716014D01*
X176382049Y-98716015D01*
X176599778Y-98750500D01*
X176599782Y-98750500D01*
X176820218Y-98750500D01*
X176820222Y-98750500D01*
X177037951Y-98716015D01*
X177037952Y-98716014D01*
X177037956Y-98716014D01*
X177128427Y-98686618D01*
X177247606Y-98647895D01*
X177444022Y-98547815D01*
X177622365Y-98418242D01*
X177778242Y-98262365D01*
X177859456Y-98150583D01*
X177919395Y-98102044D01*
X177995574Y-98089978D01*
X178067579Y-98117618D01*
X178100544Y-98150583D01*
X178181752Y-98262358D01*
X178181757Y-98262364D01*
X178181758Y-98262365D01*
X178337635Y-98418242D01*
X178436259Y-98489896D01*
X178515975Y-98547813D01*
X178515976Y-98547814D01*
X178515978Y-98547815D01*
X178712394Y-98647895D01*
X178799512Y-98676201D01*
X178922043Y-98716014D01*
X178922048Y-98716014D01*
X178922049Y-98716015D01*
X179139778Y-98750500D01*
X179139782Y-98750500D01*
X179360218Y-98750500D01*
X179360222Y-98750500D01*
X179577951Y-98716015D01*
X179577952Y-98716014D01*
X179577956Y-98716014D01*
X179668427Y-98686618D01*
X179787606Y-98647895D01*
X179984022Y-98547815D01*
X180162365Y-98418242D01*
X180318242Y-98262365D01*
X180399456Y-98150583D01*
X180459395Y-98102044D01*
X180535574Y-98089978D01*
X180607579Y-98117618D01*
X180640544Y-98150583D01*
X180721752Y-98262358D01*
X180721757Y-98262364D01*
X180721758Y-98262365D01*
X180877635Y-98418242D01*
X180976259Y-98489896D01*
X181055975Y-98547813D01*
X181055976Y-98547814D01*
X181055978Y-98547815D01*
X181252394Y-98647895D01*
X181339512Y-98676201D01*
X181462043Y-98716014D01*
X181462048Y-98716014D01*
X181462049Y-98716015D01*
X181679778Y-98750500D01*
X181679782Y-98750500D01*
X181900218Y-98750500D01*
X181900222Y-98750500D01*
X182117951Y-98716015D01*
X182117952Y-98716014D01*
X182117956Y-98716014D01*
X182208427Y-98686618D01*
X182327606Y-98647895D01*
X182524022Y-98547815D01*
X182702365Y-98418242D01*
X182858242Y-98262365D01*
X182939456Y-98150583D01*
X182999395Y-98102044D01*
X183075574Y-98089978D01*
X183147579Y-98117618D01*
X183180544Y-98150583D01*
X183261752Y-98262358D01*
X183261757Y-98262364D01*
X183261758Y-98262365D01*
X183417635Y-98418242D01*
X183516259Y-98489896D01*
X183595975Y-98547813D01*
X183595976Y-98547814D01*
X183595978Y-98547815D01*
X183792394Y-98647895D01*
X183879512Y-98676201D01*
X184002043Y-98716014D01*
X184002048Y-98716014D01*
X184002049Y-98716015D01*
X184219778Y-98750500D01*
X184219782Y-98750500D01*
X184440218Y-98750500D01*
X184440222Y-98750500D01*
X184657951Y-98716015D01*
X184657952Y-98716014D01*
X184657956Y-98716014D01*
X184748427Y-98686618D01*
X184867606Y-98647895D01*
X185064022Y-98547815D01*
X185242365Y-98418242D01*
X185398242Y-98262365D01*
X185527815Y-98084022D01*
X185627895Y-97887606D01*
X185673212Y-97748134D01*
X185696014Y-97677956D01*
X185697125Y-97670940D01*
X185730500Y-97460222D01*
X185730500Y-97239778D01*
X185696015Y-97022049D01*
X185696014Y-97022048D01*
X185696014Y-97022043D01*
X185647390Y-96872394D01*
X185627895Y-96812394D01*
X185527815Y-96615978D01*
X185503405Y-96582381D01*
X185441834Y-96497635D01*
X185398242Y-96437635D01*
X185279088Y-96318481D01*
X188009500Y-96318481D01*
X188009500Y-96318482D01*
X188009500Y-96318485D01*
X188009500Y-98381518D01*
X188015318Y-98418249D01*
X188024354Y-98475304D01*
X188081950Y-98588342D01*
X188171658Y-98678050D01*
X188284696Y-98735646D01*
X188378481Y-98750500D01*
X190441518Y-98750499D01*
X190535304Y-98735646D01*
X190648342Y-98678050D01*
X190738050Y-98588342D01*
X190795646Y-98475304D01*
X190810500Y-98381519D01*
X190810499Y-96318482D01*
X190795646Y-96224696D01*
X190738050Y-96111658D01*
X190648342Y-96021950D01*
X190632726Y-96013993D01*
X190535305Y-95964354D01*
X190519673Y-95961878D01*
X190441519Y-95949500D01*
X190441514Y-95949500D01*
X188378481Y-95949500D01*
X188284695Y-95964354D01*
X188284693Y-95964355D01*
X188171657Y-96021950D01*
X188081950Y-96111657D01*
X188024354Y-96224694D01*
X188021514Y-96242624D01*
X188009500Y-96318481D01*
X185279088Y-96318481D01*
X185242365Y-96281758D01*
X185119883Y-96192770D01*
X185064024Y-96152186D01*
X185064023Y-96152185D01*
X184867606Y-96052105D01*
X184657956Y-95983985D01*
X184534006Y-95964354D01*
X184440222Y-95949500D01*
X184219778Y-95949500D01*
X184132686Y-95963294D01*
X184002043Y-95983985D01*
X183792393Y-96052105D01*
X183595976Y-96152185D01*
X183595975Y-96152186D01*
X183417636Y-96281757D01*
X183417633Y-96281759D01*
X183261759Y-96437633D01*
X183261757Y-96437636D01*
X183180544Y-96549417D01*
X183120604Y-96597955D01*
X183044425Y-96610021D01*
X182972420Y-96582381D01*
X182939456Y-96549417D01*
X182901833Y-96497633D01*
X182858242Y-96437635D01*
X182702365Y-96281758D01*
X182579883Y-96192770D01*
X182524024Y-96152186D01*
X182524023Y-96152185D01*
X182327606Y-96052105D01*
X182117956Y-95983985D01*
X181994006Y-95964354D01*
X181900222Y-95949500D01*
X181679778Y-95949500D01*
X181592686Y-95963294D01*
X181462043Y-95983985D01*
X181252393Y-96052105D01*
X181055976Y-96152185D01*
X181055975Y-96152186D01*
X180877636Y-96281757D01*
X180877633Y-96281759D01*
X180721759Y-96437633D01*
X180721757Y-96437636D01*
X180640544Y-96549417D01*
X180580604Y-96597955D01*
X180504425Y-96610021D01*
X180432420Y-96582381D01*
X180399456Y-96549417D01*
X180361833Y-96497633D01*
X180318242Y-96437635D01*
X180162365Y-96281758D01*
X180039883Y-96192770D01*
X179984024Y-96152186D01*
X179984023Y-96152185D01*
X179787606Y-96052105D01*
X179577956Y-95983985D01*
X179454006Y-95964354D01*
X179360222Y-95949500D01*
X179139778Y-95949500D01*
X179052686Y-95963294D01*
X178922043Y-95983985D01*
X178712393Y-96052105D01*
X178515976Y-96152185D01*
X178515975Y-96152186D01*
X178337636Y-96281757D01*
X178337633Y-96281759D01*
X178181759Y-96437633D01*
X178181757Y-96437636D01*
X178100544Y-96549417D01*
X178040604Y-96597955D01*
X177964425Y-96610021D01*
X177892420Y-96582381D01*
X177859456Y-96549417D01*
X177821833Y-96497633D01*
X177778242Y-96437635D01*
X177622365Y-96281758D01*
X177499883Y-96192770D01*
X177444024Y-96152186D01*
X177444023Y-96152185D01*
X177247606Y-96052105D01*
X177037956Y-95983985D01*
X176914006Y-95964354D01*
X176820222Y-95949500D01*
X176599778Y-95949500D01*
X176512686Y-95963294D01*
X176382043Y-95983985D01*
X176172393Y-96052105D01*
X175975976Y-96152185D01*
X175975975Y-96152186D01*
X175797636Y-96281757D01*
X175797633Y-96281759D01*
X175641759Y-96437633D01*
X175641757Y-96437636D01*
X175560544Y-96549417D01*
X175500604Y-96597955D01*
X175424425Y-96610021D01*
X175352420Y-96582381D01*
X175319456Y-96549417D01*
X175281833Y-96497633D01*
X175238242Y-96437635D01*
X175082365Y-96281758D01*
X174959883Y-96192770D01*
X174904024Y-96152186D01*
X174904023Y-96152185D01*
X174707606Y-96052105D01*
X174497956Y-95983985D01*
X174374006Y-95964354D01*
X174280222Y-95949500D01*
X174059778Y-95949500D01*
X173972686Y-95963294D01*
X173842043Y-95983985D01*
X173632393Y-96052105D01*
X173435976Y-96152185D01*
X173435975Y-96152186D01*
X173257636Y-96281757D01*
X173257633Y-96281759D01*
X173101759Y-96437633D01*
X173101757Y-96437636D01*
X173020544Y-96549417D01*
X172960604Y-96597955D01*
X172884425Y-96610021D01*
X172812420Y-96582381D01*
X172779456Y-96549417D01*
X172741833Y-96497633D01*
X172698242Y-96437635D01*
X172542365Y-96281758D01*
X172419883Y-96192770D01*
X172364024Y-96152186D01*
X172364023Y-96152185D01*
X172167606Y-96052105D01*
X171957956Y-95983985D01*
X171834006Y-95964354D01*
X171740222Y-95949500D01*
X171519778Y-95949500D01*
X171432686Y-95963294D01*
X171302043Y-95983985D01*
X171092393Y-96052105D01*
X170895976Y-96152185D01*
X170895975Y-96152186D01*
X170717636Y-96281757D01*
X170717633Y-96281759D01*
X170561759Y-96437633D01*
X170561757Y-96437636D01*
X170480544Y-96549417D01*
X170420604Y-96597955D01*
X170344425Y-96610021D01*
X170272420Y-96582381D01*
X170239456Y-96549417D01*
X170201833Y-96497633D01*
X170158242Y-96437635D01*
X170002365Y-96281758D01*
X169879883Y-96192770D01*
X169824024Y-96152186D01*
X169824023Y-96152185D01*
X169627606Y-96052105D01*
X169417956Y-95983985D01*
X169294006Y-95964354D01*
X169200222Y-95949500D01*
X168979778Y-95949500D01*
X168892686Y-95963294D01*
X168762043Y-95983985D01*
X168552393Y-96052105D01*
X168355976Y-96152185D01*
X168355975Y-96152186D01*
X168177636Y-96281757D01*
X168177633Y-96281759D01*
X168021759Y-96437633D01*
X168021750Y-96437644D01*
X167930456Y-96563300D01*
X167870517Y-96611838D01*
X167812869Y-96624691D01*
X164062131Y-96699111D01*
X164053177Y-96699019D01*
X164006350Y-96697132D01*
X163993951Y-96699083D01*
X163973768Y-96700863D01*
X163961214Y-96701113D01*
X163961205Y-96701114D01*
X163915406Y-96711172D01*
X163906611Y-96712828D01*
X163860316Y-96720113D01*
X163848530Y-96724448D01*
X163829074Y-96730134D01*
X163822954Y-96731478D01*
X163816813Y-96732827D01*
X163773875Y-96751618D01*
X163765578Y-96754956D01*
X163721561Y-96771146D01*
X163721556Y-96771149D01*
X163710853Y-96777693D01*
X163692876Y-96787067D01*
X163681383Y-96792097D01*
X163681379Y-96792099D01*
X163642926Y-96818911D01*
X163635435Y-96823807D01*
X163595436Y-96848264D01*
X163595430Y-96848269D01*
X163586207Y-96856777D01*
X163570410Y-96869474D01*
X163560114Y-96876653D01*
X163527626Y-96910455D01*
X163521234Y-96916717D01*
X159892866Y-100264072D01*
X159824573Y-100299917D01*
X159768532Y-100301725D01*
X159761271Y-100300575D01*
X159754481Y-100299500D01*
X159565519Y-100299500D01*
X159378882Y-100329060D01*
X159199168Y-100387453D01*
X159199163Y-100387455D01*
X159199157Y-100387458D01*
X159030804Y-100473238D01*
X159030799Y-100473241D01*
X158877936Y-100584303D01*
X158877930Y-100584307D01*
X158877927Y-100584310D01*
X158854856Y-100607380D01*
X158788064Y-100645943D01*
X158710936Y-100645943D01*
X158644141Y-100607379D01*
X158605577Y-100540584D01*
X158600500Y-100502020D01*
X158600500Y-98803122D01*
X158620462Y-98728622D01*
X158640294Y-98701756D01*
X158643055Y-98698782D01*
X159048139Y-98262366D01*
X159525452Y-97748134D01*
X159590766Y-97707112D01*
X159634658Y-97700500D01*
X159754476Y-97700500D01*
X159754481Y-97700500D01*
X159941118Y-97670940D01*
X160120832Y-97612547D01*
X160289199Y-97526760D01*
X160442073Y-97415690D01*
X160575690Y-97282073D01*
X160686760Y-97129199D01*
X160772547Y-96960832D01*
X160830940Y-96781118D01*
X160860500Y-96594481D01*
X160860500Y-96405519D01*
X160830940Y-96218882D01*
X160772547Y-96039168D01*
X160686760Y-95870801D01*
X160575690Y-95717927D01*
X160442073Y-95584310D01*
X160289199Y-95473240D01*
X160120832Y-95387453D01*
X159941118Y-95329060D01*
X159754481Y-95299500D01*
X159565519Y-95299500D01*
X159378882Y-95329060D01*
X159199168Y-95387453D01*
X159199163Y-95387455D01*
X159199157Y-95387458D01*
X159030804Y-95473238D01*
X159030799Y-95473241D01*
X158877936Y-95584303D01*
X158877925Y-95584312D01*
X158744312Y-95717925D01*
X158744303Y-95717936D01*
X158633241Y-95870799D01*
X158633238Y-95870804D01*
X158547458Y-96039157D01*
X158547451Y-96039174D01*
X158523754Y-96112105D01*
X158489060Y-96218882D01*
X158459500Y-96405519D01*
X158459500Y-96405523D01*
X158459500Y-96594479D01*
X158461113Y-96604668D01*
X158453046Y-96681373D01*
X158423152Y-96729334D01*
X157458706Y-97768379D01*
X157393393Y-97809401D01*
X157316318Y-97812271D01*
X157248134Y-97776219D01*
X157207112Y-97710906D01*
X157200500Y-97667013D01*
X157200500Y-95211390D01*
X157220462Y-95136890D01*
X157241914Y-95108305D01*
X159505101Y-92746412D01*
X159571058Y-92706433D01*
X159612684Y-92700500D01*
X159754476Y-92700500D01*
X159754481Y-92700500D01*
X159941118Y-92670940D01*
X160120832Y-92612547D01*
X160289199Y-92526760D01*
X160442073Y-92415690D01*
X160575690Y-92282073D01*
X160686760Y-92129199D01*
X160772547Y-91960832D01*
X160830940Y-91781118D01*
X160860500Y-91594481D01*
X160860500Y-91405519D01*
X160830940Y-91218882D01*
X160772547Y-91039168D01*
X160686760Y-90870801D01*
X160575690Y-90717927D01*
X160442073Y-90584310D01*
X160289199Y-90473240D01*
X160120832Y-90387453D01*
X159941118Y-90329060D01*
X159754481Y-90299500D01*
X159565519Y-90299500D01*
X159378882Y-90329060D01*
X159313239Y-90350389D01*
X159199168Y-90387453D01*
X159199163Y-90387455D01*
X159199157Y-90387458D01*
X159030804Y-90473238D01*
X159030799Y-90473241D01*
X158877936Y-90584303D01*
X158877925Y-90584312D01*
X158744312Y-90717925D01*
X158744303Y-90717936D01*
X158633241Y-90870799D01*
X158633238Y-90870804D01*
X158547458Y-91039157D01*
X158547455Y-91039163D01*
X158547453Y-91039168D01*
X158489060Y-91218882D01*
X158459500Y-91405519D01*
X158459500Y-91405523D01*
X158459500Y-91594490D01*
X158459615Y-91595953D01*
X158459500Y-91596573D01*
X158459500Y-91600335D01*
X158458803Y-91600335D01*
X158445555Y-91671788D01*
X158418657Y-91710721D01*
X155914728Y-94323855D01*
X155912507Y-94326124D01*
X155867046Y-94371587D01*
X155862406Y-94377241D01*
X155862130Y-94377015D01*
X155861207Y-94378164D01*
X155861487Y-94378384D01*
X155856972Y-94384130D01*
X155822378Y-94438375D01*
X155820643Y-94441034D01*
X155784914Y-94494507D01*
X155781466Y-94500959D01*
X155781155Y-94500793D01*
X155780480Y-94502089D01*
X155780794Y-94502249D01*
X155777484Y-94508772D01*
X155754135Y-94568725D01*
X155752952Y-94571668D01*
X155728341Y-94631086D01*
X155726218Y-94638087D01*
X155725881Y-94637984D01*
X155725468Y-94639397D01*
X155725808Y-94639493D01*
X155723835Y-94646534D01*
X155712631Y-94709894D01*
X155712044Y-94713015D01*
X155699499Y-94776084D01*
X155698782Y-94783368D01*
X155698425Y-94783332D01*
X155698298Y-94784780D01*
X155698656Y-94784808D01*
X155698094Y-94792111D01*
X155699466Y-94856406D01*
X155699500Y-94859585D01*
X155699500Y-113123921D01*
X155728341Y-113268911D01*
X155728342Y-113268913D01*
X155784916Y-113405495D01*
X155802014Y-113431084D01*
X155802015Y-113431087D01*
X155802016Y-113431087D01*
X155867048Y-113528416D01*
X157571584Y-115232952D01*
X157645270Y-115282186D01*
X157663584Y-115294423D01*
X157694500Y-115315081D01*
X157694501Y-115315081D01*
X157694505Y-115315084D01*
X157726513Y-115328342D01*
X157831088Y-115371659D01*
X157933627Y-115392055D01*
X157976082Y-115400500D01*
X157976083Y-115400500D01*
X158123918Y-115400500D01*
X170020656Y-115400500D01*
X170030369Y-115400817D01*
X170033368Y-115401012D01*
X170074835Y-115403722D01*
X170089570Y-115401779D01*
X170109049Y-115400500D01*
X170123915Y-115400500D01*
X170123918Y-115400500D01*
X170123921Y-115400499D01*
X170123924Y-115400499D01*
X170167633Y-115391804D01*
X170177188Y-115390224D01*
X170221401Y-115384395D01*
X170235474Y-115379614D01*
X170254343Y-115374556D01*
X170260365Y-115373358D01*
X170268913Y-115371658D01*
X170310096Y-115354598D01*
X170319142Y-115351192D01*
X170361381Y-115336845D01*
X170374256Y-115329406D01*
X170391765Y-115320770D01*
X170405495Y-115315084D01*
X170442585Y-115290300D01*
X170450776Y-115285206D01*
X170489394Y-115262900D01*
X170500570Y-115253093D01*
X170516051Y-115241212D01*
X170528416Y-115232951D01*
X170559949Y-115201416D01*
X170566994Y-115194817D01*
X170600523Y-115165402D01*
X170609569Y-115153607D01*
X170622438Y-115138928D01*
X170632951Y-115128416D01*
X170657714Y-115091354D01*
X170663348Y-115083489D01*
X171456930Y-114048819D01*
X171518109Y-114001854D01*
X171575158Y-113990500D01*
X171740218Y-113990500D01*
X171740222Y-113990500D01*
X171957951Y-113956015D01*
X171957952Y-113956014D01*
X171957956Y-113956014D01*
X172050812Y-113925843D01*
X172167606Y-113887895D01*
X172364022Y-113787815D01*
X172542365Y-113658242D01*
X172698242Y-113502365D01*
X172779456Y-113390583D01*
X172839395Y-113342044D01*
X172915574Y-113329978D01*
X172987579Y-113357618D01*
X173020544Y-113390583D01*
X173101752Y-113502358D01*
X173101757Y-113502364D01*
X173101758Y-113502365D01*
X173257635Y-113658242D01*
X173356822Y-113730305D01*
X173435975Y-113787813D01*
X173435976Y-113787814D01*
X173435978Y-113787815D01*
X173632394Y-113887895D01*
X173719512Y-113916201D01*
X173842043Y-113956014D01*
X173842048Y-113956014D01*
X173842049Y-113956015D01*
X174059778Y-113990500D01*
X174059782Y-113990500D01*
X174280218Y-113990500D01*
X174280222Y-113990500D01*
X174497951Y-113956015D01*
X174497952Y-113956014D01*
X174497956Y-113956014D01*
X174590812Y-113925843D01*
X174707606Y-113887895D01*
X174904022Y-113787815D01*
X175082365Y-113658242D01*
X175238242Y-113502365D01*
X175319456Y-113390583D01*
X175379395Y-113342044D01*
X175455574Y-113329978D01*
X175527579Y-113357618D01*
X175560544Y-113390583D01*
X175641752Y-113502358D01*
X175641757Y-113502364D01*
X175641758Y-113502365D01*
X175797635Y-113658242D01*
X175896822Y-113730305D01*
X175975975Y-113787813D01*
X175975976Y-113787814D01*
X175975978Y-113787815D01*
X176172394Y-113887895D01*
X176259512Y-113916201D01*
X176382043Y-113956014D01*
X176382048Y-113956014D01*
X176382049Y-113956015D01*
X176599778Y-113990500D01*
X176599782Y-113990500D01*
X176820218Y-113990500D01*
X176820222Y-113990500D01*
X177037951Y-113956015D01*
X177037952Y-113956014D01*
X177037956Y-113956014D01*
X177130812Y-113925843D01*
X177247606Y-113887895D01*
X177444022Y-113787815D01*
X177622365Y-113658242D01*
X177778242Y-113502365D01*
X177859456Y-113390583D01*
X177919395Y-113342044D01*
X177995574Y-113329978D01*
X178067579Y-113357618D01*
X178100544Y-113390583D01*
X178181752Y-113502358D01*
X178181757Y-113502364D01*
X178181758Y-113502365D01*
X178337635Y-113658242D01*
X178436822Y-113730305D01*
X178515975Y-113787813D01*
X178515976Y-113787814D01*
X178515978Y-113787815D01*
X178712394Y-113887895D01*
X178799512Y-113916201D01*
X178922043Y-113956014D01*
X178922048Y-113956014D01*
X178922049Y-113956015D01*
X179139778Y-113990500D01*
X179139782Y-113990500D01*
X179360218Y-113990500D01*
X179360222Y-113990500D01*
X179577951Y-113956015D01*
X179577952Y-113956014D01*
X179577956Y-113956014D01*
X179670812Y-113925843D01*
X179787606Y-113887895D01*
X179984022Y-113787815D01*
X180162365Y-113658242D01*
X180318242Y-113502365D01*
X180399456Y-113390583D01*
X180459395Y-113342044D01*
X180535574Y-113329978D01*
X180607579Y-113357618D01*
X180640544Y-113390583D01*
X180721752Y-113502358D01*
X180721757Y-113502364D01*
X180721758Y-113502365D01*
X180877635Y-113658242D01*
X180976822Y-113730305D01*
X181055975Y-113787813D01*
X181055976Y-113787814D01*
X181055978Y-113787815D01*
X181252394Y-113887895D01*
X181339512Y-113916201D01*
X181462043Y-113956014D01*
X181462048Y-113956014D01*
X181462049Y-113956015D01*
X181679778Y-113990500D01*
X181679782Y-113990500D01*
X181900218Y-113990500D01*
X181900222Y-113990500D01*
X182117951Y-113956015D01*
X182117952Y-113956014D01*
X182117956Y-113956014D01*
X182210812Y-113925843D01*
X182327606Y-113887895D01*
X182524022Y-113787815D01*
X182702365Y-113658242D01*
X182858242Y-113502365D01*
X182939456Y-113390583D01*
X182999395Y-113342044D01*
X183075574Y-113329978D01*
X183147579Y-113357618D01*
X183180544Y-113390583D01*
X183261752Y-113502358D01*
X183261759Y-113502366D01*
X183417633Y-113658240D01*
X183417641Y-113658247D01*
X183516822Y-113730305D01*
X183565361Y-113790244D01*
X183577427Y-113866423D01*
X183549787Y-113938428D01*
X183499490Y-113982250D01*
X183494507Y-113984913D01*
X183445701Y-114017523D01*
X183441468Y-114020250D01*
X183391590Y-114051189D01*
X183391579Y-114051198D01*
X183391085Y-114051660D01*
X183372151Y-114066670D01*
X183371583Y-114067049D01*
X183330078Y-114108553D01*
X183326454Y-114112056D01*
X178885441Y-118262135D01*
X178817379Y-118298417D01*
X178760413Y-118300439D01*
X178754481Y-118299500D01*
X178565519Y-118299500D01*
X178399358Y-118325817D01*
X178378882Y-118329060D01*
X178203034Y-118386197D01*
X178199168Y-118387453D01*
X178199163Y-118387455D01*
X178199157Y-118387458D01*
X178030804Y-118473238D01*
X178030799Y-118473241D01*
X177877936Y-118584303D01*
X177877925Y-118584312D01*
X177744312Y-118717925D01*
X177744303Y-118717936D01*
X177633241Y-118870799D01*
X177633238Y-118870804D01*
X177547458Y-119039157D01*
X177547455Y-119039163D01*
X177547453Y-119039168D01*
X177489060Y-119218882D01*
X177459500Y-119405519D01*
X177459500Y-119594481D01*
X177489060Y-119781118D01*
X177547453Y-119960832D01*
X177633240Y-120129199D01*
X177744310Y-120282073D01*
X177877927Y-120415690D01*
X178030801Y-120526760D01*
X178199168Y-120612547D01*
X178378882Y-120670940D01*
X178565519Y-120700500D01*
X178565524Y-120700500D01*
X178754476Y-120700500D01*
X178754481Y-120700500D01*
X178941118Y-120670940D01*
X179120832Y-120612547D01*
X179289199Y-120526760D01*
X179442073Y-120415690D01*
X179575690Y-120282073D01*
X179686760Y-120129199D01*
X179772547Y-119960832D01*
X179830940Y-119781118D01*
X179860500Y-119594481D01*
X179860500Y-119470029D01*
X179880462Y-119395529D01*
X179907767Y-119361165D01*
X180177725Y-119108892D01*
X184103138Y-115440635D01*
X184171200Y-115404354D01*
X184204871Y-115400500D01*
X186672708Y-115400500D01*
X186747208Y-115420462D01*
X186801746Y-115475000D01*
X186821708Y-115549500D01*
X186801746Y-115624000D01*
X186775969Y-115656916D01*
X178868711Y-123258318D01*
X178801169Y-123295557D01*
X178760335Y-123298906D01*
X178760335Y-123299500D01*
X178754481Y-123299500D01*
X178565519Y-123299500D01*
X178378882Y-123329060D01*
X178199168Y-123387453D01*
X178199163Y-123387455D01*
X178199157Y-123387458D01*
X178030804Y-123473238D01*
X178030799Y-123473241D01*
X177877936Y-123584303D01*
X177877925Y-123584312D01*
X177744312Y-123717925D01*
X177744303Y-123717936D01*
X177633241Y-123870799D01*
X177633238Y-123870804D01*
X177547458Y-124039157D01*
X177547455Y-124039163D01*
X177547453Y-124039168D01*
X177489060Y-124218882D01*
X177459500Y-124405519D01*
X177459500Y-124594481D01*
X177489060Y-124781118D01*
X177547453Y-124960832D01*
X177633240Y-125129199D01*
X177744310Y-125282073D01*
X177877927Y-125415690D01*
X178030801Y-125526760D01*
X178199168Y-125612547D01*
X178378882Y-125670940D01*
X178565519Y-125700500D01*
X178565524Y-125700500D01*
X178754476Y-125700500D01*
X178754481Y-125700500D01*
X178941118Y-125670940D01*
X179120832Y-125612547D01*
X179289199Y-125526760D01*
X179442073Y-125415690D01*
X179575690Y-125282073D01*
X179686760Y-125129199D01*
X179772547Y-124960832D01*
X179830940Y-124781118D01*
X179860500Y-124594481D01*
X179860500Y-124450423D01*
X179880462Y-124375923D01*
X179906236Y-124343010D01*
X186678107Y-117833078D01*
X187708976Y-116842084D01*
X187776518Y-116804845D01*
X187812237Y-116800500D01*
X189123914Y-116800500D01*
X189123917Y-116800500D01*
X189123918Y-116800500D01*
X189268913Y-116771658D01*
X189405495Y-116715084D01*
X189454729Y-116682186D01*
X189528416Y-116632952D01*
X191745141Y-114416225D01*
X191811936Y-114377662D01*
X191889064Y-114377662D01*
X191955859Y-114416226D01*
X191994423Y-114483021D01*
X191999500Y-114521585D01*
X191999500Y-131850500D01*
X191979538Y-131925000D01*
X191925000Y-131979538D01*
X191850500Y-131999500D01*
X105149500Y-131999500D01*
X105075000Y-131979538D01*
X105020462Y-131925000D01*
X105000500Y-131850500D01*
X105000500Y-131467937D01*
X143714968Y-131467937D01*
X153284070Y-131467937D01*
X153284070Y-128878706D01*
X187149500Y-128878706D01*
X187149500Y-129121293D01*
X187181160Y-129361781D01*
X187181161Y-129361787D01*
X187181162Y-129361789D01*
X187243946Y-129596100D01*
X187336776Y-129820212D01*
X187458064Y-130030289D01*
X187605735Y-130222738D01*
X187777262Y-130394265D01*
X187969711Y-130541936D01*
X188179788Y-130663224D01*
X188403900Y-130756054D01*
X188638211Y-130818838D01*
X188638217Y-130818838D01*
X188638218Y-130818839D01*
X188703600Y-130827446D01*
X188878712Y-130850500D01*
X189121288Y-130850500D01*
X189361789Y-130818838D01*
X189596100Y-130756054D01*
X189820212Y-130663224D01*
X190030289Y-130541936D01*
X190222738Y-130394265D01*
X190394265Y-130222738D01*
X190541936Y-130030289D01*
X190663224Y-129820212D01*
X190756054Y-129596100D01*
X190818838Y-129361789D01*
X190850500Y-129121288D01*
X190850500Y-128878712D01*
X190818838Y-128638211D01*
X190756054Y-128403900D01*
X190663224Y-128179788D01*
X190541936Y-127969711D01*
X190394265Y-127777262D01*
X190222738Y-127605735D01*
X190030289Y-127458064D01*
X189847570Y-127352571D01*
X189820216Y-127336778D01*
X189820214Y-127336777D01*
X189820212Y-127336776D01*
X189688123Y-127282063D01*
X189596103Y-127243947D01*
X189596101Y-127243946D01*
X189596100Y-127243946D01*
X189361789Y-127181162D01*
X189361787Y-127181161D01*
X189361781Y-127181160D01*
X189121293Y-127149500D01*
X189121288Y-127149500D01*
X188878712Y-127149500D01*
X188878706Y-127149500D01*
X188638218Y-127181160D01*
X188403896Y-127243947D01*
X188179783Y-127336778D01*
X187969712Y-127458063D01*
X187925529Y-127491966D01*
X187777262Y-127605735D01*
X187777260Y-127605736D01*
X187777256Y-127605740D01*
X187605740Y-127777256D01*
X187605736Y-127777260D01*
X187605735Y-127777262D01*
X187599303Y-127785645D01*
X187458063Y-127969712D01*
X187336778Y-128179783D01*
X187243947Y-128403896D01*
X187181160Y-128638218D01*
X187149500Y-128878706D01*
X153284070Y-128878706D01*
X153284070Y-128351339D01*
X143714968Y-128351339D01*
X143714968Y-131467937D01*
X105000500Y-131467937D01*
X105000500Y-128878706D01*
X106149500Y-128878706D01*
X106149500Y-129121293D01*
X106181160Y-129361781D01*
X106181161Y-129361787D01*
X106181162Y-129361789D01*
X106243946Y-129596100D01*
X106336776Y-129820212D01*
X106458064Y-130030289D01*
X106605735Y-130222738D01*
X106777262Y-130394265D01*
X106969711Y-130541936D01*
X107179788Y-130663224D01*
X107403900Y-130756054D01*
X107638211Y-130818838D01*
X107638217Y-130818838D01*
X107638218Y-130818839D01*
X107703600Y-130827446D01*
X107878712Y-130850500D01*
X108121288Y-130850500D01*
X108361789Y-130818838D01*
X108596100Y-130756054D01*
X108820212Y-130663224D01*
X109030289Y-130541936D01*
X109222738Y-130394265D01*
X109394265Y-130222738D01*
X109541936Y-130030289D01*
X109663224Y-129820212D01*
X109756054Y-129596100D01*
X109818838Y-129361789D01*
X109850500Y-129121288D01*
X109850500Y-128878712D01*
X109818838Y-128638211D01*
X109756054Y-128403900D01*
X109734283Y-128351339D01*
X109732337Y-128346640D01*
X109700145Y-128268925D01*
X109663224Y-128179788D01*
X109541936Y-127969711D01*
X109394265Y-127777262D01*
X109222738Y-127605735D01*
X109030289Y-127458064D01*
X108847570Y-127352571D01*
X108820216Y-127336778D01*
X108820214Y-127336777D01*
X108820212Y-127336776D01*
X108688123Y-127282063D01*
X108596103Y-127243947D01*
X108596101Y-127243946D01*
X108596100Y-127243946D01*
X108361789Y-127181162D01*
X108361787Y-127181161D01*
X108361781Y-127181160D01*
X108121293Y-127149500D01*
X108121288Y-127149500D01*
X107878712Y-127149500D01*
X107878706Y-127149500D01*
X107638218Y-127181160D01*
X107403896Y-127243947D01*
X107179783Y-127336778D01*
X106969712Y-127458063D01*
X106925529Y-127491966D01*
X106777262Y-127605735D01*
X106777260Y-127605736D01*
X106777256Y-127605740D01*
X106605740Y-127777256D01*
X106605736Y-127777260D01*
X106605735Y-127777262D01*
X106599303Y-127785645D01*
X106458063Y-127969712D01*
X106336778Y-128179783D01*
X106243947Y-128403896D01*
X106181160Y-128638218D01*
X106149500Y-128878706D01*
X105000500Y-128878706D01*
X105000500Y-125684306D01*
X111099500Y-125684306D01*
X111099500Y-127315694D01*
X111101159Y-127336776D01*
X111102402Y-127352571D01*
X111120742Y-127415696D01*
X111142902Y-127491971D01*
X111148257Y-127510400D01*
X111157931Y-127526758D01*
X111231919Y-127651865D01*
X111348135Y-127768081D01*
X111489602Y-127851744D01*
X111647428Y-127897597D01*
X111647427Y-127897597D01*
X111647431Y-127897598D01*
X111684306Y-127900500D01*
X111684313Y-127900500D01*
X113315687Y-127900500D01*
X113315694Y-127900500D01*
X113352569Y-127897598D01*
X113510398Y-127851744D01*
X113651865Y-127768081D01*
X113768081Y-127651865D01*
X113851744Y-127510398D01*
X113897598Y-127352569D01*
X113900500Y-127315694D01*
X113900500Y-125684306D01*
X113897598Y-125647431D01*
X113851744Y-125489602D01*
X113769617Y-125350733D01*
X113748877Y-125276447D01*
X113749310Y-125263427D01*
X113751741Y-125231921D01*
X114024719Y-121693319D01*
X114094555Y-120788040D01*
X114120189Y-120715296D01*
X114178760Y-120665114D01*
X114243114Y-120650500D01*
X118350500Y-120650500D01*
X118425000Y-120670462D01*
X118479538Y-120725000D01*
X118499500Y-120799500D01*
X118499500Y-120915694D01*
X118501757Y-120944374D01*
X118502402Y-120952571D01*
X118508627Y-120973997D01*
X118548256Y-121110398D01*
X118631919Y-121251865D01*
X118748135Y-121368081D01*
X118889602Y-121451744D01*
X119047428Y-121497597D01*
X119047427Y-121497597D01*
X119047431Y-121497598D01*
X119084306Y-121500500D01*
X120597368Y-121500500D01*
X120671868Y-121520462D01*
X120711930Y-121554229D01*
X123146545Y-124481930D01*
X123275459Y-124636953D01*
X123307745Y-124706999D01*
X123309858Y-124728912D01*
X123341515Y-126153522D01*
X123334262Y-126202867D01*
X123329060Y-126218877D01*
X123312637Y-126322569D01*
X123299500Y-126405519D01*
X123299500Y-126594481D01*
X123329060Y-126781118D01*
X123387453Y-126960832D01*
X123473240Y-127129199D01*
X123584310Y-127282073D01*
X123717927Y-127415690D01*
X123870801Y-127526760D01*
X124039168Y-127612547D01*
X124218882Y-127670940D01*
X124405519Y-127700500D01*
X124405524Y-127700500D01*
X124594476Y-127700500D01*
X124594481Y-127700500D01*
X124781118Y-127670940D01*
X124960832Y-127612547D01*
X125129199Y-127526760D01*
X125282073Y-127415690D01*
X125415690Y-127282073D01*
X125526760Y-127129199D01*
X125612547Y-126960832D01*
X125670940Y-126781118D01*
X125700500Y-126594481D01*
X125700500Y-126405519D01*
X125670940Y-126218882D01*
X125649366Y-126152488D01*
X125642111Y-126109755D01*
X125640543Y-126039174D01*
X125601861Y-124298521D01*
X125602451Y-124281575D01*
X125603959Y-124265183D01*
X125599871Y-124202769D01*
X125599591Y-124196347D01*
X125598204Y-124133919D01*
X125598204Y-124133916D01*
X125595270Y-124117733D01*
X125593201Y-124100908D01*
X125592126Y-124084478D01*
X125578327Y-124023480D01*
X125577053Y-124017219D01*
X125565909Y-123955728D01*
X125565909Y-123955727D01*
X125560480Y-123940201D01*
X125555805Y-123923909D01*
X125552172Y-123907847D01*
X125529008Y-123849777D01*
X125526762Y-123843771D01*
X125506139Y-123784790D01*
X125506138Y-123784788D01*
X125506136Y-123784782D01*
X125498338Y-123770284D01*
X125491174Y-123754927D01*
X125485077Y-123739642D01*
X125472158Y-123717925D01*
X125453132Y-123685940D01*
X125449963Y-123680341D01*
X125420360Y-123625298D01*
X125420359Y-123625297D01*
X125410388Y-123612195D01*
X125400904Y-123598139D01*
X125392496Y-123584004D01*
X125392495Y-123584002D01*
X125352535Y-123535948D01*
X125348532Y-123530917D01*
X125310689Y-123481192D01*
X125310685Y-123481188D01*
X125298793Y-123469813D01*
X125287221Y-123457408D01*
X125167499Y-123313439D01*
X123860659Y-121741922D01*
X122534936Y-120147697D01*
X122502650Y-120077651D01*
X122500500Y-120052428D01*
X122500500Y-118084313D01*
X122500500Y-118084306D01*
X122497598Y-118047431D01*
X122451744Y-117889602D01*
X122368081Y-117748135D01*
X122251865Y-117631919D01*
X122110398Y-117548256D01*
X122044279Y-117529046D01*
X121952571Y-117502402D01*
X121952572Y-117502402D01*
X121941506Y-117501531D01*
X121915694Y-117499500D01*
X119084306Y-117499500D01*
X119059722Y-117501434D01*
X119047428Y-117502402D01*
X118889599Y-117548257D01*
X118748136Y-117631918D01*
X118748133Y-117631920D01*
X118631920Y-117748133D01*
X118631918Y-117748136D01*
X118548257Y-117889599D01*
X118502402Y-118047428D01*
X118499500Y-118084312D01*
X118499500Y-118200500D01*
X118479538Y-118275000D01*
X118425000Y-118329538D01*
X118350500Y-118349500D01*
X113887559Y-118349500D01*
X113813059Y-118329538D01*
X113799978Y-118321043D01*
X113774026Y-118302187D01*
X113774023Y-118302185D01*
X113577606Y-118202105D01*
X113367956Y-118133985D01*
X113246990Y-118114826D01*
X113150222Y-118099500D01*
X112929778Y-118099500D01*
X112842686Y-118113294D01*
X112712043Y-118133985D01*
X112502393Y-118202105D01*
X112305976Y-118302185D01*
X112305975Y-118302186D01*
X112127636Y-118431757D01*
X112127633Y-118431759D01*
X111971759Y-118587633D01*
X111971757Y-118587636D01*
X111842186Y-118765975D01*
X111842185Y-118765976D01*
X111742105Y-118962393D01*
X111673985Y-119172043D01*
X111666567Y-119218882D01*
X111639500Y-119389778D01*
X111639500Y-119610222D01*
X111673985Y-119827951D01*
X111694508Y-119891116D01*
X111742105Y-120037606D01*
X111812108Y-120174994D01*
X111828144Y-120250437D01*
X111827907Y-120254099D01*
X111454447Y-125095257D01*
X111428813Y-125168001D01*
X111381738Y-125212046D01*
X111348138Y-125231917D01*
X111348133Y-125231921D01*
X111231920Y-125348133D01*
X111231918Y-125348136D01*
X111148257Y-125489599D01*
X111102402Y-125647428D01*
X111102402Y-125647431D01*
X111099500Y-125684306D01*
X105000500Y-125684306D01*
X105000500Y-111618481D01*
X106189500Y-111618481D01*
X106189500Y-111618482D01*
X106189500Y-111618485D01*
X106189500Y-113681518D01*
X106204354Y-113775304D01*
X106261950Y-113888342D01*
X106351658Y-113978050D01*
X106437518Y-114021798D01*
X106494835Y-114073405D01*
X106518655Y-114146520D01*
X106587544Y-115421876D01*
X106765440Y-118715354D01*
X106749525Y-118790822D01*
X106749417Y-118791035D01*
X106662105Y-118962393D01*
X106593985Y-119172043D01*
X106586567Y-119218882D01*
X106559500Y-119389778D01*
X106559500Y-119610222D01*
X106574826Y-119706990D01*
X106593985Y-119827956D01*
X106662105Y-120037606D01*
X106762185Y-120234023D01*
X106762186Y-120234024D01*
X106805864Y-120294141D01*
X106891758Y-120412365D01*
X107047635Y-120568242D01*
X107160854Y-120650500D01*
X107225975Y-120697813D01*
X107225976Y-120697814D01*
X107225978Y-120697815D01*
X107422394Y-120797895D01*
X107505807Y-120824997D01*
X107632043Y-120866014D01*
X107632048Y-120866014D01*
X107632049Y-120866015D01*
X107849778Y-120900500D01*
X107849782Y-120900500D01*
X108070218Y-120900500D01*
X108070222Y-120900500D01*
X108287951Y-120866015D01*
X108287952Y-120866014D01*
X108287956Y-120866014D01*
X108368556Y-120839825D01*
X108497606Y-120797895D01*
X108694022Y-120697815D01*
X108872365Y-120568242D01*
X109028242Y-120412365D01*
X109157815Y-120234022D01*
X109257895Y-120037606D01*
X109305495Y-119891107D01*
X109326014Y-119827956D01*
X109326015Y-119827950D01*
X109360500Y-119610222D01*
X109360500Y-119389778D01*
X109326015Y-119172049D01*
X109326014Y-119172048D01*
X109326014Y-119172043D01*
X109282836Y-119039157D01*
X109257895Y-118962394D01*
X109157815Y-118765978D01*
X109145843Y-118749500D01*
X109091544Y-118674763D01*
X109063904Y-118602757D01*
X109063305Y-118595219D01*
X109062895Y-118587636D01*
X108985650Y-117157535D01*
X109001565Y-117082068D01*
X109053082Y-117024668D01*
X109126397Y-117000717D01*
X109134433Y-117000500D01*
X122115990Y-117000500D01*
X122190490Y-117020462D01*
X122220757Y-117043553D01*
X132154084Y-126866204D01*
X132191024Y-126926106D01*
X132214781Y-126999223D01*
X132307714Y-127181611D01*
X132428028Y-127347212D01*
X132428035Y-127347220D01*
X132572779Y-127491964D01*
X132572787Y-127491971D01*
X132738387Y-127612285D01*
X132738390Y-127612287D01*
X132920781Y-127705220D01*
X133115466Y-127768477D01*
X133317648Y-127800500D01*
X133317653Y-127800500D01*
X133522347Y-127800500D01*
X133522352Y-127800500D01*
X133724534Y-127768477D01*
X133919219Y-127705220D01*
X134101610Y-127612287D01*
X134267219Y-127491966D01*
X134407352Y-127351832D01*
X134474144Y-127313270D01*
X134551273Y-127313270D01*
X134618068Y-127351834D01*
X134656632Y-127418628D01*
X134659875Y-127433884D01*
X134674354Y-127525305D01*
X134674355Y-127525306D01*
X134731950Y-127638342D01*
X134821658Y-127728050D01*
X134934696Y-127785646D01*
X135028481Y-127800500D01*
X136891518Y-127800499D01*
X136985304Y-127785646D01*
X137098342Y-127728050D01*
X137188050Y-127638342D01*
X137245646Y-127525304D01*
X137260500Y-127431519D01*
X137260500Y-127399500D01*
X137280462Y-127325000D01*
X137335000Y-127270462D01*
X137409500Y-127250500D01*
X137491019Y-127250500D01*
X137565519Y-127270462D01*
X137596377Y-127294141D01*
X137717917Y-127415681D01*
X137717921Y-127415684D01*
X137717927Y-127415690D01*
X137870801Y-127526760D01*
X138039168Y-127612547D01*
X138218882Y-127670940D01*
X138405519Y-127700500D01*
X138405524Y-127700500D01*
X138594476Y-127700500D01*
X138594481Y-127700500D01*
X138781118Y-127670940D01*
X138960832Y-127612547D01*
X139129199Y-127526760D01*
X139282073Y-127415690D01*
X139415690Y-127282073D01*
X139526760Y-127129199D01*
X139612547Y-126960832D01*
X139670940Y-126781118D01*
X139700500Y-126594481D01*
X139700500Y-126405519D01*
X139670940Y-126218882D01*
X139612547Y-126039168D01*
X139526760Y-125870801D01*
X139415690Y-125717927D01*
X139282073Y-125584310D01*
X139129199Y-125473240D01*
X139016262Y-125415696D01*
X138960842Y-125387458D01*
X138960841Y-125387457D01*
X138960832Y-125387453D01*
X138781118Y-125329060D01*
X138594481Y-125299500D01*
X138405519Y-125299500D01*
X138218882Y-125329060D01*
X138039168Y-125387453D01*
X138039163Y-125387455D01*
X138039157Y-125387458D01*
X137870804Y-125473238D01*
X137870799Y-125473241D01*
X137717936Y-125584303D01*
X137717917Y-125584318D01*
X137596377Y-125705859D01*
X137529582Y-125744423D01*
X137491019Y-125749500D01*
X137409499Y-125749500D01*
X137334999Y-125729538D01*
X137280461Y-125675000D01*
X137260499Y-125600500D01*
X137260499Y-125568481D01*
X137258146Y-125553628D01*
X137245646Y-125474696D01*
X137188050Y-125361658D01*
X137098342Y-125271950D01*
X137065480Y-125255206D01*
X136985305Y-125214354D01*
X136969673Y-125211878D01*
X136891519Y-125199500D01*
X136891514Y-125199500D01*
X135028481Y-125199500D01*
X134934695Y-125214354D01*
X134934693Y-125214355D01*
X134821657Y-125271950D01*
X134731950Y-125361657D01*
X134674354Y-125474694D01*
X134659875Y-125566115D01*
X134628504Y-125636575D01*
X134566106Y-125681910D01*
X134489400Y-125689972D01*
X134418940Y-125658601D01*
X134407350Y-125648165D01*
X134267220Y-125508035D01*
X134267212Y-125508028D01*
X134101611Y-125387714D01*
X134101612Y-125387714D01*
X134101610Y-125387713D01*
X134023930Y-125348133D01*
X133919221Y-125294780D01*
X133831023Y-125266123D01*
X133772300Y-125230363D01*
X132970283Y-124437282D01*
X127844769Y-119368876D01*
X131199500Y-119368876D01*
X131199500Y-119631123D01*
X131233728Y-119891107D01*
X131233728Y-119891110D01*
X131301600Y-120144415D01*
X131301600Y-120144416D01*
X131345516Y-120250437D01*
X131399812Y-120381519D01*
X131401959Y-120386701D01*
X131453115Y-120475306D01*
X131532351Y-120612548D01*
X131533078Y-120613806D01*
X131533078Y-120613807D01*
X131692715Y-120821848D01*
X131878151Y-121007284D01*
X131980962Y-121086174D01*
X132086197Y-121166924D01*
X132313303Y-121298043D01*
X132512891Y-121380715D01*
X132555583Y-121398399D01*
X132643332Y-121421910D01*
X132808884Y-121466270D01*
X132808890Y-121466270D01*
X132808891Y-121466271D01*
X132845834Y-121471134D01*
X133068877Y-121500499D01*
X133068878Y-121500500D01*
X133068880Y-121500500D01*
X133331122Y-121500500D01*
X133331122Y-121500499D01*
X133591108Y-121466271D01*
X133591110Y-121466271D01*
X133591111Y-121466270D01*
X133591116Y-121466270D01*
X133844415Y-121398399D01*
X133844416Y-121398399D01*
X133844417Y-121398398D01*
X133844419Y-121398398D01*
X134086697Y-121298043D01*
X134313803Y-121166924D01*
X134521848Y-121007284D01*
X134521849Y-121007284D01*
X134613446Y-120915687D01*
X134707282Y-120821851D01*
X134794034Y-120708793D01*
X134855224Y-120661842D01*
X134912243Y-120650500D01*
X136325326Y-120650500D01*
X136399826Y-120670462D01*
X136410965Y-120677696D01*
X136411656Y-120678048D01*
X136411658Y-120678050D01*
X136524696Y-120735646D01*
X136618481Y-120750500D01*
X138381518Y-120750499D01*
X138475304Y-120735646D01*
X138588342Y-120678050D01*
X138678050Y-120588342D01*
X138735646Y-120475304D01*
X138750500Y-120381519D01*
X138750499Y-118618482D01*
X138750499Y-118618481D01*
X163249500Y-118618481D01*
X163249500Y-118618482D01*
X163249500Y-118618485D01*
X163249500Y-120381518D01*
X163264354Y-120475304D01*
X163321950Y-120588342D01*
X163411658Y-120678050D01*
X163524696Y-120735646D01*
X163618481Y-120750500D01*
X163688793Y-120750499D01*
X163763290Y-120770460D01*
X163817829Y-120824997D01*
X163837792Y-120899497D01*
X163817831Y-120973997D01*
X163776373Y-121020042D01*
X163685358Y-121086169D01*
X163685352Y-121086174D01*
X163546174Y-121225352D01*
X163546165Y-121225363D01*
X163430477Y-121384593D01*
X163430474Y-121384598D01*
X163341121Y-121559963D01*
X163341117Y-121559972D01*
X163341116Y-121559975D01*
X163280291Y-121747174D01*
X163249500Y-121941583D01*
X163249500Y-122138417D01*
X163280291Y-122332826D01*
X163341116Y-122520025D01*
X163341119Y-122520030D01*
X163341121Y-122520036D01*
X163425179Y-122685010D01*
X163430476Y-122695405D01*
X163546172Y-122854646D01*
X163685354Y-122993828D01*
X163844595Y-123109524D01*
X164019975Y-123198884D01*
X164207174Y-123259709D01*
X164401583Y-123290500D01*
X164401588Y-123290500D01*
X164598412Y-123290500D01*
X164598417Y-123290500D01*
X164792826Y-123259709D01*
X164980025Y-123198884D01*
X165155405Y-123109524D01*
X165314646Y-122993828D01*
X165338267Y-122970205D01*
X165405058Y-122931641D01*
X165463627Y-122927912D01*
X165669500Y-122955804D01*
X165740642Y-122985586D01*
X165750270Y-122993705D01*
X167134773Y-124265187D01*
X167251284Y-124372187D01*
X167292653Y-124437282D01*
X167299500Y-124481930D01*
X167299500Y-124594481D01*
X167329060Y-124781118D01*
X167387453Y-124960832D01*
X167473240Y-125129199D01*
X167584310Y-125282073D01*
X167717927Y-125415690D01*
X167870801Y-125526760D01*
X168039168Y-125612547D01*
X168218882Y-125670940D01*
X168405519Y-125700500D01*
X168405524Y-125700500D01*
X168594476Y-125700500D01*
X168594481Y-125700500D01*
X168781118Y-125670940D01*
X168960832Y-125612547D01*
X169129199Y-125526760D01*
X169282073Y-125415690D01*
X169415690Y-125282073D01*
X169526760Y-125129199D01*
X169612547Y-124960832D01*
X169670940Y-124781118D01*
X169700500Y-124594481D01*
X169700500Y-124405519D01*
X169670940Y-124218882D01*
X169612547Y-124039168D01*
X169526760Y-123870801D01*
X169415690Y-123717927D01*
X169282073Y-123584310D01*
X169129199Y-123473240D01*
X168960832Y-123387453D01*
X168781118Y-123329060D01*
X168594481Y-123299500D01*
X168405519Y-123299500D01*
X168388588Y-123302181D01*
X168311883Y-123294117D01*
X168264500Y-123264758D01*
X167585615Y-122641292D01*
X166616493Y-121751282D01*
X166607674Y-121741607D01*
X166607336Y-121741922D01*
X166602347Y-121736554D01*
X166553419Y-121693319D01*
X166551299Y-121691409D01*
X166503199Y-121647235D01*
X166497438Y-121642904D01*
X166491572Y-121638667D01*
X166435150Y-121605808D01*
X166432698Y-121604348D01*
X166376893Y-121570400D01*
X166370382Y-121567269D01*
X166363822Y-121564267D01*
X166302061Y-121543042D01*
X166299372Y-121542089D01*
X166238033Y-121519687D01*
X166231061Y-121517892D01*
X166224013Y-121516220D01*
X166224009Y-121516219D01*
X166201396Y-121513155D01*
X166159294Y-121507450D01*
X166156476Y-121507040D01*
X166091944Y-121497035D01*
X166084640Y-121496629D01*
X166084665Y-121496174D01*
X166071585Y-121495567D01*
X165667244Y-121440785D01*
X165596098Y-121411001D01*
X165566705Y-121380715D01*
X165473088Y-121251863D01*
X165453828Y-121225354D01*
X165314646Y-121086172D01*
X165223625Y-121020041D01*
X165175088Y-120960103D01*
X165163022Y-120883924D01*
X165190663Y-120811919D01*
X165250602Y-120763381D01*
X165311205Y-120750499D01*
X165381518Y-120750499D01*
X165381519Y-120750499D01*
X165394341Y-120748468D01*
X165475304Y-120735646D01*
X165588342Y-120678050D01*
X165678050Y-120588342D01*
X165735646Y-120475304D01*
X165750500Y-120381519D01*
X165750500Y-120381514D01*
X165751343Y-120376192D01*
X165782714Y-120305732D01*
X165845112Y-120260397D01*
X165898509Y-120250500D01*
X167491019Y-120250500D01*
X167565519Y-120270462D01*
X167596377Y-120294141D01*
X167717917Y-120415681D01*
X167717921Y-120415684D01*
X167717927Y-120415690D01*
X167870801Y-120526760D01*
X168039168Y-120612547D01*
X168218882Y-120670940D01*
X168405519Y-120700500D01*
X168405524Y-120700500D01*
X168594476Y-120700500D01*
X168594481Y-120700500D01*
X168781118Y-120670940D01*
X168960832Y-120612547D01*
X169129199Y-120526760D01*
X169282073Y-120415690D01*
X169415690Y-120282073D01*
X169526760Y-120129199D01*
X169612547Y-119960832D01*
X169670940Y-119781118D01*
X169700500Y-119594481D01*
X169700500Y-119405519D01*
X169670940Y-119218882D01*
X169612547Y-119039168D01*
X169526760Y-118870801D01*
X169415690Y-118717927D01*
X169282073Y-118584310D01*
X169129199Y-118473240D01*
X168960832Y-118387453D01*
X168781118Y-118329060D01*
X168594481Y-118299500D01*
X168405519Y-118299500D01*
X168239358Y-118325817D01*
X168218882Y-118329060D01*
X168043034Y-118386197D01*
X168039168Y-118387453D01*
X168039163Y-118387455D01*
X168039157Y-118387458D01*
X167870804Y-118473238D01*
X167870799Y-118473241D01*
X167717936Y-118584303D01*
X167717917Y-118584318D01*
X167596377Y-118705859D01*
X167529582Y-118744423D01*
X167491019Y-118749500D01*
X165898509Y-118749500D01*
X165824009Y-118729538D01*
X165769471Y-118675000D01*
X165751343Y-118623808D01*
X165745086Y-118584303D01*
X165735646Y-118524696D01*
X165678050Y-118411658D01*
X165588342Y-118321950D01*
X165549553Y-118302186D01*
X165475305Y-118264354D01*
X165459673Y-118261878D01*
X165381519Y-118249500D01*
X165381514Y-118249500D01*
X163618481Y-118249500D01*
X163524695Y-118264354D01*
X163524693Y-118264355D01*
X163411657Y-118321950D01*
X163321950Y-118411657D01*
X163264354Y-118524694D01*
X163264354Y-118524696D01*
X163249500Y-118618481D01*
X138750499Y-118618481D01*
X138735646Y-118524696D01*
X138678050Y-118411658D01*
X138588342Y-118321950D01*
X138549553Y-118302186D01*
X138475305Y-118264354D01*
X138459673Y-118261878D01*
X138381519Y-118249500D01*
X138381514Y-118249500D01*
X136618481Y-118249500D01*
X136524695Y-118264354D01*
X136524693Y-118264355D01*
X136471996Y-118291206D01*
X136411658Y-118321950D01*
X136411657Y-118321950D01*
X136401210Y-118327274D01*
X136400467Y-118325817D01*
X136340901Y-118348684D01*
X136325326Y-118349500D01*
X134912243Y-118349500D01*
X134837743Y-118329538D01*
X134794034Y-118291206D01*
X134781599Y-118275000D01*
X134707282Y-118178149D01*
X134521851Y-117992718D01*
X134521848Y-117992715D01*
X134313806Y-117833078D01*
X134086701Y-117701959D01*
X134086699Y-117701958D01*
X134086697Y-117701957D01*
X134011154Y-117670666D01*
X133844416Y-117601600D01*
X133618255Y-117541002D01*
X133591116Y-117533730D01*
X133591114Y-117533729D01*
X133591108Y-117533728D01*
X133331123Y-117499500D01*
X133331120Y-117499500D01*
X133068880Y-117499500D01*
X133068876Y-117499500D01*
X132808892Y-117533728D01*
X132808889Y-117533728D01*
X132555584Y-117601600D01*
X132555583Y-117601600D01*
X132313298Y-117701959D01*
X132086193Y-117833078D01*
X132086192Y-117833078D01*
X131878151Y-117992715D01*
X131878151Y-117992716D01*
X131878149Y-117992718D01*
X131692718Y-118178149D01*
X131692716Y-118178151D01*
X131692715Y-118178151D01*
X131533078Y-118386192D01*
X131533078Y-118386193D01*
X131401959Y-118613298D01*
X131301600Y-118855583D01*
X131301600Y-118855584D01*
X131233728Y-119108889D01*
X131233728Y-119108892D01*
X131199500Y-119368876D01*
X127844769Y-119368876D01*
X125289507Y-116842084D01*
X124034131Y-115600695D01*
X123995193Y-115534118D01*
X123994761Y-115456991D01*
X124032951Y-115389981D01*
X124099528Y-115351043D01*
X124176655Y-115350611D01*
X124195910Y-115357087D01*
X124231087Y-115371658D01*
X124376082Y-115400500D01*
X124376083Y-115400500D01*
X124523917Y-115400500D01*
X146242986Y-115400500D01*
X146245313Y-115400518D01*
X146246165Y-115400531D01*
X146312183Y-115401563D01*
X146312193Y-115401561D01*
X146318072Y-115401075D01*
X146323909Y-115400500D01*
X146323918Y-115400500D01*
X146389673Y-115387419D01*
X146391687Y-115387034D01*
X146457611Y-115374990D01*
X146457625Y-115374984D01*
X146463304Y-115373358D01*
X146468905Y-115371659D01*
X146468913Y-115371658D01*
X146530809Y-115346018D01*
X146532775Y-115345221D01*
X146595060Y-115320557D01*
X146595072Y-115320549D01*
X146600322Y-115317848D01*
X146605491Y-115315085D01*
X146605495Y-115315084D01*
X146642542Y-115290330D01*
X146661131Y-115277909D01*
X146662983Y-115276691D01*
X146719250Y-115240355D01*
X146719255Y-115240349D01*
X146723821Y-115236719D01*
X146728408Y-115232956D01*
X146728416Y-115232951D01*
X146775763Y-115185602D01*
X146777293Y-115184096D01*
X149296392Y-112742507D01*
X149363781Y-112704992D01*
X149400092Y-112700500D01*
X149594476Y-112700500D01*
X149594481Y-112700500D01*
X149781118Y-112670940D01*
X149960832Y-112612547D01*
X150129199Y-112526760D01*
X150282073Y-112415690D01*
X150415690Y-112282073D01*
X150526760Y-112129199D01*
X150612547Y-111960832D01*
X150670940Y-111781118D01*
X150700500Y-111594481D01*
X150700500Y-111405519D01*
X150670940Y-111218882D01*
X150612547Y-111039168D01*
X150526760Y-110870801D01*
X150415690Y-110717927D01*
X150282073Y-110584310D01*
X150129199Y-110473240D01*
X149960832Y-110387453D01*
X149781118Y-110329060D01*
X149594481Y-110299500D01*
X149405519Y-110299500D01*
X149218882Y-110329060D01*
X149039168Y-110387453D01*
X149039163Y-110387455D01*
X149039157Y-110387458D01*
X148870804Y-110473238D01*
X148870799Y-110473241D01*
X148717936Y-110584303D01*
X148717925Y-110584312D01*
X148584312Y-110717925D01*
X148584303Y-110717936D01*
X148473241Y-110870799D01*
X148473238Y-110870804D01*
X148387458Y-111039157D01*
X148387455Y-111039163D01*
X148387453Y-111039168D01*
X148329060Y-111218882D01*
X148299500Y-111405519D01*
X148299500Y-111405523D01*
X148299500Y-111555308D01*
X148279538Y-111629808D01*
X148254200Y-111662300D01*
X148026598Y-111882899D01*
X145991006Y-113855859D01*
X145989321Y-113857492D01*
X145921932Y-113895008D01*
X145885621Y-113899500D01*
X129000825Y-113899500D01*
X128926325Y-113879538D01*
X128871787Y-113825000D01*
X128851825Y-113750500D01*
X128871787Y-113676000D01*
X128895466Y-113645141D01*
X128978242Y-113562365D01*
X129107815Y-113384022D01*
X129207895Y-113187606D01*
X129249825Y-113058556D01*
X129276014Y-112977956D01*
X129276015Y-112977951D01*
X129310500Y-112760222D01*
X129310500Y-112539778D01*
X129304893Y-112504380D01*
X129312953Y-112427678D01*
X129352953Y-112369810D01*
X133093405Y-109038235D01*
X133162314Y-109003591D01*
X133192507Y-109000500D01*
X150523914Y-109000500D01*
X150523917Y-109000500D01*
X150523918Y-109000500D01*
X150668913Y-108971658D01*
X150805495Y-108915084D01*
X150854729Y-108882186D01*
X150928416Y-108832952D01*
X151832952Y-107928416D01*
X151882186Y-107854729D01*
X151915084Y-107805495D01*
X151971658Y-107668913D01*
X152000500Y-107523918D01*
X152000500Y-103474299D01*
X152000717Y-103466256D01*
X152003396Y-103416699D01*
X152002007Y-103407005D01*
X152000500Y-103385870D01*
X152000500Y-103376086D01*
X152000500Y-103376082D01*
X151990814Y-103327391D01*
X151989466Y-103319506D01*
X151982423Y-103270359D01*
X151979170Y-103261127D01*
X151973567Y-103240686D01*
X151971658Y-103231087D01*
X151952665Y-103185237D01*
X151949795Y-103177740D01*
X151933303Y-103130922D01*
X151933302Y-103130920D01*
X151928313Y-103122503D01*
X151918827Y-103103542D01*
X151915084Y-103094506D01*
X151915084Y-103094505D01*
X151887510Y-103053238D01*
X151883235Y-103046450D01*
X151857925Y-103003747D01*
X151851382Y-102996456D01*
X151838389Y-102979723D01*
X151832951Y-102971584D01*
X151797867Y-102936500D01*
X151792335Y-102930661D01*
X151337172Y-102423480D01*
X150731769Y-101748888D01*
X150696867Y-101680111D01*
X150695497Y-101626065D01*
X150700500Y-101594481D01*
X150700500Y-101405519D01*
X150670940Y-101218882D01*
X150612547Y-101039168D01*
X150526760Y-100870801D01*
X150415690Y-100717927D01*
X150282073Y-100584310D01*
X150129199Y-100473240D01*
X149960832Y-100387453D01*
X149781118Y-100329060D01*
X149594481Y-100299500D01*
X149405519Y-100299500D01*
X149218882Y-100329060D01*
X149039168Y-100387453D01*
X149039163Y-100387455D01*
X149039157Y-100387458D01*
X148870804Y-100473238D01*
X148870799Y-100473241D01*
X148717936Y-100584303D01*
X148717925Y-100584312D01*
X148584312Y-100717925D01*
X148584303Y-100717936D01*
X148473241Y-100870799D01*
X148473238Y-100870804D01*
X148387458Y-101039157D01*
X148387455Y-101039163D01*
X148387453Y-101039168D01*
X148329060Y-101218882D01*
X148299500Y-101405519D01*
X148299500Y-101594481D01*
X148329060Y-101781118D01*
X148387453Y-101960832D01*
X148473240Y-102129199D01*
X148584310Y-102282073D01*
X148717927Y-102415690D01*
X148870801Y-102526760D01*
X149039168Y-102612547D01*
X149218882Y-102670940D01*
X149405519Y-102700500D01*
X149502478Y-102700500D01*
X149576978Y-102720462D01*
X149613370Y-102749981D01*
X150461392Y-103694920D01*
X150496295Y-103763698D01*
X150499500Y-103794438D01*
X150499500Y-105449851D01*
X150479538Y-105524351D01*
X150425000Y-105578889D01*
X150350500Y-105598851D01*
X150276000Y-105578889D01*
X150262920Y-105570394D01*
X150129201Y-105473241D01*
X150129195Y-105473238D01*
X149960842Y-105387458D01*
X149960841Y-105387457D01*
X149960832Y-105387453D01*
X149781118Y-105329060D01*
X149594481Y-105299500D01*
X149405519Y-105299500D01*
X149218882Y-105329060D01*
X149039168Y-105387453D01*
X149039163Y-105387455D01*
X149039157Y-105387458D01*
X148870804Y-105473238D01*
X148870799Y-105473241D01*
X148717936Y-105584303D01*
X148717931Y-105584306D01*
X148717927Y-105584310D01*
X148717925Y-105584312D01*
X148717924Y-105584313D01*
X148588225Y-105714011D01*
X148521430Y-105752574D01*
X148484065Y-105757646D01*
X130847632Y-105899495D01*
X130846434Y-105899500D01*
X130775849Y-105899500D01*
X130773721Y-105899727D01*
X130772501Y-105899852D01*
X130770284Y-105900070D01*
X130701226Y-105914384D01*
X130700056Y-105914622D01*
X130630855Y-105928387D01*
X130628788Y-105929033D01*
X130627678Y-105929375D01*
X130625508Y-105930033D01*
X130560588Y-105957536D01*
X130559492Y-105957995D01*
X130494280Y-105985009D01*
X130492299Y-105986089D01*
X130491261Y-105986650D01*
X130489356Y-105987668D01*
X130431010Y-106027335D01*
X130430020Y-106028002D01*
X130371390Y-106067177D01*
X130369749Y-106068547D01*
X130368828Y-106069309D01*
X130367083Y-106070740D01*
X130317625Y-106120999D01*
X130316783Y-106121848D01*
X125210069Y-111228561D01*
X125143274Y-111267125D01*
X125128020Y-111270367D01*
X125042050Y-111283984D01*
X125042047Y-111283984D01*
X124832391Y-111352105D01*
X124635976Y-111452185D01*
X124635975Y-111452186D01*
X124457636Y-111581757D01*
X124457633Y-111581759D01*
X124301759Y-111737633D01*
X124301757Y-111737636D01*
X124220544Y-111849417D01*
X124160604Y-111897955D01*
X124084425Y-111910021D01*
X124012420Y-111882381D01*
X123979456Y-111849417D01*
X123959813Y-111822381D01*
X123898242Y-111737635D01*
X123742365Y-111581758D01*
X123653193Y-111516971D01*
X123564024Y-111452186D01*
X123564023Y-111452185D01*
X123367606Y-111352105D01*
X123157956Y-111283985D01*
X123034006Y-111264354D01*
X122940222Y-111249500D01*
X122719778Y-111249500D01*
X122643881Y-111261521D01*
X122502043Y-111283985D01*
X122292393Y-111352105D01*
X122095976Y-111452185D01*
X122095975Y-111452186D01*
X121917636Y-111581757D01*
X121917633Y-111581759D01*
X121761759Y-111737633D01*
X121761757Y-111737636D01*
X121680544Y-111849417D01*
X121620604Y-111897955D01*
X121544425Y-111910021D01*
X121472420Y-111882381D01*
X121439456Y-111849417D01*
X121419813Y-111822381D01*
X121358242Y-111737635D01*
X121202365Y-111581758D01*
X121113193Y-111516971D01*
X121024024Y-111452186D01*
X121024023Y-111452185D01*
X120827606Y-111352105D01*
X120617956Y-111283985D01*
X120494006Y-111264354D01*
X120400222Y-111249500D01*
X120179778Y-111249500D01*
X120103881Y-111261521D01*
X119962043Y-111283985D01*
X119752393Y-111352105D01*
X119555976Y-111452185D01*
X119555975Y-111452186D01*
X119377636Y-111581757D01*
X119377633Y-111581759D01*
X119221759Y-111737633D01*
X119221757Y-111737636D01*
X119140544Y-111849417D01*
X119080604Y-111897955D01*
X119004425Y-111910021D01*
X118932420Y-111882381D01*
X118899456Y-111849417D01*
X118879813Y-111822381D01*
X118818242Y-111737635D01*
X118662365Y-111581758D01*
X118573193Y-111516971D01*
X118484024Y-111452186D01*
X118484023Y-111452185D01*
X118287606Y-111352105D01*
X118077956Y-111283985D01*
X117954006Y-111264354D01*
X117860222Y-111249500D01*
X117639778Y-111249500D01*
X117563881Y-111261521D01*
X117422043Y-111283985D01*
X117212393Y-111352105D01*
X117015976Y-111452185D01*
X117015975Y-111452186D01*
X116837636Y-111581757D01*
X116837633Y-111581759D01*
X116681759Y-111737633D01*
X116681757Y-111737636D01*
X116600544Y-111849417D01*
X116540604Y-111897955D01*
X116464425Y-111910021D01*
X116392420Y-111882381D01*
X116359456Y-111849417D01*
X116339813Y-111822381D01*
X116278242Y-111737635D01*
X116122365Y-111581758D01*
X116033193Y-111516971D01*
X115944024Y-111452186D01*
X115944023Y-111452185D01*
X115747606Y-111352105D01*
X115537956Y-111283985D01*
X115414006Y-111264354D01*
X115320222Y-111249500D01*
X115099778Y-111249500D01*
X115023881Y-111261521D01*
X114882043Y-111283985D01*
X114672393Y-111352105D01*
X114475976Y-111452185D01*
X114475975Y-111452186D01*
X114297636Y-111581757D01*
X114297633Y-111581759D01*
X114141759Y-111737633D01*
X114141757Y-111737636D01*
X114060544Y-111849417D01*
X114000604Y-111897955D01*
X113924425Y-111910021D01*
X113852420Y-111882381D01*
X113819456Y-111849417D01*
X113799813Y-111822381D01*
X113738242Y-111737635D01*
X113582365Y-111581758D01*
X113493193Y-111516971D01*
X113404024Y-111452186D01*
X113404023Y-111452185D01*
X113207606Y-111352105D01*
X112997956Y-111283985D01*
X112874006Y-111264354D01*
X112780222Y-111249500D01*
X112559778Y-111249500D01*
X112483881Y-111261521D01*
X112342043Y-111283985D01*
X112132393Y-111352105D01*
X111935976Y-111452185D01*
X111935975Y-111452186D01*
X111757636Y-111581757D01*
X111757633Y-111581759D01*
X111601759Y-111737633D01*
X111601757Y-111737636D01*
X111472186Y-111915975D01*
X111472185Y-111915976D01*
X111372105Y-112112393D01*
X111303985Y-112322043D01*
X111287679Y-112425000D01*
X111269500Y-112539778D01*
X111269500Y-112760222D01*
X111284826Y-112856990D01*
X111303985Y-112977956D01*
X111372105Y-113187606D01*
X111472185Y-113384023D01*
X111472186Y-113384024D01*
X111520544Y-113450583D01*
X111601758Y-113562365D01*
X111757635Y-113718242D01*
X111853395Y-113787815D01*
X111935975Y-113847813D01*
X111935976Y-113847814D01*
X111935978Y-113847815D01*
X112132394Y-113947895D01*
X112203351Y-113970950D01*
X112342043Y-114016014D01*
X112342048Y-114016014D01*
X112342049Y-114016015D01*
X112559778Y-114050500D01*
X112559782Y-114050500D01*
X112780218Y-114050500D01*
X112780222Y-114050500D01*
X112997951Y-114016015D01*
X112997952Y-114016014D01*
X112997956Y-114016014D01*
X113093665Y-113984916D01*
X113207606Y-113947895D01*
X113404022Y-113847815D01*
X113582365Y-113718242D01*
X113738242Y-113562365D01*
X113819456Y-113450583D01*
X113879395Y-113402044D01*
X113955574Y-113389978D01*
X114027579Y-113417618D01*
X114060544Y-113450583D01*
X114141752Y-113562358D01*
X114141757Y-113562364D01*
X114141758Y-113562365D01*
X114297635Y-113718242D01*
X114393395Y-113787815D01*
X114475975Y-113847813D01*
X114475976Y-113847814D01*
X114475978Y-113847815D01*
X114672394Y-113947895D01*
X114743351Y-113970950D01*
X114882043Y-114016014D01*
X114882048Y-114016014D01*
X114882049Y-114016015D01*
X115099778Y-114050500D01*
X115099782Y-114050500D01*
X115320218Y-114050500D01*
X115320222Y-114050500D01*
X115537951Y-114016015D01*
X115537952Y-114016014D01*
X115537956Y-114016014D01*
X115633665Y-113984916D01*
X115747606Y-113947895D01*
X115944022Y-113847815D01*
X116122365Y-113718242D01*
X116278242Y-113562365D01*
X116359456Y-113450583D01*
X116419395Y-113402044D01*
X116495574Y-113389978D01*
X116567579Y-113417618D01*
X116600544Y-113450583D01*
X116681752Y-113562358D01*
X116681757Y-113562364D01*
X116681758Y-113562365D01*
X116837635Y-113718242D01*
X116933395Y-113787815D01*
X117015975Y-113847813D01*
X117015976Y-113847814D01*
X117015978Y-113847815D01*
X117212394Y-113947895D01*
X117283351Y-113970950D01*
X117422043Y-114016014D01*
X117422048Y-114016014D01*
X117422049Y-114016015D01*
X117639778Y-114050500D01*
X117639782Y-114050500D01*
X117860218Y-114050500D01*
X117860222Y-114050500D01*
X118077951Y-114016015D01*
X118077952Y-114016014D01*
X118077956Y-114016014D01*
X118173665Y-113984916D01*
X118287606Y-113947895D01*
X118484022Y-113847815D01*
X118662365Y-113718242D01*
X118818242Y-113562365D01*
X118899456Y-113450583D01*
X118959395Y-113402044D01*
X119035574Y-113389978D01*
X119107579Y-113417618D01*
X119140544Y-113450583D01*
X119221752Y-113562358D01*
X119221757Y-113562364D01*
X119221758Y-113562365D01*
X119377635Y-113718242D01*
X119473395Y-113787815D01*
X119555975Y-113847813D01*
X119555976Y-113847814D01*
X119555978Y-113847815D01*
X119752394Y-113947895D01*
X119823351Y-113970950D01*
X119962043Y-114016014D01*
X119962048Y-114016014D01*
X119962049Y-114016015D01*
X120179778Y-114050500D01*
X120179782Y-114050500D01*
X120400218Y-114050500D01*
X120400222Y-114050500D01*
X120617951Y-114016015D01*
X120617952Y-114016014D01*
X120617956Y-114016014D01*
X120713665Y-113984916D01*
X120827606Y-113947895D01*
X121024022Y-113847815D01*
X121202365Y-113718242D01*
X121358242Y-113562365D01*
X121439456Y-113450583D01*
X121499395Y-113402044D01*
X121575574Y-113389978D01*
X121647579Y-113417618D01*
X121680544Y-113450583D01*
X121761752Y-113562358D01*
X121761757Y-113562364D01*
X121761758Y-113562365D01*
X121917635Y-113718242D01*
X122013395Y-113787815D01*
X122095975Y-113847813D01*
X122095976Y-113847814D01*
X122095978Y-113847815D01*
X122292394Y-113947895D01*
X122363351Y-113970950D01*
X122502043Y-114016014D01*
X122502048Y-114016014D01*
X122502049Y-114016015D01*
X122719778Y-114050500D01*
X122727414Y-114050500D01*
X122801914Y-114070462D01*
X122832773Y-114094141D01*
X123304725Y-114566093D01*
X123343289Y-114632888D01*
X123343289Y-114710016D01*
X123304725Y-114776811D01*
X123237930Y-114815375D01*
X123160802Y-114815375D01*
X123131729Y-114804215D01*
X123091639Y-114783789D01*
X123091635Y-114783787D01*
X123091630Y-114783785D01*
X123090434Y-114783290D01*
X123090194Y-114783180D01*
X123089048Y-114782713D01*
X123088324Y-114782415D01*
X123087123Y-114781917D01*
X123086860Y-114781821D01*
X123085660Y-114781332D01*
X123002947Y-114754968D01*
X123002154Y-114754713D01*
X122919408Y-114727828D01*
X122918169Y-114727531D01*
X122917921Y-114727461D01*
X122916638Y-114727161D01*
X122915910Y-114726988D01*
X122914624Y-114726679D01*
X122914367Y-114726629D01*
X122913119Y-114726336D01*
X122827096Y-114713204D01*
X122826277Y-114713077D01*
X122740543Y-114699499D01*
X122739275Y-114699400D01*
X122738988Y-114699367D01*
X122737595Y-114699265D01*
X122736806Y-114699205D01*
X122735640Y-114699113D01*
X122735382Y-114699104D01*
X122734104Y-114699010D01*
X122734100Y-114699010D01*
X122650692Y-114699477D01*
X122646948Y-114699498D01*
X122646115Y-114699500D01*
X108994049Y-114699500D01*
X108919549Y-114679538D01*
X108865011Y-114625000D01*
X108845266Y-114558537D01*
X108826732Y-114215413D01*
X108818236Y-114058123D01*
X108834151Y-113982658D01*
X108861658Y-113944733D01*
X108918050Y-113888342D01*
X108975646Y-113775304D01*
X108990500Y-113681519D01*
X108990499Y-111618482D01*
X108975646Y-111524696D01*
X108918050Y-111411658D01*
X108828342Y-111321950D01*
X108715305Y-111264354D01*
X108697417Y-111261521D01*
X108621519Y-111249500D01*
X108621514Y-111249500D01*
X106558481Y-111249500D01*
X106464695Y-111264354D01*
X106464693Y-111264355D01*
X106351657Y-111321950D01*
X106261950Y-111411657D01*
X106204354Y-111524694D01*
X106204354Y-111524696D01*
X106189500Y-111618481D01*
X105000500Y-111618481D01*
X105000500Y-97299778D01*
X106189500Y-97299778D01*
X106189500Y-97520222D01*
X106190536Y-97526760D01*
X106223985Y-97737956D01*
X106292105Y-97947606D01*
X106392185Y-98144023D01*
X106392186Y-98144024D01*
X106430816Y-98197193D01*
X106521758Y-98322365D01*
X106677635Y-98478242D01*
X106812556Y-98576267D01*
X106855975Y-98607813D01*
X106855976Y-98607814D01*
X106855978Y-98607815D01*
X107052394Y-98707895D01*
X107137798Y-98735644D01*
X107262043Y-98776014D01*
X107262048Y-98776014D01*
X107262049Y-98776015D01*
X107479778Y-98810500D01*
X107479782Y-98810500D01*
X107700218Y-98810500D01*
X107700222Y-98810500D01*
X107917951Y-98776015D01*
X107917952Y-98776014D01*
X107917956Y-98776014D01*
X107998556Y-98749825D01*
X108127606Y-98707895D01*
X108324022Y-98607815D01*
X108502365Y-98478242D01*
X108658242Y-98322365D01*
X108701839Y-98262358D01*
X108739456Y-98210583D01*
X108799395Y-98162044D01*
X108875574Y-98149978D01*
X108947579Y-98177618D01*
X108980544Y-98210583D01*
X109061752Y-98322358D01*
X109061757Y-98322364D01*
X109061758Y-98322365D01*
X109217635Y-98478242D01*
X109352556Y-98576267D01*
X109395975Y-98607813D01*
X109395976Y-98607814D01*
X109395978Y-98607815D01*
X109592394Y-98707895D01*
X109677798Y-98735644D01*
X109802043Y-98776014D01*
X109802048Y-98776014D01*
X109802049Y-98776015D01*
X110019778Y-98810500D01*
X110019782Y-98810500D01*
X110240218Y-98810500D01*
X110240222Y-98810500D01*
X110457951Y-98776015D01*
X110457952Y-98776014D01*
X110457956Y-98776014D01*
X110538556Y-98749825D01*
X110667606Y-98707895D01*
X110864022Y-98607815D01*
X111042365Y-98478242D01*
X111198242Y-98322365D01*
X111241839Y-98262358D01*
X111279456Y-98210583D01*
X111339395Y-98162044D01*
X111415574Y-98149978D01*
X111487579Y-98177618D01*
X111520544Y-98210583D01*
X111601752Y-98322358D01*
X111601757Y-98322364D01*
X111601758Y-98322365D01*
X111757635Y-98478242D01*
X111892556Y-98576267D01*
X111935975Y-98607813D01*
X111935976Y-98607814D01*
X111935978Y-98607815D01*
X112132394Y-98707895D01*
X112217798Y-98735644D01*
X112342043Y-98776014D01*
X112342048Y-98776014D01*
X112342049Y-98776015D01*
X112559778Y-98810500D01*
X112559782Y-98810500D01*
X112780218Y-98810500D01*
X112780222Y-98810500D01*
X112997951Y-98776015D01*
X112997952Y-98776014D01*
X112997956Y-98776014D01*
X113078556Y-98749825D01*
X113207606Y-98707895D01*
X113404022Y-98607815D01*
X113582365Y-98478242D01*
X113738242Y-98322365D01*
X113781839Y-98262358D01*
X113819456Y-98210583D01*
X113879395Y-98162044D01*
X113955574Y-98149978D01*
X114027579Y-98177618D01*
X114060544Y-98210583D01*
X114141752Y-98322358D01*
X114141757Y-98322364D01*
X114141758Y-98322365D01*
X114297635Y-98478242D01*
X114432556Y-98576267D01*
X114475975Y-98607813D01*
X114475976Y-98607814D01*
X114475978Y-98607815D01*
X114672394Y-98707895D01*
X114757798Y-98735644D01*
X114882043Y-98776014D01*
X114882048Y-98776014D01*
X114882049Y-98776015D01*
X115099778Y-98810500D01*
X115099782Y-98810500D01*
X115320218Y-98810500D01*
X115320222Y-98810500D01*
X115537951Y-98776015D01*
X115537952Y-98776014D01*
X115537956Y-98776014D01*
X115618556Y-98749825D01*
X115747606Y-98707895D01*
X115944022Y-98607815D01*
X116122365Y-98478242D01*
X116278242Y-98322365D01*
X116321839Y-98262358D01*
X116359456Y-98210583D01*
X116419395Y-98162044D01*
X116495574Y-98149978D01*
X116567579Y-98177618D01*
X116600544Y-98210583D01*
X116681752Y-98322358D01*
X116681757Y-98322364D01*
X116681758Y-98322365D01*
X116837635Y-98478242D01*
X116972556Y-98576267D01*
X117015975Y-98607813D01*
X117015976Y-98607814D01*
X117015978Y-98607815D01*
X117212394Y-98707895D01*
X117297798Y-98735644D01*
X117422043Y-98776014D01*
X117422048Y-98776014D01*
X117422049Y-98776015D01*
X117639778Y-98810500D01*
X117639782Y-98810500D01*
X117860218Y-98810500D01*
X117860222Y-98810500D01*
X118077951Y-98776015D01*
X118077952Y-98776014D01*
X118077956Y-98776014D01*
X118158556Y-98749825D01*
X118287606Y-98707895D01*
X118484022Y-98607815D01*
X118662365Y-98478242D01*
X118818242Y-98322365D01*
X118861839Y-98262358D01*
X118899456Y-98210583D01*
X118959395Y-98162044D01*
X119035574Y-98149978D01*
X119107579Y-98177618D01*
X119140544Y-98210583D01*
X119221752Y-98322358D01*
X119221757Y-98322364D01*
X119221758Y-98322365D01*
X119377635Y-98478242D01*
X119512556Y-98576267D01*
X119555975Y-98607813D01*
X119555976Y-98607814D01*
X119555978Y-98607815D01*
X119752394Y-98707895D01*
X119837798Y-98735644D01*
X119962043Y-98776014D01*
X119962048Y-98776014D01*
X119962049Y-98776015D01*
X120179778Y-98810500D01*
X120179782Y-98810500D01*
X120400218Y-98810500D01*
X120400222Y-98810500D01*
X120617951Y-98776015D01*
X120617952Y-98776014D01*
X120617956Y-98776014D01*
X120698556Y-98749825D01*
X120827606Y-98707895D01*
X121024022Y-98607815D01*
X121202365Y-98478242D01*
X121358242Y-98322365D01*
X121401839Y-98262358D01*
X121439456Y-98210583D01*
X121499395Y-98162044D01*
X121575574Y-98149978D01*
X121647579Y-98177618D01*
X121680544Y-98210583D01*
X121761752Y-98322358D01*
X121761757Y-98322364D01*
X121761758Y-98322365D01*
X121917635Y-98478242D01*
X122052556Y-98576267D01*
X122095975Y-98607813D01*
X122095976Y-98607814D01*
X122095978Y-98607815D01*
X122292394Y-98707895D01*
X122377798Y-98735644D01*
X122502043Y-98776014D01*
X122502048Y-98776014D01*
X122502049Y-98776015D01*
X122719778Y-98810500D01*
X122719782Y-98810500D01*
X122940218Y-98810500D01*
X122940222Y-98810500D01*
X123157951Y-98776015D01*
X123157952Y-98776014D01*
X123157956Y-98776014D01*
X123238556Y-98749825D01*
X123367606Y-98707895D01*
X123564022Y-98607815D01*
X123742365Y-98478242D01*
X123898242Y-98322365D01*
X123941839Y-98262358D01*
X123979456Y-98210583D01*
X124039395Y-98162044D01*
X124115574Y-98149978D01*
X124187579Y-98177618D01*
X124220544Y-98210583D01*
X124301752Y-98322358D01*
X124301757Y-98322364D01*
X124301758Y-98322365D01*
X124457635Y-98478242D01*
X124592556Y-98576267D01*
X124635975Y-98607813D01*
X124635976Y-98607814D01*
X124635978Y-98607815D01*
X124832394Y-98707895D01*
X124917798Y-98735644D01*
X125042043Y-98776014D01*
X125042048Y-98776014D01*
X125042049Y-98776015D01*
X125259778Y-98810500D01*
X125259782Y-98810500D01*
X125480218Y-98810500D01*
X125480222Y-98810500D01*
X125697951Y-98776015D01*
X125697952Y-98776014D01*
X125697956Y-98776014D01*
X125778556Y-98749825D01*
X125907606Y-98707895D01*
X126104022Y-98607815D01*
X126282365Y-98478242D01*
X126438242Y-98322365D01*
X126481839Y-98262358D01*
X126519456Y-98210583D01*
X126579395Y-98162044D01*
X126655574Y-98149978D01*
X126727579Y-98177618D01*
X126760544Y-98210583D01*
X126841752Y-98322358D01*
X126841757Y-98322364D01*
X126841758Y-98322365D01*
X126997635Y-98478242D01*
X127132556Y-98576267D01*
X127175975Y-98607813D01*
X127175976Y-98607814D01*
X127175978Y-98607815D01*
X127372394Y-98707895D01*
X127457798Y-98735644D01*
X127582043Y-98776014D01*
X127582048Y-98776014D01*
X127582049Y-98776015D01*
X127799778Y-98810500D01*
X127799782Y-98810500D01*
X128020218Y-98810500D01*
X128020222Y-98810500D01*
X128237951Y-98776015D01*
X128237952Y-98776014D01*
X128237956Y-98776014D01*
X128318556Y-98749825D01*
X128447606Y-98707895D01*
X128644022Y-98607815D01*
X128822365Y-98478242D01*
X128978242Y-98322365D01*
X129107815Y-98144022D01*
X129207895Y-97947606D01*
X129263581Y-97776219D01*
X129276014Y-97737956D01*
X129276015Y-97737951D01*
X129306534Y-97545258D01*
X129337904Y-97474802D01*
X129380189Y-97438966D01*
X129416913Y-97418137D01*
X129489315Y-97398747D01*
X148497360Y-97257947D01*
X148572005Y-97277357D01*
X148603817Y-97301580D01*
X148717927Y-97415690D01*
X148870801Y-97526760D01*
X149039168Y-97612547D01*
X149218882Y-97670940D01*
X149405519Y-97700500D01*
X149405524Y-97700500D01*
X149594476Y-97700500D01*
X149594481Y-97700500D01*
X149781118Y-97670940D01*
X149960832Y-97612547D01*
X150129199Y-97526760D01*
X150282073Y-97415690D01*
X150415690Y-97282073D01*
X150526760Y-97129199D01*
X150612547Y-96960832D01*
X150670940Y-96781118D01*
X150700500Y-96594481D01*
X150700500Y-96405519D01*
X150670940Y-96218882D01*
X150612547Y-96039168D01*
X150526760Y-95870801D01*
X150415690Y-95717927D01*
X150282073Y-95584310D01*
X150129199Y-95473240D01*
X149960832Y-95387453D01*
X149781118Y-95329060D01*
X149594481Y-95299500D01*
X149405519Y-95299500D01*
X149218882Y-95329060D01*
X149039168Y-95387453D01*
X149039163Y-95387455D01*
X149039157Y-95387458D01*
X148870804Y-95473238D01*
X148870799Y-95473241D01*
X148717936Y-95584303D01*
X148717931Y-95584306D01*
X148717927Y-95584310D01*
X148717925Y-95584312D01*
X148717924Y-95584313D01*
X148588874Y-95713363D01*
X148522078Y-95751927D01*
X148484619Y-95757000D01*
X129280667Y-95899251D01*
X129268680Y-95898857D01*
X129231112Y-95896105D01*
X129209506Y-95898781D01*
X129192303Y-95899906D01*
X129170527Y-95900067D01*
X129170520Y-95900068D01*
X129133616Y-95907693D01*
X129121788Y-95909645D01*
X129111346Y-95910938D01*
X129084395Y-95914277D01*
X129084393Y-95914277D01*
X129084390Y-95914278D01*
X129084385Y-95914279D01*
X129063719Y-95921117D01*
X129047077Y-95925574D01*
X129025757Y-95929980D01*
X129025740Y-95929986D01*
X128991043Y-95944659D01*
X128979822Y-95948880D01*
X128944056Y-95960715D01*
X128944045Y-95960720D01*
X128925097Y-95971466D01*
X128909645Y-95979083D01*
X128889585Y-95987568D01*
X128858423Y-96008725D01*
X128848238Y-96015057D01*
X128638238Y-96134162D01*
X128563587Y-96153552D01*
X128497085Y-96137316D01*
X128447606Y-96112105D01*
X128447605Y-96112104D01*
X128447604Y-96112104D01*
X128338855Y-96076770D01*
X128237951Y-96043985D01*
X128020222Y-96009500D01*
X127799778Y-96009500D01*
X127736022Y-96019598D01*
X127720502Y-96022056D01*
X127643796Y-96013993D01*
X127581398Y-95968658D01*
X127550028Y-95898198D01*
X127558091Y-95821492D01*
X127591833Y-95769533D01*
X130920189Y-92441177D01*
X130986982Y-92402615D01*
X131024356Y-92397543D01*
X148497827Y-92258497D01*
X148572482Y-92277865D01*
X148604369Y-92302133D01*
X148717917Y-92415681D01*
X148717921Y-92415684D01*
X148717927Y-92415690D01*
X148870801Y-92526760D01*
X149039168Y-92612547D01*
X149218882Y-92670940D01*
X149405519Y-92700500D01*
X149405524Y-92700500D01*
X149594476Y-92700500D01*
X149594481Y-92700500D01*
X149781118Y-92670940D01*
X149960832Y-92612547D01*
X150129199Y-92526760D01*
X150282073Y-92415690D01*
X150415690Y-92282073D01*
X150526760Y-92129199D01*
X150612547Y-91960832D01*
X150670940Y-91781118D01*
X150700500Y-91594481D01*
X150700500Y-91405519D01*
X150670940Y-91218882D01*
X150612547Y-91039168D01*
X150526760Y-90870801D01*
X150415690Y-90717927D01*
X150282073Y-90584310D01*
X150129199Y-90473240D01*
X149960832Y-90387453D01*
X149781118Y-90329060D01*
X149594481Y-90299500D01*
X149405519Y-90299500D01*
X149218882Y-90329060D01*
X149153239Y-90350389D01*
X149039168Y-90387453D01*
X149039163Y-90387455D01*
X149039157Y-90387458D01*
X148870804Y-90473238D01*
X148870799Y-90473241D01*
X148717936Y-90584303D01*
X148717931Y-90584306D01*
X148717927Y-90584310D01*
X148717925Y-90584312D01*
X148717924Y-90584313D01*
X148588311Y-90713925D01*
X148521516Y-90752488D01*
X148484139Y-90757560D01*
X130647648Y-90899495D01*
X130646462Y-90899500D01*
X130575850Y-90899500D01*
X130573667Y-90899732D01*
X130572555Y-90899846D01*
X130570338Y-90900064D01*
X130501265Y-90914376D01*
X130500108Y-90914611D01*
X130430860Y-90928386D01*
X130428700Y-90929061D01*
X130427571Y-90929409D01*
X130425550Y-90930022D01*
X130360653Y-90957510D01*
X130359563Y-90957967D01*
X130294283Y-90985008D01*
X130292373Y-90986049D01*
X130291335Y-90986609D01*
X130289421Y-90987631D01*
X130231065Y-91027297D01*
X130230088Y-91027956D01*
X130171387Y-91067179D01*
X130169746Y-91068549D01*
X130168823Y-91069313D01*
X130167124Y-91070706D01*
X130117630Y-91120993D01*
X130116798Y-91121832D01*
X125257596Y-95981034D01*
X125190801Y-96019598D01*
X125175550Y-96022840D01*
X125084351Y-96037284D01*
X125042042Y-96043986D01*
X124832393Y-96112105D01*
X124635976Y-96212185D01*
X124635975Y-96212186D01*
X124457636Y-96341757D01*
X124457633Y-96341759D01*
X124301759Y-96497633D01*
X124301757Y-96497636D01*
X124220544Y-96609417D01*
X124160604Y-96657955D01*
X124084425Y-96670021D01*
X124012420Y-96642381D01*
X123979456Y-96609417D01*
X123945950Y-96563300D01*
X123898242Y-96497635D01*
X123742365Y-96341758D01*
X123605918Y-96242624D01*
X123564024Y-96212186D01*
X123564023Y-96212185D01*
X123367606Y-96112105D01*
X123157956Y-96043985D01*
X123024453Y-96022841D01*
X122940222Y-96009500D01*
X122719778Y-96009500D01*
X122641172Y-96021950D01*
X122502043Y-96043985D01*
X122292393Y-96112105D01*
X122095976Y-96212185D01*
X122095975Y-96212186D01*
X121917636Y-96341757D01*
X121917633Y-96341759D01*
X121761759Y-96497633D01*
X121761757Y-96497636D01*
X121680544Y-96609417D01*
X121620604Y-96657955D01*
X121544425Y-96670021D01*
X121472420Y-96642381D01*
X121439456Y-96609417D01*
X121405950Y-96563300D01*
X121358242Y-96497635D01*
X121202365Y-96341758D01*
X121065918Y-96242624D01*
X121024024Y-96212186D01*
X121024023Y-96212185D01*
X120827606Y-96112105D01*
X120617956Y-96043985D01*
X120484453Y-96022841D01*
X120400222Y-96009500D01*
X120179778Y-96009500D01*
X120101172Y-96021950D01*
X119962043Y-96043985D01*
X119752393Y-96112105D01*
X119555976Y-96212185D01*
X119555975Y-96212186D01*
X119377636Y-96341757D01*
X119377633Y-96341759D01*
X119221759Y-96497633D01*
X119221757Y-96497636D01*
X119140544Y-96609417D01*
X119080604Y-96657955D01*
X119004425Y-96670021D01*
X118932420Y-96642381D01*
X118899456Y-96609417D01*
X118865950Y-96563300D01*
X118818242Y-96497635D01*
X118662365Y-96341758D01*
X118525918Y-96242624D01*
X118484024Y-96212186D01*
X118484023Y-96212185D01*
X118287606Y-96112105D01*
X118077956Y-96043985D01*
X117944453Y-96022841D01*
X117860222Y-96009500D01*
X117639778Y-96009500D01*
X117561172Y-96021950D01*
X117422043Y-96043985D01*
X117212393Y-96112105D01*
X117015976Y-96212185D01*
X117015975Y-96212186D01*
X116837636Y-96341757D01*
X116837633Y-96341759D01*
X116681759Y-96497633D01*
X116681757Y-96497636D01*
X116600544Y-96609417D01*
X116540604Y-96657955D01*
X116464425Y-96670021D01*
X116392420Y-96642381D01*
X116359456Y-96609417D01*
X116325950Y-96563300D01*
X116278242Y-96497635D01*
X116122365Y-96341758D01*
X115985918Y-96242624D01*
X115944024Y-96212186D01*
X115944023Y-96212185D01*
X115747606Y-96112105D01*
X115537956Y-96043985D01*
X115404453Y-96022841D01*
X115320222Y-96009500D01*
X115099778Y-96009500D01*
X115021172Y-96021950D01*
X114882043Y-96043985D01*
X114672393Y-96112105D01*
X114475976Y-96212185D01*
X114475975Y-96212186D01*
X114297636Y-96341757D01*
X114297633Y-96341759D01*
X114141759Y-96497633D01*
X114141757Y-96497636D01*
X114060544Y-96609417D01*
X114000604Y-96657955D01*
X113924425Y-96670021D01*
X113852420Y-96642381D01*
X113819456Y-96609417D01*
X113785950Y-96563300D01*
X113738242Y-96497635D01*
X113582365Y-96341758D01*
X113445918Y-96242624D01*
X113404024Y-96212186D01*
X113404023Y-96212185D01*
X113207606Y-96112105D01*
X112997956Y-96043985D01*
X112864453Y-96022841D01*
X112780222Y-96009500D01*
X112559778Y-96009500D01*
X112528026Y-96014528D01*
X112451322Y-96006466D01*
X112388924Y-95961131D01*
X112357554Y-95890670D01*
X112365617Y-95813965D01*
X112399359Y-95762006D01*
X118730400Y-89430965D01*
X118797193Y-89392403D01*
X118830449Y-89387420D01*
X121680978Y-89285858D01*
X121756141Y-89303155D01*
X121791641Y-89329405D01*
X121849657Y-89387420D01*
X121877927Y-89415690D01*
X122030801Y-89526760D01*
X122199168Y-89612547D01*
X122378882Y-89670940D01*
X122565519Y-89700500D01*
X122565524Y-89700500D01*
X122754476Y-89700500D01*
X122754481Y-89700500D01*
X122941118Y-89670940D01*
X123120832Y-89612547D01*
X123289199Y-89526760D01*
X123442073Y-89415690D01*
X123575690Y-89282073D01*
X123686760Y-89129199D01*
X123772547Y-88960832D01*
X123830940Y-88781118D01*
X123860500Y-88594481D01*
X123860500Y-88405519D01*
X123830940Y-88218882D01*
X123772547Y-88039168D01*
X123686760Y-87870801D01*
X123575690Y-87717927D01*
X123442073Y-87584310D01*
X123289199Y-87473240D01*
X123120832Y-87387453D01*
X122941118Y-87329060D01*
X122754481Y-87299500D01*
X122565519Y-87299500D01*
X122378882Y-87329060D01*
X122199168Y-87387453D01*
X122199163Y-87387455D01*
X122199157Y-87387458D01*
X122030804Y-87473238D01*
X122030799Y-87473241D01*
X121877936Y-87584303D01*
X121877931Y-87584306D01*
X121877927Y-87584310D01*
X121877925Y-87584312D01*
X121877924Y-87584313D01*
X121744312Y-87717924D01*
X121744303Y-87717935D01*
X121739458Y-87724604D01*
X121679517Y-87773141D01*
X121624222Y-87785927D01*
X118439247Y-87899407D01*
X118433942Y-87899501D01*
X118376072Y-87899501D01*
X118374617Y-87899791D01*
X118350894Y-87902554D01*
X118349412Y-87902606D01*
X118349410Y-87902607D01*
X118293053Y-87915919D01*
X118287873Y-87917045D01*
X118231090Y-87928341D01*
X118231084Y-87928342D01*
X118229710Y-87928912D01*
X118206971Y-87936253D01*
X118205540Y-87936591D01*
X118205533Y-87936593D01*
X118205530Y-87936594D01*
X118205528Y-87936595D01*
X118152853Y-87960644D01*
X118147993Y-87962759D01*
X118094515Y-87984911D01*
X118094502Y-87984917D01*
X118093269Y-87985742D01*
X118072398Y-87997380D01*
X118071052Y-87997994D01*
X118071049Y-87997995D01*
X118024097Y-88031847D01*
X118019741Y-88034871D01*
X117971579Y-88067052D01*
X117971575Y-88067055D01*
X117970533Y-88068098D01*
X117952339Y-88083581D01*
X117951133Y-88084450D01*
X117951129Y-88084454D01*
X117911678Y-88126819D01*
X117907995Y-88130636D01*
X110065125Y-95973506D01*
X109998330Y-96012070D01*
X109983075Y-96015312D01*
X109802052Y-96043983D01*
X109802044Y-96043985D01*
X109592393Y-96112105D01*
X109395976Y-96212185D01*
X109395975Y-96212186D01*
X109217636Y-96341757D01*
X109217633Y-96341759D01*
X109061759Y-96497633D01*
X109061757Y-96497636D01*
X108980544Y-96609417D01*
X108920604Y-96657955D01*
X108844425Y-96670021D01*
X108772420Y-96642381D01*
X108739456Y-96609417D01*
X108705950Y-96563300D01*
X108658242Y-96497635D01*
X108502365Y-96341758D01*
X108448418Y-96302563D01*
X108399881Y-96242624D01*
X108387104Y-96176459D01*
X108389525Y-96111657D01*
X108586796Y-90830827D01*
X108609525Y-90757127D01*
X108630329Y-90731037D01*
X111045141Y-88316224D01*
X111111936Y-88277661D01*
X111189064Y-88277661D01*
X111255859Y-88316225D01*
X111294423Y-88383020D01*
X111299500Y-88421584D01*
X111299500Y-88594481D01*
X111329060Y-88781118D01*
X111387453Y-88960832D01*
X111473240Y-89129199D01*
X111584310Y-89282073D01*
X111717927Y-89415690D01*
X111870801Y-89526760D01*
X112039168Y-89612547D01*
X112218882Y-89670940D01*
X112405519Y-89700500D01*
X112405524Y-89700500D01*
X112594476Y-89700500D01*
X112594481Y-89700500D01*
X112781118Y-89670940D01*
X112960832Y-89612547D01*
X113129199Y-89526760D01*
X113282073Y-89415690D01*
X113415690Y-89282073D01*
X113526760Y-89129199D01*
X113612547Y-88960832D01*
X113670940Y-88781118D01*
X113700500Y-88594481D01*
X113700500Y-88453237D01*
X113720462Y-88378737D01*
X113746453Y-88345615D01*
X115115550Y-87034779D01*
X115183164Y-86997678D01*
X115215645Y-86993435D01*
X124438421Y-86811578D01*
X124513299Y-86830068D01*
X124546716Y-86855190D01*
X124685354Y-86993828D01*
X124844595Y-87109524D01*
X125019975Y-87198884D01*
X125207174Y-87259709D01*
X125401583Y-87290500D01*
X125401588Y-87290500D01*
X125598412Y-87290500D01*
X125598417Y-87290500D01*
X125792826Y-87259709D01*
X125980025Y-87198884D01*
X126155405Y-87109524D01*
X126314646Y-86993828D01*
X126453828Y-86854646D01*
X126569524Y-86695405D01*
X126658884Y-86520025D01*
X126719709Y-86332826D01*
X126750500Y-86138417D01*
X126750500Y-85941583D01*
X126719709Y-85747174D01*
X126658884Y-85559975D01*
X126569524Y-85384595D01*
X126453828Y-85225354D01*
X126314646Y-85086172D01*
X126223625Y-85020041D01*
X126175088Y-84960103D01*
X126163022Y-84883924D01*
X126190663Y-84811919D01*
X126250602Y-84763381D01*
X126311205Y-84750499D01*
X126381518Y-84750499D01*
X126381519Y-84750499D01*
X126394341Y-84748468D01*
X126475304Y-84735646D01*
X126588342Y-84678050D01*
X126678050Y-84588342D01*
X126735646Y-84475304D01*
X126750500Y-84381519D01*
X126750499Y-82618482D01*
X126735646Y-82524696D01*
X126678050Y-82411658D01*
X126588342Y-82321950D01*
X126565719Y-82310423D01*
X126475305Y-82264354D01*
X126459673Y-82261878D01*
X126381519Y-82249500D01*
X126381514Y-82249500D01*
X125291811Y-82249500D01*
X125217311Y-82229538D01*
X125191986Y-82211117D01*
X124991607Y-82030287D01*
X123967088Y-81105721D01*
X123928416Y-81067049D01*
X123912310Y-81056287D01*
X123897932Y-81043312D01*
X123850966Y-81015298D01*
X123805495Y-80984916D01*
X123789221Y-80978175D01*
X123781325Y-80973714D01*
X123780827Y-80973226D01*
X123778303Y-80971958D01*
X123770966Y-80967582D01*
X123770961Y-80967580D01*
X123770959Y-80967579D01*
X123723029Y-80950545D01*
X123715907Y-80947807D01*
X123668915Y-80928343D01*
X123668913Y-80928342D01*
X123668911Y-80928341D01*
X123668910Y-80928341D01*
X123660531Y-80926674D01*
X123639726Y-80920940D01*
X123631678Y-80918080D01*
X123631667Y-80918077D01*
X123631666Y-80918077D01*
X123631664Y-80918076D01*
X123631657Y-80918075D01*
X123581320Y-80910718D01*
X123573801Y-80909422D01*
X123523918Y-80899500D01*
X123515380Y-80899500D01*
X123493837Y-80897934D01*
X123485390Y-80896699D01*
X123485378Y-80896699D01*
X123434591Y-80899304D01*
X123426959Y-80899500D01*
X114461826Y-80899500D01*
X114457906Y-80899448D01*
X114456567Y-80899412D01*
X114395857Y-80897814D01*
X114388546Y-80898341D01*
X114388536Y-80898204D01*
X114383353Y-80898646D01*
X114383367Y-80898782D01*
X114376086Y-80899499D01*
X114315179Y-80911614D01*
X114311334Y-80912326D01*
X114290496Y-80915904D01*
X114250147Y-80922833D01*
X114243091Y-80924773D01*
X114243055Y-80924642D01*
X114238050Y-80926088D01*
X114238090Y-80926218D01*
X114231083Y-80928343D01*
X114173722Y-80952102D01*
X114170085Y-80953553D01*
X114112131Y-80975791D01*
X114105587Y-80979071D01*
X114105526Y-80978950D01*
X114100888Y-80981351D01*
X114100952Y-80981470D01*
X114094503Y-80984916D01*
X114042871Y-81019414D01*
X114039592Y-81021543D01*
X113987075Y-81054671D01*
X113981297Y-81059164D01*
X113981214Y-81059057D01*
X113977152Y-81062302D01*
X113977239Y-81062408D01*
X113971583Y-81067049D01*
X113927686Y-81110945D01*
X113924880Y-81113678D01*
X112716743Y-82259859D01*
X112648957Y-82296653D01*
X112600422Y-82298556D01*
X112600312Y-82299959D01*
X112594482Y-82299500D01*
X112594481Y-82299500D01*
X112405519Y-82299500D01*
X112218882Y-82329060D01*
X112039168Y-82387453D01*
X112039163Y-82387455D01*
X112039157Y-82387458D01*
X111870804Y-82473238D01*
X111870799Y-82473241D01*
X111717936Y-82584303D01*
X111717925Y-82584312D01*
X111584312Y-82717925D01*
X111584303Y-82717936D01*
X111473241Y-82870799D01*
X111473238Y-82870804D01*
X111387458Y-83039157D01*
X111387455Y-83039163D01*
X111387453Y-83039168D01*
X111329060Y-83218882D01*
X111299500Y-83405519D01*
X111299500Y-83594481D01*
X111329060Y-83781118D01*
X111387453Y-83960832D01*
X111473240Y-84129199D01*
X111584310Y-84282073D01*
X111717927Y-84415690D01*
X111870801Y-84526760D01*
X112039168Y-84612547D01*
X112218882Y-84670940D01*
X112231169Y-84672886D01*
X112301630Y-84704256D01*
X112346965Y-84766654D01*
X112355028Y-84843359D01*
X112323658Y-84913820D01*
X112313221Y-84925411D01*
X107331193Y-89907437D01*
X107327189Y-89911294D01*
X107285320Y-89950148D01*
X107285312Y-89950158D01*
X107283988Y-89951988D01*
X107268652Y-89969979D01*
X107267049Y-89971581D01*
X107235308Y-90019086D01*
X107232133Y-90023651D01*
X107198647Y-90069929D01*
X107197699Y-90071996D01*
X107186175Y-90092620D01*
X107184919Y-90094500D01*
X107184916Y-90094504D01*
X107163062Y-90147263D01*
X107160840Y-90152355D01*
X107137017Y-90204297D01*
X107137014Y-90204305D01*
X107136489Y-90206513D01*
X107129214Y-90228979D01*
X107128343Y-90231080D01*
X107128342Y-90231085D01*
X107117192Y-90287134D01*
X107116006Y-90292564D01*
X107102783Y-90348115D01*
X107102782Y-90348122D01*
X107102697Y-90350389D01*
X107099944Y-90373847D01*
X107099500Y-90376079D01*
X107099500Y-90433221D01*
X107099396Y-90438783D01*
X106887201Y-96119067D01*
X106864472Y-96192770D01*
X106825885Y-96234049D01*
X106677636Y-96341757D01*
X106677633Y-96341759D01*
X106521759Y-96497633D01*
X106521757Y-96497636D01*
X106392186Y-96675975D01*
X106392185Y-96675976D01*
X106292105Y-96872393D01*
X106223985Y-97082043D01*
X106200995Y-97227201D01*
X106189500Y-97299778D01*
X105000500Y-97299778D01*
X105000500Y-80878706D01*
X106149500Y-80878706D01*
X106149500Y-81121293D01*
X106181160Y-81361781D01*
X106181161Y-81361787D01*
X106181162Y-81361789D01*
X106243946Y-81596100D01*
X106336776Y-81820212D01*
X106458064Y-82030289D01*
X106605735Y-82222738D01*
X106777262Y-82394265D01*
X106969711Y-82541936D01*
X107179788Y-82663224D01*
X107403900Y-82756054D01*
X107638211Y-82818838D01*
X107638217Y-82818838D01*
X107638218Y-82818839D01*
X107703600Y-82827446D01*
X107878712Y-82850500D01*
X108121288Y-82850500D01*
X108361789Y-82818838D01*
X108596100Y-82756054D01*
X108820212Y-82663224D01*
X109030289Y-82541936D01*
X109222738Y-82394265D01*
X109394265Y-82222738D01*
X109541936Y-82030289D01*
X109663224Y-81820212D01*
X109756054Y-81596100D01*
X109818838Y-81361789D01*
X109850500Y-81121288D01*
X109850500Y-80878712D01*
X109850499Y-80878706D01*
X187149500Y-80878706D01*
X187149500Y-81121293D01*
X187181160Y-81361781D01*
X187181161Y-81361787D01*
X187181162Y-81361789D01*
X187243946Y-81596100D01*
X187336776Y-81820212D01*
X187458064Y-82030289D01*
X187605735Y-82222738D01*
X187777262Y-82394265D01*
X187969711Y-82541936D01*
X188179788Y-82663224D01*
X188403900Y-82756054D01*
X188638211Y-82818838D01*
X188638217Y-82818838D01*
X188638218Y-82818839D01*
X188703600Y-82827446D01*
X188878712Y-82850500D01*
X189121288Y-82850500D01*
X189361789Y-82818838D01*
X189596100Y-82756054D01*
X189820212Y-82663224D01*
X190030289Y-82541936D01*
X190222738Y-82394265D01*
X190394265Y-82222738D01*
X190541936Y-82030289D01*
X190663224Y-81820212D01*
X190756054Y-81596100D01*
X190818838Y-81361789D01*
X190850500Y-81121288D01*
X190850500Y-80878712D01*
X190818838Y-80638211D01*
X190756054Y-80403900D01*
X190663224Y-80179788D01*
X190541936Y-79969711D01*
X190394265Y-79777262D01*
X190222738Y-79605735D01*
X190030289Y-79458064D01*
X189960263Y-79417634D01*
X189820216Y-79336778D01*
X189820214Y-79336777D01*
X189820212Y-79336776D01*
X189688932Y-79282398D01*
X189596103Y-79243947D01*
X189596101Y-79243946D01*
X189596100Y-79243946D01*
X189361789Y-79181162D01*
X189361787Y-79181161D01*
X189361781Y-79181160D01*
X189121293Y-79149500D01*
X189121288Y-79149500D01*
X188878712Y-79149500D01*
X188878706Y-79149500D01*
X188638218Y-79181160D01*
X188403896Y-79243947D01*
X188179783Y-79336778D01*
X187969712Y-79458063D01*
X187969711Y-79458064D01*
X187777262Y-79605735D01*
X187777260Y-79605736D01*
X187777256Y-79605740D01*
X187605740Y-79777256D01*
X187458063Y-79969712D01*
X187336778Y-80179783D01*
X187243947Y-80403896D01*
X187181160Y-80638218D01*
X187149500Y-80878706D01*
X109850499Y-80878706D01*
X109818838Y-80638211D01*
X109756054Y-80403900D01*
X109663224Y-80179788D01*
X109541936Y-79969711D01*
X109394265Y-79777262D01*
X109222738Y-79605735D01*
X109030289Y-79458064D01*
X108960263Y-79417634D01*
X108820216Y-79336778D01*
X108820214Y-79336777D01*
X108820212Y-79336776D01*
X108688932Y-79282398D01*
X108596103Y-79243947D01*
X108596101Y-79243946D01*
X108596100Y-79243946D01*
X108361789Y-79181162D01*
X108361787Y-79181161D01*
X108361781Y-79181160D01*
X108121293Y-79149500D01*
X108121288Y-79149500D01*
X107878712Y-79149500D01*
X107878706Y-79149500D01*
X107638218Y-79181160D01*
X107403896Y-79243947D01*
X107179783Y-79336778D01*
X106969712Y-79458063D01*
X106969711Y-79458064D01*
X106777262Y-79605735D01*
X106777260Y-79605736D01*
X106777256Y-79605740D01*
X106605740Y-79777256D01*
X106458063Y-79969712D01*
X106336778Y-80179783D01*
X106243947Y-80403896D01*
X106181160Y-80638218D01*
X106149500Y-80878706D01*
X105000500Y-80878706D01*
X105000500Y-78149500D01*
X105020462Y-78075000D01*
X105075000Y-78020462D01*
X105149500Y-78000500D01*
X191850500Y-78000500D01*
X191925000Y-78020462D01*
G37*
%TD.AperFunction*%
%TD*%
M02*
