%TF.GenerationSoftware,KiCad,Pcbnew,10.0.5*%
%TF.CreationDate,2026-08-22T10:31:55-07:00*%
%TF.ProjectId,kbdrelay-carrier,6b626472-656c-4617-992d-636172726965,rev?*%
%TF.SameCoordinates,Original*%
%TF.FileFunction,Copper,L2,Bot*%
%TF.FilePolarity,Positive*%
%FSLAX46Y46*%
G04 Gerber Fmt 4.6, Leading zero omitted, Abs format (unit mm)*
G04 Created by KiCad (PCBNEW 10.0.5) date 2026-08-22 10:31:55*
%MOMM*%
%LPD*%
G01*
G04 APERTURE LIST*
G04 Aperture macros list*
%AMRoundRect*
0 Rectangle with rounded corners*
0 $1 Rounding radius*
0 $2 $3 $4 $5 $6 $7 $8 $9 X,Y pos of 4 corners*
0 Add a 4 corners polygon primitive as box body*
4,1,4,$2,$3,$4,$5,$6,$7,$8,$9,$2,$3,0*
0 Add four circle primitives for the rounded corners*
1,1,$1+$1,$2,$3*
1,1,$1+$1,$4,$5*
1,1,$1+$1,$6,$7*
1,1,$1+$1,$8,$9*
0 Add four rect primitives between the rounded corners*
20,1,$1+$1,$2,$3,$4,$5,0*
20,1,$1+$1,$4,$5,$6,$7,0*
20,1,$1+$1,$6,$7,$8,$9,0*
20,1,$1+$1,$8,$9,$2,$3,0*%
G04 Aperture macros list end*
%ADD10C,0.300000*%
%TA.AperFunction,NonConductor*%
%ADD11C,0.300000*%
%TD*%
%TA.AperFunction,ComponentPad*%
%ADD12C,2.000000*%
%TD*%
%TA.AperFunction,ComponentPad*%
%ADD13R,1.700000X1.700000*%
%TD*%
%TA.AperFunction,ComponentPad*%
%ADD14C,1.700000*%
%TD*%
%TA.AperFunction,ComponentPad*%
%ADD15C,1.600000*%
%TD*%
%TA.AperFunction,ComponentPad*%
%ADD16RoundRect,0.250000X-0.750000X-0.750000X0.750000X-0.750000X0.750000X0.750000X-0.750000X0.750000X0*%
%TD*%
%TA.AperFunction,ComponentPad*%
%ADD17R,1.800000X1.800000*%
%TD*%
%TA.AperFunction,ComponentPad*%
%ADD18C,1.800000*%
%TD*%
%TA.AperFunction,ComponentPad*%
%ADD19RoundRect,0.250000X1.350000X1.350000X-1.350000X1.350000X-1.350000X-1.350000X1.350000X-1.350000X0*%
%TD*%
%TA.AperFunction,ComponentPad*%
%ADD20C,3.200000*%
%TD*%
%TA.AperFunction,ComponentPad*%
%ADD21R,2.000000X2.000000*%
%TD*%
%TA.AperFunction,Conductor*%
%ADD22C,1.500000*%
%TD*%
%TA.AperFunction,Conductor*%
%ADD23C,0.700000*%
%TD*%
G04 APERTURE END LIST*
D10*
D11*
X152195237Y-129862019D02*
X151966665Y-129957257D01*
X151966665Y-129957257D02*
X151890475Y-130052495D01*
X151890475Y-130052495D02*
X151814284Y-130242971D01*
X151814284Y-130242971D02*
X151814284Y-130528685D01*
X151814284Y-130528685D02*
X151890475Y-130719161D01*
X151890475Y-130719161D02*
X151966665Y-130814400D01*
X151966665Y-130814400D02*
X152119046Y-130909638D01*
X152119046Y-130909638D02*
X152728570Y-130909638D01*
X152728570Y-130909638D02*
X152728570Y-128909638D01*
X152728570Y-128909638D02*
X152195237Y-128909638D01*
X152195237Y-128909638D02*
X152042856Y-129004876D01*
X152042856Y-129004876D02*
X151966665Y-129100114D01*
X151966665Y-129100114D02*
X151890475Y-129290590D01*
X151890475Y-129290590D02*
X151890475Y-129481066D01*
X151890475Y-129481066D02*
X151966665Y-129671542D01*
X151966665Y-129671542D02*
X152042856Y-129766780D01*
X152042856Y-129766780D02*
X152195237Y-129862019D01*
X152195237Y-129862019D02*
X152728570Y-129862019D01*
X150823808Y-128909638D02*
X150519046Y-128909638D01*
X150519046Y-128909638D02*
X150366665Y-129004876D01*
X150366665Y-129004876D02*
X150214284Y-129195352D01*
X150214284Y-129195352D02*
X150138094Y-129576304D01*
X150138094Y-129576304D02*
X150138094Y-130242971D01*
X150138094Y-130242971D02*
X150214284Y-130623923D01*
X150214284Y-130623923D02*
X150366665Y-130814400D01*
X150366665Y-130814400D02*
X150519046Y-130909638D01*
X150519046Y-130909638D02*
X150823808Y-130909638D01*
X150823808Y-130909638D02*
X150976189Y-130814400D01*
X150976189Y-130814400D02*
X151128570Y-130623923D01*
X151128570Y-130623923D02*
X151204761Y-130242971D01*
X151204761Y-130242971D02*
X151204761Y-129576304D01*
X151204761Y-129576304D02*
X151128570Y-129195352D01*
X151128570Y-129195352D02*
X150976189Y-129004876D01*
X150976189Y-129004876D02*
X150823808Y-128909638D01*
X149680952Y-128909638D02*
X148766666Y-128909638D01*
X149223809Y-130909638D02*
X149223809Y-128909638D01*
X148461904Y-128909638D02*
X147547618Y-128909638D01*
X148004761Y-130909638D02*
X148004761Y-128909638D01*
X146709522Y-128909638D02*
X146404760Y-128909638D01*
X146404760Y-128909638D02*
X146252379Y-129004876D01*
X146252379Y-129004876D02*
X146099998Y-129195352D01*
X146099998Y-129195352D02*
X146023808Y-129576304D01*
X146023808Y-129576304D02*
X146023808Y-130242971D01*
X146023808Y-130242971D02*
X146099998Y-130623923D01*
X146099998Y-130623923D02*
X146252379Y-130814400D01*
X146252379Y-130814400D02*
X146404760Y-130909638D01*
X146404760Y-130909638D02*
X146709522Y-130909638D01*
X146709522Y-130909638D02*
X146861903Y-130814400D01*
X146861903Y-130814400D02*
X147014284Y-130623923D01*
X147014284Y-130623923D02*
X147090475Y-130242971D01*
X147090475Y-130242971D02*
X147090475Y-129576304D01*
X147090475Y-129576304D02*
X147014284Y-129195352D01*
X147014284Y-129195352D02*
X146861903Y-129004876D01*
X146861903Y-129004876D02*
X146709522Y-128909638D01*
X145338094Y-130909638D02*
X145338094Y-128909638D01*
X145338094Y-128909638D02*
X144804761Y-130338209D01*
X144804761Y-130338209D02*
X144271427Y-128909638D01*
X144271427Y-128909638D02*
X144271427Y-130909638D01*
D12*
%TO.P,F1,1*%
%TO.N,/+5V_PROT*%
X113040000Y-119500000D03*
%TO.P,F1,2*%
%TO.N,/+5V_KBD*%
X107960000Y-119500000D03*
%TD*%
D13*
%TO.P,J2,1,Pin_1_1*%
%TO.N,Net-(J2-Pin_1)*%
X164500000Y-119500000D03*
D14*
%TO.P,J2,2,Pin_2_2*%
%TO.N,Net-(J2-Pin_2)*%
X164500000Y-122040000D03*
%TO.P,J2,3,Pin_3_3*%
%TO.N,GND*%
X164500000Y-124580000D03*
%TD*%
D15*
%TO.P,R9,1*%
%TO.N,Net-(U2-RX)*%
X178660000Y-124500000D03*
%TO.P,R9,2*%
%TO.N,Net-(J2-Pin_2)*%
X168500000Y-124500000D03*
%TD*%
%TO.P,R12,1*%
%TO.N,Net-(D2-K)*%
X138500000Y-126500000D03*
%TO.P,R12,2*%
%TO.N,GND*%
X148660000Y-126500000D03*
%TD*%
D16*
%TO.P,C1,1*%
%TO.N,/+5V_PROT*%
X112500000Y-126500000D03*
D12*
%TO.P,C1,2*%
%TO.N,GND*%
X117500000Y-126500000D03*
%TD*%
D15*
%TO.P,R4,1*%
%TO.N,/CS_KBD*%
X149500000Y-96500000D03*
%TO.P,R4,2*%
%TO.N,/CS_TGT*%
X159660000Y-96500000D03*
%TD*%
D17*
%TO.P,D2,1,K_1*%
%TO.N,Net-(D2-K)*%
X135960000Y-126500000D03*
D18*
%TO.P,D2,2,A_2*%
%TO.N,/+5V_KBD*%
X133420000Y-126500000D03*
%TD*%
D15*
%TO.P,C2,1*%
%TO.N,/+5V_PROT*%
X124500000Y-126500000D03*
%TO.P,C2,2*%
%TO.N,GND*%
X129500000Y-126500000D03*
%TD*%
D13*
%TO.P,J1,1,Pin_1_1*%
%TO.N,Net-(J1-Pin_1)*%
X125500000Y-83500000D03*
D14*
%TO.P,J1,2,Pin_2_2*%
%TO.N,Net-(J1-Pin_2)*%
X125500000Y-86040000D03*
%TO.P,J1,3,Pin_3_3*%
%TO.N,GND*%
X125500000Y-88580000D03*
%TD*%
D19*
%TO.P,D1,1,K_1*%
%TO.N,/+5V_PROT*%
X120500000Y-119500000D03*
D20*
%TO.P,D1,2,A_2*%
%TO.N,/+5V_IN*%
X133200000Y-119500000D03*
%TD*%
D13*
%TO.P,J3,1,Pin_1_1*%
%TO.N,/+5V_IN*%
X137500000Y-119500000D03*
D14*
%TO.P,J3,2,Pin_2_2*%
%TO.N,GND*%
X137500000Y-122040000D03*
%TD*%
D15*
%TO.P,R1,1*%
%TO.N,Net-(U1-GPIO4)*%
X149500000Y-111500000D03*
%TO.P,R1,2*%
%TO.N,Net-(U2-GPIO4)*%
X159660000Y-111500000D03*
%TD*%
%TO.P,R5,1*%
%TO.N,/DRDY_KBD*%
X149500000Y-91500000D03*
%TO.P,R5,2*%
%TO.N,/DRDY_TGT*%
X159660000Y-91500000D03*
%TD*%
%TO.P,R6,1*%
%TO.N,Net-(J1-Pin_1)*%
X112500000Y-83500000D03*
%TO.P,R6,2*%
%TO.N,Net-(U1-TX)*%
X122660000Y-83500000D03*
%TD*%
%TO.P,R2,1*%
%TO.N,Net-(U1-GPIO5)*%
X149500000Y-106500000D03*
%TO.P,R2,2*%
%TO.N,Net-(U2-GPIO5)*%
X159660000Y-106500000D03*
%TD*%
%TO.P,R3,1*%
%TO.N,Net-(U1-GPIO6)*%
X149500000Y-101500000D03*
%TO.P,R3,2*%
%TO.N,Net-(U2-GPIO6)*%
X159660000Y-101500000D03*
%TD*%
D21*
%TO.P,U2,1,VDD_1*%
%TO.N,unconnected-(U2-VDD-Pad1)*%
X189410000Y-97350000D03*
D12*
%TO.P,U2,2,GND_2*%
%TO.N,GND*%
X186870000Y-97350000D03*
%TO.P,U2,3,3V3(OUT)_3*%
%TO.N,unconnected-(U2-3V3(OUT)-Pad3)*%
X184330000Y-97350000D03*
%TO.P,U2,4,GPIO1_4*%
%TO.N,unconnected-(U2-GPIO1-Pad4)*%
X181790000Y-97350000D03*
%TO.P,U2,5,GPIO2_5*%
%TO.N,unconnected-(U2-GPIO2-Pad5)*%
X179250000Y-97350000D03*
%TO.P,U2,6,GPIO3_6*%
%TO.N,unconnected-(U2-GPIO3-Pad6)*%
X176710000Y-97350000D03*
%TO.P,U2,7,GPIO4_7*%
%TO.N,Net-(U2-GPIO4)*%
X174170000Y-97350000D03*
%TO.P,U2,8,GPIO5_8*%
%TO.N,Net-(U2-GPIO5)*%
X171630000Y-97350000D03*
%TO.P,U2,9,GPIO6_9*%
%TO.N,Net-(U2-GPIO6)*%
X169090000Y-97350000D03*
%TO.P,U2,10,GPIO7_10*%
%TO.N,/CS_TGT*%
X169090000Y-112590000D03*
%TO.P,U2,11,GPIO8_11*%
%TO.N,/DRDY_TGT*%
X171630000Y-112590000D03*
%TO.P,U2,12,GPIO9_12*%
%TO.N,unconnected-(U2-GPIO9-Pad12)*%
X174170000Y-112590000D03*
%TO.P,U2,13,GPIO10_13*%
%TO.N,unconnected-(U2-GPIO10-Pad13)*%
X176710000Y-112590000D03*
%TO.P,U2,14,GPIO11_14*%
%TO.N,unconnected-(U2-GPIO11-Pad14)*%
X179250000Y-112590000D03*
%TO.P,U2,15,GPIO12_15*%
%TO.N,unconnected-(U2-GPIO12-Pad15)*%
X181790000Y-112590000D03*
%TO.P,U2,16,GPIO13_16*%
%TO.N,unconnected-(U2-GPIO13-Pad16)*%
X184330000Y-112590000D03*
%TO.P,U2,17,RX_17*%
%TO.N,Net-(U2-RX)*%
X186870000Y-112590000D03*
%TO.P,U2,18,TX_18*%
%TO.N,Net-(U2-TX)*%
X189410000Y-112590000D03*
%TD*%
D15*
%TO.P,R7,1*%
%TO.N,Net-(J1-Pin_2)*%
X112500000Y-88500000D03*
%TO.P,R7,2*%
%TO.N,Net-(U1-RX)*%
X122660000Y-88500000D03*
%TD*%
D21*
%TO.P,U1,1,VDD_1*%
%TO.N,/+5V_KBD*%
X107590000Y-112650000D03*
D12*
%TO.P,U1,2,GND_2*%
%TO.N,GND*%
X110130000Y-112650000D03*
%TO.P,U1,3,3V3(OUT)_3*%
%TO.N,unconnected-(U1-3V3(OUT)-Pad3)*%
X112670000Y-112650000D03*
%TO.P,U1,4,GPIO1_4*%
%TO.N,unconnected-(U1-GPIO1-Pad4)*%
X115210000Y-112650000D03*
%TO.P,U1,5,GPIO2_5*%
%TO.N,unconnected-(U1-GPIO2-Pad5)*%
X117750000Y-112650000D03*
%TO.P,U1,6,GPIO3_6*%
%TO.N,unconnected-(U1-GPIO3-Pad6)*%
X120290000Y-112650000D03*
%TO.P,U1,7,GPIO4_7*%
%TO.N,Net-(U1-GPIO4)*%
X122830000Y-112650000D03*
%TO.P,U1,8,GPIO5_8*%
%TO.N,Net-(U1-GPIO5)*%
X125370000Y-112650000D03*
%TO.P,U1,9,GPIO6_9*%
%TO.N,Net-(U1-GPIO6)*%
X127910000Y-112650000D03*
%TO.P,U1,10,GPIO7_10*%
%TO.N,/CS_KBD*%
X127910000Y-97410000D03*
%TO.P,U1,11,GPIO8_11*%
%TO.N,/DRDY_KBD*%
X125370000Y-97410000D03*
%TO.P,U1,12,GPIO9_12*%
%TO.N,unconnected-(U1-GPIO9-Pad12)*%
X122830000Y-97410000D03*
%TO.P,U1,13,GPIO10_13*%
%TO.N,unconnected-(U1-GPIO10-Pad13)*%
X120290000Y-97410000D03*
%TO.P,U1,14,GPIO11_14*%
%TO.N,unconnected-(U1-GPIO11-Pad14)*%
X117750000Y-97410000D03*
%TO.P,U1,15,GPIO12_15*%
%TO.N,unconnected-(U1-GPIO12-Pad15)*%
X115210000Y-97410000D03*
%TO.P,U1,16,GPIO13_16*%
%TO.N,unconnected-(U1-GPIO13-Pad16)*%
X112670000Y-97410000D03*
%TO.P,U1,17,RX_17*%
%TO.N,Net-(U1-RX)*%
X110130000Y-97410000D03*
%TO.P,U1,18,TX_18*%
%TO.N,Net-(U1-TX)*%
X107590000Y-97410000D03*
%TD*%
D15*
%TO.P,R8,1*%
%TO.N,Net-(U2-TX)*%
X178660000Y-119500000D03*
%TO.P,R8,2*%
%TO.N,Net-(J2-Pin_1)*%
X168500000Y-119500000D03*
%TD*%
%TO.N,/+5V_PROT*%
D22*
X124450000Y-124250000D02*
X124500000Y-126500000D01*
X113040000Y-119500000D02*
X120500000Y-119500000D01*
X112500000Y-126500000D02*
X113040000Y-119500000D01*
X120500000Y-119500000D02*
X124450000Y-124250000D01*
%TO.N,/+5V_KBD*%
X107650000Y-115650000D02*
X122450000Y-115650000D01*
X107590000Y-112650000D02*
X107960000Y-119500000D01*
X122450000Y-115650000D02*
X133419999Y-126500000D01*
%TO.N,Net-(J2-Pin_1)*%
D23*
X164500000Y-119500000D02*
X168500000Y-119500000D01*
%TO.N,Net-(J2-Pin_2)*%
X164500000Y-122040000D02*
X166050000Y-122250000D01*
X166050000Y-122250000D02*
X168500000Y-124500000D01*
%TO.N,GND*%
D22*
X117500000Y-126500000D02*
X120250000Y-129250000D01*
X117500000Y-126500000D02*
X120250000Y-129250000D01*
X120250000Y-129250000D02*
X135450000Y-129250000D01*
X120250000Y-129250000D02*
X139250000Y-129250000D01*
X139050000Y-129250000D02*
X139850000Y-128449999D01*
X121450000Y-126850000D02*
X123450000Y-128850000D01*
X120250000Y-129250000D02*
X139050000Y-129250000D01*
X117500000Y-126500000D02*
X120250000Y-129250000D01*
X130449999Y-128850000D02*
X131050000Y-128250000D01*
X137250000Y-129250000D02*
X137650000Y-128850000D01*
X117500000Y-126500000D02*
X121450000Y-126850000D01*
X120250000Y-129250000D02*
X137250000Y-129250000D01*
X139250000Y-129250000D02*
X141650000Y-126850000D01*
X117500000Y-126500000D02*
X120250000Y-129250000D01*
X123450000Y-128850000D02*
X130449999Y-128850000D01*
X123450000Y-128850000D02*
X133250000Y-128850000D01*
X121450000Y-126850000D02*
X123450000Y-128850000D01*
X117500000Y-126500000D02*
X121450000Y-126850000D01*
%TO.N,Net-(U2-RX)*%
D23*
X189050000Y-116050000D02*
X191450000Y-113650000D01*
X188450000Y-110450000D02*
X186870000Y-112590000D01*
X187450000Y-116050000D02*
X189050000Y-116050000D01*
X190450000Y-110450000D02*
X188450000Y-110450000D01*
X191450000Y-111450000D02*
X190450000Y-110450000D01*
X191450000Y-113650000D02*
X191450000Y-111450000D01*
X178660000Y-124500000D02*
X187450000Y-116050000D01*
%TO.N,Net-(D2-K)*%
X135960000Y-126500000D02*
X138500000Y-126500000D01*
%TO.N,/CS_KBD*%
X127910000Y-97410000D02*
X129250000Y-96650000D01*
X129250000Y-96650000D02*
X149500000Y-96500000D01*
%TO.N,/CS_TGT*%
X157650000Y-112450000D02*
X158650000Y-113450000D01*
X168050000Y-113450000D02*
X169090000Y-112590000D01*
X158650000Y-113450000D02*
X168050000Y-113450000D01*
X159660000Y-96500000D02*
X157650000Y-98650000D01*
X157650000Y-98650000D02*
X157650000Y-112450000D01*
%TO.N,Net-(J1-Pin_1)*%
X112500000Y-83500000D02*
X114450000Y-81650000D01*
X123650000Y-81650000D02*
X125500000Y-83500000D01*
X114450000Y-81650000D02*
X123650000Y-81650000D01*
%TO.N,Net-(J1-Pin_2)*%
X114850000Y-86250000D02*
X125500000Y-86040000D01*
X112500000Y-88500000D02*
X114850000Y-86250000D01*
%TO.N,/+5V_IN*%
D22*
X133199999Y-119500000D02*
X137500000Y-119500000D01*
%TO.N,Net-(U1-GPIO4)*%
D23*
X146050000Y-114850000D02*
X149500000Y-111500000D01*
X123050000Y-113450000D02*
X124450000Y-114850000D01*
X124450000Y-114850000D02*
X146050000Y-114850000D01*
X122830000Y-112650000D02*
X123050000Y-113450000D01*
%TO.N,Net-(U2-GPIO4)*%
X159660000Y-111500000D02*
X172050000Y-99450000D01*
X172050000Y-99450000D02*
X172650000Y-99450000D01*
X172650000Y-99450000D02*
X174170000Y-97350000D01*
%TO.N,/DRDY_KBD*%
X130449999Y-91650000D02*
X149500000Y-91500000D01*
X125650000Y-96450000D02*
X130449999Y-91650000D01*
X125370000Y-97410000D02*
X125650000Y-96450000D01*
%TO.N,/DRDY_TGT*%
X156250000Y-113250000D02*
X157850000Y-114850000D01*
X157850000Y-114850000D02*
X170050000Y-114850000D01*
X159660000Y-91500000D02*
X156250000Y-95050000D01*
X156250000Y-95050000D02*
X156250000Y-113250000D01*
X170050000Y-114850000D02*
X171630000Y-112590000D01*
%TO.N,Net-(U1-TX)*%
X107590000Y-97410000D02*
X107850000Y-90250000D01*
X107850000Y-90250000D02*
X112650000Y-85450000D01*
X113450000Y-85450000D02*
X115250000Y-83650000D01*
X115250000Y-83650000D02*
X122660000Y-83500000D01*
X112650000Y-85450000D02*
X113450000Y-85450000D01*
%TO.N,Net-(U1-GPIO5)*%
X125370000Y-112650000D02*
X125650000Y-111850000D01*
X125650000Y-111850000D02*
X130850000Y-106650000D01*
X130850000Y-106650000D02*
X149500000Y-106500000D01*
%TO.N,Net-(U2-GPIO5)*%
X170850000Y-98450000D02*
X171050000Y-98450000D01*
X167050000Y-99450000D02*
X169850000Y-99450000D01*
X170050000Y-99250000D02*
X170250000Y-99250000D01*
X170650000Y-98650000D02*
X170850000Y-98650000D01*
X171050000Y-98250000D02*
X171630000Y-97350000D01*
X170650000Y-98850000D02*
X170650000Y-98650000D01*
X170450000Y-98850000D02*
X170650000Y-98850000D01*
X169850000Y-99450000D02*
X170050000Y-99250000D01*
X170250000Y-99050000D02*
X170450000Y-99050000D01*
X170850000Y-98650000D02*
X170850000Y-98450000D01*
X171050000Y-98450000D02*
X171050000Y-98250000D01*
X159660000Y-106500000D02*
X167050000Y-99450000D01*
X170250000Y-99250000D02*
X170250000Y-99050000D01*
X170450000Y-99050000D02*
X170450000Y-98850000D01*
%TO.N,Net-(U1-GPIO6)*%
X127910000Y-112650000D02*
X132650000Y-108450000D01*
X150450000Y-108450000D02*
X151450000Y-107450000D01*
X151450000Y-107450000D02*
X151450000Y-103650000D01*
X151450000Y-103650000D02*
X149500000Y-101500000D01*
X132650000Y-108450000D02*
X150450000Y-108450000D01*
%TO.N,Net-(U2-GPIO6)*%
X159660000Y-101500000D02*
X164050000Y-97450000D01*
X164050000Y-97450000D02*
X169090000Y-97350000D01*
%TO.N,Net-(U2-TX)*%
X178660000Y-119500000D02*
X183850000Y-114650000D01*
X188050000Y-114650000D02*
X189410000Y-112590000D01*
X183850000Y-114650000D02*
X188050000Y-114650000D01*
%TO.N,Net-(U1-RX)*%
X118250000Y-88650000D02*
X122660000Y-88500000D01*
X110450000Y-96450000D02*
X118250000Y-88650000D01*
X110130000Y-97410000D02*
X110450000Y-96450000D01*
%TD*%
%TA.AperFunction,Conductor*%
%TO.N,GND*%
G36*
X191925000Y-78020462D02*
G01*
X191979538Y-78075000D01*
X191999500Y-78149500D01*
X191999500Y-110012729D01*
X191979538Y-110087229D01*
X191925000Y-110141767D01*
X191850500Y-110161729D01*
X191776000Y-110141767D01*
X191745141Y-110118088D01*
X191336051Y-109708999D01*
X191336039Y-109708985D01*
X191199502Y-109572448D01*
X191199501Y-109572447D01*
X191052994Y-109466004D01*
X190891639Y-109383789D01*
X190719409Y-109327829D01*
X190719406Y-109327828D01*
X190719408Y-109327828D01*
X190717664Y-109327552D01*
X190717660Y-109327552D01*
X190540546Y-109299499D01*
X190359454Y-109299499D01*
X190353311Y-109299499D01*
X190353287Y-109299500D01*
X188455130Y-109299500D01*
X188453989Y-109299496D01*
X188368273Y-109298839D01*
X188368272Y-109298839D01*
X188368267Y-109298839D01*
X188364235Y-109299126D01*
X188364146Y-109299129D01*
X188363575Y-109299171D01*
X188363481Y-109299182D01*
X188359460Y-109299498D01*
X188275055Y-109312866D01*
X188273932Y-109313039D01*
X188189204Y-109325795D01*
X188185214Y-109326721D01*
X188185118Y-109326739D01*
X188184672Y-109326844D01*
X188184556Y-109326877D01*
X188180581Y-109327831D01*
X188099216Y-109354267D01*
X188098135Y-109354614D01*
X188016539Y-109380437D01*
X188012772Y-109381964D01*
X188012696Y-109381991D01*
X188012210Y-109382191D01*
X188012137Y-109382224D01*
X188008368Y-109383785D01*
X187932134Y-109422628D01*
X187931117Y-109423141D01*
X187854568Y-109461409D01*
X187851056Y-109463524D01*
X187850965Y-109463574D01*
X187850572Y-109463813D01*
X187850500Y-109463861D01*
X187847009Y-109466000D01*
X187777733Y-109516332D01*
X187776812Y-109516996D01*
X187707239Y-109566735D01*
X187704132Y-109569348D01*
X187704042Y-109569418D01*
X187703656Y-109569745D01*
X187703608Y-109569790D01*
X187700504Y-109572441D01*
X187639891Y-109633053D01*
X187639084Y-109633853D01*
X187578215Y-109693797D01*
X187575548Y-109696872D01*
X187575474Y-109696951D01*
X187575159Y-109697318D01*
X187575100Y-109697392D01*
X187572448Y-109700497D01*
X187522082Y-109769818D01*
X187521409Y-109770737D01*
X186808719Y-110736027D01*
X186748409Y-110784105D01*
X186708299Y-110795251D01*
X186517992Y-110820305D01*
X186290003Y-110881395D01*
X186071943Y-110971719D01*
X185867551Y-111089726D01*
X185867550Y-111089727D01*
X185690703Y-111225426D01*
X185619449Y-111254940D01*
X185542980Y-111244873D01*
X185509299Y-111225428D01*
X185332450Y-111089727D01*
X185306013Y-111074463D01*
X185128056Y-110971719D01*
X184909996Y-110881395D01*
X184909994Y-110881394D01*
X184909993Y-110881394D01*
X184682014Y-110820307D01*
X184682012Y-110820306D01*
X184682006Y-110820305D01*
X184448016Y-110789500D01*
X184448011Y-110789500D01*
X184211989Y-110789500D01*
X184211983Y-110789500D01*
X183977993Y-110820305D01*
X183750003Y-110881395D01*
X183531943Y-110971719D01*
X183327551Y-111089726D01*
X183327550Y-111089727D01*
X183150703Y-111225426D01*
X183079449Y-111254940D01*
X183002980Y-111244873D01*
X182969299Y-111225428D01*
X182792450Y-111089727D01*
X182766013Y-111074463D01*
X182588056Y-110971719D01*
X182369996Y-110881395D01*
X182369994Y-110881394D01*
X182369993Y-110881394D01*
X182142014Y-110820307D01*
X182142012Y-110820306D01*
X182142006Y-110820305D01*
X181908016Y-110789500D01*
X181908011Y-110789500D01*
X181671989Y-110789500D01*
X181671983Y-110789500D01*
X181437993Y-110820305D01*
X181210003Y-110881395D01*
X180991943Y-110971719D01*
X180787551Y-111089726D01*
X180787550Y-111089727D01*
X180610703Y-111225426D01*
X180539449Y-111254940D01*
X180462980Y-111244873D01*
X180429299Y-111225428D01*
X180252450Y-111089727D01*
X180226013Y-111074463D01*
X180048056Y-110971719D01*
X179829996Y-110881395D01*
X179829994Y-110881394D01*
X179829993Y-110881394D01*
X179602014Y-110820307D01*
X179602012Y-110820306D01*
X179602006Y-110820305D01*
X179368016Y-110789500D01*
X179368011Y-110789500D01*
X179131989Y-110789500D01*
X179131983Y-110789500D01*
X178897993Y-110820305D01*
X178670003Y-110881395D01*
X178451943Y-110971719D01*
X178247551Y-111089726D01*
X178247550Y-111089727D01*
X178070703Y-111225426D01*
X177999449Y-111254940D01*
X177922980Y-111244873D01*
X177889299Y-111225428D01*
X177712450Y-111089727D01*
X177686013Y-111074463D01*
X177508056Y-110971719D01*
X177289996Y-110881395D01*
X177289994Y-110881394D01*
X177289993Y-110881394D01*
X177062014Y-110820307D01*
X177062012Y-110820306D01*
X177062006Y-110820305D01*
X176828016Y-110789500D01*
X176828011Y-110789500D01*
X176591989Y-110789500D01*
X176591983Y-110789500D01*
X176357993Y-110820305D01*
X176130003Y-110881395D01*
X175911943Y-110971719D01*
X175707551Y-111089726D01*
X175707550Y-111089727D01*
X175530703Y-111225426D01*
X175459449Y-111254940D01*
X175382980Y-111244873D01*
X175349299Y-111225428D01*
X175172450Y-111089727D01*
X175146013Y-111074463D01*
X174968056Y-110971719D01*
X174749996Y-110881395D01*
X174749994Y-110881394D01*
X174749993Y-110881394D01*
X174522014Y-110820307D01*
X174522012Y-110820306D01*
X174522006Y-110820305D01*
X174288016Y-110789500D01*
X174288011Y-110789500D01*
X174051989Y-110789500D01*
X174051983Y-110789500D01*
X173817993Y-110820305D01*
X173590003Y-110881395D01*
X173371943Y-110971719D01*
X173167551Y-111089726D01*
X173167550Y-111089727D01*
X172990703Y-111225426D01*
X172919449Y-111254940D01*
X172842980Y-111244873D01*
X172809299Y-111225428D01*
X172632450Y-111089727D01*
X172606013Y-111074463D01*
X172428056Y-110971719D01*
X172209996Y-110881395D01*
X172209994Y-110881394D01*
X172209993Y-110881394D01*
X171982014Y-110820307D01*
X171982012Y-110820306D01*
X171982006Y-110820305D01*
X171748016Y-110789500D01*
X171748011Y-110789500D01*
X171511989Y-110789500D01*
X171511983Y-110789500D01*
X171277993Y-110820305D01*
X171050003Y-110881395D01*
X170831943Y-110971719D01*
X170627551Y-111089726D01*
X170627550Y-111089727D01*
X170450703Y-111225426D01*
X170379449Y-111254940D01*
X170302980Y-111244873D01*
X170269299Y-111225428D01*
X170092450Y-111089727D01*
X170066013Y-111074463D01*
X169888056Y-110971719D01*
X169669996Y-110881395D01*
X169669994Y-110881394D01*
X169669993Y-110881394D01*
X169442014Y-110820307D01*
X169442012Y-110820306D01*
X169442006Y-110820305D01*
X169208016Y-110789500D01*
X169208011Y-110789500D01*
X168971989Y-110789500D01*
X168971983Y-110789500D01*
X168737993Y-110820305D01*
X168510003Y-110881395D01*
X168291943Y-110971719D01*
X168087551Y-111089726D01*
X168087550Y-111089727D01*
X167900301Y-111233408D01*
X167900299Y-111233409D01*
X167900295Y-111233413D01*
X167733413Y-111400295D01*
X167733409Y-111400299D01*
X167733408Y-111400301D01*
X167679354Y-111470746D01*
X167589726Y-111587551D01*
X167471719Y-111791943D01*
X167381395Y-112010003D01*
X167381394Y-112010007D01*
X167353430Y-112114372D01*
X167333416Y-112189064D01*
X167294852Y-112255859D01*
X167228057Y-112294423D01*
X167189493Y-112299500D01*
X161288172Y-112299500D01*
X161213672Y-112279538D01*
X161159134Y-112225000D01*
X161139172Y-112150500D01*
X161146465Y-112104456D01*
X161157658Y-112070007D01*
X161221090Y-111874785D01*
X161260500Y-111625962D01*
X161260500Y-111611238D01*
X161280462Y-111536738D01*
X161305617Y-111504424D01*
X161440020Y-111373709D01*
X172473693Y-100642816D01*
X172541016Y-100605187D01*
X172577303Y-100600632D01*
X172651148Y-100600500D01*
X172651504Y-100600500D01*
X172740560Y-100600500D01*
X172742584Y-100600337D01*
X172742607Y-100600337D01*
X172831143Y-100586150D01*
X172831420Y-100586179D01*
X172831409Y-100586108D01*
X172919409Y-100572171D01*
X172919413Y-100572169D01*
X172919429Y-100572167D01*
X172921095Y-100571765D01*
X172921325Y-100571709D01*
X172921407Y-100571688D01*
X172921419Y-100571687D01*
X173006227Y-100543962D01*
X173006501Y-100543947D01*
X173006479Y-100543880D01*
X173006480Y-100543880D01*
X173091639Y-100516211D01*
X173091651Y-100516205D01*
X173093535Y-100515423D01*
X173093540Y-100515420D01*
X173093547Y-100515418D01*
X173173142Y-100474682D01*
X173252994Y-100433996D01*
X173252998Y-100433992D01*
X173253004Y-100433990D01*
X173253838Y-100433478D01*
X173253991Y-100433384D01*
X173254753Y-100432916D01*
X173254752Y-100432916D01*
X173254755Y-100432915D01*
X173282583Y-100412619D01*
X173326842Y-100380343D01*
X173326853Y-100380358D01*
X173327045Y-100380194D01*
X173399501Y-100327553D01*
X173399517Y-100327536D01*
X173399612Y-100327456D01*
X173401061Y-100326217D01*
X173401067Y-100326210D01*
X173401071Y-100326208D01*
X173463728Y-100263325D01*
X173527553Y-100199501D01*
X173527563Y-100199486D01*
X173528878Y-100197946D01*
X173528888Y-100197931D01*
X173528893Y-100197927D01*
X173580874Y-100126108D01*
X173580997Y-100125941D01*
X173610764Y-100084969D01*
X173633996Y-100052994D01*
X173633997Y-100052991D01*
X173636029Y-100050195D01*
X173638442Y-100046575D01*
X174249302Y-99202625D01*
X174309153Y-99153981D01*
X174350549Y-99142266D01*
X174522014Y-99119693D01*
X174749993Y-99058606D01*
X174968049Y-98968284D01*
X175172450Y-98850273D01*
X175349296Y-98714573D01*
X175420551Y-98685059D01*
X175497019Y-98695126D01*
X175530700Y-98714571D01*
X175621399Y-98784167D01*
X175707545Y-98850270D01*
X175707548Y-98850271D01*
X175707550Y-98850273D01*
X175710995Y-98852262D01*
X175911943Y-98968280D01*
X175911946Y-98968281D01*
X175911951Y-98968284D01*
X176130007Y-99058606D01*
X176357986Y-99119693D01*
X176357992Y-99119693D01*
X176357993Y-99119694D01*
X176421603Y-99128068D01*
X176591989Y-99150500D01*
X176828011Y-99150500D01*
X177062014Y-99119693D01*
X177289993Y-99058606D01*
X177508049Y-98968284D01*
X177712450Y-98850273D01*
X177889296Y-98714573D01*
X177960551Y-98685059D01*
X178037019Y-98695126D01*
X178070700Y-98714571D01*
X178161399Y-98784167D01*
X178247545Y-98850270D01*
X178247548Y-98850271D01*
X178247550Y-98850273D01*
X178250995Y-98852262D01*
X178451943Y-98968280D01*
X178451946Y-98968281D01*
X178451951Y-98968284D01*
X178670007Y-99058606D01*
X178897986Y-99119693D01*
X178897992Y-99119693D01*
X178897993Y-99119694D01*
X178961603Y-99128068D01*
X179131989Y-99150500D01*
X179368011Y-99150500D01*
X179602014Y-99119693D01*
X179829993Y-99058606D01*
X180048049Y-98968284D01*
X180252450Y-98850273D01*
X180429296Y-98714573D01*
X180500551Y-98685059D01*
X180577019Y-98695126D01*
X180610700Y-98714571D01*
X180701399Y-98784167D01*
X180787545Y-98850270D01*
X180787548Y-98850271D01*
X180787550Y-98850273D01*
X180790995Y-98852262D01*
X180991943Y-98968280D01*
X180991946Y-98968281D01*
X180991951Y-98968284D01*
X181210007Y-99058606D01*
X181437986Y-99119693D01*
X181437992Y-99119693D01*
X181437993Y-99119694D01*
X181501603Y-99128068D01*
X181671989Y-99150500D01*
X181908011Y-99150500D01*
X182142014Y-99119693D01*
X182369993Y-99058606D01*
X182588049Y-98968284D01*
X182792450Y-98850273D01*
X182969296Y-98714573D01*
X183040551Y-98685059D01*
X183117019Y-98695126D01*
X183150700Y-98714571D01*
X183241399Y-98784167D01*
X183327545Y-98850270D01*
X183327548Y-98850271D01*
X183327550Y-98850273D01*
X183330995Y-98852262D01*
X183531943Y-98968280D01*
X183531946Y-98968281D01*
X183531951Y-98968284D01*
X183750007Y-99058606D01*
X183977986Y-99119693D01*
X183977992Y-99119693D01*
X183977993Y-99119694D01*
X184041603Y-99128068D01*
X184211989Y-99150500D01*
X184448011Y-99150500D01*
X184682014Y-99119693D01*
X184909993Y-99058606D01*
X185128049Y-98968284D01*
X185332450Y-98850273D01*
X185519699Y-98706592D01*
X185686592Y-98539699D01*
X185830273Y-98352450D01*
X185948284Y-98148049D01*
X186038606Y-97929993D01*
X186099693Y-97702014D01*
X186130500Y-97468011D01*
X186130500Y-97231989D01*
X186099693Y-96997986D01*
X186038606Y-96770007D01*
X185948284Y-96551951D01*
X185841430Y-96366875D01*
X185830275Y-96347553D01*
X185830273Y-96347550D01*
X185797659Y-96305047D01*
X187609500Y-96305047D01*
X187609500Y-98394952D01*
X187624631Y-98529253D01*
X187649281Y-98599699D01*
X187684211Y-98699522D01*
X187780184Y-98852262D01*
X187907738Y-98979816D01*
X188060478Y-99075789D01*
X188230745Y-99135368D01*
X188365046Y-99150500D01*
X188365047Y-99150500D01*
X190454953Y-99150500D01*
X190454954Y-99150500D01*
X190589255Y-99135368D01*
X190759522Y-99075789D01*
X190912262Y-98979816D01*
X191039816Y-98852262D01*
X191135789Y-98699522D01*
X191195368Y-98529255D01*
X191210500Y-98394954D01*
X191210500Y-96305046D01*
X191195368Y-96170745D01*
X191135789Y-96000478D01*
X191039816Y-95847738D01*
X190912262Y-95720184D01*
X190759522Y-95624211D01*
X190589255Y-95564632D01*
X190589254Y-95564631D01*
X190589253Y-95564631D01*
X190472006Y-95551421D01*
X190454954Y-95549500D01*
X188365046Y-95549500D01*
X188349915Y-95551204D01*
X188230746Y-95564631D01*
X188060477Y-95624211D01*
X187907738Y-95720184D01*
X187780184Y-95847738D01*
X187684211Y-96000477D01*
X187624631Y-96170746D01*
X187619049Y-96220295D01*
X187609959Y-96300977D01*
X187609500Y-96305047D01*
X185797659Y-96305047D01*
X185686592Y-96160301D01*
X185519699Y-95993408D01*
X185332450Y-95849727D01*
X185306013Y-95834463D01*
X185128056Y-95731719D01*
X184909996Y-95641395D01*
X184909994Y-95641394D01*
X184909993Y-95641394D01*
X184682014Y-95580307D01*
X184682012Y-95580306D01*
X184682006Y-95580305D01*
X184448016Y-95549500D01*
X184448011Y-95549500D01*
X184211989Y-95549500D01*
X184211983Y-95549500D01*
X183977993Y-95580305D01*
X183750003Y-95641395D01*
X183531943Y-95731719D01*
X183327551Y-95849726D01*
X183327550Y-95849727D01*
X183150703Y-95985426D01*
X183079449Y-96014940D01*
X183002980Y-96004873D01*
X182969299Y-95985428D01*
X182792450Y-95849727D01*
X182766013Y-95834463D01*
X182588056Y-95731719D01*
X182369996Y-95641395D01*
X182369994Y-95641394D01*
X182369993Y-95641394D01*
X182142014Y-95580307D01*
X182142012Y-95580306D01*
X182142006Y-95580305D01*
X181908016Y-95549500D01*
X181908011Y-95549500D01*
X181671989Y-95549500D01*
X181671983Y-95549500D01*
X181437993Y-95580305D01*
X181210003Y-95641395D01*
X180991943Y-95731719D01*
X180787551Y-95849726D01*
X180787550Y-95849727D01*
X180610703Y-95985426D01*
X180539449Y-96014940D01*
X180462980Y-96004873D01*
X180429299Y-95985428D01*
X180252450Y-95849727D01*
X180226013Y-95834463D01*
X180048056Y-95731719D01*
X179829996Y-95641395D01*
X179829994Y-95641394D01*
X179829993Y-95641394D01*
X179602014Y-95580307D01*
X179602012Y-95580306D01*
X179602006Y-95580305D01*
X179368016Y-95549500D01*
X179368011Y-95549500D01*
X179131989Y-95549500D01*
X179131983Y-95549500D01*
X178897993Y-95580305D01*
X178670003Y-95641395D01*
X178451943Y-95731719D01*
X178247551Y-95849726D01*
X178247550Y-95849727D01*
X178070703Y-95985426D01*
X177999449Y-96014940D01*
X177922980Y-96004873D01*
X177889299Y-95985428D01*
X177712450Y-95849727D01*
X177686013Y-95834463D01*
X177508056Y-95731719D01*
X177289996Y-95641395D01*
X177289994Y-95641394D01*
X177289993Y-95641394D01*
X177062014Y-95580307D01*
X177062012Y-95580306D01*
X177062006Y-95580305D01*
X176828016Y-95549500D01*
X176828011Y-95549500D01*
X176591989Y-95549500D01*
X176591983Y-95549500D01*
X176357993Y-95580305D01*
X176130003Y-95641395D01*
X175911943Y-95731719D01*
X175707551Y-95849726D01*
X175707550Y-95849727D01*
X175530703Y-95985426D01*
X175459449Y-96014940D01*
X175382980Y-96004873D01*
X175349299Y-95985428D01*
X175172450Y-95849727D01*
X175146013Y-95834463D01*
X174968056Y-95731719D01*
X174749996Y-95641395D01*
X174749994Y-95641394D01*
X174749993Y-95641394D01*
X174522014Y-95580307D01*
X174522012Y-95580306D01*
X174522006Y-95580305D01*
X174288016Y-95549500D01*
X174288011Y-95549500D01*
X174051989Y-95549500D01*
X174051983Y-95549500D01*
X173817993Y-95580305D01*
X173590003Y-95641395D01*
X173371943Y-95731719D01*
X173167551Y-95849726D01*
X173167550Y-95849727D01*
X172990703Y-95985426D01*
X172919449Y-96014940D01*
X172842980Y-96004873D01*
X172809299Y-95985428D01*
X172632450Y-95849727D01*
X172606013Y-95834463D01*
X172428056Y-95731719D01*
X172209996Y-95641395D01*
X172209994Y-95641394D01*
X172209993Y-95641394D01*
X171982014Y-95580307D01*
X171982012Y-95580306D01*
X171982006Y-95580305D01*
X171748016Y-95549500D01*
X171748011Y-95549500D01*
X171511989Y-95549500D01*
X171511983Y-95549500D01*
X171277993Y-95580305D01*
X171050003Y-95641395D01*
X170831943Y-95731719D01*
X170627551Y-95849726D01*
X170627550Y-95849727D01*
X170450703Y-95985426D01*
X170379449Y-96014940D01*
X170302980Y-96004873D01*
X170269299Y-95985428D01*
X170092450Y-95849727D01*
X170066013Y-95834463D01*
X169888056Y-95731719D01*
X169669996Y-95641395D01*
X169669994Y-95641394D01*
X169669993Y-95641394D01*
X169442014Y-95580307D01*
X169442012Y-95580306D01*
X169442006Y-95580305D01*
X169208016Y-95549500D01*
X169208011Y-95549500D01*
X168971989Y-95549500D01*
X168971983Y-95549500D01*
X168737993Y-95580305D01*
X168510003Y-95641395D01*
X168291943Y-95731719D01*
X168087551Y-95849726D01*
X168087550Y-95849727D01*
X167900301Y-95993408D01*
X167900299Y-95993409D01*
X167900295Y-95993413D01*
X167733406Y-96160303D01*
X167733403Y-96160305D01*
X167725682Y-96170368D01*
X167664491Y-96217318D01*
X167610432Y-96228629D01*
X164066241Y-96298951D01*
X164057288Y-96298859D01*
X164005842Y-96296786D01*
X164005831Y-96296787D01*
X163978521Y-96299991D01*
X163964125Y-96300977D01*
X163936645Y-96301523D01*
X163936632Y-96301525D01*
X163885978Y-96310581D01*
X163877125Y-96311891D01*
X163825977Y-96317894D01*
X163799509Y-96325329D01*
X163785448Y-96328554D01*
X163767095Y-96331836D01*
X163758383Y-96333394D01*
X163758381Y-96333394D01*
X163758379Y-96333395D01*
X163709755Y-96350267D01*
X163701215Y-96352946D01*
X163651637Y-96366875D01*
X163626653Y-96378362D01*
X163613263Y-96383749D01*
X163587296Y-96392760D01*
X163541885Y-96417044D01*
X163533870Y-96421025D01*
X163487100Y-96442530D01*
X163487094Y-96442534D01*
X163464236Y-96457774D01*
X163451855Y-96465189D01*
X163427607Y-96478157D01*
X163427604Y-96478159D01*
X163386552Y-96509246D01*
X163379264Y-96514429D01*
X163336428Y-96542990D01*
X163316230Y-96561625D01*
X163305153Y-96570892D01*
X163283239Y-96587486D01*
X163247548Y-96624622D01*
X163241155Y-96630885D01*
X159740940Y-99860014D01*
X159672647Y-99895859D01*
X159639907Y-99899500D01*
X159534038Y-99899500D01*
X159326685Y-99932341D01*
X159285214Y-99938910D01*
X159045627Y-100016757D01*
X159045621Y-100016759D01*
X159045618Y-100016760D01*
X159045614Y-100016762D01*
X159017143Y-100031269D01*
X158941700Y-100047304D01*
X158868347Y-100023469D01*
X158816739Y-99966151D01*
X158800500Y-99898508D01*
X158800500Y-99162837D01*
X158820462Y-99088337D01*
X158840657Y-99061081D01*
X159035878Y-98852263D01*
X159695509Y-98146687D01*
X159760968Y-98105900D01*
X159781043Y-98101278D01*
X159785955Y-98100500D01*
X159785962Y-98100500D01*
X160034785Y-98061090D01*
X160274379Y-97983241D01*
X160498845Y-97868870D01*
X160702656Y-97720793D01*
X160880793Y-97542656D01*
X161028870Y-97338845D01*
X161143241Y-97114379D01*
X161221090Y-96874785D01*
X161260500Y-96625962D01*
X161260500Y-96374038D01*
X161221090Y-96125215D01*
X161143241Y-95885621D01*
X161028870Y-95661155D01*
X161021084Y-95650439D01*
X160998908Y-95619916D01*
X160880793Y-95457344D01*
X160702656Y-95279207D01*
X160498845Y-95131130D01*
X160274379Y-95016759D01*
X160034785Y-94938910D01*
X159785962Y-94899500D01*
X159534038Y-94899500D01*
X159326685Y-94932341D01*
X159285214Y-94938910D01*
X159150708Y-94982614D01*
X159045621Y-95016759D01*
X159045615Y-95016761D01*
X159045615Y-95016762D01*
X158821153Y-95131131D01*
X158821152Y-95131131D01*
X158617345Y-95279206D01*
X158617342Y-95279208D01*
X158439208Y-95457342D01*
X158439206Y-95457345D01*
X158291131Y-95661152D01*
X158291131Y-95661153D01*
X158176762Y-95885615D01*
X158176757Y-95885627D01*
X158122242Y-96053408D01*
X158098910Y-96125215D01*
X158059500Y-96374038D01*
X158059500Y-96374042D01*
X158059500Y-96468505D01*
X158039538Y-96543005D01*
X158019343Y-96570261D01*
X157658343Y-96956405D01*
X157592883Y-96997193D01*
X157515799Y-96999788D01*
X157447744Y-96963492D01*
X157406956Y-96898032D01*
X157400500Y-96854649D01*
X157400500Y-95573022D01*
X157420462Y-95498522D01*
X157442044Y-95469803D01*
X157767361Y-95131130D01*
X159673936Y-93146280D01*
X159739940Y-93106382D01*
X159781391Y-93100500D01*
X159785957Y-93100500D01*
X159785962Y-93100500D01*
X160034785Y-93061090D01*
X160274379Y-92983241D01*
X160498845Y-92868870D01*
X160702656Y-92720793D01*
X160880793Y-92542656D01*
X161028870Y-92338845D01*
X161143241Y-92114379D01*
X161221090Y-91874785D01*
X161260500Y-91625962D01*
X161260500Y-91374038D01*
X161221090Y-91125215D01*
X161143241Y-90885621D01*
X161028870Y-90661155D01*
X160880793Y-90457344D01*
X160702656Y-90279207D01*
X160498845Y-90131130D01*
X160274379Y-90016759D01*
X160034785Y-89938910D01*
X159785962Y-89899500D01*
X159534038Y-89899500D01*
X159326685Y-89932341D01*
X159285214Y-89938910D01*
X159148775Y-89983242D01*
X159045621Y-90016759D01*
X159045615Y-90016761D01*
X159045615Y-90016762D01*
X158821153Y-90131131D01*
X158821152Y-90131131D01*
X158617345Y-90279206D01*
X158617342Y-90279208D01*
X158439208Y-90457342D01*
X158439206Y-90457345D01*
X158291131Y-90661152D01*
X158291131Y-90661153D01*
X158232957Y-90775327D01*
X158176759Y-90885621D01*
X158098910Y-91125215D01*
X158059500Y-91374038D01*
X158059500Y-91374042D01*
X158059500Y-91445450D01*
X158039538Y-91519950D01*
X158017956Y-91548669D01*
X155429355Y-94243546D01*
X155427260Y-94245684D01*
X155372447Y-94300498D01*
X155372441Y-94300505D01*
X155371592Y-94301674D01*
X155358547Y-94317262D01*
X155357556Y-94318293D01*
X155357552Y-94318297D01*
X155313285Y-94381877D01*
X155311549Y-94384317D01*
X155266003Y-94447006D01*
X155265998Y-94447013D01*
X155265341Y-94448304D01*
X155254901Y-94465731D01*
X155254082Y-94466907D01*
X155254076Y-94466917D01*
X155220292Y-94536652D01*
X155218961Y-94539331D01*
X155183788Y-94608363D01*
X155183783Y-94608375D01*
X155183342Y-94609733D01*
X155175751Y-94628595D01*
X155175123Y-94629890D01*
X155152660Y-94704066D01*
X155151765Y-94706919D01*
X155127828Y-94780594D01*
X155127606Y-94781999D01*
X155123051Y-94801849D01*
X155122638Y-94803212D01*
X155122637Y-94803214D01*
X155112057Y-94879967D01*
X155111619Y-94882925D01*
X155099500Y-94959450D01*
X155099500Y-94960858D01*
X155098105Y-94981198D01*
X155097911Y-94982600D01*
X155097910Y-94982614D01*
X155099470Y-95060111D01*
X155099500Y-95063108D01*
X155099500Y-113154151D01*
X155099499Y-113154181D01*
X155099499Y-113159454D01*
X155099499Y-113340546D01*
X155124314Y-113497219D01*
X155127829Y-113519409D01*
X155137931Y-113550500D01*
X155183788Y-113691638D01*
X155183789Y-113691639D01*
X155259232Y-113839704D01*
X155266005Y-113852995D01*
X155266005Y-113852996D01*
X155301092Y-113901289D01*
X155372447Y-113999501D01*
X155500499Y-114127553D01*
X155500502Y-114127555D01*
X156968694Y-115595746D01*
X156968723Y-115595777D01*
X156972447Y-115599501D01*
X157100499Y-115727553D01*
X157204897Y-115803402D01*
X157247006Y-115833996D01*
X157317126Y-115869724D01*
X157408358Y-115916210D01*
X157408360Y-115916210D01*
X157408361Y-115916211D01*
X157580591Y-115972172D01*
X157759454Y-116000501D01*
X157759458Y-116000501D01*
X157946690Y-116000501D01*
X157946714Y-116000500D01*
X169959604Y-116000500D01*
X169980234Y-116001934D01*
X169980392Y-116001957D01*
X169980394Y-116001956D01*
X169980395Y-116001957D01*
X170059129Y-116000525D01*
X170061839Y-116000500D01*
X170140536Y-116000500D01*
X170140546Y-116000500D01*
X170140678Y-116000479D01*
X170161305Y-115998666D01*
X170161454Y-115998664D01*
X170239098Y-115984914D01*
X170241585Y-115984496D01*
X170319409Y-115972171D01*
X170319535Y-115972129D01*
X170339629Y-115967112D01*
X170339773Y-115967087D01*
X170414295Y-115941364D01*
X170416670Y-115940568D01*
X170491639Y-115916211D01*
X170491770Y-115916143D01*
X170510822Y-115908048D01*
X170510955Y-115908003D01*
X170580493Y-115870963D01*
X170582805Y-115869758D01*
X170652994Y-115833996D01*
X170653089Y-115833926D01*
X170670683Y-115822924D01*
X170670789Y-115822868D01*
X170733713Y-115775377D01*
X170735710Y-115773898D01*
X170799501Y-115727553D01*
X170799597Y-115727456D01*
X170815227Y-115713858D01*
X170815336Y-115713777D01*
X170870010Y-115657075D01*
X170871801Y-115655251D01*
X170927553Y-115599501D01*
X170927636Y-115599386D01*
X170940946Y-115583511D01*
X170941038Y-115583417D01*
X170986163Y-115518870D01*
X170987679Y-115516745D01*
X171011813Y-115483526D01*
X171033996Y-115452994D01*
X171034062Y-115452863D01*
X171044709Y-115435125D01*
X171740159Y-114440368D01*
X171799206Y-114390748D01*
X171842828Y-114378017D01*
X171982006Y-114359694D01*
X171982005Y-114359694D01*
X171982014Y-114359693D01*
X172209993Y-114298606D01*
X172428049Y-114208284D01*
X172632450Y-114090273D01*
X172809296Y-113954573D01*
X172880551Y-113925059D01*
X172957019Y-113935126D01*
X172990700Y-113954571D01*
X173088096Y-114029306D01*
X173167545Y-114090270D01*
X173167547Y-114090271D01*
X173371943Y-114208280D01*
X173371946Y-114208281D01*
X173371951Y-114208284D01*
X173590007Y-114298606D01*
X173817986Y-114359693D01*
X173817992Y-114359693D01*
X173817993Y-114359694D01*
X173881603Y-114368068D01*
X174051989Y-114390500D01*
X174288011Y-114390500D01*
X174522014Y-114359693D01*
X174749993Y-114298606D01*
X174968049Y-114208284D01*
X175172450Y-114090273D01*
X175349296Y-113954573D01*
X175420551Y-113925059D01*
X175497019Y-113935126D01*
X175530700Y-113954571D01*
X175628096Y-114029306D01*
X175707545Y-114090270D01*
X175707547Y-114090271D01*
X175911943Y-114208280D01*
X175911946Y-114208281D01*
X175911951Y-114208284D01*
X176130007Y-114298606D01*
X176357986Y-114359693D01*
X176357992Y-114359693D01*
X176357993Y-114359694D01*
X176421603Y-114368068D01*
X176591989Y-114390500D01*
X176828011Y-114390500D01*
X177062014Y-114359693D01*
X177289993Y-114298606D01*
X177508049Y-114208284D01*
X177712450Y-114090273D01*
X177889296Y-113954573D01*
X177960551Y-113925059D01*
X178037019Y-113935126D01*
X178070700Y-113954571D01*
X178168096Y-114029306D01*
X178247545Y-114090270D01*
X178247547Y-114090271D01*
X178451943Y-114208280D01*
X178451946Y-114208281D01*
X178451951Y-114208284D01*
X178670007Y-114298606D01*
X178897986Y-114359693D01*
X178897992Y-114359693D01*
X178897993Y-114359694D01*
X178961603Y-114368068D01*
X179131989Y-114390500D01*
X179368011Y-114390500D01*
X179602014Y-114359693D01*
X179829993Y-114298606D01*
X180048049Y-114208284D01*
X180252450Y-114090273D01*
X180429296Y-113954573D01*
X180500551Y-113925059D01*
X180577019Y-113935126D01*
X180610700Y-113954571D01*
X180708096Y-114029306D01*
X180787545Y-114090270D01*
X180787547Y-114090271D01*
X180991943Y-114208280D01*
X180991946Y-114208281D01*
X180991951Y-114208284D01*
X181210007Y-114298606D01*
X181437986Y-114359693D01*
X181437992Y-114359693D01*
X181437993Y-114359694D01*
X181501603Y-114368068D01*
X181671989Y-114390500D01*
X181908011Y-114390500D01*
X182069655Y-114369219D01*
X182146124Y-114379286D01*
X182207313Y-114426238D01*
X182236829Y-114497495D01*
X182226762Y-114573964D01*
X182190837Y-114625808D01*
X179873861Y-116791000D01*
X178803336Y-117791395D01*
X178730602Y-117859364D01*
X178662540Y-117895646D01*
X178628869Y-117899500D01*
X178534038Y-117899500D01*
X178344387Y-117929538D01*
X178285214Y-117938910D01*
X178252942Y-117949396D01*
X178045621Y-118016759D01*
X178045615Y-118016761D01*
X178045615Y-118016762D01*
X177821153Y-118131131D01*
X177821152Y-118131131D01*
X177617345Y-118279206D01*
X177617342Y-118279208D01*
X177439208Y-118457342D01*
X177439206Y-118457345D01*
X177291131Y-118661152D01*
X177291131Y-118661153D01*
X177176762Y-118885615D01*
X177176757Y-118885627D01*
X177107991Y-119097268D01*
X177098910Y-119125215D01*
X177059500Y-119374038D01*
X177059500Y-119625962D01*
X177098910Y-119874785D01*
X177176759Y-120114379D01*
X177291130Y-120338845D01*
X177439207Y-120542656D01*
X177617344Y-120720793D01*
X177821155Y-120868870D01*
X178045621Y-120983241D01*
X178285215Y-121061090D01*
X178534038Y-121100500D01*
X178534043Y-121100500D01*
X178785957Y-121100500D01*
X178785962Y-121100500D01*
X179034785Y-121061090D01*
X179274379Y-120983241D01*
X179498845Y-120868870D01*
X179702656Y-120720793D01*
X179880793Y-120542656D01*
X180028870Y-120338845D01*
X180143241Y-120114379D01*
X180221090Y-119874785D01*
X180260500Y-119625962D01*
X180260500Y-119625953D01*
X180261215Y-119621439D01*
X180292586Y-119550979D01*
X180306639Y-119535892D01*
X184260946Y-115840635D01*
X184329008Y-115804354D01*
X184362679Y-115800500D01*
X185679436Y-115800500D01*
X185753936Y-115820462D01*
X185808474Y-115875000D01*
X185828436Y-115949500D01*
X185808474Y-116024000D01*
X185782697Y-116056914D01*
X182163748Y-119535883D01*
X178708047Y-122857916D01*
X178640505Y-122895155D01*
X178604786Y-122899500D01*
X178534038Y-122899500D01*
X178326685Y-122932341D01*
X178285214Y-122938910D01*
X178045627Y-123016757D01*
X178045621Y-123016759D01*
X178045615Y-123016761D01*
X178045615Y-123016762D01*
X177821153Y-123131131D01*
X177821152Y-123131131D01*
X177617345Y-123279206D01*
X177617342Y-123279208D01*
X177439208Y-123457342D01*
X177439206Y-123457345D01*
X177291131Y-123661152D01*
X177291131Y-123661153D01*
X177176762Y-123885615D01*
X177176757Y-123885627D01*
X177109196Y-124093559D01*
X177098910Y-124125215D01*
X177059500Y-124374038D01*
X177059500Y-124625962D01*
X177098910Y-124874785D01*
X177176759Y-125114379D01*
X177260743Y-125279208D01*
X177291131Y-125338846D01*
X177291131Y-125338847D01*
X177365168Y-125440750D01*
X177439207Y-125542656D01*
X177617344Y-125720793D01*
X177821155Y-125868870D01*
X178045621Y-125983241D01*
X178285215Y-126061090D01*
X178534038Y-126100500D01*
X178534043Y-126100500D01*
X178785957Y-126100500D01*
X178785962Y-126100500D01*
X179034785Y-126061090D01*
X179274379Y-125983241D01*
X179498845Y-125868870D01*
X179702656Y-125720793D01*
X179880793Y-125542656D01*
X180028870Y-125338845D01*
X180143241Y-125114379D01*
X180221090Y-124874785D01*
X180260500Y-124625962D01*
X180260500Y-124620749D01*
X180280462Y-124546249D01*
X180306239Y-124513333D01*
X180515218Y-124312438D01*
X184564197Y-120420075D01*
X187870060Y-117242084D01*
X187937602Y-117204845D01*
X187973321Y-117200500D01*
X188953287Y-117200500D01*
X188953311Y-117200501D01*
X188959454Y-117200501D01*
X189140541Y-117200501D01*
X189140546Y-117200501D01*
X189319409Y-117172171D01*
X189491639Y-117116211D01*
X189652994Y-117033996D01*
X189799501Y-116927553D01*
X189927553Y-116799501D01*
X189927554Y-116799499D01*
X189936039Y-116791014D01*
X189936045Y-116791007D01*
X191745141Y-114981911D01*
X191811936Y-114943347D01*
X191889064Y-114943347D01*
X191955859Y-114981911D01*
X191994423Y-115048706D01*
X191999500Y-115087270D01*
X191999500Y-131850500D01*
X191979538Y-131925000D01*
X191925000Y-131979538D01*
X191850500Y-131999500D01*
X153833070Y-131999500D01*
X153758570Y-131979538D01*
X153704032Y-131925000D01*
X153684070Y-131850500D01*
X153684070Y-128878706D01*
X187149500Y-128878706D01*
X187149500Y-129121293D01*
X187181160Y-129361781D01*
X187181161Y-129361787D01*
X187181162Y-129361789D01*
X187243946Y-129596100D01*
X187336776Y-129820212D01*
X187458064Y-130030289D01*
X187605735Y-130222738D01*
X187777262Y-130394265D01*
X187969711Y-130541936D01*
X188179788Y-130663224D01*
X188403900Y-130756054D01*
X188638211Y-130818838D01*
X188638217Y-130818838D01*
X188638218Y-130818839D01*
X188703600Y-130827446D01*
X188878712Y-130850500D01*
X189121288Y-130850500D01*
X189361789Y-130818838D01*
X189596100Y-130756054D01*
X189820212Y-130663224D01*
X190030289Y-130541936D01*
X190222738Y-130394265D01*
X190394265Y-130222738D01*
X190541936Y-130030289D01*
X190663224Y-129820212D01*
X190756054Y-129596100D01*
X190818838Y-129361789D01*
X190850500Y-129121288D01*
X190850500Y-128878712D01*
X190818838Y-128638211D01*
X190756054Y-128403900D01*
X190663224Y-128179788D01*
X190541936Y-127969711D01*
X190394265Y-127777262D01*
X190222738Y-127605735D01*
X190030289Y-127458064D01*
X189960263Y-127417634D01*
X189820216Y-127336778D01*
X189820214Y-127336777D01*
X189820212Y-127336776D01*
X189688932Y-127282398D01*
X189596103Y-127243947D01*
X189596101Y-127243946D01*
X189596100Y-127243946D01*
X189361789Y-127181162D01*
X189361787Y-127181161D01*
X189361781Y-127181160D01*
X189121293Y-127149500D01*
X189121288Y-127149500D01*
X188878712Y-127149500D01*
X188878706Y-127149500D01*
X188638218Y-127181160D01*
X188403896Y-127243947D01*
X188179783Y-127336778D01*
X187969712Y-127458063D01*
X187969711Y-127458064D01*
X187777262Y-127605735D01*
X187777260Y-127605736D01*
X187777256Y-127605740D01*
X187605740Y-127777256D01*
X187605736Y-127777260D01*
X187605735Y-127777262D01*
X187592993Y-127793868D01*
X187458063Y-127969712D01*
X187336778Y-128179783D01*
X187243947Y-128403896D01*
X187181160Y-128638218D01*
X187149500Y-128878706D01*
X153684070Y-128878706D01*
X153684070Y-127951339D01*
X143314968Y-127951339D01*
X143314968Y-131850500D01*
X143295006Y-131925000D01*
X143240468Y-131979538D01*
X143165968Y-131999500D01*
X105149500Y-131999500D01*
X105075000Y-131979538D01*
X105020462Y-131925000D01*
X105000500Y-131850500D01*
X105000500Y-128878706D01*
X106149500Y-128878706D01*
X106149500Y-129121293D01*
X106181160Y-129361781D01*
X106181161Y-129361787D01*
X106181162Y-129361789D01*
X106243946Y-129596100D01*
X106336776Y-129820212D01*
X106458064Y-130030289D01*
X106605735Y-130222738D01*
X106777262Y-130394265D01*
X106969711Y-130541936D01*
X107179788Y-130663224D01*
X107403900Y-130756054D01*
X107638211Y-130818838D01*
X107638217Y-130818838D01*
X107638218Y-130818839D01*
X107703600Y-130827446D01*
X107878712Y-130850500D01*
X108121288Y-130850500D01*
X108361789Y-130818838D01*
X108596100Y-130756054D01*
X108820212Y-130663224D01*
X109030289Y-130541936D01*
X109222738Y-130394265D01*
X109394265Y-130222738D01*
X109541936Y-130030289D01*
X109663224Y-129820212D01*
X109756054Y-129596100D01*
X109818838Y-129361789D01*
X109850500Y-129121288D01*
X109850500Y-128878712D01*
X109818838Y-128638211D01*
X109756054Y-128403900D01*
X109663224Y-128179788D01*
X109541936Y-127969711D01*
X109394265Y-127777262D01*
X109222738Y-127605735D01*
X109030289Y-127458064D01*
X108960263Y-127417634D01*
X108820216Y-127336778D01*
X108820214Y-127336777D01*
X108820212Y-127336776D01*
X108688932Y-127282398D01*
X108596103Y-127243947D01*
X108596101Y-127243946D01*
X108596100Y-127243946D01*
X108361789Y-127181162D01*
X108361787Y-127181161D01*
X108361781Y-127181160D01*
X108121293Y-127149500D01*
X108121288Y-127149500D01*
X107878712Y-127149500D01*
X107878706Y-127149500D01*
X107638218Y-127181160D01*
X107403896Y-127243947D01*
X107179783Y-127336778D01*
X106969712Y-127458063D01*
X106969711Y-127458064D01*
X106777262Y-127605735D01*
X106777260Y-127605736D01*
X106777256Y-127605740D01*
X106605740Y-127777256D01*
X106605736Y-127777260D01*
X106605735Y-127777262D01*
X106592993Y-127793868D01*
X106458063Y-127969712D01*
X106336778Y-128179783D01*
X106243947Y-128403896D01*
X106181160Y-128638218D01*
X106149500Y-128878706D01*
X105000500Y-128878706D01*
X105000500Y-111605047D01*
X105789500Y-111605047D01*
X105789500Y-113694952D01*
X105804631Y-113829253D01*
X105812939Y-113852995D01*
X105864211Y-113999522D01*
X105960184Y-114152262D01*
X105960185Y-114152263D01*
X106087070Y-114279148D01*
X106125634Y-114345943D01*
X106130494Y-114376471D01*
X106172189Y-115148405D01*
X106165114Y-115202483D01*
X106137679Y-115286919D01*
X106116468Y-115420840D01*
X106099500Y-115527973D01*
X106099500Y-115772027D01*
X106137679Y-116013076D01*
X106213096Y-116245185D01*
X106213098Y-116245189D01*
X106213101Y-116245197D01*
X106219285Y-116257333D01*
X106235307Y-116316939D01*
X106359827Y-118622243D01*
X106343912Y-118697711D01*
X106342731Y-118699891D01*
X106341715Y-118701950D01*
X106251396Y-118919998D01*
X106251395Y-118920002D01*
X106190305Y-119147993D01*
X106159500Y-119381983D01*
X106159500Y-119618016D01*
X106190305Y-119852006D01*
X106190306Y-119852012D01*
X106190307Y-119852014D01*
X106205266Y-119907843D01*
X106251395Y-120079996D01*
X106341719Y-120298056D01*
X106412170Y-120420079D01*
X106459727Y-120502450D01*
X106603408Y-120689699D01*
X106770301Y-120856592D01*
X106957550Y-121000273D01*
X106983687Y-121015363D01*
X107161943Y-121118280D01*
X107161946Y-121118281D01*
X107161951Y-121118284D01*
X107380007Y-121208606D01*
X107607986Y-121269693D01*
X107607992Y-121269693D01*
X107607993Y-121269694D01*
X107671603Y-121278068D01*
X107841989Y-121300500D01*
X108078011Y-121300500D01*
X108312014Y-121269693D01*
X108539993Y-121208606D01*
X108758049Y-121118284D01*
X108759598Y-121117390D01*
X108774942Y-121108531D01*
X108962450Y-121000273D01*
X109149699Y-120856592D01*
X109316592Y-120689699D01*
X109460273Y-120502450D01*
X109578284Y-120298049D01*
X109668606Y-120079993D01*
X109729693Y-119852014D01*
X109760500Y-119618011D01*
X109760500Y-119381989D01*
X109729693Y-119147986D01*
X109668606Y-118920007D01*
X109578284Y-118701951D01*
X109578281Y-118701946D01*
X109578280Y-118701943D01*
X109495629Y-118558788D01*
X109476262Y-118525244D01*
X109456518Y-118458784D01*
X109397036Y-117357535D01*
X109412951Y-117282068D01*
X109464468Y-117224668D01*
X109537783Y-117200717D01*
X109545819Y-117200500D01*
X118255228Y-117200500D01*
X118329728Y-117220462D01*
X118384266Y-117275000D01*
X118404228Y-117349500D01*
X118384266Y-117424000D01*
X118370407Y-117444024D01*
X118272317Y-117563547D01*
X118272310Y-117563557D01*
X118174768Y-117746044D01*
X118145130Y-117843752D01*
X118104402Y-117909249D01*
X118036381Y-117945607D01*
X118002546Y-117949500D01*
X113995379Y-117949500D01*
X113920879Y-117929538D01*
X113838056Y-117881719D01*
X113619996Y-117791395D01*
X113619994Y-117791394D01*
X113619993Y-117791394D01*
X113392014Y-117730307D01*
X113392012Y-117730306D01*
X113392006Y-117730305D01*
X113158016Y-117699500D01*
X113158011Y-117699500D01*
X112921989Y-117699500D01*
X112921983Y-117699500D01*
X112687993Y-117730305D01*
X112460003Y-117791395D01*
X112241943Y-117881719D01*
X112037551Y-117999726D01*
X111968251Y-118052901D01*
X111850301Y-118143408D01*
X111850299Y-118143409D01*
X111850295Y-118143413D01*
X111683413Y-118310295D01*
X111683409Y-118310299D01*
X111683408Y-118310301D01*
X111653330Y-118349500D01*
X111539726Y-118497551D01*
X111421719Y-118701943D01*
X111331395Y-118920003D01*
X111270305Y-119147993D01*
X111239500Y-119381983D01*
X111239500Y-119618016D01*
X111270305Y-119852006D01*
X111270306Y-119852012D01*
X111270307Y-119852014D01*
X111283896Y-119902730D01*
X111331395Y-120079997D01*
X111331397Y-120080001D01*
X111409432Y-120268395D01*
X111420333Y-120336875D01*
X111069054Y-124890490D01*
X111043420Y-124963234D01*
X111015025Y-124994204D01*
X111003593Y-125003586D01*
X111003589Y-125003590D01*
X110872317Y-125163547D01*
X110872310Y-125163557D01*
X110774768Y-125346044D01*
X110714700Y-125544063D01*
X110714698Y-125544072D01*
X110699500Y-125698387D01*
X110699500Y-127301612D01*
X110714698Y-127455927D01*
X110714700Y-127455936D01*
X110774768Y-127653955D01*
X110872310Y-127836442D01*
X110872313Y-127836446D01*
X110872315Y-127836450D01*
X110923528Y-127898854D01*
X110992782Y-127983241D01*
X111003590Y-127996410D01*
X111163550Y-128127685D01*
X111163555Y-128127687D01*
X111163557Y-128127689D01*
X111261027Y-128179788D01*
X111346046Y-128225232D01*
X111544066Y-128285300D01*
X111544068Y-128285300D01*
X111544072Y-128285301D01*
X111698387Y-128300500D01*
X111698392Y-128300500D01*
X113301613Y-128300500D01*
X113455927Y-128285301D01*
X113455929Y-128285300D01*
X113455934Y-128285300D01*
X113653954Y-128225232D01*
X113836450Y-128127685D01*
X113996410Y-127996410D01*
X114127685Y-127836450D01*
X114225232Y-127653954D01*
X114285300Y-127455934D01*
X114285301Y-127455927D01*
X114300500Y-127301612D01*
X114300500Y-125698387D01*
X114285301Y-125544072D01*
X114285299Y-125544063D01*
X114225232Y-125346046D01*
X114174850Y-125251790D01*
X114157337Y-125176679D01*
X114157698Y-125170093D01*
X114158203Y-125163557D01*
X114350288Y-122673572D01*
X114464887Y-121188040D01*
X114490521Y-121115296D01*
X114549092Y-121065114D01*
X114613446Y-121050500D01*
X118002546Y-121050500D01*
X118077046Y-121070462D01*
X118131584Y-121125000D01*
X118145128Y-121156244D01*
X118160755Y-121207760D01*
X118174768Y-121253955D01*
X118272310Y-121436442D01*
X118272313Y-121436446D01*
X118272315Y-121436450D01*
X118403590Y-121596410D01*
X118563550Y-121727685D01*
X118746046Y-121825232D01*
X118944066Y-121885300D01*
X118944068Y-121885300D01*
X118944072Y-121885301D01*
X119098387Y-121900500D01*
X119098392Y-121900500D01*
X120409765Y-121900500D01*
X120484265Y-121920462D01*
X120524327Y-121954229D01*
X122268784Y-124051994D01*
X122878659Y-124785388D01*
X122910945Y-124855434D01*
X122913058Y-124877347D01*
X122940259Y-126101421D01*
X122938462Y-126128039D01*
X122915005Y-126276143D01*
X122899500Y-126374038D01*
X122899500Y-126625962D01*
X122938910Y-126874785D01*
X123016759Y-127114379D01*
X123131130Y-127338845D01*
X123279207Y-127542656D01*
X123457344Y-127720793D01*
X123661155Y-127868870D01*
X123885621Y-127983241D01*
X124125215Y-128061090D01*
X124374038Y-128100500D01*
X124374043Y-128100500D01*
X124625957Y-128100500D01*
X124625962Y-128100500D01*
X124874785Y-128061090D01*
X125114379Y-127983241D01*
X125338845Y-127868870D01*
X125542656Y-127720793D01*
X125720793Y-127542656D01*
X125868870Y-127338845D01*
X125983241Y-127114379D01*
X126061090Y-126874785D01*
X126100500Y-126625962D01*
X126100500Y-126374038D01*
X126061090Y-126125215D01*
X126047961Y-126084808D01*
X126040706Y-126042077D01*
X126039399Y-125983241D01*
X126002269Y-124312423D01*
X126002857Y-124295501D01*
X126005160Y-124270462D01*
X125999581Y-124185272D01*
X125999301Y-124178853D01*
X125997406Y-124093559D01*
X125997406Y-124093556D01*
X125992923Y-124068826D01*
X125990855Y-124052005D01*
X125989214Y-124026929D01*
X125970380Y-123943673D01*
X125969098Y-123937373D01*
X125953881Y-123853416D01*
X125953881Y-123853415D01*
X125945585Y-123829689D01*
X125940914Y-123813411D01*
X125935367Y-123788889D01*
X125903738Y-123709598D01*
X125901492Y-123703592D01*
X125886652Y-123661152D01*
X125873326Y-123623039D01*
X125861422Y-123600906D01*
X125854252Y-123585535D01*
X125844950Y-123562213D01*
X125844945Y-123562203D01*
X125801300Y-123488831D01*
X125798163Y-123483290D01*
X125757725Y-123408100D01*
X125742508Y-123388106D01*
X125733024Y-123374049D01*
X125720181Y-123352459D01*
X125720180Y-123352458D01*
X125720178Y-123352454D01*
X125665593Y-123286813D01*
X125661608Y-123281805D01*
X125651274Y-123268226D01*
X125609922Y-123213892D01*
X125591774Y-123196533D01*
X125580203Y-123184129D01*
X122934936Y-120003112D01*
X122902650Y-119933066D01*
X122900500Y-119907843D01*
X122900500Y-118633288D01*
X122920462Y-118558788D01*
X122975000Y-118504250D01*
X123049500Y-118484288D01*
X123124000Y-118504250D01*
X123154273Y-118527347D01*
X129831093Y-125131130D01*
X131810834Y-127089215D01*
X131843714Y-127138132D01*
X131891596Y-127253730D01*
X131891597Y-127253731D01*
X132003049Y-127446770D01*
X132003051Y-127446773D01*
X132003052Y-127446774D01*
X132138753Y-127623624D01*
X132296376Y-127781247D01*
X132454087Y-127902262D01*
X132473229Y-127916950D01*
X132666266Y-128028401D01*
X132666269Y-128028402D01*
X132666274Y-128028405D01*
X132831030Y-128096649D01*
X132872221Y-128113711D01*
X132979878Y-128142557D01*
X133087537Y-128171404D01*
X133308543Y-128200500D01*
X133531457Y-128200500D01*
X133752463Y-128171404D01*
X133967777Y-128113711D01*
X133967778Y-128113711D01*
X133967779Y-128113710D01*
X133967781Y-128113710D01*
X134173726Y-128028405D01*
X134317271Y-127945528D01*
X134391770Y-127925566D01*
X134466270Y-127945528D01*
X134497126Y-127969204D01*
X134557738Y-128029816D01*
X134710478Y-128125789D01*
X134880745Y-128185368D01*
X135015046Y-128200500D01*
X135015047Y-128200500D01*
X136904953Y-128200500D01*
X136904954Y-128200500D01*
X137039255Y-128185368D01*
X137209522Y-128125789D01*
X137362262Y-128029816D01*
X137489816Y-127902262D01*
X137489817Y-127902259D01*
X137493223Y-127898854D01*
X137560017Y-127860290D01*
X137637146Y-127860290D01*
X137666216Y-127871448D01*
X137885621Y-127983241D01*
X138125215Y-128061090D01*
X138374038Y-128100500D01*
X138374043Y-128100500D01*
X138625957Y-128100500D01*
X138625962Y-128100500D01*
X138874785Y-128061090D01*
X139114379Y-127983241D01*
X139338845Y-127868870D01*
X139542656Y-127720793D01*
X139720793Y-127542656D01*
X139868870Y-127338845D01*
X139983241Y-127114379D01*
X140061090Y-126874785D01*
X140100500Y-126625962D01*
X140100500Y-126374038D01*
X140061090Y-126125215D01*
X139983241Y-125885621D01*
X139868870Y-125661155D01*
X139720793Y-125457344D01*
X139542656Y-125279207D01*
X139338845Y-125131130D01*
X139114379Y-125016759D01*
X138874785Y-124938910D01*
X138625962Y-124899500D01*
X138374038Y-124899500D01*
X138166685Y-124932341D01*
X138125214Y-124938910D01*
X137955038Y-124994204D01*
X137885621Y-125016759D01*
X137666225Y-125128546D01*
X137590784Y-125144582D01*
X137517431Y-125120748D01*
X137493223Y-125101145D01*
X137362263Y-124970185D01*
X137362262Y-124970184D01*
X137209522Y-124874211D01*
X137039255Y-124814632D01*
X137039254Y-124814631D01*
X137039253Y-124814631D01*
X136922006Y-124801421D01*
X136904954Y-124799500D01*
X135015046Y-124799500D01*
X134999915Y-124801204D01*
X134880746Y-124814631D01*
X134710477Y-124874211D01*
X134557738Y-124970184D01*
X134557736Y-124970185D01*
X134497128Y-125030793D01*
X134430333Y-125069356D01*
X134353205Y-125069356D01*
X134317269Y-125054470D01*
X134173733Y-124971598D01*
X134170319Y-124970184D01*
X134130036Y-124953498D01*
X134038743Y-124915683D01*
X133990985Y-124883962D01*
X128514059Y-119466947D01*
X128411178Y-119365191D01*
X130799500Y-119365191D01*
X130799500Y-119634808D01*
X130829687Y-119902730D01*
X130889681Y-120165582D01*
X130889683Y-120165587D01*
X130889684Y-120165591D01*
X130969942Y-120394954D01*
X130978732Y-120420075D01*
X130978735Y-120420084D01*
X131095716Y-120662997D01*
X131239159Y-120891286D01*
X131309759Y-120979815D01*
X131407266Y-121102085D01*
X131597915Y-121292734D01*
X131677078Y-121355864D01*
X131808713Y-121460840D01*
X131960905Y-121556468D01*
X132037003Y-121604284D01*
X132279921Y-121721267D01*
X132534409Y-121810316D01*
X132534415Y-121810317D01*
X132534417Y-121810318D01*
X132599760Y-121825232D01*
X132797268Y-121870312D01*
X133065191Y-121900500D01*
X133334809Y-121900500D01*
X133602732Y-121870312D01*
X133865591Y-121810316D01*
X134120079Y-121721267D01*
X134362997Y-121604284D01*
X134591289Y-121460838D01*
X134802085Y-121292734D01*
X134992734Y-121102085D01*
X134992738Y-121102079D01*
X134994411Y-121100209D01*
X134994987Y-121099831D01*
X134995690Y-121099129D01*
X134995836Y-121099275D01*
X135058941Y-121057963D01*
X135105507Y-121050500D01*
X136217304Y-121050500D01*
X136291804Y-121070462D01*
X136296577Y-121073338D01*
X136300478Y-121075789D01*
X136470745Y-121135368D01*
X136605046Y-121150500D01*
X136605047Y-121150500D01*
X138394953Y-121150500D01*
X138394954Y-121150500D01*
X138529255Y-121135368D01*
X138699522Y-121075789D01*
X138852262Y-120979816D01*
X138979816Y-120852262D01*
X139075789Y-120699522D01*
X139135368Y-120529255D01*
X139150500Y-120394954D01*
X139150500Y-118605047D01*
X162849500Y-118605047D01*
X162849500Y-120394952D01*
X162864631Y-120529253D01*
X162907057Y-120650500D01*
X162924211Y-120699522D01*
X163020184Y-120852262D01*
X163020185Y-120852263D01*
X163105478Y-120937556D01*
X163144042Y-121004351D01*
X163144042Y-121081479D01*
X163120663Y-121130494D01*
X163088371Y-121174940D01*
X163088367Y-121174947D01*
X162970421Y-121406425D01*
X162890140Y-121653507D01*
X162849500Y-121910103D01*
X162849500Y-122169897D01*
X162890140Y-122426492D01*
X162970421Y-122673574D01*
X163050044Y-122829840D01*
X163088366Y-122905051D01*
X163241069Y-123115229D01*
X163424771Y-123298931D01*
X163634949Y-123451634D01*
X163785369Y-123528277D01*
X163866425Y-123569578D01*
X163866427Y-123569578D01*
X163866428Y-123569579D01*
X164113507Y-123649860D01*
X164370103Y-123690500D01*
X164370108Y-123690500D01*
X164629892Y-123690500D01*
X164629897Y-123690500D01*
X164886493Y-123649860D01*
X165133572Y-123569579D01*
X165365051Y-123451634D01*
X165429753Y-123404624D01*
X165501755Y-123376985D01*
X165577934Y-123389050D01*
X165618114Y-123415425D01*
X165885687Y-123661155D01*
X166854987Y-124551328D01*
X166896356Y-124616423D01*
X166901368Y-124637761D01*
X166938910Y-124874785D01*
X167016759Y-125114379D01*
X167100743Y-125279208D01*
X167131131Y-125338846D01*
X167131131Y-125338847D01*
X167205168Y-125440750D01*
X167279207Y-125542656D01*
X167457344Y-125720793D01*
X167661155Y-125868870D01*
X167885621Y-125983241D01*
X168125215Y-126061090D01*
X168374038Y-126100500D01*
X168374043Y-126100500D01*
X168625957Y-126100500D01*
X168625962Y-126100500D01*
X168874785Y-126061090D01*
X169114379Y-125983241D01*
X169338845Y-125868870D01*
X169542656Y-125720793D01*
X169720793Y-125542656D01*
X169868870Y-125338845D01*
X169983241Y-125114379D01*
X170061090Y-124874785D01*
X170100500Y-124625962D01*
X170100500Y-124374038D01*
X170061090Y-124125215D01*
X169983241Y-123885621D01*
X169868870Y-123661155D01*
X169720793Y-123457344D01*
X169542656Y-123279207D01*
X169338845Y-123131130D01*
X169114379Y-123016759D01*
X168874785Y-122938910D01*
X168625962Y-122899500D01*
X168625957Y-122899500D01*
X168516174Y-122899500D01*
X168441674Y-122879538D01*
X168415390Y-122860243D01*
X168412856Y-122857916D01*
X166865037Y-121436450D01*
X166837839Y-121411472D01*
X166835690Y-121409459D01*
X166779643Y-121355869D01*
X166779640Y-121355867D01*
X166779637Y-121355864D01*
X166779638Y-121355864D01*
X166778471Y-121355056D01*
X166762555Y-121342333D01*
X166761516Y-121341379D01*
X166761511Y-121341375D01*
X166696950Y-121298539D01*
X166694471Y-121296858D01*
X166630789Y-121252736D01*
X166630787Y-121252735D01*
X166629498Y-121252114D01*
X166611787Y-121242036D01*
X166611351Y-121241747D01*
X166610614Y-121241258D01*
X166570093Y-121222737D01*
X166540107Y-121209031D01*
X166537399Y-121207760D01*
X166467629Y-121174159D01*
X166467626Y-121174158D01*
X166467620Y-121174156D01*
X166466271Y-121173751D01*
X166447206Y-121166569D01*
X166445911Y-121165977D01*
X166371228Y-121145176D01*
X166368351Y-121144344D01*
X166294186Y-121122071D01*
X166294180Y-121122070D01*
X166292771Y-121121879D01*
X166292207Y-121121642D01*
X166288467Y-121120833D01*
X166288617Y-121120139D01*
X166285716Y-121118924D01*
X166277277Y-121118169D01*
X166277210Y-121118513D01*
X166273909Y-121117867D01*
X166272837Y-121117772D01*
X166271467Y-121117390D01*
X166271463Y-121117389D01*
X166194479Y-121108531D01*
X166191510Y-121108159D01*
X166076494Y-121092577D01*
X166005348Y-121062794D01*
X165958626Y-121001428D01*
X165948846Y-120924923D01*
X165976102Y-120859811D01*
X165975364Y-120859347D01*
X165978160Y-120854896D01*
X165978629Y-120853777D01*
X165979803Y-120852281D01*
X165979813Y-120852264D01*
X165979816Y-120852262D01*
X166062779Y-120720226D01*
X166084158Y-120700389D01*
X166102775Y-120677942D01*
X166112059Y-120674501D01*
X166119318Y-120667767D01*
X166152333Y-120659578D01*
X166175098Y-120651144D01*
X166181764Y-120652279D01*
X166188941Y-120650500D01*
X167325333Y-120650500D01*
X167399833Y-120670462D01*
X167430692Y-120694141D01*
X167457344Y-120720793D01*
X167661155Y-120868870D01*
X167885621Y-120983241D01*
X168125215Y-121061090D01*
X168374038Y-121100500D01*
X168374043Y-121100500D01*
X168625957Y-121100500D01*
X168625962Y-121100500D01*
X168874785Y-121061090D01*
X169114379Y-120983241D01*
X169338845Y-120868870D01*
X169542656Y-120720793D01*
X169720793Y-120542656D01*
X169868870Y-120338845D01*
X169983241Y-120114379D01*
X170061090Y-119874785D01*
X170100500Y-119625962D01*
X170100500Y-119374038D01*
X170061090Y-119125215D01*
X169983241Y-118885621D01*
X169868870Y-118661155D01*
X169848623Y-118633288D01*
X169828105Y-118605047D01*
X169720793Y-118457344D01*
X169542656Y-118279207D01*
X169338845Y-118131130D01*
X169114379Y-118016759D01*
X168874785Y-117938910D01*
X168625962Y-117899500D01*
X168374038Y-117899500D01*
X168184387Y-117929538D01*
X168125214Y-117938910D01*
X168092942Y-117949396D01*
X167885621Y-118016759D01*
X167885615Y-118016761D01*
X167885615Y-118016762D01*
X167661153Y-118131131D01*
X167661152Y-118131131D01*
X167457345Y-118279206D01*
X167457342Y-118279208D01*
X167430692Y-118305859D01*
X167363897Y-118344423D01*
X167325333Y-118349500D01*
X166188941Y-118349500D01*
X166114441Y-118329538D01*
X166062779Y-118279773D01*
X166062424Y-118279208D01*
X165979816Y-118147738D01*
X165852262Y-118020184D01*
X165699522Y-117924211D01*
X165529255Y-117864632D01*
X165529254Y-117864631D01*
X165529253Y-117864631D01*
X165412006Y-117851421D01*
X165394954Y-117849500D01*
X163605046Y-117849500D01*
X163589915Y-117851204D01*
X163470746Y-117864631D01*
X163300477Y-117924211D01*
X163147738Y-118020184D01*
X163020184Y-118147738D01*
X162924211Y-118300477D01*
X162864631Y-118470746D01*
X162849500Y-118605047D01*
X139150500Y-118605047D01*
X139150500Y-118605046D01*
X139135368Y-118470745D01*
X139075789Y-118300478D01*
X138979816Y-118147738D01*
X138852262Y-118020184D01*
X138699522Y-117924211D01*
X138529255Y-117864632D01*
X138529254Y-117864631D01*
X138529253Y-117864631D01*
X138412006Y-117851421D01*
X138394954Y-117849500D01*
X136605046Y-117849500D01*
X136589915Y-117851204D01*
X136470746Y-117864631D01*
X136300477Y-117924211D01*
X136296577Y-117926662D01*
X136293267Y-117927682D01*
X136292937Y-117927842D01*
X136292913Y-117927792D01*
X136222876Y-117949396D01*
X136217304Y-117949500D01*
X135105507Y-117949500D01*
X135031007Y-117929538D01*
X134995712Y-117900848D01*
X134995690Y-117900871D01*
X134995474Y-117900655D01*
X134994411Y-117899791D01*
X134992737Y-117897918D01*
X134802089Y-117707270D01*
X134802085Y-117707266D01*
X134681630Y-117611206D01*
X134591286Y-117539159D01*
X134362997Y-117395716D01*
X134120084Y-117278735D01*
X134120081Y-117278734D01*
X134120079Y-117278733D01*
X133865591Y-117189684D01*
X133865587Y-117189683D01*
X133865582Y-117189681D01*
X133602730Y-117129687D01*
X133334809Y-117099500D01*
X133065191Y-117099500D01*
X132797269Y-117129687D01*
X132534417Y-117189681D01*
X132534412Y-117189683D01*
X132534409Y-117189683D01*
X132534409Y-117189684D01*
X132502879Y-117200717D01*
X132279924Y-117278732D01*
X132279915Y-117278735D01*
X132037002Y-117395716D01*
X131808713Y-117539159D01*
X131597910Y-117707270D01*
X131407270Y-117897910D01*
X131239159Y-118108713D01*
X131095716Y-118337002D01*
X130978735Y-118579915D01*
X130978732Y-118579924D01*
X130889683Y-118834412D01*
X130889681Y-118834417D01*
X130829687Y-119097269D01*
X130799500Y-119365191D01*
X128411178Y-119365191D01*
X125267031Y-116255437D01*
X125228100Y-116188855D01*
X125227676Y-116111728D01*
X125265872Y-116044722D01*
X125332454Y-116005791D01*
X125371809Y-116000500D01*
X146040377Y-116000500D01*
X146042567Y-116000515D01*
X146123619Y-116001708D01*
X146123619Y-116001707D01*
X146123626Y-116001708D01*
X146129461Y-116001335D01*
X146129467Y-116001441D01*
X146134714Y-116001067D01*
X146134706Y-116000960D01*
X146140543Y-116000500D01*
X146140546Y-116000500D01*
X146220560Y-115987826D01*
X146222489Y-115987535D01*
X146302879Y-115976012D01*
X146302894Y-115976007D01*
X146308599Y-115974727D01*
X146308623Y-115974835D01*
X146313748Y-115973644D01*
X146313722Y-115973536D01*
X146319405Y-115972171D01*
X146319409Y-115972171D01*
X146396480Y-115947128D01*
X146398381Y-115946525D01*
X146475913Y-115922590D01*
X146475923Y-115922584D01*
X146481351Y-115920430D01*
X146481392Y-115920533D01*
X146486267Y-115918555D01*
X146486225Y-115918454D01*
X146491635Y-115916213D01*
X146507669Y-115908043D01*
X146563898Y-115879391D01*
X146565634Y-115878522D01*
X146638460Y-115842756D01*
X146638465Y-115842752D01*
X146643502Y-115839767D01*
X146643557Y-115839860D01*
X146648059Y-115837148D01*
X146648002Y-115837055D01*
X146652982Y-115834002D01*
X146652994Y-115833996D01*
X146718610Y-115786322D01*
X146720231Y-115785162D01*
X146786516Y-115738478D01*
X146786524Y-115738470D01*
X146791026Y-115734739D01*
X146791096Y-115734824D01*
X146795117Y-115731441D01*
X146795046Y-115731358D01*
X146799498Y-115727555D01*
X146799497Y-115727555D01*
X146799501Y-115727553D01*
X146856884Y-115670168D01*
X146858309Y-115668764D01*
X149459879Y-113142602D01*
X149527233Y-113105026D01*
X149563677Y-113100500D01*
X149625957Y-113100500D01*
X149625962Y-113100500D01*
X149874785Y-113061090D01*
X150114379Y-112983241D01*
X150338845Y-112868870D01*
X150542656Y-112720793D01*
X150720793Y-112542656D01*
X150868870Y-112338845D01*
X150983241Y-112114379D01*
X151061090Y-111874785D01*
X151100500Y-111625962D01*
X151100500Y-111374038D01*
X151061090Y-111125215D01*
X150983241Y-110885621D01*
X150868870Y-110661155D01*
X150720793Y-110457344D01*
X150542656Y-110279207D01*
X150338845Y-110131130D01*
X150114379Y-110016759D01*
X149874785Y-109938910D01*
X149625962Y-109899500D01*
X149374038Y-109899500D01*
X149166685Y-109932341D01*
X149125214Y-109938910D01*
X148898024Y-110012729D01*
X148885621Y-110016759D01*
X148885615Y-110016761D01*
X148885615Y-110016762D01*
X148661153Y-110131131D01*
X148661152Y-110131131D01*
X148457345Y-110279206D01*
X148457342Y-110279208D01*
X148279208Y-110457342D01*
X148279206Y-110457345D01*
X148131131Y-110661152D01*
X148131131Y-110661153D01*
X148016762Y-110885615D01*
X148016757Y-110885627D01*
X147950441Y-111089727D01*
X147938910Y-111125215D01*
X147899500Y-111374038D01*
X147899500Y-111374042D01*
X147899500Y-111387457D01*
X147879538Y-111461957D01*
X147854298Y-111494354D01*
X146301634Y-113002014D01*
X145631783Y-113652450D01*
X145626688Y-113657397D01*
X145559334Y-113694974D01*
X145522890Y-113699500D01*
X129641185Y-113699500D01*
X129566685Y-113679538D01*
X129512147Y-113625000D01*
X129492185Y-113550500D01*
X129512147Y-113476001D01*
X129528278Y-113448060D01*
X129528280Y-113448056D01*
X129528284Y-113448049D01*
X129618606Y-113229993D01*
X129679693Y-113002014D01*
X129710500Y-112768011D01*
X129710500Y-112658841D01*
X129730462Y-112584341D01*
X129760685Y-112547321D01*
X129777989Y-112531989D01*
X133044084Y-109637979D01*
X133113083Y-109603514D01*
X133142899Y-109600500D01*
X150353287Y-109600500D01*
X150353311Y-109600501D01*
X150359454Y-109600501D01*
X150540541Y-109600501D01*
X150540546Y-109600501D01*
X150719409Y-109572171D01*
X150891639Y-109516211D01*
X151052994Y-109433996D01*
X151122098Y-109383789D01*
X151126698Y-109380447D01*
X151126699Y-109380446D01*
X151126713Y-109380436D01*
X151199121Y-109327829D01*
X151199497Y-109327556D01*
X151199497Y-109327555D01*
X151199501Y-109327553D01*
X151327553Y-109199501D01*
X151327553Y-109199499D01*
X151338246Y-109188807D01*
X151338254Y-109188796D01*
X152199494Y-108327558D01*
X152199501Y-108327553D01*
X152327553Y-108199501D01*
X152433996Y-108052994D01*
X152516211Y-107891639D01*
X152554336Y-107774301D01*
X152572172Y-107719409D01*
X152600501Y-107540546D01*
X152600501Y-107359453D01*
X152600501Y-107354180D01*
X152600500Y-107354150D01*
X152600500Y-103681691D01*
X152600677Y-103674432D01*
X152603546Y-103615616D01*
X152601372Y-103595629D01*
X152600500Y-103579534D01*
X152600500Y-103559453D01*
X152591295Y-103501338D01*
X152590333Y-103494138D01*
X152583965Y-103435586D01*
X152578694Y-103416197D01*
X152575312Y-103400425D01*
X152572172Y-103380597D01*
X152572171Y-103380596D01*
X152572171Y-103380591D01*
X152553967Y-103324567D01*
X152551912Y-103317672D01*
X152536462Y-103260834D01*
X152528226Y-103242516D01*
X152522420Y-103227473D01*
X152516211Y-103208361D01*
X152516209Y-103208357D01*
X152516207Y-103208352D01*
X152489475Y-103155889D01*
X152486335Y-103149337D01*
X152462209Y-103095671D01*
X152462208Y-103095669D01*
X152462206Y-103095665D01*
X152451199Y-103078849D01*
X152443125Y-103064924D01*
X152433996Y-103047006D01*
X152399362Y-102999336D01*
X152395267Y-102993400D01*
X152363027Y-102944146D01*
X152349534Y-102929269D01*
X152339365Y-102916757D01*
X152327558Y-102900505D01*
X152327551Y-102900497D01*
X152285900Y-102858846D01*
X152280892Y-102853587D01*
X151139133Y-101594724D01*
X151103869Y-101526130D01*
X151100500Y-101494624D01*
X151100500Y-101374042D01*
X151100500Y-101374038D01*
X151061090Y-101125215D01*
X150983241Y-100885621D01*
X150868870Y-100661155D01*
X150855547Y-100642818D01*
X150824919Y-100600661D01*
X150720793Y-100457344D01*
X150542656Y-100279207D01*
X150338845Y-100131130D01*
X150114379Y-100016759D01*
X149874785Y-99938910D01*
X149625962Y-99899500D01*
X149374038Y-99899500D01*
X149166685Y-99932341D01*
X149125214Y-99938910D01*
X148885627Y-100016757D01*
X148885621Y-100016759D01*
X148885615Y-100016761D01*
X148885615Y-100016762D01*
X148661153Y-100131131D01*
X148661152Y-100131131D01*
X148457345Y-100279206D01*
X148457342Y-100279208D01*
X148279208Y-100457342D01*
X148279206Y-100457345D01*
X148131131Y-100661152D01*
X148131131Y-100661153D01*
X148131130Y-100661155D01*
X148016759Y-100885621D01*
X147938910Y-101125215D01*
X147899500Y-101374038D01*
X147899500Y-101625962D01*
X147938910Y-101874785D01*
X148016759Y-102114379D01*
X148131130Y-102338845D01*
X148279207Y-102542656D01*
X148457344Y-102720793D01*
X148661155Y-102868870D01*
X148885621Y-102983241D01*
X149125215Y-103061090D01*
X149350670Y-103096798D01*
X149421126Y-103128168D01*
X149437720Y-103143857D01*
X150260868Y-104051430D01*
X150296131Y-104120022D01*
X150299500Y-104151528D01*
X150299500Y-104871827D01*
X150279538Y-104946327D01*
X150225000Y-105000865D01*
X150150500Y-105020827D01*
X150104457Y-105013535D01*
X149958624Y-104966151D01*
X149874785Y-104938910D01*
X149874783Y-104938909D01*
X149874781Y-104938909D01*
X149796065Y-104926441D01*
X149625962Y-104899500D01*
X149374038Y-104899500D01*
X149166685Y-104932341D01*
X149125214Y-104938910D01*
X148895543Y-105013535D01*
X148885621Y-105016759D01*
X148885615Y-105016761D01*
X148885615Y-105016762D01*
X148661153Y-105131131D01*
X148661152Y-105131131D01*
X148457345Y-105279206D01*
X148457340Y-105279210D01*
X148421206Y-105315343D01*
X148354410Y-105353905D01*
X148317048Y-105358976D01*
X130846066Y-105499494D01*
X130844868Y-105499499D01*
X130759451Y-105499499D01*
X130754870Y-105499859D01*
X130754827Y-105499861D01*
X130754761Y-105499869D01*
X130750207Y-105500264D01*
X130666045Y-105514288D01*
X130664866Y-105514479D01*
X130580585Y-105527828D01*
X130576120Y-105528900D01*
X130576086Y-105528907D01*
X130575995Y-105528933D01*
X130571566Y-105530034D01*
X130490663Y-105557041D01*
X130489529Y-105557415D01*
X130408353Y-105583791D01*
X130404131Y-105585540D01*
X130404074Y-105585561D01*
X130404025Y-105585584D01*
X130399805Y-105587372D01*
X130323969Y-105626783D01*
X130322909Y-105627328D01*
X130247002Y-105666006D01*
X130243065Y-105668418D01*
X130243037Y-105668433D01*
X130243019Y-105668446D01*
X130239118Y-105670880D01*
X130170412Y-105721646D01*
X130169451Y-105722351D01*
X130100500Y-105772448D01*
X130100497Y-105772450D01*
X130100490Y-105772456D01*
X130097009Y-105775428D01*
X130096964Y-105775463D01*
X130096948Y-105775479D01*
X130093464Y-105778503D01*
X130033470Y-105839469D01*
X130032628Y-105840318D01*
X125011592Y-110861353D01*
X124944798Y-110899917D01*
X124874183Y-110918838D01*
X124790007Y-110941394D01*
X124790004Y-110941395D01*
X124790001Y-110941396D01*
X124571943Y-111031719D01*
X124367551Y-111149726D01*
X124367550Y-111149727D01*
X124190703Y-111285426D01*
X124119449Y-111314940D01*
X124042980Y-111304873D01*
X124009299Y-111285428D01*
X123832450Y-111149727D01*
X123789992Y-111125214D01*
X123628056Y-111031719D01*
X123409996Y-110941395D01*
X123409994Y-110941394D01*
X123409993Y-110941394D01*
X123182014Y-110880307D01*
X123182012Y-110880306D01*
X123182006Y-110880305D01*
X122948016Y-110849500D01*
X122948011Y-110849500D01*
X122711989Y-110849500D01*
X122711983Y-110849500D01*
X122477993Y-110880305D01*
X122250003Y-110941395D01*
X122031943Y-111031719D01*
X121827551Y-111149726D01*
X121827550Y-111149727D01*
X121650703Y-111285426D01*
X121579449Y-111314940D01*
X121502980Y-111304873D01*
X121469299Y-111285428D01*
X121292450Y-111149727D01*
X121249992Y-111125214D01*
X121088056Y-111031719D01*
X120869996Y-110941395D01*
X120869994Y-110941394D01*
X120869993Y-110941394D01*
X120642014Y-110880307D01*
X120642012Y-110880306D01*
X120642006Y-110880305D01*
X120408016Y-110849500D01*
X120408011Y-110849500D01*
X120171989Y-110849500D01*
X120171983Y-110849500D01*
X119937993Y-110880305D01*
X119710003Y-110941395D01*
X119491943Y-111031719D01*
X119287551Y-111149726D01*
X119287550Y-111149727D01*
X119110703Y-111285426D01*
X119039449Y-111314940D01*
X118962980Y-111304873D01*
X118929299Y-111285428D01*
X118752450Y-111149727D01*
X118709992Y-111125214D01*
X118548056Y-111031719D01*
X118329996Y-110941395D01*
X118329994Y-110941394D01*
X118329993Y-110941394D01*
X118102014Y-110880307D01*
X118102012Y-110880306D01*
X118102006Y-110880305D01*
X117868016Y-110849500D01*
X117868011Y-110849500D01*
X117631989Y-110849500D01*
X117631983Y-110849500D01*
X117397993Y-110880305D01*
X117170003Y-110941395D01*
X116951943Y-111031719D01*
X116747551Y-111149726D01*
X116747550Y-111149727D01*
X116570703Y-111285426D01*
X116499449Y-111314940D01*
X116422980Y-111304873D01*
X116389299Y-111285428D01*
X116212450Y-111149727D01*
X116169992Y-111125214D01*
X116008056Y-111031719D01*
X115789996Y-110941395D01*
X115789994Y-110941394D01*
X115789993Y-110941394D01*
X115562014Y-110880307D01*
X115562012Y-110880306D01*
X115562006Y-110880305D01*
X115328016Y-110849500D01*
X115328011Y-110849500D01*
X115091989Y-110849500D01*
X115091983Y-110849500D01*
X114857993Y-110880305D01*
X114630003Y-110941395D01*
X114411943Y-111031719D01*
X114207551Y-111149726D01*
X114207550Y-111149727D01*
X114030703Y-111285426D01*
X113959449Y-111314940D01*
X113882980Y-111304873D01*
X113849299Y-111285428D01*
X113672450Y-111149727D01*
X113629992Y-111125214D01*
X113468056Y-111031719D01*
X113249996Y-110941395D01*
X113249994Y-110941394D01*
X113249993Y-110941394D01*
X113022014Y-110880307D01*
X113022012Y-110880306D01*
X113022006Y-110880305D01*
X112788016Y-110849500D01*
X112788011Y-110849500D01*
X112551989Y-110849500D01*
X112551983Y-110849500D01*
X112317993Y-110880305D01*
X112090003Y-110941395D01*
X111871943Y-111031719D01*
X111667551Y-111149726D01*
X111667550Y-111149727D01*
X111480301Y-111293408D01*
X111480299Y-111293409D01*
X111480295Y-111293413D01*
X111313413Y-111460295D01*
X111313409Y-111460299D01*
X111313408Y-111460301D01*
X111254756Y-111536738D01*
X111169726Y-111647551D01*
X111051719Y-111851943D01*
X110961395Y-112070003D01*
X110900305Y-112297993D01*
X110869500Y-112531983D01*
X110869500Y-112768016D01*
X110900305Y-113002006D01*
X110900306Y-113002012D01*
X110900307Y-113002014D01*
X110926696Y-113100500D01*
X110961395Y-113229996D01*
X111051719Y-113448056D01*
X111110866Y-113550500D01*
X111169727Y-113652450D01*
X111313408Y-113839699D01*
X111313413Y-113839704D01*
X111318850Y-113845141D01*
X111357414Y-113911936D01*
X111357414Y-113989064D01*
X111318850Y-114055859D01*
X111252055Y-114094423D01*
X111213491Y-114099500D01*
X109490801Y-114099500D01*
X109416301Y-114079538D01*
X109361763Y-114025000D01*
X109341801Y-113950500D01*
X109350162Y-113901289D01*
X109375368Y-113829255D01*
X109390500Y-113694954D01*
X109390500Y-111605046D01*
X109375368Y-111470745D01*
X109315789Y-111300478D01*
X109219816Y-111147738D01*
X109092262Y-111020184D01*
X108939522Y-110924211D01*
X108769255Y-110864632D01*
X108769254Y-110864631D01*
X108769253Y-110864631D01*
X108652006Y-110851421D01*
X108634954Y-110849500D01*
X106545046Y-110849500D01*
X106529915Y-110851204D01*
X106410746Y-110864631D01*
X106240477Y-110924211D01*
X106087738Y-111020184D01*
X105960184Y-111147738D01*
X105864211Y-111300477D01*
X105804631Y-111470746D01*
X105789500Y-111605047D01*
X105000500Y-111605047D01*
X105000500Y-97291983D01*
X105789500Y-97291983D01*
X105789500Y-97528016D01*
X105820305Y-97762006D01*
X105820306Y-97762012D01*
X105820307Y-97762014D01*
X105830927Y-97801650D01*
X105881395Y-97989996D01*
X105971719Y-98208056D01*
X106055085Y-98352448D01*
X106089727Y-98412450D01*
X106233408Y-98599699D01*
X106400301Y-98766592D01*
X106587550Y-98910273D01*
X106686205Y-98967231D01*
X106791943Y-99028280D01*
X106791946Y-99028281D01*
X106791951Y-99028284D01*
X107010007Y-99118606D01*
X107237986Y-99179693D01*
X107237992Y-99179693D01*
X107237993Y-99179694D01*
X107301603Y-99188068D01*
X107471989Y-99210500D01*
X107708011Y-99210500D01*
X107942014Y-99179693D01*
X108169993Y-99118606D01*
X108388049Y-99028284D01*
X108592450Y-98910273D01*
X108769296Y-98774573D01*
X108840551Y-98745059D01*
X108917019Y-98755126D01*
X108950700Y-98774571D01*
X109048096Y-98849306D01*
X109127545Y-98910270D01*
X109127547Y-98910271D01*
X109331943Y-99028280D01*
X109331946Y-99028281D01*
X109331951Y-99028284D01*
X109550007Y-99118606D01*
X109777986Y-99179693D01*
X109777992Y-99179693D01*
X109777993Y-99179694D01*
X109841603Y-99188068D01*
X110011989Y-99210500D01*
X110248011Y-99210500D01*
X110482014Y-99179693D01*
X110709993Y-99118606D01*
X110928049Y-99028284D01*
X111132450Y-98910273D01*
X111309296Y-98774573D01*
X111380551Y-98745059D01*
X111457019Y-98755126D01*
X111490700Y-98774571D01*
X111588096Y-98849306D01*
X111667545Y-98910270D01*
X111667547Y-98910271D01*
X111871943Y-99028280D01*
X111871946Y-99028281D01*
X111871951Y-99028284D01*
X112090007Y-99118606D01*
X112317986Y-99179693D01*
X112317992Y-99179693D01*
X112317993Y-99179694D01*
X112381603Y-99188068D01*
X112551989Y-99210500D01*
X112788011Y-99210500D01*
X113022014Y-99179693D01*
X113249993Y-99118606D01*
X113468049Y-99028284D01*
X113672450Y-98910273D01*
X113849296Y-98774573D01*
X113920551Y-98745059D01*
X113997019Y-98755126D01*
X114030700Y-98774571D01*
X114128096Y-98849306D01*
X114207545Y-98910270D01*
X114207547Y-98910271D01*
X114411943Y-99028280D01*
X114411946Y-99028281D01*
X114411951Y-99028284D01*
X114630007Y-99118606D01*
X114857986Y-99179693D01*
X114857992Y-99179693D01*
X114857993Y-99179694D01*
X114921603Y-99188068D01*
X115091989Y-99210500D01*
X115328011Y-99210500D01*
X115562014Y-99179693D01*
X115789993Y-99118606D01*
X116008049Y-99028284D01*
X116212450Y-98910273D01*
X116389296Y-98774573D01*
X116460551Y-98745059D01*
X116537019Y-98755126D01*
X116570700Y-98774571D01*
X116668096Y-98849306D01*
X116747545Y-98910270D01*
X116747547Y-98910271D01*
X116951943Y-99028280D01*
X116951946Y-99028281D01*
X116951951Y-99028284D01*
X117170007Y-99118606D01*
X117397986Y-99179693D01*
X117397992Y-99179693D01*
X117397993Y-99179694D01*
X117461603Y-99188068D01*
X117631989Y-99210500D01*
X117868011Y-99210500D01*
X118102014Y-99179693D01*
X118329993Y-99118606D01*
X118548049Y-99028284D01*
X118752450Y-98910273D01*
X118929296Y-98774573D01*
X119000551Y-98745059D01*
X119077019Y-98755126D01*
X119110700Y-98774571D01*
X119208096Y-98849306D01*
X119287545Y-98910270D01*
X119287547Y-98910271D01*
X119491943Y-99028280D01*
X119491946Y-99028281D01*
X119491951Y-99028284D01*
X119710007Y-99118606D01*
X119937986Y-99179693D01*
X119937992Y-99179693D01*
X119937993Y-99179694D01*
X120001603Y-99188068D01*
X120171989Y-99210500D01*
X120408011Y-99210500D01*
X120642014Y-99179693D01*
X120869993Y-99118606D01*
X121088049Y-99028284D01*
X121292450Y-98910273D01*
X121469296Y-98774573D01*
X121540551Y-98745059D01*
X121617019Y-98755126D01*
X121650700Y-98774571D01*
X121748096Y-98849306D01*
X121827545Y-98910270D01*
X121827547Y-98910271D01*
X122031943Y-99028280D01*
X122031946Y-99028281D01*
X122031951Y-99028284D01*
X122250007Y-99118606D01*
X122477986Y-99179693D01*
X122477992Y-99179693D01*
X122477993Y-99179694D01*
X122541603Y-99188068D01*
X122711989Y-99210500D01*
X122948011Y-99210500D01*
X123182014Y-99179693D01*
X123409993Y-99118606D01*
X123628049Y-99028284D01*
X123832450Y-98910273D01*
X124009296Y-98774573D01*
X124080551Y-98745059D01*
X124157019Y-98755126D01*
X124190700Y-98774571D01*
X124288096Y-98849306D01*
X124367545Y-98910270D01*
X124367547Y-98910271D01*
X124571943Y-99028280D01*
X124571946Y-99028281D01*
X124571951Y-99028284D01*
X124790007Y-99118606D01*
X125017986Y-99179693D01*
X125017992Y-99179693D01*
X125017993Y-99179694D01*
X125081603Y-99188068D01*
X125251989Y-99210500D01*
X125488011Y-99210500D01*
X125722014Y-99179693D01*
X125949993Y-99118606D01*
X126168049Y-99028284D01*
X126372450Y-98910273D01*
X126549296Y-98774573D01*
X126620551Y-98745059D01*
X126697019Y-98755126D01*
X126730700Y-98774571D01*
X126828096Y-98849306D01*
X126907545Y-98910270D01*
X126907547Y-98910271D01*
X127111943Y-99028280D01*
X127111946Y-99028281D01*
X127111951Y-99028284D01*
X127330007Y-99118606D01*
X127557986Y-99179693D01*
X127557992Y-99179693D01*
X127557993Y-99179694D01*
X127621603Y-99188068D01*
X127791989Y-99210500D01*
X128028011Y-99210500D01*
X128262014Y-99179693D01*
X128489993Y-99118606D01*
X128708049Y-99028284D01*
X128912450Y-98910273D01*
X129099699Y-98766592D01*
X129266592Y-98599699D01*
X129410273Y-98412450D01*
X129528284Y-98208049D01*
X129618606Y-97989993D01*
X129640841Y-97907009D01*
X129679404Y-97840215D01*
X129746199Y-97801650D01*
X129783655Y-97796577D01*
X148332904Y-97659176D01*
X148407547Y-97678586D01*
X148439364Y-97702813D01*
X148457344Y-97720793D01*
X148661155Y-97868870D01*
X148885621Y-97983241D01*
X149125215Y-98061090D01*
X149374038Y-98100500D01*
X149374043Y-98100500D01*
X149625957Y-98100500D01*
X149625962Y-98100500D01*
X149874785Y-98061090D01*
X150114379Y-97983241D01*
X150338845Y-97868870D01*
X150542656Y-97720793D01*
X150720793Y-97542656D01*
X150868870Y-97338845D01*
X150983241Y-97114379D01*
X151061090Y-96874785D01*
X151100500Y-96625962D01*
X151100500Y-96374038D01*
X151061090Y-96125215D01*
X150983241Y-95885621D01*
X150868870Y-95661155D01*
X150861084Y-95650439D01*
X150838908Y-95619916D01*
X150720793Y-95457344D01*
X150542656Y-95279207D01*
X150338845Y-95131130D01*
X150114379Y-95016759D01*
X149874785Y-94938910D01*
X149625962Y-94899500D01*
X149374038Y-94899500D01*
X149166685Y-94932341D01*
X149125214Y-94938910D01*
X148990708Y-94982614D01*
X148885621Y-95016759D01*
X148885615Y-95016761D01*
X148885615Y-95016762D01*
X148661153Y-95131131D01*
X148661152Y-95131131D01*
X148457345Y-95279206D01*
X148457341Y-95279209D01*
X148421961Y-95314589D01*
X148355165Y-95353152D01*
X148317707Y-95358225D01*
X129319410Y-95498953D01*
X129301605Y-95498018D01*
X129289057Y-95496602D01*
X129222806Y-95499565D01*
X129217254Y-95499710D01*
X129150934Y-95500201D01*
X129138491Y-95502267D01*
X129120750Y-95504129D01*
X129108160Y-95504691D01*
X129108155Y-95504692D01*
X129108150Y-95504692D01*
X129108149Y-95504693D01*
X129043171Y-95517984D01*
X129037736Y-95518990D01*
X128972283Y-95529855D01*
X128960302Y-95533846D01*
X128943086Y-95538457D01*
X128930727Y-95540985D01*
X128868626Y-95564277D01*
X128863398Y-95566127D01*
X128800476Y-95587089D01*
X128793727Y-95590590D01*
X128789263Y-95592906D01*
X128772981Y-95600153D01*
X128761177Y-95604580D01*
X128703486Y-95637300D01*
X128698607Y-95639948D01*
X128639733Y-95670497D01*
X128629571Y-95677995D01*
X128614646Y-95687685D01*
X128611005Y-95689751D01*
X128536358Y-95709156D01*
X128494841Y-95702142D01*
X128494704Y-95702656D01*
X128374684Y-95670497D01*
X128373063Y-95670062D01*
X128306269Y-95631499D01*
X128267705Y-95564704D01*
X128267705Y-95487576D01*
X128306267Y-95420783D01*
X130887144Y-92839906D01*
X130953937Y-92801344D01*
X130991324Y-92796272D01*
X148333376Y-92659720D01*
X148408030Y-92679095D01*
X148439907Y-92703356D01*
X148457344Y-92720793D01*
X148661155Y-92868870D01*
X148885621Y-92983241D01*
X149125215Y-93061090D01*
X149374038Y-93100500D01*
X149374043Y-93100500D01*
X149625957Y-93100500D01*
X149625962Y-93100500D01*
X149874785Y-93061090D01*
X150114379Y-92983241D01*
X150338845Y-92868870D01*
X150542656Y-92720793D01*
X150720793Y-92542656D01*
X150868870Y-92338845D01*
X150983241Y-92114379D01*
X151061090Y-91874785D01*
X151100500Y-91625962D01*
X151100500Y-91374038D01*
X151061090Y-91125215D01*
X150983241Y-90885621D01*
X150868870Y-90661155D01*
X150720793Y-90457344D01*
X150542656Y-90279207D01*
X150338845Y-90131130D01*
X150114379Y-90016759D01*
X149874785Y-89938910D01*
X149625962Y-89899500D01*
X149374038Y-89899500D01*
X149166685Y-89932341D01*
X149125214Y-89938910D01*
X148988775Y-89983242D01*
X148885621Y-90016759D01*
X148885615Y-90016761D01*
X148885615Y-90016762D01*
X148661153Y-90131131D01*
X148661152Y-90131131D01*
X148457345Y-90279206D01*
X148457340Y-90279210D01*
X148421405Y-90315144D01*
X148354609Y-90353706D01*
X148317222Y-90358777D01*
X130446282Y-90499494D01*
X130445109Y-90499499D01*
X130359443Y-90499499D01*
X130355106Y-90499840D01*
X130355063Y-90499842D01*
X130354782Y-90499865D01*
X130354700Y-90499875D01*
X130350409Y-90500246D01*
X130266165Y-90514270D01*
X130265009Y-90514457D01*
X130180594Y-90527827D01*
X130176334Y-90528850D01*
X130176252Y-90528866D01*
X130176097Y-90528904D01*
X130176017Y-90528927D01*
X130171760Y-90529985D01*
X130090698Y-90557030D01*
X130089587Y-90557396D01*
X130008358Y-90583789D01*
X130004330Y-90585457D01*
X130004255Y-90585485D01*
X130004059Y-90585566D01*
X130003990Y-90585599D01*
X129999984Y-90587295D01*
X129941865Y-90617487D01*
X129924034Y-90626750D01*
X129923159Y-90627201D01*
X129901598Y-90638187D01*
X129847003Y-90666005D01*
X129843299Y-90668275D01*
X129843211Y-90668325D01*
X129843037Y-90668432D01*
X129842980Y-90668471D01*
X129839281Y-90670778D01*
X129770513Y-90721573D01*
X129769568Y-90722265D01*
X129700495Y-90772450D01*
X129697180Y-90775281D01*
X129697121Y-90775327D01*
X129696950Y-90775475D01*
X129696900Y-90775522D01*
X129693607Y-90778379D01*
X129633682Y-90839255D01*
X129632857Y-90840087D01*
X124894768Y-95578177D01*
X124880621Y-95590637D01*
X124874210Y-95595599D01*
X124874191Y-95595616D01*
X124825652Y-95647195D01*
X124822506Y-95650439D01*
X124779463Y-95693483D01*
X124731124Y-95725782D01*
X124571954Y-95791713D01*
X124571950Y-95791716D01*
X124367551Y-95909726D01*
X124361874Y-95914082D01*
X124190703Y-96045426D01*
X124119449Y-96074940D01*
X124042980Y-96064873D01*
X124009299Y-96045428D01*
X123832450Y-95909727D01*
X123781311Y-95880202D01*
X123628056Y-95791719D01*
X123409996Y-95701395D01*
X123409994Y-95701394D01*
X123409993Y-95701394D01*
X123182014Y-95640307D01*
X123182012Y-95640306D01*
X123182006Y-95640305D01*
X122948016Y-95609500D01*
X122948011Y-95609500D01*
X122711989Y-95609500D01*
X122711983Y-95609500D01*
X122477993Y-95640305D01*
X122250003Y-95701395D01*
X122031943Y-95791719D01*
X121827551Y-95909726D01*
X121821874Y-95914082D01*
X121650703Y-96045426D01*
X121579449Y-96074940D01*
X121502980Y-96064873D01*
X121469299Y-96045428D01*
X121292450Y-95909727D01*
X121241311Y-95880202D01*
X121088056Y-95791719D01*
X120869996Y-95701395D01*
X120869994Y-95701394D01*
X120869993Y-95701394D01*
X120642014Y-95640307D01*
X120642012Y-95640306D01*
X120642006Y-95640305D01*
X120408016Y-95609500D01*
X120408011Y-95609500D01*
X120171989Y-95609500D01*
X120171983Y-95609500D01*
X119937993Y-95640305D01*
X119710003Y-95701395D01*
X119491943Y-95791719D01*
X119287551Y-95909726D01*
X119281874Y-95914082D01*
X119110703Y-96045426D01*
X119039449Y-96074940D01*
X118962980Y-96064873D01*
X118929299Y-96045428D01*
X118752450Y-95909727D01*
X118701311Y-95880202D01*
X118548056Y-95791719D01*
X118329996Y-95701395D01*
X118329994Y-95701394D01*
X118329993Y-95701394D01*
X118102014Y-95640307D01*
X118102012Y-95640306D01*
X118102006Y-95640305D01*
X117868016Y-95609500D01*
X117868011Y-95609500D01*
X117631989Y-95609500D01*
X117631983Y-95609500D01*
X117397993Y-95640305D01*
X117170003Y-95701395D01*
X116951943Y-95791719D01*
X116747551Y-95909726D01*
X116741874Y-95914082D01*
X116570703Y-96045426D01*
X116499449Y-96074940D01*
X116422980Y-96064873D01*
X116389299Y-96045428D01*
X116212450Y-95909727D01*
X116161311Y-95880202D01*
X116008056Y-95791719D01*
X115789996Y-95701395D01*
X115789994Y-95701394D01*
X115789993Y-95701394D01*
X115562014Y-95640307D01*
X115562012Y-95640306D01*
X115562006Y-95640305D01*
X115328016Y-95609500D01*
X115328011Y-95609500D01*
X115091989Y-95609500D01*
X115091983Y-95609500D01*
X114857993Y-95640305D01*
X114630003Y-95701395D01*
X114411943Y-95791719D01*
X114207551Y-95909726D01*
X114201874Y-95914082D01*
X114030703Y-96045426D01*
X113959449Y-96074940D01*
X113882980Y-96064873D01*
X113849299Y-96045428D01*
X113672450Y-95909727D01*
X113621311Y-95880202D01*
X113468056Y-95791719D01*
X113249998Y-95701396D01*
X113249997Y-95701395D01*
X113249993Y-95701394D01*
X113164610Y-95678515D01*
X113097816Y-95639951D01*
X113059253Y-95573156D01*
X113059253Y-95496028D01*
X113097815Y-95429236D01*
X118701088Y-89825963D01*
X118767881Y-89787401D01*
X118801378Y-89782410D01*
X121521226Y-89689898D01*
X121596359Y-89707316D01*
X121613869Y-89718268D01*
X121617342Y-89720791D01*
X121617344Y-89720793D01*
X121821155Y-89868870D01*
X122045621Y-89983241D01*
X122285215Y-90061090D01*
X122534038Y-90100500D01*
X122534043Y-90100500D01*
X122785957Y-90100500D01*
X122785962Y-90100500D01*
X123034785Y-90061090D01*
X123274379Y-89983241D01*
X123498845Y-89868870D01*
X123702656Y-89720793D01*
X123880793Y-89542656D01*
X124028870Y-89338845D01*
X124143241Y-89114379D01*
X124221090Y-88874785D01*
X124260500Y-88625962D01*
X124260500Y-88374038D01*
X124221090Y-88125215D01*
X124143241Y-87885621D01*
X124028870Y-87661155D01*
X124028866Y-87661149D01*
X124028863Y-87661144D01*
X123880463Y-87456889D01*
X123852822Y-87384884D01*
X123864888Y-87308705D01*
X123913426Y-87248766D01*
X123985431Y-87221125D01*
X123998058Y-87220338D01*
X124276016Y-87214857D01*
X124350892Y-87233346D01*
X124384305Y-87258465D01*
X124424771Y-87298931D01*
X124634949Y-87451634D01*
X124762683Y-87516718D01*
X124866425Y-87569578D01*
X124866427Y-87569578D01*
X124866428Y-87569579D01*
X125113507Y-87649860D01*
X125370103Y-87690500D01*
X125370108Y-87690500D01*
X125629892Y-87690500D01*
X125629897Y-87690500D01*
X125886493Y-87649860D01*
X126133572Y-87569579D01*
X126365051Y-87451634D01*
X126575229Y-87298931D01*
X126758931Y-87115229D01*
X126911634Y-86905051D01*
X127029579Y-86673572D01*
X127109860Y-86426493D01*
X127150500Y-86169897D01*
X127150500Y-85910103D01*
X127109860Y-85653507D01*
X127029579Y-85406428D01*
X127029578Y-85406427D01*
X127029578Y-85406425D01*
X126988277Y-85325369D01*
X126911634Y-85174949D01*
X126911631Y-85174945D01*
X126911631Y-85174944D01*
X126879337Y-85130496D01*
X126851696Y-85058490D01*
X126863761Y-84982312D01*
X126894522Y-84937556D01*
X126979811Y-84852267D01*
X126979816Y-84852262D01*
X127075789Y-84699522D01*
X127135368Y-84529255D01*
X127150500Y-84394954D01*
X127150500Y-82605046D01*
X127135368Y-82470745D01*
X127075789Y-82300478D01*
X126979816Y-82147738D01*
X126852262Y-82020184D01*
X126699522Y-81924211D01*
X126529255Y-81864632D01*
X126529254Y-81864631D01*
X126529253Y-81864631D01*
X126412006Y-81851421D01*
X126394954Y-81849500D01*
X126394953Y-81849500D01*
X125538271Y-81849500D01*
X125463771Y-81829538D01*
X125432912Y-81805859D01*
X124527555Y-80900502D01*
X124527553Y-80900499D01*
X124505760Y-80878706D01*
X187149500Y-80878706D01*
X187149500Y-81121293D01*
X187181160Y-81361781D01*
X187181161Y-81361787D01*
X187181162Y-81361789D01*
X187243946Y-81596100D01*
X187336776Y-81820212D01*
X187458064Y-82030289D01*
X187605735Y-82222738D01*
X187777262Y-82394265D01*
X187969711Y-82541936D01*
X188179788Y-82663224D01*
X188403900Y-82756054D01*
X188638211Y-82818838D01*
X188638217Y-82818838D01*
X188638218Y-82818839D01*
X188703600Y-82827446D01*
X188878712Y-82850500D01*
X189121288Y-82850500D01*
X189361789Y-82818838D01*
X189596100Y-82756054D01*
X189820212Y-82663224D01*
X190030289Y-82541936D01*
X190222738Y-82394265D01*
X190394265Y-82222738D01*
X190541936Y-82030289D01*
X190663224Y-81820212D01*
X190756054Y-81596100D01*
X190818838Y-81361789D01*
X190850500Y-81121288D01*
X190850500Y-80878712D01*
X190820454Y-80650488D01*
X190818839Y-80638218D01*
X190818838Y-80638217D01*
X190818838Y-80638211D01*
X190756054Y-80403900D01*
X190663224Y-80179788D01*
X190541936Y-79969711D01*
X190394265Y-79777262D01*
X190222738Y-79605735D01*
X190030289Y-79458064D01*
X189960263Y-79417634D01*
X189820216Y-79336778D01*
X189820214Y-79336777D01*
X189820212Y-79336776D01*
X189688932Y-79282398D01*
X189596103Y-79243947D01*
X189596101Y-79243946D01*
X189596100Y-79243946D01*
X189361789Y-79181162D01*
X189361787Y-79181161D01*
X189361781Y-79181160D01*
X189121293Y-79149500D01*
X189121288Y-79149500D01*
X188878712Y-79149500D01*
X188878706Y-79149500D01*
X188638218Y-79181160D01*
X188403896Y-79243947D01*
X188179783Y-79336778D01*
X187969712Y-79458063D01*
X187969711Y-79458064D01*
X187777262Y-79605735D01*
X187777260Y-79605736D01*
X187777256Y-79605740D01*
X187605740Y-79777256D01*
X187458063Y-79969712D01*
X187336778Y-80179783D01*
X187243947Y-80403896D01*
X187181160Y-80638218D01*
X187149500Y-80878706D01*
X124505760Y-80878706D01*
X124399501Y-80772447D01*
X124252994Y-80666004D01*
X124091639Y-80583789D01*
X123919409Y-80527829D01*
X123740546Y-80499499D01*
X123559454Y-80499499D01*
X123553311Y-80499499D01*
X123553287Y-80499500D01*
X114467124Y-80499500D01*
X114463204Y-80499448D01*
X114389754Y-80497515D01*
X114389745Y-80497515D01*
X114384328Y-80498228D01*
X114364901Y-80499500D01*
X114359454Y-80499500D01*
X114286926Y-80510985D01*
X114283056Y-80511546D01*
X114210212Y-80521129D01*
X114210210Y-80521129D01*
X114210205Y-80521130D01*
X114210202Y-80521130D01*
X114210190Y-80521133D01*
X114204952Y-80522684D01*
X114185993Y-80526973D01*
X114180591Y-80527829D01*
X114180585Y-80527830D01*
X114110739Y-80550524D01*
X114106998Y-80551685D01*
X114036561Y-80572540D01*
X114036555Y-80572542D01*
X114031611Y-80574899D01*
X114013566Y-80582096D01*
X114008376Y-80583782D01*
X114008353Y-80583792D01*
X113942928Y-80617128D01*
X113939416Y-80618860D01*
X113873100Y-80650482D01*
X113873089Y-80650488D01*
X113868594Y-80653577D01*
X113851893Y-80663513D01*
X113847004Y-80666004D01*
X113847001Y-80666006D01*
X113787562Y-80709190D01*
X113784366Y-80711449D01*
X113723848Y-80753031D01*
X113723847Y-80753032D01*
X113723844Y-80753035D01*
X113719878Y-80756797D01*
X113704927Y-80769229D01*
X113700501Y-80772444D01*
X113700499Y-80772446D01*
X113648532Y-80824412D01*
X113645726Y-80827145D01*
X112558525Y-81858594D01*
X112490739Y-81895388D01*
X112455974Y-81899500D01*
X112374038Y-81899500D01*
X112166685Y-81932341D01*
X112125214Y-81938910D01*
X111885627Y-82016757D01*
X111885621Y-82016759D01*
X111885615Y-82016761D01*
X111885615Y-82016762D01*
X111661153Y-82131131D01*
X111661152Y-82131131D01*
X111457345Y-82279206D01*
X111457342Y-82279208D01*
X111279208Y-82457342D01*
X111279206Y-82457345D01*
X111131131Y-82661152D01*
X111131131Y-82661153D01*
X111034655Y-82850499D01*
X111016759Y-82885621D01*
X110938910Y-83125215D01*
X110899500Y-83374038D01*
X110899500Y-83625962D01*
X110938910Y-83874785D01*
X111016759Y-84114379D01*
X111131130Y-84338845D01*
X111279207Y-84542656D01*
X111457344Y-84720793D01*
X111457350Y-84720797D01*
X111486958Y-84742309D01*
X111535495Y-84802249D01*
X111547560Y-84878428D01*
X111519918Y-84950433D01*
X111504735Y-84968210D01*
X107053156Y-89419789D01*
X107049265Y-89423541D01*
X107000222Y-89469148D01*
X106992826Y-89478587D01*
X106980910Y-89492036D01*
X106972446Y-89500499D01*
X106972446Y-89500500D01*
X106933097Y-89554658D01*
X106929843Y-89558970D01*
X106888537Y-89611689D01*
X106888535Y-89611692D01*
X106882706Y-89622172D01*
X106873048Y-89637309D01*
X106866004Y-89647005D01*
X106835603Y-89706667D01*
X106833065Y-89711433D01*
X106800515Y-89769965D01*
X106796402Y-89781215D01*
X106789229Y-89797680D01*
X106783790Y-89808355D01*
X106783788Y-89808361D01*
X106763091Y-89872060D01*
X106761328Y-89877168D01*
X106738348Y-89940036D01*
X106738342Y-89940059D01*
X106736041Y-89951804D01*
X106731533Y-89969186D01*
X106727829Y-89980587D01*
X106727827Y-89980595D01*
X106717349Y-90046746D01*
X106716407Y-90052065D01*
X106703545Y-90117752D01*
X106703543Y-90117772D01*
X106703108Y-90129727D01*
X106701374Y-90147608D01*
X106699499Y-90159450D01*
X106699499Y-90226446D01*
X106699401Y-90231853D01*
X106493062Y-95914082D01*
X106470409Y-95987809D01*
X106434867Y-96026883D01*
X106400306Y-96053402D01*
X106400303Y-96053406D01*
X106233413Y-96220295D01*
X106233409Y-96220299D01*
X106233408Y-96220301D01*
X106173058Y-96298951D01*
X106089726Y-96407551D01*
X105971719Y-96611943D01*
X105881395Y-96830003D01*
X105820305Y-97057993D01*
X105789500Y-97291983D01*
X105000500Y-97291983D01*
X105000500Y-80878706D01*
X106149500Y-80878706D01*
X106149500Y-81121293D01*
X106181160Y-81361781D01*
X106181161Y-81361787D01*
X106181162Y-81361789D01*
X106243946Y-81596100D01*
X106336776Y-81820212D01*
X106458064Y-82030289D01*
X106605735Y-82222738D01*
X106777262Y-82394265D01*
X106969711Y-82541936D01*
X107179788Y-82663224D01*
X107403900Y-82756054D01*
X107638211Y-82818838D01*
X107638217Y-82818838D01*
X107638218Y-82818839D01*
X107703600Y-82827446D01*
X107878712Y-82850500D01*
X108121288Y-82850500D01*
X108361789Y-82818838D01*
X108596100Y-82756054D01*
X108820212Y-82663224D01*
X109030289Y-82541936D01*
X109222738Y-82394265D01*
X109394265Y-82222738D01*
X109541936Y-82030289D01*
X109663224Y-81820212D01*
X109756054Y-81596100D01*
X109818838Y-81361789D01*
X109850500Y-81121288D01*
X109850500Y-80878712D01*
X109820454Y-80650488D01*
X109818839Y-80638218D01*
X109818838Y-80638217D01*
X109818838Y-80638211D01*
X109756054Y-80403900D01*
X109663224Y-80179788D01*
X109541936Y-79969711D01*
X109394265Y-79777262D01*
X109222738Y-79605735D01*
X109030289Y-79458064D01*
X108960263Y-79417634D01*
X108820216Y-79336778D01*
X108820214Y-79336777D01*
X108820212Y-79336776D01*
X108688932Y-79282398D01*
X108596103Y-79243947D01*
X108596101Y-79243946D01*
X108596100Y-79243946D01*
X108361789Y-79181162D01*
X108361787Y-79181161D01*
X108361781Y-79181160D01*
X108121293Y-79149500D01*
X108121288Y-79149500D01*
X107878712Y-79149500D01*
X107878706Y-79149500D01*
X107638218Y-79181160D01*
X107403896Y-79243947D01*
X107179783Y-79336778D01*
X106969712Y-79458063D01*
X106969711Y-79458064D01*
X106777262Y-79605735D01*
X106777260Y-79605736D01*
X106777256Y-79605740D01*
X106605740Y-79777256D01*
X106458063Y-79969712D01*
X106336778Y-80179783D01*
X106243947Y-80403896D01*
X106181160Y-80638218D01*
X106149500Y-80878706D01*
X105000500Y-80878706D01*
X105000500Y-78149500D01*
X105020462Y-78075000D01*
X105075000Y-78020462D01*
X105149500Y-78000500D01*
X191850500Y-78000500D01*
X191925000Y-78020462D01*
G37*
%TD.AperFunction*%
%TD*%
M02*
