%TF.GenerationSoftware,KiCad,Pcbnew,10.0.5*%
%TF.CreationDate,2026-08-22T18:58:28-07:00*%
%TF.ProjectId,kbdrelay-carrier-test2,6b626472-656c-4617-992d-636172726965,rev?*%
%TF.SameCoordinates,Original*%
%TF.FileFunction,Soldermask,Top*%
%TF.FilePolarity,Negative*%
%FSLAX46Y46*%
G04 Gerber Fmt 4.6, Leading zero omitted, Abs format (unit mm)*
G04 Created by KiCad (PCBNEW 10.0.5) date 2026-08-22 18:58:28*
%MOMM*%
%LPD*%
G01*
G04 APERTURE LIST*
G04 Aperture macros list*
%AMRoundRect*
0 Rectangle with rounded corners*
0 $1 Rounding radius*
0 $2 $3 $4 $5 $6 $7 $8 $9 X,Y pos of 4 corners*
0 Add a 4 corners polygon primitive as box body*
4,1,4,$2,$3,$4,$5,$6,$7,$8,$9,$2,$3,0*
0 Add four circle primitives for the rounded corners*
1,1,$1+$1,$2,$3*
1,1,$1+$1,$4,$5*
1,1,$1+$1,$6,$7*
1,1,$1+$1,$8,$9*
0 Add four rect primitives between the rounded corners*
20,1,$1+$1,$2,$3,$4,$5,0*
20,1,$1+$1,$4,$5,$6,$7,0*
20,1,$1+$1,$6,$7,$8,$9,0*
20,1,$1+$1,$8,$9,$2,$3,0*%
G04 Aperture macros list end*
%ADD10C,2.000000*%
%ADD11R,1.700000X1.700000*%
%ADD12C,1.700000*%
%ADD13C,3.200000*%
%ADD14C,1.600000*%
%ADD15RoundRect,0.250000X-0.750000X-0.750000X0.750000X-0.750000X0.750000X0.750000X-0.750000X0.750000X0*%
%ADD16RoundRect,0.250000X1.350000X1.350000X-1.350000X1.350000X-1.350000X-1.350000X1.350000X-1.350000X0*%
G04 APERTURE END LIST*
D10*
%TO.C,F1*%
X113040000Y-117500000D03*
X107960000Y-117500000D03*
%TD*%
D11*
%TO.C,J2*%
X164500000Y-119500000D03*
D12*
X164500000Y-122040000D03*
X164500000Y-124580000D03*
%TD*%
D13*
%TO.C,H2*%
X189000000Y-81000000D03*
%TD*%
D14*
%TO.C,R9*%
X178660000Y-124500000D03*
X168500000Y-124500000D03*
%TD*%
D15*
%TO.C,C1*%
X114250000Y-126500000D03*
D10*
X119250000Y-126500000D03*
%TD*%
D14*
%TO.C,R4*%
X149500000Y-96500000D03*
X159660000Y-96500000D03*
%TD*%
%TO.C,C2*%
X124500000Y-126500000D03*
X129500000Y-126500000D03*
%TD*%
D11*
%TO.C,J1*%
X125500000Y-83500000D03*
D12*
X125500000Y-86040000D03*
X125500000Y-88580000D03*
%TD*%
D16*
%TO.C,D1*%
X120500000Y-118500000D03*
D13*
X133200000Y-118500000D03*
%TD*%
D11*
%TO.C,J3*%
X137500000Y-119500000D03*
D12*
X137500000Y-122040000D03*
%TD*%
D13*
%TO.C,H1*%
X108000000Y-81000000D03*
%TD*%
%TO.C,H3*%
X108000000Y-129000000D03*
%TD*%
D14*
%TO.C,R1*%
X149500000Y-111500000D03*
X159660000Y-111500000D03*
%TD*%
%TO.C,R5*%
X149500000Y-91500000D03*
X159660000Y-91500000D03*
%TD*%
D13*
%TO.C,H4*%
X189000000Y-129000000D03*
%TD*%
D14*
%TO.C,R6*%
X112500000Y-83500000D03*
X122660000Y-83500000D03*
%TD*%
%TO.C,R2*%
X149500000Y-106500000D03*
X159660000Y-106500000D03*
%TD*%
%TO.C,R3*%
X149500000Y-101500000D03*
X159660000Y-101500000D03*
%TD*%
D12*
%TO.C,U2*%
X189410000Y-97350000D03*
X186870000Y-97350000D03*
X184330000Y-97350000D03*
X181790000Y-97350000D03*
X179250000Y-97350000D03*
X176710000Y-97350000D03*
X174170000Y-97350000D03*
X171630000Y-97350000D03*
X169090000Y-97350000D03*
X169090000Y-112590000D03*
X171630000Y-112590000D03*
X174170000Y-112590000D03*
X176710000Y-112590000D03*
X179250000Y-112590000D03*
X181790000Y-112590000D03*
X184330000Y-112590000D03*
X186870000Y-112590000D03*
X189410000Y-112590000D03*
%TD*%
D14*
%TO.C,R7*%
X112500000Y-88500000D03*
X122660000Y-88500000D03*
%TD*%
D12*
%TO.C,U1*%
X107590000Y-112650000D03*
X110130000Y-112650000D03*
X112670000Y-112650000D03*
X115210000Y-112650000D03*
X117750000Y-112650000D03*
X120290000Y-112650000D03*
X122830000Y-112650000D03*
X125370000Y-112650000D03*
X127910000Y-112650000D03*
X127910000Y-97410000D03*
X125370000Y-97410000D03*
X122830000Y-97410000D03*
X120290000Y-97410000D03*
X117750000Y-97410000D03*
X115210000Y-97410000D03*
X112670000Y-97410000D03*
X110130000Y-97410000D03*
X107590000Y-97410000D03*
%TD*%
D14*
%TO.C,R8*%
X178660000Y-119500000D03*
X168500000Y-119500000D03*
%TD*%
M02*
