%TF.GenerationSoftware,KiCad,Pcbnew,10.0.5*%
%TF.CreationDate,2026-08-22T10:31:55-07:00*%
%TF.ProjectId,kbdrelay-carrier,6b626472-656c-4617-992d-636172726965,rev?*%
%TF.SameCoordinates,Original*%
%TF.FileFunction,Legend,Top*%
%TF.FilePolarity,Positive*%
%FSLAX46Y46*%
G04 Gerber Fmt 4.6, Leading zero omitted, Abs format (unit mm)*
G04 Created by KiCad (PCBNEW 10.0.5) date 2026-08-22 10:31:55*
%MOMM*%
%LPD*%
G01*
G04 APERTURE LIST*
%ADD10C,0.180000*%
%ADD11C,0.210000*%
%ADD12C,0.300000*%
%ADD13C,0.150000*%
%ADD14C,0.100000*%
%ADD15C,0.120000*%
G04 APERTURE END LIST*
D10*
X119094285Y-131545782D02*
X119094285Y-130345782D01*
X119185714Y-131088640D02*
X119459999Y-131545782D01*
X119459999Y-130745782D02*
X119094285Y-131202925D01*
X119871428Y-131545782D02*
X119871428Y-130345782D01*
X119871428Y-130802925D02*
X119962857Y-130745782D01*
X119962857Y-130745782D02*
X120145714Y-130745782D01*
X120145714Y-130745782D02*
X120237142Y-130802925D01*
X120237142Y-130802925D02*
X120282857Y-130860068D01*
X120282857Y-130860068D02*
X120328571Y-130974354D01*
X120328571Y-130974354D02*
X120328571Y-131317211D01*
X120328571Y-131317211D02*
X120282857Y-131431497D01*
X120282857Y-131431497D02*
X120237142Y-131488640D01*
X120237142Y-131488640D02*
X120145714Y-131545782D01*
X120145714Y-131545782D02*
X119962857Y-131545782D01*
X119962857Y-131545782D02*
X119871428Y-131488640D01*
X121151428Y-131545782D02*
X121151428Y-130345782D01*
X121151428Y-131488640D02*
X121059999Y-131545782D01*
X121059999Y-131545782D02*
X120877142Y-131545782D01*
X120877142Y-131545782D02*
X120785713Y-131488640D01*
X120785713Y-131488640D02*
X120739999Y-131431497D01*
X120739999Y-131431497D02*
X120694285Y-131317211D01*
X120694285Y-131317211D02*
X120694285Y-130974354D01*
X120694285Y-130974354D02*
X120739999Y-130860068D01*
X120739999Y-130860068D02*
X120785713Y-130802925D01*
X120785713Y-130802925D02*
X120877142Y-130745782D01*
X120877142Y-130745782D02*
X121059999Y-130745782D01*
X121059999Y-130745782D02*
X121151428Y-130802925D01*
X121608570Y-131545782D02*
X121608570Y-130745782D01*
X121608570Y-130974354D02*
X121654284Y-130860068D01*
X121654284Y-130860068D02*
X121699999Y-130802925D01*
X121699999Y-130802925D02*
X121791427Y-130745782D01*
X121791427Y-130745782D02*
X121882856Y-130745782D01*
X122568570Y-131488640D02*
X122477142Y-131545782D01*
X122477142Y-131545782D02*
X122294285Y-131545782D01*
X122294285Y-131545782D02*
X122202856Y-131488640D01*
X122202856Y-131488640D02*
X122157142Y-131374354D01*
X122157142Y-131374354D02*
X122157142Y-130917211D01*
X122157142Y-130917211D02*
X122202856Y-130802925D01*
X122202856Y-130802925D02*
X122294285Y-130745782D01*
X122294285Y-130745782D02*
X122477142Y-130745782D01*
X122477142Y-130745782D02*
X122568570Y-130802925D01*
X122568570Y-130802925D02*
X122614285Y-130917211D01*
X122614285Y-130917211D02*
X122614285Y-131031497D01*
X122614285Y-131031497D02*
X122157142Y-131145782D01*
X123162856Y-131545782D02*
X123071427Y-131488640D01*
X123071427Y-131488640D02*
X123025713Y-131374354D01*
X123025713Y-131374354D02*
X123025713Y-130345782D01*
X123939999Y-131545782D02*
X123939999Y-130917211D01*
X123939999Y-130917211D02*
X123894284Y-130802925D01*
X123894284Y-130802925D02*
X123802856Y-130745782D01*
X123802856Y-130745782D02*
X123619999Y-130745782D01*
X123619999Y-130745782D02*
X123528570Y-130802925D01*
X123939999Y-131488640D02*
X123848570Y-131545782D01*
X123848570Y-131545782D02*
X123619999Y-131545782D01*
X123619999Y-131545782D02*
X123528570Y-131488640D01*
X123528570Y-131488640D02*
X123482856Y-131374354D01*
X123482856Y-131374354D02*
X123482856Y-131260068D01*
X123482856Y-131260068D02*
X123528570Y-131145782D01*
X123528570Y-131145782D02*
X123619999Y-131088640D01*
X123619999Y-131088640D02*
X123848570Y-131088640D01*
X123848570Y-131088640D02*
X123939999Y-131031497D01*
X124305712Y-130745782D02*
X124534284Y-131545782D01*
X124762855Y-130745782D02*
X124534284Y-131545782D01*
X124534284Y-131545782D02*
X124442855Y-131831497D01*
X124442855Y-131831497D02*
X124397141Y-131888640D01*
X124397141Y-131888640D02*
X124305712Y-131945782D01*
X126271428Y-131488640D02*
X126179999Y-131545782D01*
X126179999Y-131545782D02*
X125997142Y-131545782D01*
X125997142Y-131545782D02*
X125905713Y-131488640D01*
X125905713Y-131488640D02*
X125859999Y-131431497D01*
X125859999Y-131431497D02*
X125814285Y-131317211D01*
X125814285Y-131317211D02*
X125814285Y-130974354D01*
X125814285Y-130974354D02*
X125859999Y-130860068D01*
X125859999Y-130860068D02*
X125905713Y-130802925D01*
X125905713Y-130802925D02*
X125997142Y-130745782D01*
X125997142Y-130745782D02*
X126179999Y-130745782D01*
X126179999Y-130745782D02*
X126271428Y-130802925D01*
X127094285Y-131545782D02*
X127094285Y-130917211D01*
X127094285Y-130917211D02*
X127048570Y-130802925D01*
X127048570Y-130802925D02*
X126957142Y-130745782D01*
X126957142Y-130745782D02*
X126774285Y-130745782D01*
X126774285Y-130745782D02*
X126682856Y-130802925D01*
X127094285Y-131488640D02*
X127002856Y-131545782D01*
X127002856Y-131545782D02*
X126774285Y-131545782D01*
X126774285Y-131545782D02*
X126682856Y-131488640D01*
X126682856Y-131488640D02*
X126637142Y-131374354D01*
X126637142Y-131374354D02*
X126637142Y-131260068D01*
X126637142Y-131260068D02*
X126682856Y-131145782D01*
X126682856Y-131145782D02*
X126774285Y-131088640D01*
X126774285Y-131088640D02*
X127002856Y-131088640D01*
X127002856Y-131088640D02*
X127094285Y-131031497D01*
X127551427Y-131545782D02*
X127551427Y-130745782D01*
X127551427Y-130974354D02*
X127597141Y-130860068D01*
X127597141Y-130860068D02*
X127642856Y-130802925D01*
X127642856Y-130802925D02*
X127734284Y-130745782D01*
X127734284Y-130745782D02*
X127825713Y-130745782D01*
X128145713Y-131545782D02*
X128145713Y-130745782D01*
X128145713Y-130974354D02*
X128191427Y-130860068D01*
X128191427Y-130860068D02*
X128237142Y-130802925D01*
X128237142Y-130802925D02*
X128328570Y-130745782D01*
X128328570Y-130745782D02*
X128419999Y-130745782D01*
X128739999Y-131545782D02*
X128739999Y-130745782D01*
X128739999Y-130345782D02*
X128694285Y-130402925D01*
X128694285Y-130402925D02*
X128739999Y-130460068D01*
X128739999Y-130460068D02*
X128785713Y-130402925D01*
X128785713Y-130402925D02*
X128739999Y-130345782D01*
X128739999Y-130345782D02*
X128739999Y-130460068D01*
X129562856Y-131488640D02*
X129471428Y-131545782D01*
X129471428Y-131545782D02*
X129288571Y-131545782D01*
X129288571Y-131545782D02*
X129197142Y-131488640D01*
X129197142Y-131488640D02*
X129151428Y-131374354D01*
X129151428Y-131374354D02*
X129151428Y-130917211D01*
X129151428Y-130917211D02*
X129197142Y-130802925D01*
X129197142Y-130802925D02*
X129288571Y-130745782D01*
X129288571Y-130745782D02*
X129471428Y-130745782D01*
X129471428Y-130745782D02*
X129562856Y-130802925D01*
X129562856Y-130802925D02*
X129608571Y-130917211D01*
X129608571Y-130917211D02*
X129608571Y-131031497D01*
X129608571Y-131031497D02*
X129151428Y-131145782D01*
X130019999Y-131545782D02*
X130019999Y-130745782D01*
X130019999Y-130974354D02*
X130065713Y-130860068D01*
X130065713Y-130860068D02*
X130111428Y-130802925D01*
X130111428Y-130802925D02*
X130202856Y-130745782D01*
X130202856Y-130745782D02*
X130294285Y-130745782D01*
X131254285Y-130745782D02*
X131482857Y-131545782D01*
X131482857Y-131545782D02*
X131711428Y-130745782D01*
X132260000Y-130345782D02*
X132351429Y-130345782D01*
X132351429Y-130345782D02*
X132442857Y-130402925D01*
X132442857Y-130402925D02*
X132488572Y-130460068D01*
X132488572Y-130460068D02*
X132534286Y-130574354D01*
X132534286Y-130574354D02*
X132580000Y-130802925D01*
X132580000Y-130802925D02*
X132580000Y-131088640D01*
X132580000Y-131088640D02*
X132534286Y-131317211D01*
X132534286Y-131317211D02*
X132488572Y-131431497D01*
X132488572Y-131431497D02*
X132442857Y-131488640D01*
X132442857Y-131488640D02*
X132351429Y-131545782D01*
X132351429Y-131545782D02*
X132260000Y-131545782D01*
X132260000Y-131545782D02*
X132168572Y-131488640D01*
X132168572Y-131488640D02*
X132122857Y-131431497D01*
X132122857Y-131431497D02*
X132077143Y-131317211D01*
X132077143Y-131317211D02*
X132031429Y-131088640D01*
X132031429Y-131088640D02*
X132031429Y-130802925D01*
X132031429Y-130802925D02*
X132077143Y-130574354D01*
X132077143Y-130574354D02*
X132122857Y-130460068D01*
X132122857Y-130460068D02*
X132168572Y-130402925D01*
X132168572Y-130402925D02*
X132260000Y-130345782D01*
X132991429Y-131431497D02*
X133037143Y-131488640D01*
X133037143Y-131488640D02*
X132991429Y-131545782D01*
X132991429Y-131545782D02*
X132945715Y-131488640D01*
X132945715Y-131488640D02*
X132991429Y-131431497D01*
X132991429Y-131431497D02*
X132991429Y-131545782D01*
X133951429Y-131545782D02*
X133402858Y-131545782D01*
X133677143Y-131545782D02*
X133677143Y-130345782D01*
X133677143Y-130345782D02*
X133585715Y-130517211D01*
X133585715Y-130517211D02*
X133494286Y-130631497D01*
X133494286Y-130631497D02*
X133402858Y-130688640D01*
X128168571Y-82845782D02*
X128717143Y-82845782D01*
X128442857Y-84045782D02*
X128442857Y-82845782D01*
X128945714Y-82845782D02*
X129585714Y-84045782D01*
X129585714Y-82845782D02*
X128945714Y-84045782D01*
X128739999Y-86585781D02*
X128419999Y-86014353D01*
X128191428Y-86585781D02*
X128191428Y-85385781D01*
X128191428Y-85385781D02*
X128557142Y-85385781D01*
X128557142Y-85385781D02*
X128648571Y-85442924D01*
X128648571Y-85442924D02*
X128694285Y-85500067D01*
X128694285Y-85500067D02*
X128739999Y-85614353D01*
X128739999Y-85614353D02*
X128739999Y-85785781D01*
X128739999Y-85785781D02*
X128694285Y-85900067D01*
X128694285Y-85900067D02*
X128648571Y-85957210D01*
X128648571Y-85957210D02*
X128557142Y-86014353D01*
X128557142Y-86014353D02*
X128191428Y-86014353D01*
X129059999Y-85385781D02*
X129699999Y-86585781D01*
X129699999Y-85385781D02*
X129059999Y-86585781D01*
X129151428Y-87982925D02*
X129060000Y-87925782D01*
X129060000Y-87925782D02*
X128922857Y-87925782D01*
X128922857Y-87925782D02*
X128785714Y-87982925D01*
X128785714Y-87982925D02*
X128694285Y-88097211D01*
X128694285Y-88097211D02*
X128648571Y-88211497D01*
X128648571Y-88211497D02*
X128602857Y-88440068D01*
X128602857Y-88440068D02*
X128602857Y-88611497D01*
X128602857Y-88611497D02*
X128648571Y-88840068D01*
X128648571Y-88840068D02*
X128694285Y-88954354D01*
X128694285Y-88954354D02*
X128785714Y-89068640D01*
X128785714Y-89068640D02*
X128922857Y-89125782D01*
X128922857Y-89125782D02*
X129014285Y-89125782D01*
X129014285Y-89125782D02*
X129151428Y-89068640D01*
X129151428Y-89068640D02*
X129197142Y-89011497D01*
X129197142Y-89011497D02*
X129197142Y-88611497D01*
X129197142Y-88611497D02*
X129014285Y-88611497D01*
X128997143Y-80845782D02*
X128997143Y-81817211D01*
X128997143Y-81817211D02*
X129042857Y-81931497D01*
X129042857Y-81931497D02*
X129088572Y-81988640D01*
X129088572Y-81988640D02*
X129180000Y-82045782D01*
X129180000Y-82045782D02*
X129362857Y-82045782D01*
X129362857Y-82045782D02*
X129454286Y-81988640D01*
X129454286Y-81988640D02*
X129500000Y-81931497D01*
X129500000Y-81931497D02*
X129545714Y-81817211D01*
X129545714Y-81817211D02*
X129545714Y-80845782D01*
X129957143Y-81988640D02*
X130094286Y-82045782D01*
X130094286Y-82045782D02*
X130322857Y-82045782D01*
X130322857Y-82045782D02*
X130414286Y-81988640D01*
X130414286Y-81988640D02*
X130460000Y-81931497D01*
X130460000Y-81931497D02*
X130505714Y-81817211D01*
X130505714Y-81817211D02*
X130505714Y-81702925D01*
X130505714Y-81702925D02*
X130460000Y-81588640D01*
X130460000Y-81588640D02*
X130414286Y-81531497D01*
X130414286Y-81531497D02*
X130322857Y-81474354D01*
X130322857Y-81474354D02*
X130140000Y-81417211D01*
X130140000Y-81417211D02*
X130048571Y-81360068D01*
X130048571Y-81360068D02*
X130002857Y-81302925D01*
X130002857Y-81302925D02*
X129957143Y-81188640D01*
X129957143Y-81188640D02*
X129957143Y-81074354D01*
X129957143Y-81074354D02*
X130002857Y-80960068D01*
X130002857Y-80960068D02*
X130048571Y-80902925D01*
X130048571Y-80902925D02*
X130140000Y-80845782D01*
X130140000Y-80845782D02*
X130368571Y-80845782D01*
X130368571Y-80845782D02*
X130505714Y-80902925D01*
X130917143Y-81417211D02*
X131237143Y-81417211D01*
X131374286Y-82045782D02*
X130917143Y-82045782D01*
X130917143Y-82045782D02*
X130917143Y-80845782D01*
X130917143Y-80845782D02*
X131374286Y-80845782D01*
X132517143Y-82045782D02*
X132517143Y-80845782D01*
X132517143Y-80845782D02*
X132837143Y-81702925D01*
X132837143Y-81702925D02*
X133157143Y-80845782D01*
X133157143Y-80845782D02*
X133157143Y-82045782D01*
X133797143Y-80845782D02*
X133980000Y-80845782D01*
X133980000Y-80845782D02*
X134071429Y-80902925D01*
X134071429Y-80902925D02*
X134162857Y-81017211D01*
X134162857Y-81017211D02*
X134208572Y-81245782D01*
X134208572Y-81245782D02*
X134208572Y-81645782D01*
X134208572Y-81645782D02*
X134162857Y-81874354D01*
X134162857Y-81874354D02*
X134071429Y-81988640D01*
X134071429Y-81988640D02*
X133980000Y-82045782D01*
X133980000Y-82045782D02*
X133797143Y-82045782D01*
X133797143Y-82045782D02*
X133705715Y-81988640D01*
X133705715Y-81988640D02*
X133614286Y-81874354D01*
X133614286Y-81874354D02*
X133568572Y-81645782D01*
X133568572Y-81645782D02*
X133568572Y-81245782D01*
X133568572Y-81245782D02*
X133614286Y-81017211D01*
X133614286Y-81017211D02*
X133705715Y-80902925D01*
X133705715Y-80902925D02*
X133797143Y-80845782D01*
X134620000Y-82045782D02*
X134620000Y-80845782D01*
X134620000Y-80845782D02*
X134848571Y-80845782D01*
X134848571Y-80845782D02*
X134985714Y-80902925D01*
X134985714Y-80902925D02*
X135077143Y-81017211D01*
X135077143Y-81017211D02*
X135122857Y-81131497D01*
X135122857Y-81131497D02*
X135168571Y-81360068D01*
X135168571Y-81360068D02*
X135168571Y-81531497D01*
X135168571Y-81531497D02*
X135122857Y-81760068D01*
X135122857Y-81760068D02*
X135077143Y-81874354D01*
X135077143Y-81874354D02*
X134985714Y-81988640D01*
X134985714Y-81988640D02*
X134848571Y-82045782D01*
X134848571Y-82045782D02*
X134620000Y-82045782D01*
X135580000Y-80845782D02*
X135580000Y-81817211D01*
X135580000Y-81817211D02*
X135625714Y-81931497D01*
X135625714Y-81931497D02*
X135671429Y-81988640D01*
X135671429Y-81988640D02*
X135762857Y-82045782D01*
X135762857Y-82045782D02*
X135945714Y-82045782D01*
X135945714Y-82045782D02*
X136037143Y-81988640D01*
X136037143Y-81988640D02*
X136082857Y-81931497D01*
X136082857Y-81931497D02*
X136128571Y-81817211D01*
X136128571Y-81817211D02*
X136128571Y-80845782D01*
X137042857Y-82045782D02*
X136585714Y-82045782D01*
X136585714Y-82045782D02*
X136585714Y-80845782D01*
X137362857Y-81417211D02*
X137682857Y-81417211D01*
X137820000Y-82045782D02*
X137362857Y-82045782D01*
X137362857Y-82045782D02*
X137362857Y-80845782D01*
X137362857Y-80845782D02*
X137820000Y-80845782D01*
X139282857Y-81417211D02*
X139420000Y-81474354D01*
X139420000Y-81474354D02*
X139465714Y-81531497D01*
X139465714Y-81531497D02*
X139511428Y-81645782D01*
X139511428Y-81645782D02*
X139511428Y-81817211D01*
X139511428Y-81817211D02*
X139465714Y-81931497D01*
X139465714Y-81931497D02*
X139420000Y-81988640D01*
X139420000Y-81988640D02*
X139328571Y-82045782D01*
X139328571Y-82045782D02*
X138962857Y-82045782D01*
X138962857Y-82045782D02*
X138962857Y-80845782D01*
X138962857Y-80845782D02*
X139282857Y-80845782D01*
X139282857Y-80845782D02*
X139374286Y-80902925D01*
X139374286Y-80902925D02*
X139420000Y-80960068D01*
X139420000Y-80960068D02*
X139465714Y-81074354D01*
X139465714Y-81074354D02*
X139465714Y-81188640D01*
X139465714Y-81188640D02*
X139420000Y-81302925D01*
X139420000Y-81302925D02*
X139374286Y-81360068D01*
X139374286Y-81360068D02*
X139282857Y-81417211D01*
X139282857Y-81417211D02*
X138962857Y-81417211D01*
X140105714Y-80845782D02*
X140288571Y-80845782D01*
X140288571Y-80845782D02*
X140380000Y-80902925D01*
X140380000Y-80902925D02*
X140471428Y-81017211D01*
X140471428Y-81017211D02*
X140517143Y-81245782D01*
X140517143Y-81245782D02*
X140517143Y-81645782D01*
X140517143Y-81645782D02*
X140471428Y-81874354D01*
X140471428Y-81874354D02*
X140380000Y-81988640D01*
X140380000Y-81988640D02*
X140288571Y-82045782D01*
X140288571Y-82045782D02*
X140105714Y-82045782D01*
X140105714Y-82045782D02*
X140014286Y-81988640D01*
X140014286Y-81988640D02*
X139922857Y-81874354D01*
X139922857Y-81874354D02*
X139877143Y-81645782D01*
X139877143Y-81645782D02*
X139877143Y-81245782D01*
X139877143Y-81245782D02*
X139922857Y-81017211D01*
X139922857Y-81017211D02*
X140014286Y-80902925D01*
X140014286Y-80902925D02*
X140105714Y-80845782D01*
X141111428Y-80845782D02*
X141294285Y-80845782D01*
X141294285Y-80845782D02*
X141385714Y-80902925D01*
X141385714Y-80902925D02*
X141477142Y-81017211D01*
X141477142Y-81017211D02*
X141522857Y-81245782D01*
X141522857Y-81245782D02*
X141522857Y-81645782D01*
X141522857Y-81645782D02*
X141477142Y-81874354D01*
X141477142Y-81874354D02*
X141385714Y-81988640D01*
X141385714Y-81988640D02*
X141294285Y-82045782D01*
X141294285Y-82045782D02*
X141111428Y-82045782D01*
X141111428Y-82045782D02*
X141020000Y-81988640D01*
X141020000Y-81988640D02*
X140928571Y-81874354D01*
X140928571Y-81874354D02*
X140882857Y-81645782D01*
X140882857Y-81645782D02*
X140882857Y-81245782D01*
X140882857Y-81245782D02*
X140928571Y-81017211D01*
X140928571Y-81017211D02*
X141020000Y-80902925D01*
X141020000Y-80902925D02*
X141111428Y-80845782D01*
X141797142Y-80845782D02*
X142345714Y-80845782D01*
X142071428Y-82045782D02*
X142071428Y-80845782D01*
X142665714Y-81588640D02*
X143397143Y-81588640D01*
X143031428Y-82045782D02*
X143031428Y-81131497D01*
X144402856Y-82045782D02*
X144082856Y-81474354D01*
X143854285Y-82045782D02*
X143854285Y-80845782D01*
X143854285Y-80845782D02*
X144219999Y-80845782D01*
X144219999Y-80845782D02*
X144311428Y-80902925D01*
X144311428Y-80902925D02*
X144357142Y-80960068D01*
X144357142Y-80960068D02*
X144402856Y-81074354D01*
X144402856Y-81074354D02*
X144402856Y-81245782D01*
X144402856Y-81245782D02*
X144357142Y-81360068D01*
X144357142Y-81360068D02*
X144311428Y-81417211D01*
X144311428Y-81417211D02*
X144219999Y-81474354D01*
X144219999Y-81474354D02*
X143854285Y-81474354D01*
X144768571Y-81988640D02*
X144905714Y-82045782D01*
X144905714Y-82045782D02*
X145134285Y-82045782D01*
X145134285Y-82045782D02*
X145225714Y-81988640D01*
X145225714Y-81988640D02*
X145271428Y-81931497D01*
X145271428Y-81931497D02*
X145317142Y-81817211D01*
X145317142Y-81817211D02*
X145317142Y-81702925D01*
X145317142Y-81702925D02*
X145271428Y-81588640D01*
X145271428Y-81588640D02*
X145225714Y-81531497D01*
X145225714Y-81531497D02*
X145134285Y-81474354D01*
X145134285Y-81474354D02*
X144951428Y-81417211D01*
X144951428Y-81417211D02*
X144859999Y-81360068D01*
X144859999Y-81360068D02*
X144814285Y-81302925D01*
X144814285Y-81302925D02*
X144768571Y-81188640D01*
X144768571Y-81188640D02*
X144768571Y-81074354D01*
X144768571Y-81074354D02*
X144814285Y-80960068D01*
X144814285Y-80960068D02*
X144859999Y-80902925D01*
X144859999Y-80902925D02*
X144951428Y-80845782D01*
X144951428Y-80845782D02*
X145179999Y-80845782D01*
X145179999Y-80845782D02*
X145317142Y-80902925D01*
X145591428Y-80845782D02*
X146140000Y-80845782D01*
X145865714Y-82045782D02*
X145865714Y-80845782D01*
X160968571Y-118845782D02*
X161517143Y-118845782D01*
X161242857Y-120045782D02*
X161242857Y-118845782D01*
X161745714Y-118845782D02*
X162385714Y-120045782D01*
X162385714Y-118845782D02*
X161745714Y-120045782D01*
X161539999Y-122585781D02*
X161219999Y-122014353D01*
X160991428Y-122585781D02*
X160991428Y-121385781D01*
X160991428Y-121385781D02*
X161357142Y-121385781D01*
X161357142Y-121385781D02*
X161448571Y-121442924D01*
X161448571Y-121442924D02*
X161494285Y-121500067D01*
X161494285Y-121500067D02*
X161539999Y-121614353D01*
X161539999Y-121614353D02*
X161539999Y-121785781D01*
X161539999Y-121785781D02*
X161494285Y-121900067D01*
X161494285Y-121900067D02*
X161448571Y-121957210D01*
X161448571Y-121957210D02*
X161357142Y-122014353D01*
X161357142Y-122014353D02*
X160991428Y-122014353D01*
X161859999Y-121385781D02*
X162499999Y-122585781D01*
X162499999Y-121385781D02*
X161859999Y-122585781D01*
X161951428Y-123982925D02*
X161860000Y-123925782D01*
X161860000Y-123925782D02*
X161722857Y-123925782D01*
X161722857Y-123925782D02*
X161585714Y-123982925D01*
X161585714Y-123982925D02*
X161494285Y-124097211D01*
X161494285Y-124097211D02*
X161448571Y-124211497D01*
X161448571Y-124211497D02*
X161402857Y-124440068D01*
X161402857Y-124440068D02*
X161402857Y-124611497D01*
X161402857Y-124611497D02*
X161448571Y-124840068D01*
X161448571Y-124840068D02*
X161494285Y-124954354D01*
X161494285Y-124954354D02*
X161585714Y-125068640D01*
X161585714Y-125068640D02*
X161722857Y-125125782D01*
X161722857Y-125125782D02*
X161814285Y-125125782D01*
X161814285Y-125125782D02*
X161951428Y-125068640D01*
X161951428Y-125068640D02*
X161997142Y-125011497D01*
X161997142Y-125011497D02*
X161997142Y-124611497D01*
X161997142Y-124611497D02*
X161814285Y-124611497D01*
D11*
X133006667Y-115736746D02*
X132473333Y-115736746D01*
X132473333Y-115736746D02*
X132420000Y-116403413D01*
X132420000Y-116403413D02*
X132473333Y-116336746D01*
X132473333Y-116336746D02*
X132580000Y-116270080D01*
X132580000Y-116270080D02*
X132846667Y-116270080D01*
X132846667Y-116270080D02*
X132953333Y-116336746D01*
X132953333Y-116336746D02*
X133006667Y-116403413D01*
X133006667Y-116403413D02*
X133060000Y-116536746D01*
X133060000Y-116536746D02*
X133060000Y-116870080D01*
X133060000Y-116870080D02*
X133006667Y-117003413D01*
X133006667Y-117003413D02*
X132953333Y-117070080D01*
X132953333Y-117070080D02*
X132846667Y-117136746D01*
X132846667Y-117136746D02*
X132580000Y-117136746D01*
X132580000Y-117136746D02*
X132473333Y-117070080D01*
X132473333Y-117070080D02*
X132420000Y-117003413D01*
X133380000Y-115736746D02*
X133753334Y-117136746D01*
X133753334Y-117136746D02*
X134126667Y-115736746D01*
X135353333Y-117136746D02*
X135353333Y-115736746D01*
X135886666Y-117136746D02*
X135886666Y-115736746D01*
X135886666Y-115736746D02*
X136526666Y-117136746D01*
X136526666Y-117136746D02*
X136526666Y-115736746D01*
X140073333Y-119603413D02*
X140926667Y-119603413D01*
X140500000Y-120136746D02*
X140500000Y-119070080D01*
X140793333Y-121343412D02*
X140686666Y-121276745D01*
X140686666Y-121276745D02*
X140526666Y-121276745D01*
X140526666Y-121276745D02*
X140366666Y-121343412D01*
X140366666Y-121343412D02*
X140260000Y-121476745D01*
X140260000Y-121476745D02*
X140206666Y-121610079D01*
X140206666Y-121610079D02*
X140153333Y-121876745D01*
X140153333Y-121876745D02*
X140153333Y-122076745D01*
X140153333Y-122076745D02*
X140206666Y-122343412D01*
X140206666Y-122343412D02*
X140260000Y-122476745D01*
X140260000Y-122476745D02*
X140366666Y-122610079D01*
X140366666Y-122610079D02*
X140526666Y-122676745D01*
X140526666Y-122676745D02*
X140633333Y-122676745D01*
X140633333Y-122676745D02*
X140793333Y-122610079D01*
X140793333Y-122610079D02*
X140846666Y-122543412D01*
X140846666Y-122543412D02*
X140846666Y-122076745D01*
X140846666Y-122076745D02*
X140633333Y-122076745D01*
D12*
X115480952Y-93409638D02*
X115480952Y-91409638D01*
X116395238Y-93409638D02*
X115709523Y-92266780D01*
X116395238Y-91409638D02*
X115480952Y-92552495D01*
X117614285Y-92362019D02*
X117842857Y-92457257D01*
X117842857Y-92457257D02*
X117919047Y-92552495D01*
X117919047Y-92552495D02*
X117995238Y-92742971D01*
X117995238Y-92742971D02*
X117995238Y-93028685D01*
X117995238Y-93028685D02*
X117919047Y-93219161D01*
X117919047Y-93219161D02*
X117842857Y-93314400D01*
X117842857Y-93314400D02*
X117690476Y-93409638D01*
X117690476Y-93409638D02*
X117080952Y-93409638D01*
X117080952Y-93409638D02*
X117080952Y-91409638D01*
X117080952Y-91409638D02*
X117614285Y-91409638D01*
X117614285Y-91409638D02*
X117766666Y-91504876D01*
X117766666Y-91504876D02*
X117842857Y-91600114D01*
X117842857Y-91600114D02*
X117919047Y-91790590D01*
X117919047Y-91790590D02*
X117919047Y-91981066D01*
X117919047Y-91981066D02*
X117842857Y-92171542D01*
X117842857Y-92171542D02*
X117766666Y-92266780D01*
X117766666Y-92266780D02*
X117614285Y-92362019D01*
X117614285Y-92362019D02*
X117080952Y-92362019D01*
X118680952Y-93409638D02*
X118680952Y-91409638D01*
X118680952Y-91409638D02*
X119061904Y-91409638D01*
X119061904Y-91409638D02*
X119290476Y-91504876D01*
X119290476Y-91504876D02*
X119442857Y-91695352D01*
X119442857Y-91695352D02*
X119519047Y-91885828D01*
X119519047Y-91885828D02*
X119595238Y-92266780D01*
X119595238Y-92266780D02*
X119595238Y-92552495D01*
X119595238Y-92552495D02*
X119519047Y-92933447D01*
X119519047Y-92933447D02*
X119442857Y-93123923D01*
X119442857Y-93123923D02*
X119290476Y-93314400D01*
X119290476Y-93314400D02*
X119061904Y-93409638D01*
X119061904Y-93409638D02*
X118680952Y-93409638D01*
X176633332Y-115909638D02*
X177547618Y-115909638D01*
X177090475Y-117909638D02*
X177090475Y-115909638D01*
X178919047Y-116004876D02*
X178766666Y-115909638D01*
X178766666Y-115909638D02*
X178538095Y-115909638D01*
X178538095Y-115909638D02*
X178309523Y-116004876D01*
X178309523Y-116004876D02*
X178157142Y-116195352D01*
X178157142Y-116195352D02*
X178080952Y-116385828D01*
X178080952Y-116385828D02*
X178004761Y-116766780D01*
X178004761Y-116766780D02*
X178004761Y-117052495D01*
X178004761Y-117052495D02*
X178080952Y-117433447D01*
X178080952Y-117433447D02*
X178157142Y-117623923D01*
X178157142Y-117623923D02*
X178309523Y-117814400D01*
X178309523Y-117814400D02*
X178538095Y-117909638D01*
X178538095Y-117909638D02*
X178690476Y-117909638D01*
X178690476Y-117909638D02*
X178919047Y-117814400D01*
X178919047Y-117814400D02*
X178995238Y-117719161D01*
X178995238Y-117719161D02*
X178995238Y-117052495D01*
X178995238Y-117052495D02*
X178690476Y-117052495D01*
X179452380Y-115909638D02*
X180366666Y-115909638D01*
X179909523Y-117909638D02*
X179909523Y-115909638D01*
D13*
X110166666Y-122631009D02*
X109833333Y-122631009D01*
X109833333Y-123154819D02*
X109833333Y-122154819D01*
X109833333Y-122154819D02*
X110309523Y-122154819D01*
X111214285Y-123154819D02*
X110642857Y-123154819D01*
X110928571Y-123154819D02*
X110928571Y-122154819D01*
X110928571Y-122154819D02*
X110833333Y-122297676D01*
X110833333Y-122297676D02*
X110738095Y-122392914D01*
X110738095Y-122392914D02*
X110642857Y-122440533D01*
X163954819Y-117453333D02*
X164669104Y-117453333D01*
X164669104Y-117453333D02*
X164811961Y-117500952D01*
X164811961Y-117500952D02*
X164907200Y-117596190D01*
X164907200Y-117596190D02*
X164954819Y-117739047D01*
X164954819Y-117739047D02*
X164954819Y-117834285D01*
X164050057Y-117024761D02*
X164002438Y-116977142D01*
X164002438Y-116977142D02*
X163954819Y-116881904D01*
X163954819Y-116881904D02*
X163954819Y-116643809D01*
X163954819Y-116643809D02*
X164002438Y-116548571D01*
X164002438Y-116548571D02*
X164050057Y-116500952D01*
X164050057Y-116500952D02*
X164145295Y-116453333D01*
X164145295Y-116453333D02*
X164240533Y-116453333D01*
X164240533Y-116453333D02*
X164383390Y-116500952D01*
X164383390Y-116500952D02*
X164954819Y-117072380D01*
X164954819Y-117072380D02*
X164954819Y-116453333D01*
X173413333Y-127324819D02*
X173080000Y-126848628D01*
X172841905Y-127324819D02*
X172841905Y-126324819D01*
X172841905Y-126324819D02*
X173222857Y-126324819D01*
X173222857Y-126324819D02*
X173318095Y-126372438D01*
X173318095Y-126372438D02*
X173365714Y-126420057D01*
X173365714Y-126420057D02*
X173413333Y-126515295D01*
X173413333Y-126515295D02*
X173413333Y-126658152D01*
X173413333Y-126658152D02*
X173365714Y-126753390D01*
X173365714Y-126753390D02*
X173318095Y-126801009D01*
X173318095Y-126801009D02*
X173222857Y-126848628D01*
X173222857Y-126848628D02*
X172841905Y-126848628D01*
X173889524Y-127324819D02*
X174080000Y-127324819D01*
X174080000Y-127324819D02*
X174175238Y-127277200D01*
X174175238Y-127277200D02*
X174222857Y-127229580D01*
X174222857Y-127229580D02*
X174318095Y-127086723D01*
X174318095Y-127086723D02*
X174365714Y-126896247D01*
X174365714Y-126896247D02*
X174365714Y-126515295D01*
X174365714Y-126515295D02*
X174318095Y-126420057D01*
X174318095Y-126420057D02*
X174270476Y-126372438D01*
X174270476Y-126372438D02*
X174175238Y-126324819D01*
X174175238Y-126324819D02*
X173984762Y-126324819D01*
X173984762Y-126324819D02*
X173889524Y-126372438D01*
X173889524Y-126372438D02*
X173841905Y-126420057D01*
X173841905Y-126420057D02*
X173794286Y-126515295D01*
X173794286Y-126515295D02*
X173794286Y-126753390D01*
X173794286Y-126753390D02*
X173841905Y-126848628D01*
X173841905Y-126848628D02*
X173889524Y-126896247D01*
X173889524Y-126896247D02*
X173984762Y-126943866D01*
X173984762Y-126943866D02*
X174175238Y-126943866D01*
X174175238Y-126943866D02*
X174270476Y-126896247D01*
X174270476Y-126896247D02*
X174318095Y-126848628D01*
X174318095Y-126848628D02*
X174365714Y-126753390D01*
X142937142Y-124584819D02*
X142603809Y-124108628D01*
X142365714Y-124584819D02*
X142365714Y-123584819D01*
X142365714Y-123584819D02*
X142746666Y-123584819D01*
X142746666Y-123584819D02*
X142841904Y-123632438D01*
X142841904Y-123632438D02*
X142889523Y-123680057D01*
X142889523Y-123680057D02*
X142937142Y-123775295D01*
X142937142Y-123775295D02*
X142937142Y-123918152D01*
X142937142Y-123918152D02*
X142889523Y-124013390D01*
X142889523Y-124013390D02*
X142841904Y-124061009D01*
X142841904Y-124061009D02*
X142746666Y-124108628D01*
X142746666Y-124108628D02*
X142365714Y-124108628D01*
X143889523Y-124584819D02*
X143318095Y-124584819D01*
X143603809Y-124584819D02*
X143603809Y-123584819D01*
X143603809Y-123584819D02*
X143508571Y-123727676D01*
X143508571Y-123727676D02*
X143413333Y-123822914D01*
X143413333Y-123822914D02*
X143318095Y-123870533D01*
X144270476Y-123680057D02*
X144318095Y-123632438D01*
X144318095Y-123632438D02*
X144413333Y-123584819D01*
X144413333Y-123584819D02*
X144651428Y-123584819D01*
X144651428Y-123584819D02*
X144746666Y-123632438D01*
X144746666Y-123632438D02*
X144794285Y-123680057D01*
X144794285Y-123680057D02*
X144841904Y-123775295D01*
X144841904Y-123775295D02*
X144841904Y-123870533D01*
X144841904Y-123870533D02*
X144794285Y-124013390D01*
X144794285Y-124013390D02*
X144222857Y-124584819D01*
X144222857Y-124584819D02*
X144841904Y-124584819D01*
X114833333Y-120609580D02*
X114785714Y-120657200D01*
X114785714Y-120657200D02*
X114642857Y-120704819D01*
X114642857Y-120704819D02*
X114547619Y-120704819D01*
X114547619Y-120704819D02*
X114404762Y-120657200D01*
X114404762Y-120657200D02*
X114309524Y-120561961D01*
X114309524Y-120561961D02*
X114261905Y-120466723D01*
X114261905Y-120466723D02*
X114214286Y-120276247D01*
X114214286Y-120276247D02*
X114214286Y-120133390D01*
X114214286Y-120133390D02*
X114261905Y-119942914D01*
X114261905Y-119942914D02*
X114309524Y-119847676D01*
X114309524Y-119847676D02*
X114404762Y-119752438D01*
X114404762Y-119752438D02*
X114547619Y-119704819D01*
X114547619Y-119704819D02*
X114642857Y-119704819D01*
X114642857Y-119704819D02*
X114785714Y-119752438D01*
X114785714Y-119752438D02*
X114833333Y-119800057D01*
X115785714Y-120704819D02*
X115214286Y-120704819D01*
X115500000Y-120704819D02*
X115500000Y-119704819D01*
X115500000Y-119704819D02*
X115404762Y-119847676D01*
X115404762Y-119847676D02*
X115309524Y-119942914D01*
X115309524Y-119942914D02*
X115214286Y-119990533D01*
X154413333Y-94584819D02*
X154080000Y-94108628D01*
X153841905Y-94584819D02*
X153841905Y-93584819D01*
X153841905Y-93584819D02*
X154222857Y-93584819D01*
X154222857Y-93584819D02*
X154318095Y-93632438D01*
X154318095Y-93632438D02*
X154365714Y-93680057D01*
X154365714Y-93680057D02*
X154413333Y-93775295D01*
X154413333Y-93775295D02*
X154413333Y-93918152D01*
X154413333Y-93918152D02*
X154365714Y-94013390D01*
X154365714Y-94013390D02*
X154318095Y-94061009D01*
X154318095Y-94061009D02*
X154222857Y-94108628D01*
X154222857Y-94108628D02*
X153841905Y-94108628D01*
X155270476Y-93918152D02*
X155270476Y-94584819D01*
X155032381Y-93537200D02*
X154794286Y-94251485D01*
X154794286Y-94251485D02*
X155413333Y-94251485D01*
X135144819Y-131198094D02*
X134144819Y-131198094D01*
X134144819Y-131198094D02*
X134144819Y-130959999D01*
X134144819Y-130959999D02*
X134192438Y-130817142D01*
X134192438Y-130817142D02*
X134287676Y-130721904D01*
X134287676Y-130721904D02*
X134382914Y-130674285D01*
X134382914Y-130674285D02*
X134573390Y-130626666D01*
X134573390Y-130626666D02*
X134716247Y-130626666D01*
X134716247Y-130626666D02*
X134906723Y-130674285D01*
X134906723Y-130674285D02*
X135001961Y-130721904D01*
X135001961Y-130721904D02*
X135097200Y-130817142D01*
X135097200Y-130817142D02*
X135144819Y-130959999D01*
X135144819Y-130959999D02*
X135144819Y-131198094D01*
X134240057Y-130245713D02*
X134192438Y-130198094D01*
X134192438Y-130198094D02*
X134144819Y-130102856D01*
X134144819Y-130102856D02*
X134144819Y-129864761D01*
X134144819Y-129864761D02*
X134192438Y-129769523D01*
X134192438Y-129769523D02*
X134240057Y-129721904D01*
X134240057Y-129721904D02*
X134335295Y-129674285D01*
X134335295Y-129674285D02*
X134430533Y-129674285D01*
X134430533Y-129674285D02*
X134573390Y-129721904D01*
X134573390Y-129721904D02*
X135144819Y-130293332D01*
X135144819Y-130293332D02*
X135144819Y-129674285D01*
X126833333Y-124359580D02*
X126785714Y-124407200D01*
X126785714Y-124407200D02*
X126642857Y-124454819D01*
X126642857Y-124454819D02*
X126547619Y-124454819D01*
X126547619Y-124454819D02*
X126404762Y-124407200D01*
X126404762Y-124407200D02*
X126309524Y-124311961D01*
X126309524Y-124311961D02*
X126261905Y-124216723D01*
X126261905Y-124216723D02*
X126214286Y-124026247D01*
X126214286Y-124026247D02*
X126214286Y-123883390D01*
X126214286Y-123883390D02*
X126261905Y-123692914D01*
X126261905Y-123692914D02*
X126309524Y-123597676D01*
X126309524Y-123597676D02*
X126404762Y-123502438D01*
X126404762Y-123502438D02*
X126547619Y-123454819D01*
X126547619Y-123454819D02*
X126642857Y-123454819D01*
X126642857Y-123454819D02*
X126785714Y-123502438D01*
X126785714Y-123502438D02*
X126833333Y-123550057D01*
X127214286Y-123550057D02*
X127261905Y-123502438D01*
X127261905Y-123502438D02*
X127357143Y-123454819D01*
X127357143Y-123454819D02*
X127595238Y-123454819D01*
X127595238Y-123454819D02*
X127690476Y-123502438D01*
X127690476Y-123502438D02*
X127738095Y-123550057D01*
X127738095Y-123550057D02*
X127785714Y-123645295D01*
X127785714Y-123645295D02*
X127785714Y-123740533D01*
X127785714Y-123740533D02*
X127738095Y-123883390D01*
X127738095Y-123883390D02*
X127166667Y-124454819D01*
X127166667Y-124454819D02*
X127785714Y-124454819D01*
X124954819Y-81453333D02*
X125669104Y-81453333D01*
X125669104Y-81453333D02*
X125811961Y-81500952D01*
X125811961Y-81500952D02*
X125907200Y-81596190D01*
X125907200Y-81596190D02*
X125954819Y-81739047D01*
X125954819Y-81739047D02*
X125954819Y-81834285D01*
X125954819Y-80453333D02*
X125954819Y-81024761D01*
X125954819Y-80739047D02*
X124954819Y-80739047D01*
X124954819Y-80739047D02*
X125097676Y-80834285D01*
X125097676Y-80834285D02*
X125192914Y-80929523D01*
X125192914Y-80929523D02*
X125240533Y-81024761D01*
X126111905Y-116234819D02*
X126111905Y-115234819D01*
X126111905Y-115234819D02*
X126350000Y-115234819D01*
X126350000Y-115234819D02*
X126492857Y-115282438D01*
X126492857Y-115282438D02*
X126588095Y-115377676D01*
X126588095Y-115377676D02*
X126635714Y-115472914D01*
X126635714Y-115472914D02*
X126683333Y-115663390D01*
X126683333Y-115663390D02*
X126683333Y-115806247D01*
X126683333Y-115806247D02*
X126635714Y-115996723D01*
X126635714Y-115996723D02*
X126588095Y-116091961D01*
X126588095Y-116091961D02*
X126492857Y-116187200D01*
X126492857Y-116187200D02*
X126350000Y-116234819D01*
X126350000Y-116234819D02*
X126111905Y-116234819D01*
X127635714Y-116234819D02*
X127064286Y-116234819D01*
X127350000Y-116234819D02*
X127350000Y-115234819D01*
X127350000Y-115234819D02*
X127254762Y-115377676D01*
X127254762Y-115377676D02*
X127159524Y-115472914D01*
X127159524Y-115472914D02*
X127064286Y-115520533D01*
X120238095Y-117354819D02*
X120238095Y-116354819D01*
X120809523Y-117354819D02*
X120380952Y-116783390D01*
X120809523Y-116354819D02*
X120238095Y-116926247D01*
X137166666Y-116574819D02*
X137166666Y-117289104D01*
X137166666Y-117289104D02*
X137119047Y-117431961D01*
X137119047Y-117431961D02*
X137023809Y-117527200D01*
X137023809Y-117527200D02*
X136880952Y-117574819D01*
X136880952Y-117574819D02*
X136785714Y-117574819D01*
X137547619Y-116574819D02*
X138166666Y-116574819D01*
X138166666Y-116574819D02*
X137833333Y-116955771D01*
X137833333Y-116955771D02*
X137976190Y-116955771D01*
X137976190Y-116955771D02*
X138071428Y-117003390D01*
X138071428Y-117003390D02*
X138119047Y-117051009D01*
X138119047Y-117051009D02*
X138166666Y-117146247D01*
X138166666Y-117146247D02*
X138166666Y-117384342D01*
X138166666Y-117384342D02*
X138119047Y-117479580D01*
X138119047Y-117479580D02*
X138071428Y-117527200D01*
X138071428Y-117527200D02*
X137976190Y-117574819D01*
X137976190Y-117574819D02*
X137690476Y-117574819D01*
X137690476Y-117574819D02*
X137595238Y-117527200D01*
X137595238Y-117527200D02*
X137547619Y-117479580D01*
X154413333Y-109584819D02*
X154080000Y-109108628D01*
X153841905Y-109584819D02*
X153841905Y-108584819D01*
X153841905Y-108584819D02*
X154222857Y-108584819D01*
X154222857Y-108584819D02*
X154318095Y-108632438D01*
X154318095Y-108632438D02*
X154365714Y-108680057D01*
X154365714Y-108680057D02*
X154413333Y-108775295D01*
X154413333Y-108775295D02*
X154413333Y-108918152D01*
X154413333Y-108918152D02*
X154365714Y-109013390D01*
X154365714Y-109013390D02*
X154318095Y-109061009D01*
X154318095Y-109061009D02*
X154222857Y-109108628D01*
X154222857Y-109108628D02*
X153841905Y-109108628D01*
X155365714Y-109584819D02*
X154794286Y-109584819D01*
X155080000Y-109584819D02*
X155080000Y-108584819D01*
X155080000Y-108584819D02*
X154984762Y-108727676D01*
X154984762Y-108727676D02*
X154889524Y-108822914D01*
X154889524Y-108822914D02*
X154794286Y-108870533D01*
X154413333Y-89584819D02*
X154080000Y-89108628D01*
X153841905Y-89584819D02*
X153841905Y-88584819D01*
X153841905Y-88584819D02*
X154222857Y-88584819D01*
X154222857Y-88584819D02*
X154318095Y-88632438D01*
X154318095Y-88632438D02*
X154365714Y-88680057D01*
X154365714Y-88680057D02*
X154413333Y-88775295D01*
X154413333Y-88775295D02*
X154413333Y-88918152D01*
X154413333Y-88918152D02*
X154365714Y-89013390D01*
X154365714Y-89013390D02*
X154318095Y-89061009D01*
X154318095Y-89061009D02*
X154222857Y-89108628D01*
X154222857Y-89108628D02*
X153841905Y-89108628D01*
X155318095Y-88584819D02*
X154841905Y-88584819D01*
X154841905Y-88584819D02*
X154794286Y-89061009D01*
X154794286Y-89061009D02*
X154841905Y-89013390D01*
X154841905Y-89013390D02*
X154937143Y-88965771D01*
X154937143Y-88965771D02*
X155175238Y-88965771D01*
X155175238Y-88965771D02*
X155270476Y-89013390D01*
X155270476Y-89013390D02*
X155318095Y-89061009D01*
X155318095Y-89061009D02*
X155365714Y-89156247D01*
X155365714Y-89156247D02*
X155365714Y-89394342D01*
X155365714Y-89394342D02*
X155318095Y-89489580D01*
X155318095Y-89489580D02*
X155270476Y-89537200D01*
X155270476Y-89537200D02*
X155175238Y-89584819D01*
X155175238Y-89584819D02*
X154937143Y-89584819D01*
X154937143Y-89584819D02*
X154841905Y-89537200D01*
X154841905Y-89537200D02*
X154794286Y-89489580D01*
X117413333Y-81584819D02*
X117080000Y-81108628D01*
X116841905Y-81584819D02*
X116841905Y-80584819D01*
X116841905Y-80584819D02*
X117222857Y-80584819D01*
X117222857Y-80584819D02*
X117318095Y-80632438D01*
X117318095Y-80632438D02*
X117365714Y-80680057D01*
X117365714Y-80680057D02*
X117413333Y-80775295D01*
X117413333Y-80775295D02*
X117413333Y-80918152D01*
X117413333Y-80918152D02*
X117365714Y-81013390D01*
X117365714Y-81013390D02*
X117318095Y-81061009D01*
X117318095Y-81061009D02*
X117222857Y-81108628D01*
X117222857Y-81108628D02*
X116841905Y-81108628D01*
X118270476Y-80584819D02*
X118080000Y-80584819D01*
X118080000Y-80584819D02*
X117984762Y-80632438D01*
X117984762Y-80632438D02*
X117937143Y-80680057D01*
X117937143Y-80680057D02*
X117841905Y-80822914D01*
X117841905Y-80822914D02*
X117794286Y-81013390D01*
X117794286Y-81013390D02*
X117794286Y-81394342D01*
X117794286Y-81394342D02*
X117841905Y-81489580D01*
X117841905Y-81489580D02*
X117889524Y-81537200D01*
X117889524Y-81537200D02*
X117984762Y-81584819D01*
X117984762Y-81584819D02*
X118175238Y-81584819D01*
X118175238Y-81584819D02*
X118270476Y-81537200D01*
X118270476Y-81537200D02*
X118318095Y-81489580D01*
X118318095Y-81489580D02*
X118365714Y-81394342D01*
X118365714Y-81394342D02*
X118365714Y-81156247D01*
X118365714Y-81156247D02*
X118318095Y-81061009D01*
X118318095Y-81061009D02*
X118270476Y-81013390D01*
X118270476Y-81013390D02*
X118175238Y-80965771D01*
X118175238Y-80965771D02*
X117984762Y-80965771D01*
X117984762Y-80965771D02*
X117889524Y-81013390D01*
X117889524Y-81013390D02*
X117841905Y-81061009D01*
X117841905Y-81061009D02*
X117794286Y-81156247D01*
X154413333Y-104584819D02*
X154080000Y-104108628D01*
X153841905Y-104584819D02*
X153841905Y-103584819D01*
X153841905Y-103584819D02*
X154222857Y-103584819D01*
X154222857Y-103584819D02*
X154318095Y-103632438D01*
X154318095Y-103632438D02*
X154365714Y-103680057D01*
X154365714Y-103680057D02*
X154413333Y-103775295D01*
X154413333Y-103775295D02*
X154413333Y-103918152D01*
X154413333Y-103918152D02*
X154365714Y-104013390D01*
X154365714Y-104013390D02*
X154318095Y-104061009D01*
X154318095Y-104061009D02*
X154222857Y-104108628D01*
X154222857Y-104108628D02*
X153841905Y-104108628D01*
X154794286Y-103680057D02*
X154841905Y-103632438D01*
X154841905Y-103632438D02*
X154937143Y-103584819D01*
X154937143Y-103584819D02*
X155175238Y-103584819D01*
X155175238Y-103584819D02*
X155270476Y-103632438D01*
X155270476Y-103632438D02*
X155318095Y-103680057D01*
X155318095Y-103680057D02*
X155365714Y-103775295D01*
X155365714Y-103775295D02*
X155365714Y-103870533D01*
X155365714Y-103870533D02*
X155318095Y-104013390D01*
X155318095Y-104013390D02*
X154746667Y-104584819D01*
X154746667Y-104584819D02*
X155365714Y-104584819D01*
X154413333Y-99584819D02*
X154080000Y-99108628D01*
X153841905Y-99584819D02*
X153841905Y-98584819D01*
X153841905Y-98584819D02*
X154222857Y-98584819D01*
X154222857Y-98584819D02*
X154318095Y-98632438D01*
X154318095Y-98632438D02*
X154365714Y-98680057D01*
X154365714Y-98680057D02*
X154413333Y-98775295D01*
X154413333Y-98775295D02*
X154413333Y-98918152D01*
X154413333Y-98918152D02*
X154365714Y-99013390D01*
X154365714Y-99013390D02*
X154318095Y-99061009D01*
X154318095Y-99061009D02*
X154222857Y-99108628D01*
X154222857Y-99108628D02*
X153841905Y-99108628D01*
X154746667Y-98584819D02*
X155365714Y-98584819D01*
X155365714Y-98584819D02*
X155032381Y-98965771D01*
X155032381Y-98965771D02*
X155175238Y-98965771D01*
X155175238Y-98965771D02*
X155270476Y-99013390D01*
X155270476Y-99013390D02*
X155318095Y-99061009D01*
X155318095Y-99061009D02*
X155365714Y-99156247D01*
X155365714Y-99156247D02*
X155365714Y-99394342D01*
X155365714Y-99394342D02*
X155318095Y-99489580D01*
X155318095Y-99489580D02*
X155270476Y-99537200D01*
X155270476Y-99537200D02*
X155175238Y-99584819D01*
X155175238Y-99584819D02*
X154889524Y-99584819D01*
X154889524Y-99584819D02*
X154794286Y-99537200D01*
X154794286Y-99537200D02*
X154746667Y-99489580D01*
D14*
X193657419Y-105821904D02*
X194466942Y-105821904D01*
X194466942Y-105821904D02*
X194562180Y-105774285D01*
X194562180Y-105774285D02*
X194609800Y-105726666D01*
X194609800Y-105726666D02*
X194657419Y-105631428D01*
X194657419Y-105631428D02*
X194657419Y-105440952D01*
X194657419Y-105440952D02*
X194609800Y-105345714D01*
X194609800Y-105345714D02*
X194562180Y-105298095D01*
X194562180Y-105298095D02*
X194466942Y-105250476D01*
X194466942Y-105250476D02*
X193657419Y-105250476D01*
X193752657Y-104821904D02*
X193705038Y-104774285D01*
X193705038Y-104774285D02*
X193657419Y-104679047D01*
X193657419Y-104679047D02*
X193657419Y-104440952D01*
X193657419Y-104440952D02*
X193705038Y-104345714D01*
X193705038Y-104345714D02*
X193752657Y-104298095D01*
X193752657Y-104298095D02*
X193847895Y-104250476D01*
X193847895Y-104250476D02*
X193943133Y-104250476D01*
X193943133Y-104250476D02*
X194085990Y-104298095D01*
X194085990Y-104298095D02*
X194657419Y-104869523D01*
X194657419Y-104869523D02*
X194657419Y-104250476D01*
D13*
X117413333Y-86584819D02*
X117080000Y-86108628D01*
X116841905Y-86584819D02*
X116841905Y-85584819D01*
X116841905Y-85584819D02*
X117222857Y-85584819D01*
X117222857Y-85584819D02*
X117318095Y-85632438D01*
X117318095Y-85632438D02*
X117365714Y-85680057D01*
X117365714Y-85680057D02*
X117413333Y-85775295D01*
X117413333Y-85775295D02*
X117413333Y-85918152D01*
X117413333Y-85918152D02*
X117365714Y-86013390D01*
X117365714Y-86013390D02*
X117318095Y-86061009D01*
X117318095Y-86061009D02*
X117222857Y-86108628D01*
X117222857Y-86108628D02*
X116841905Y-86108628D01*
X117746667Y-85584819D02*
X118413333Y-85584819D01*
X118413333Y-85584819D02*
X117984762Y-86584819D01*
D14*
X103561904Y-105482580D02*
X103561904Y-104673057D01*
X103561904Y-104673057D02*
X103514285Y-104577819D01*
X103514285Y-104577819D02*
X103466666Y-104530200D01*
X103466666Y-104530200D02*
X103371428Y-104482580D01*
X103371428Y-104482580D02*
X103180952Y-104482580D01*
X103180952Y-104482580D02*
X103085714Y-104530200D01*
X103085714Y-104530200D02*
X103038095Y-104577819D01*
X103038095Y-104577819D02*
X102990476Y-104673057D01*
X102990476Y-104673057D02*
X102990476Y-105482580D01*
X101990476Y-104482580D02*
X102561904Y-104482580D01*
X102276190Y-104482580D02*
X102276190Y-105482580D01*
X102276190Y-105482580D02*
X102371428Y-105339723D01*
X102371428Y-105339723D02*
X102466666Y-105244485D01*
X102466666Y-105244485D02*
X102561904Y-105196866D01*
D13*
X173413333Y-122324819D02*
X173080000Y-121848628D01*
X172841905Y-122324819D02*
X172841905Y-121324819D01*
X172841905Y-121324819D02*
X173222857Y-121324819D01*
X173222857Y-121324819D02*
X173318095Y-121372438D01*
X173318095Y-121372438D02*
X173365714Y-121420057D01*
X173365714Y-121420057D02*
X173413333Y-121515295D01*
X173413333Y-121515295D02*
X173413333Y-121658152D01*
X173413333Y-121658152D02*
X173365714Y-121753390D01*
X173365714Y-121753390D02*
X173318095Y-121801009D01*
X173318095Y-121801009D02*
X173222857Y-121848628D01*
X173222857Y-121848628D02*
X172841905Y-121848628D01*
X173984762Y-121753390D02*
X173889524Y-121705771D01*
X173889524Y-121705771D02*
X173841905Y-121658152D01*
X173841905Y-121658152D02*
X173794286Y-121562914D01*
X173794286Y-121562914D02*
X173794286Y-121515295D01*
X173794286Y-121515295D02*
X173841905Y-121420057D01*
X173841905Y-121420057D02*
X173889524Y-121372438D01*
X173889524Y-121372438D02*
X173984762Y-121324819D01*
X173984762Y-121324819D02*
X174175238Y-121324819D01*
X174175238Y-121324819D02*
X174270476Y-121372438D01*
X174270476Y-121372438D02*
X174318095Y-121420057D01*
X174318095Y-121420057D02*
X174365714Y-121515295D01*
X174365714Y-121515295D02*
X174365714Y-121562914D01*
X174365714Y-121562914D02*
X174318095Y-121658152D01*
X174318095Y-121658152D02*
X174270476Y-121705771D01*
X174270476Y-121705771D02*
X174175238Y-121753390D01*
X174175238Y-121753390D02*
X173984762Y-121753390D01*
X173984762Y-121753390D02*
X173889524Y-121801009D01*
X173889524Y-121801009D02*
X173841905Y-121848628D01*
X173841905Y-121848628D02*
X173794286Y-121943866D01*
X173794286Y-121943866D02*
X173794286Y-122134342D01*
X173794286Y-122134342D02*
X173841905Y-122229580D01*
X173841905Y-122229580D02*
X173889524Y-122277200D01*
X173889524Y-122277200D02*
X173984762Y-122324819D01*
X173984762Y-122324819D02*
X174175238Y-122324819D01*
X174175238Y-122324819D02*
X174270476Y-122277200D01*
X174270476Y-122277200D02*
X174318095Y-122229580D01*
X174318095Y-122229580D02*
X174365714Y-122134342D01*
X174365714Y-122134342D02*
X174365714Y-121943866D01*
X174365714Y-121943866D02*
X174318095Y-121848628D01*
X174318095Y-121848628D02*
X174270476Y-121801009D01*
X174270476Y-121801009D02*
X174175238Y-121753390D01*
%TO.C,F1*%
D15*
X104900000Y-117950000D02*
X116100000Y-117950000D01*
X104900000Y-121050000D02*
X104900000Y-117950000D01*
X116100000Y-117950000D02*
X116100000Y-121050000D01*
X116100000Y-121050000D02*
X104900000Y-121050000D01*
%TO.C,J2*%
X163120000Y-118120000D02*
X164500000Y-118120000D01*
X163120000Y-119500000D02*
X163120000Y-118120000D01*
X163120000Y-120770000D02*
X163120000Y-125960000D01*
X163120000Y-120770000D02*
X165880000Y-120770000D01*
X163120000Y-125960000D02*
X165880000Y-125960000D01*
X165880000Y-120770000D02*
X165880000Y-125960000D01*
%TO.C,R9*%
X169540000Y-124500000D02*
X170310000Y-124500000D01*
X177620000Y-124500000D02*
X176850000Y-124500000D01*
X170310000Y-123130000D02*
X176850000Y-123130000D01*
X176850000Y-125870000D01*
X170310000Y-125870000D01*
X170310000Y-123130000D01*
%TO.C,R12*%
X139540000Y-126500000D02*
X140310000Y-126500000D01*
X147620000Y-126500000D02*
X146850000Y-126500000D01*
X140310000Y-125130000D02*
X146850000Y-125130000D01*
X146850000Y-127870000D01*
X140310000Y-127870000D01*
X140310000Y-125130000D01*
%TO.C,C1*%
X109520354Y-123625000D02*
X110520354Y-123625000D01*
X110020354Y-123125000D02*
X110020354Y-124125000D01*
X115000000Y-121420000D02*
X115000000Y-131580000D01*
X115040000Y-121420000D02*
X115040000Y-131580000D01*
X115080000Y-121421000D02*
X115080000Y-131579000D01*
X115120000Y-121421000D02*
X115120000Y-131579000D01*
X115160000Y-121423000D02*
X115160000Y-131577000D01*
X115200000Y-121424000D02*
X115200000Y-131576000D01*
X115240000Y-121426000D02*
X115240000Y-131574000D01*
X115280000Y-121428000D02*
X115280000Y-131572000D01*
X115320000Y-121430000D02*
X115320000Y-131570000D01*
X115360000Y-121433000D02*
X115360000Y-131567000D01*
X115400000Y-121436000D02*
X115400000Y-131564000D01*
X115440000Y-121439000D02*
X115440000Y-131561000D01*
X115480000Y-121443000D02*
X115480000Y-131557000D01*
X115520000Y-121446000D02*
X115520000Y-131554000D01*
X115560000Y-121451000D02*
X115560000Y-131549000D01*
X115600000Y-121455000D02*
X115600000Y-131545000D01*
X115640000Y-121460000D02*
X115640000Y-131540000D01*
X115680000Y-121465000D02*
X115680000Y-131535000D01*
X115720000Y-121471000D02*
X115720000Y-131529000D01*
X115760000Y-121477000D02*
X115760000Y-131523000D01*
X115800000Y-121483000D02*
X115800000Y-131517000D01*
X115840000Y-121489000D02*
X115840000Y-131511000D01*
X115880000Y-121496000D02*
X115880000Y-131504000D01*
X115920000Y-121503000D02*
X115920000Y-131497000D01*
X115960000Y-121511000D02*
X115960000Y-131489000D01*
X116000000Y-121519000D02*
X116000000Y-131481000D01*
X116040000Y-121527000D02*
X116040000Y-131473000D01*
X116080000Y-121535000D02*
X116080000Y-131465000D01*
X116120000Y-121544000D02*
X116120000Y-131456000D01*
X116160000Y-121553000D02*
X116160000Y-131447000D01*
X116200000Y-121563000D02*
X116200000Y-131437000D01*
X116240000Y-121572000D02*
X116240000Y-131428000D01*
X116280000Y-121583000D02*
X116280000Y-125260000D01*
X116280000Y-127740000D02*
X116280000Y-131417000D01*
X116320000Y-121593000D02*
X116320000Y-125260000D01*
X116320000Y-127740000D02*
X116320000Y-131407000D01*
X116360000Y-121604000D02*
X116360000Y-125260000D01*
X116360000Y-127740000D02*
X116360000Y-131396000D01*
X116400000Y-121615000D02*
X116400000Y-125260000D01*
X116400000Y-127740000D02*
X116400000Y-131385000D01*
X116440000Y-121627000D02*
X116440000Y-125260000D01*
X116440000Y-127740000D02*
X116440000Y-131373000D01*
X116480000Y-121639000D02*
X116480000Y-125260000D01*
X116480000Y-127740000D02*
X116480000Y-131361000D01*
X116520000Y-121651000D02*
X116520000Y-125260000D01*
X116520000Y-127740000D02*
X116520000Y-131349000D01*
X116560000Y-121663000D02*
X116560000Y-125260000D01*
X116560000Y-127740000D02*
X116560000Y-131337000D01*
X116600000Y-121676000D02*
X116600000Y-125260000D01*
X116600000Y-127740000D02*
X116600000Y-131324000D01*
X116640000Y-121690000D02*
X116640000Y-125260000D01*
X116640000Y-127740000D02*
X116640000Y-131310000D01*
X116680000Y-121703000D02*
X116680000Y-125260000D01*
X116680000Y-127740000D02*
X116680000Y-131297000D01*
X116720000Y-121718000D02*
X116720000Y-125260000D01*
X116720000Y-127740000D02*
X116720000Y-131282000D01*
X116760000Y-121732000D02*
X116760000Y-125260000D01*
X116760000Y-127740000D02*
X116760000Y-131268000D01*
X116800000Y-121747000D02*
X116800000Y-125260000D01*
X116800000Y-127740000D02*
X116800000Y-131253000D01*
X116840000Y-121762000D02*
X116840000Y-125260000D01*
X116840000Y-127740000D02*
X116840000Y-131238000D01*
X116880000Y-121778000D02*
X116880000Y-125260000D01*
X116880000Y-127740000D02*
X116880000Y-131222000D01*
X116920000Y-121794000D02*
X116920000Y-125260000D01*
X116920000Y-127740000D02*
X116920000Y-131206000D01*
X116960000Y-121810000D02*
X116960000Y-125260000D01*
X116960000Y-127740000D02*
X116960000Y-131190000D01*
X117000000Y-121827000D02*
X117000000Y-125260000D01*
X117000000Y-127740000D02*
X117000000Y-131173000D01*
X117040000Y-121844000D02*
X117040000Y-125260000D01*
X117040000Y-127740000D02*
X117040000Y-131156000D01*
X117080000Y-121862000D02*
X117080000Y-125260000D01*
X117080000Y-127740000D02*
X117080000Y-131138000D01*
X117120000Y-121880000D02*
X117120000Y-125260000D01*
X117120000Y-127740000D02*
X117120000Y-131120000D01*
X117160000Y-121898000D02*
X117160000Y-125260000D01*
X117160000Y-127740000D02*
X117160000Y-131102000D01*
X117200000Y-121917000D02*
X117200000Y-125260000D01*
X117200000Y-127740000D02*
X117200000Y-131083000D01*
X117240000Y-121936000D02*
X117240000Y-125260000D01*
X117240000Y-127740000D02*
X117240000Y-131064000D01*
X117280000Y-121956000D02*
X117280000Y-125260000D01*
X117280000Y-127740000D02*
X117280000Y-131044000D01*
X117320000Y-121976000D02*
X117320000Y-125260000D01*
X117320000Y-127740000D02*
X117320000Y-131024000D01*
X117360000Y-121996000D02*
X117360000Y-125260000D01*
X117360000Y-127740000D02*
X117360000Y-131004000D01*
X117400000Y-122017000D02*
X117400000Y-125260000D01*
X117400000Y-127740000D02*
X117400000Y-130983000D01*
X117440000Y-122039000D02*
X117440000Y-125260000D01*
X117440000Y-127740000D02*
X117440000Y-130961000D01*
X117480000Y-122061000D02*
X117480000Y-125260000D01*
X117480000Y-127740000D02*
X117480000Y-130939000D01*
X117520000Y-122083000D02*
X117520000Y-125260000D01*
X117520000Y-127740000D02*
X117520000Y-130917000D01*
X117560000Y-122106000D02*
X117560000Y-125260000D01*
X117560000Y-127740000D02*
X117560000Y-130894000D01*
X117600000Y-122129000D02*
X117600000Y-125260000D01*
X117600000Y-127740000D02*
X117600000Y-130871000D01*
X117640000Y-122153000D02*
X117640000Y-125260000D01*
X117640000Y-127740000D02*
X117640000Y-130847000D01*
X117680000Y-122177000D02*
X117680000Y-125260000D01*
X117680000Y-127740000D02*
X117680000Y-130823000D01*
X117720000Y-122202000D02*
X117720000Y-125260000D01*
X117720000Y-127740000D02*
X117720000Y-130798000D01*
X117760000Y-122228000D02*
X117760000Y-125260000D01*
X117760000Y-127740000D02*
X117760000Y-130772000D01*
X117800000Y-122253000D02*
X117800000Y-125260000D01*
X117800000Y-127740000D02*
X117800000Y-130747000D01*
X117840000Y-122280000D02*
X117840000Y-125260000D01*
X117840000Y-127740000D02*
X117840000Y-130720000D01*
X117880000Y-122307000D02*
X117880000Y-125260000D01*
X117880000Y-127740000D02*
X117880000Y-130693000D01*
X117920000Y-122334000D02*
X117920000Y-125260000D01*
X117920000Y-127740000D02*
X117920000Y-130666000D01*
X117960000Y-122362000D02*
X117960000Y-125260000D01*
X117960000Y-127740000D02*
X117960000Y-130638000D01*
X118000000Y-122391000D02*
X118000000Y-125260000D01*
X118000000Y-127740000D02*
X118000000Y-130609000D01*
X118040000Y-122420000D02*
X118040000Y-125260000D01*
X118040000Y-127740000D02*
X118040000Y-130580000D01*
X118080000Y-122450000D02*
X118080000Y-125260000D01*
X118080000Y-127740000D02*
X118080000Y-130550000D01*
X118120000Y-122480000D02*
X118120000Y-125260000D01*
X118120000Y-127740000D02*
X118120000Y-130520000D01*
X118160000Y-122512000D02*
X118160000Y-125260000D01*
X118160000Y-127740000D02*
X118160000Y-130488000D01*
X118200000Y-122543000D02*
X118200000Y-125260000D01*
X118200000Y-127740000D02*
X118200000Y-130457000D01*
X118240000Y-122576000D02*
X118240000Y-125260000D01*
X118240000Y-127740000D02*
X118240000Y-130424000D01*
X118280000Y-122609000D02*
X118280000Y-125260000D01*
X118280000Y-127740000D02*
X118280000Y-130391000D01*
X118320000Y-122642000D02*
X118320000Y-125260000D01*
X118320000Y-127740000D02*
X118320000Y-130358000D01*
X118360000Y-122677000D02*
X118360000Y-125260000D01*
X118360000Y-127740000D02*
X118360000Y-130323000D01*
X118400000Y-122712000D02*
X118400000Y-125260000D01*
X118400000Y-127740000D02*
X118400000Y-130288000D01*
X118440000Y-122748000D02*
X118440000Y-125260000D01*
X118440000Y-127740000D02*
X118440000Y-130252000D01*
X118480000Y-122784000D02*
X118480000Y-125260000D01*
X118480000Y-127740000D02*
X118480000Y-130216000D01*
X118520000Y-122822000D02*
X118520000Y-125260000D01*
X118520000Y-127740000D02*
X118520000Y-130178000D01*
X118560000Y-122860000D02*
X118560000Y-125260000D01*
X118560000Y-127740000D02*
X118560000Y-130140000D01*
X118600000Y-122899000D02*
X118600000Y-125260000D01*
X118600000Y-127740000D02*
X118600000Y-130101000D01*
X118640000Y-122939000D02*
X118640000Y-125260000D01*
X118640000Y-127740000D02*
X118640000Y-130061000D01*
X118680000Y-122980000D02*
X118680000Y-125260000D01*
X118680000Y-127740000D02*
X118680000Y-130020000D01*
X118720000Y-123022000D02*
X118720000Y-125260000D01*
X118720000Y-127740000D02*
X118720000Y-129978000D01*
X118760000Y-123065000D02*
X118760000Y-129935000D01*
X118800000Y-123109000D02*
X118800000Y-129891000D01*
X118840000Y-123153000D02*
X118840000Y-129847000D01*
X118880000Y-123199000D02*
X118880000Y-129801000D01*
X118920000Y-123246000D02*
X118920000Y-129754000D01*
X118960000Y-123295000D02*
X118960000Y-129705000D01*
X119000000Y-123344000D02*
X119000000Y-129656000D01*
X119040000Y-123395000D02*
X119040000Y-129605000D01*
X119080000Y-123447000D02*
X119080000Y-129553000D01*
X119120000Y-123500000D02*
X119120000Y-129500000D01*
X119160000Y-123555000D02*
X119160000Y-129445000D01*
X119200000Y-123612000D02*
X119200000Y-129388000D01*
X119240000Y-123670000D02*
X119240000Y-129330000D01*
X119280000Y-123730000D02*
X119280000Y-129270000D01*
X119320000Y-123792000D02*
X119320000Y-129208000D01*
X119360000Y-123856000D02*
X119360000Y-129144000D01*
X119400000Y-123922000D02*
X119400000Y-129078000D01*
X119440000Y-123990000D02*
X119440000Y-129010000D01*
X119480000Y-124061000D02*
X119480000Y-128939000D01*
X119520000Y-124135000D02*
X119520000Y-128865000D01*
X119560000Y-124212000D02*
X119560000Y-128788000D01*
X119600000Y-124292000D02*
X119600000Y-128708000D01*
X119640000Y-124376000D02*
X119640000Y-128624000D01*
X119680000Y-124463000D02*
X119680000Y-128537000D01*
X119720000Y-124556000D02*
X119720000Y-128444000D01*
X119760000Y-124654000D02*
X119760000Y-128346000D01*
X119800000Y-124758000D02*
X119800000Y-128242000D01*
X119840000Y-124870000D02*
X119840000Y-128130000D01*
X119880000Y-124991000D02*
X119880000Y-128009000D01*
X119920000Y-125123000D02*
X119920000Y-127877000D01*
X119960000Y-125270000D02*
X119960000Y-127730000D01*
X120000000Y-125438000D02*
X120000000Y-127562000D01*
X120040000Y-125638000D02*
X120040000Y-127362000D01*
X120080000Y-125901000D02*
X120080000Y-127099000D01*
X120120000Y-126500000D02*
G75*
G02*
X109880000Y-126500000I-5120000J0D01*
G01*
X109880000Y-126500000D02*
G75*
G02*
X120120000Y-126500000I5120000J0D01*
G01*
%TO.C,R4*%
X150540000Y-96500000D02*
X151310000Y-96500000D01*
X158620000Y-96500000D02*
X157850000Y-96500000D01*
X151310000Y-95130000D02*
X157850000Y-95130000D01*
X157850000Y-97870000D01*
X151310000Y-97870000D01*
X151310000Y-95130000D01*
%TO.C,D2*%
X137250000Y-128045000D02*
X137250000Y-124955000D01*
X131700000Y-126500000D02*
G75*
G02*
X137250000Y-124955170I2990000J0D01*
G01*
X137250000Y-128044830D02*
G75*
G02*
X131700000Y-126500000I-2560000J1544830D01*
G01*
X137190000Y-126500000D02*
G75*
G02*
X132190000Y-126500000I-2500000J0D01*
G01*
X132190000Y-126500000D02*
G75*
G02*
X137190000Y-126500000I2500000J0D01*
G01*
%TO.C,C2*%
X124380000Y-125130000D02*
X129620000Y-125130000D01*
X124380000Y-125467000D02*
X124380000Y-125130000D01*
X124380000Y-127870000D02*
X124380000Y-127533000D01*
X129620000Y-125130000D02*
X129620000Y-125467000D01*
X129620000Y-127533000D02*
X129620000Y-127870000D01*
X129620000Y-127870000D02*
X124380000Y-127870000D01*
%TO.C,J1*%
X124120000Y-82120000D02*
X125500000Y-82120000D01*
X124120000Y-83500000D02*
X124120000Y-82120000D01*
X124120000Y-84770000D02*
X124120000Y-89960000D01*
X124120000Y-84770000D02*
X126880000Y-84770000D01*
X124120000Y-89960000D02*
X126880000Y-89960000D01*
X126880000Y-84770000D02*
X126880000Y-89960000D01*
%TO.C,D1*%
X121980000Y-116780000D02*
X131720000Y-116780000D01*
X121980000Y-117660000D02*
X121980000Y-116780000D01*
X121980000Y-121340000D02*
X121980000Y-122220000D01*
X121980000Y-122220000D02*
X131720000Y-122220000D01*
X123405000Y-116780000D02*
X123405000Y-122220000D01*
X123525000Y-116780000D02*
X123525000Y-122220000D01*
X123645000Y-116780000D02*
X123645000Y-122220000D01*
X131720000Y-116780000D02*
X131720000Y-117660000D01*
X131720000Y-122220000D02*
X131720000Y-121340000D01*
%TO.C,J3*%
X136120000Y-118120000D02*
X137500000Y-118120000D01*
X136120000Y-119500000D02*
X136120000Y-118120000D01*
X136120000Y-120770000D02*
X136120000Y-123420000D01*
X136120000Y-120770000D02*
X138880000Y-120770000D01*
X136120000Y-123420000D02*
X138880000Y-123420000D01*
X138880000Y-120770000D02*
X138880000Y-123420000D01*
%TO.C,R1*%
X150540000Y-111500000D02*
X151310000Y-111500000D01*
X158620000Y-111500000D02*
X157850000Y-111500000D01*
X151310000Y-110130000D02*
X157850000Y-110130000D01*
X157850000Y-112870000D01*
X151310000Y-112870000D01*
X151310000Y-110130000D01*
%TO.C,R5*%
X150540000Y-91500000D02*
X151310000Y-91500000D01*
X158620000Y-91500000D02*
X157850000Y-91500000D01*
X151310000Y-90130000D02*
X157850000Y-90130000D01*
X157850000Y-92870000D01*
X151310000Y-92870000D01*
X151310000Y-90130000D01*
%TO.C,R6*%
X113540000Y-83500000D02*
X114310000Y-83500000D01*
X121620000Y-83500000D02*
X120850000Y-83500000D01*
X114310000Y-82130000D02*
X120850000Y-82130000D01*
X120850000Y-84870000D01*
X114310000Y-84870000D01*
X114310000Y-82130000D01*
%TO.C,R2*%
X150540000Y-106500000D02*
X151310000Y-106500000D01*
X158620000Y-106500000D02*
X157850000Y-106500000D01*
X151310000Y-105130000D02*
X157850000Y-105130000D01*
X157850000Y-107870000D01*
X151310000Y-107870000D01*
X151310000Y-105130000D01*
%TO.C,R3*%
X150540000Y-101500000D02*
X151310000Y-101500000D01*
X158620000Y-101500000D02*
X157850000Y-101500000D01*
X151310000Y-100130000D02*
X157850000Y-100130000D01*
X157850000Y-102870000D01*
X151310000Y-102870000D01*
X151310000Y-100130000D01*
%TO.C,U2*%
D14*
X167470000Y-113030000D02*
X167470000Y-96970000D01*
X168470000Y-95970000D02*
X190000000Y-95970000D01*
X190000000Y-114030000D02*
X168470000Y-114030000D01*
X191000000Y-96970000D02*
X191000000Y-100640000D01*
X191000000Y-100640000D02*
X192500000Y-100640000D01*
X191000000Y-109300000D02*
X191000000Y-113030000D01*
X192500000Y-100640000D02*
X192500000Y-109300000D01*
X192500000Y-109300000D02*
X191000000Y-109300000D01*
X167470000Y-96970000D02*
G75*
G02*
X168470000Y-95970000I1000000J0D01*
G01*
X168470000Y-114030000D02*
G75*
G02*
X167470000Y-113030000I0J1000000D01*
G01*
X190000000Y-95970000D02*
G75*
G02*
X191000000Y-96970000I0J-1000000D01*
G01*
X191000000Y-113030000D02*
G75*
G02*
X190000000Y-114030000I-1000000J0D01*
G01*
%TO.C,R7*%
D15*
X113540000Y-88500000D02*
X114310000Y-88500000D01*
X121620000Y-88500000D02*
X120850000Y-88500000D01*
X114310000Y-87130000D02*
X120850000Y-87130000D01*
X120850000Y-89870000D01*
X114310000Y-89870000D01*
X114310000Y-87130000D01*
%TO.C,U1*%
D14*
X104500000Y-100700000D02*
X106000000Y-100700000D01*
X104500000Y-109360000D02*
X104500000Y-100700000D01*
X106000000Y-100700000D02*
X106000000Y-96970000D01*
X106000000Y-109360000D02*
X104500000Y-109360000D01*
X106000000Y-113030000D02*
X106000000Y-109360000D01*
X107000000Y-95970000D02*
X128530000Y-95970000D01*
X128530000Y-114030000D02*
X107000000Y-114030000D01*
X129530000Y-96970000D02*
X129530000Y-113030000D01*
X106000000Y-96970000D02*
G75*
G02*
X107000000Y-95970000I1000000J0D01*
G01*
X107000000Y-114030000D02*
G75*
G02*
X106000000Y-113030000I0J1000000D01*
G01*
X128530000Y-95970000D02*
G75*
G02*
X129530000Y-96970000I0J-1000000D01*
G01*
X129530000Y-113030000D02*
G75*
G02*
X128530000Y-114030000I-1000000J0D01*
G01*
%TO.C,R8*%
D15*
X169540000Y-119500000D02*
X170310000Y-119500000D01*
X177620000Y-119500000D02*
X176850000Y-119500000D01*
X170310000Y-118130000D02*
X176850000Y-118130000D01*
X176850000Y-120870000D01*
X170310000Y-120870000D01*
X170310000Y-118130000D01*
%TD*%
M02*
