%TF.GenerationSoftware,KiCad,Pcbnew,10.0.5*%
%TF.CreationDate,2026-08-21T14:26:45-07:00*%
%TF.ProjectId,kbdrelay-carrier,6b626472-656c-4617-992d-636172726965,rev?*%
%TF.SameCoordinates,Original*%
%TF.FileFunction,Drillmap*%
%TF.FilePolarity,Positive*%
%FSLAX45Y45*%
G04 Gerber Fmt 4.5, Leading zero omitted, Abs format (unit mm)*
G04 Created by KiCad (PCBNEW 10.0.5) date 2026-08-21 14:26:45*
%MOMM*%
%LPD*%
G01*
G04 APERTURE LIST*
%ADD10C,0.100000*%
%ADD11C,0.200000*%
%ADD12C,0.160000*%
%ADD13C,0.320000*%
G04 APERTURE END LIST*
D10*
X10450000Y-7750000D02*
X19250000Y-7750000D01*
X10450000Y-13250000D02*
X10450000Y-7750000D01*
X19250000Y-7750000D02*
X19250000Y-13250000D01*
X19250000Y-13250000D02*
X10450000Y-13250000D01*
D11*
D10*
X11210000Y-8310000D02*
X11290000Y-8390000D01*
X11290000Y-8310000D02*
X11210000Y-8390000D01*
X11210000Y-8810000D02*
X11290000Y-8890000D01*
X11290000Y-8810000D02*
X11210000Y-8890000D01*
X12226000Y-8310000D02*
X12306000Y-8390000D01*
X12306000Y-8310000D02*
X12226000Y-8390000D01*
X12226000Y-8810000D02*
X12306000Y-8890000D01*
X12306000Y-8810000D02*
X12226000Y-8890000D01*
X12410000Y-12610000D02*
X12490000Y-12690000D01*
X12490000Y-12610000D02*
X12410000Y-12690000D01*
X12910000Y-12610000D02*
X12990000Y-12690000D01*
X12990000Y-12610000D02*
X12910000Y-12690000D01*
X13810000Y-12610000D02*
X13890000Y-12690000D01*
X13890000Y-12610000D02*
X13810000Y-12690000D01*
X14826000Y-12610000D02*
X14906000Y-12690000D01*
X14906000Y-12610000D02*
X14826000Y-12690000D01*
X14910000Y-9110000D02*
X14990000Y-9190000D01*
X14990000Y-9110000D02*
X14910000Y-9190000D01*
X14910000Y-9610000D02*
X14990000Y-9690000D01*
X14990000Y-9610000D02*
X14910000Y-9690000D01*
X14910000Y-10110000D02*
X14990000Y-10190000D01*
X14990000Y-10110000D02*
X14910000Y-10190000D01*
X14910000Y-10610000D02*
X14990000Y-10690000D01*
X14990000Y-10610000D02*
X14910000Y-10690000D01*
X14910000Y-11110000D02*
X14990000Y-11190000D01*
X14990000Y-11110000D02*
X14910000Y-11190000D01*
X15926000Y-9110000D02*
X16006000Y-9190000D01*
X16006000Y-9110000D02*
X15926000Y-9190000D01*
X15926000Y-9610000D02*
X16006000Y-9690000D01*
X16006000Y-9610000D02*
X15926000Y-9690000D01*
X15926000Y-10110000D02*
X16006000Y-10190000D01*
X16006000Y-10110000D02*
X15926000Y-10190000D01*
X15926000Y-10610000D02*
X16006000Y-10690000D01*
X16006000Y-10610000D02*
X15926000Y-10690000D01*
X15926000Y-11110000D02*
X16006000Y-11190000D01*
X16006000Y-11110000D02*
X15926000Y-11190000D01*
X16810000Y-11910000D02*
X16890000Y-11990000D01*
X16890000Y-11910000D02*
X16810000Y-11990000D01*
X16810000Y-12410000D02*
X16890000Y-12490000D01*
X16890000Y-12410000D02*
X16810000Y-12490000D01*
X17826000Y-11910000D02*
X17906000Y-11990000D01*
X17906000Y-11910000D02*
X17826000Y-11990000D01*
X17826000Y-12410000D02*
X17906000Y-12490000D01*
X17906000Y-12410000D02*
X17826000Y-12490000D01*
X13387000Y-12650000D02*
G75*
G02*
X13297000Y-12650000I-45000J0D01*
G01*
X13297000Y-12650000D02*
G75*
G02*
X13387000Y-12650000I45000J0D01*
G01*
X13641000Y-12650000D02*
G75*
G02*
X13551000Y-12650000I-45000J0D01*
G01*
X13551000Y-12650000D02*
G75*
G02*
X13641000Y-12650000I45000J0D01*
G01*
X10759000Y-9691000D02*
X10759000Y-9791000D01*
X10709000Y-9741000D02*
X10809000Y-9741000D01*
X10759000Y-11215000D02*
X10759000Y-11315000D01*
X10709000Y-11265000D02*
X10809000Y-11265000D01*
X10796000Y-11900000D02*
X10796000Y-12000000D01*
X10746000Y-11950000D02*
X10846000Y-11950000D01*
X11013000Y-9691000D02*
X11013000Y-9791000D01*
X10963000Y-9741000D02*
X11063000Y-9741000D01*
X11013000Y-11215000D02*
X11013000Y-11315000D01*
X10963000Y-11265000D02*
X11063000Y-11265000D01*
X11250000Y-12600000D02*
X11250000Y-12700000D01*
X11200000Y-12650000D02*
X11300000Y-12650000D01*
X11267000Y-9691000D02*
X11267000Y-9791000D01*
X11217000Y-9741000D02*
X11317000Y-9741000D01*
X11267000Y-11215000D02*
X11267000Y-11315000D01*
X11217000Y-11265000D02*
X11317000Y-11265000D01*
X11304000Y-11900000D02*
X11304000Y-12000000D01*
X11254000Y-11950000D02*
X11354000Y-11950000D01*
X11521000Y-9691000D02*
X11521000Y-9791000D01*
X11471000Y-9741000D02*
X11571000Y-9741000D01*
X11521000Y-11215000D02*
X11521000Y-11315000D01*
X11471000Y-11265000D02*
X11571000Y-11265000D01*
X11750000Y-12600000D02*
X11750000Y-12700000D01*
X11700000Y-12650000D02*
X11800000Y-12650000D01*
X11775000Y-9691000D02*
X11775000Y-9791000D01*
X11725000Y-9741000D02*
X11825000Y-9741000D01*
X11775000Y-11215000D02*
X11775000Y-11315000D01*
X11725000Y-11265000D02*
X11825000Y-11265000D01*
X12029000Y-9691000D02*
X12029000Y-9791000D01*
X11979000Y-9741000D02*
X12079000Y-9741000D01*
X12029000Y-11215000D02*
X12029000Y-11315000D01*
X11979000Y-11265000D02*
X12079000Y-11265000D01*
X12283000Y-9691000D02*
X12283000Y-9791000D01*
X12233000Y-9741000D02*
X12333000Y-9741000D01*
X12283000Y-11215000D02*
X12283000Y-11315000D01*
X12233000Y-11265000D02*
X12333000Y-11265000D01*
X12537000Y-9691000D02*
X12537000Y-9791000D01*
X12487000Y-9741000D02*
X12587000Y-9741000D01*
X12537000Y-11215000D02*
X12537000Y-11315000D01*
X12487000Y-11265000D02*
X12587000Y-11265000D01*
X12550000Y-8300000D02*
X12550000Y-8400000D01*
X12500000Y-8350000D02*
X12600000Y-8350000D01*
X12550000Y-8554000D02*
X12550000Y-8654000D01*
X12500000Y-8604000D02*
X12600000Y-8604000D01*
X12550000Y-8808000D02*
X12550000Y-8908000D01*
X12500000Y-8858000D02*
X12600000Y-8858000D01*
X12791000Y-9691000D02*
X12791000Y-9791000D01*
X12741000Y-9741000D02*
X12841000Y-9741000D01*
X12791000Y-11215000D02*
X12791000Y-11315000D01*
X12741000Y-11265000D02*
X12841000Y-11265000D01*
X13750000Y-11900000D02*
X13750000Y-12000000D01*
X13700000Y-11950000D02*
X13800000Y-11950000D01*
X13750000Y-12154000D02*
X13750000Y-12254000D01*
X13700000Y-12204000D02*
X13800000Y-12204000D01*
X16450000Y-11900000D02*
X16450000Y-12000000D01*
X16400000Y-11950000D02*
X16500000Y-11950000D01*
X16450000Y-12154000D02*
X16450000Y-12254000D01*
X16400000Y-12204000D02*
X16500000Y-12204000D01*
X16450000Y-12408000D02*
X16450000Y-12508000D01*
X16400000Y-12458000D02*
X16500000Y-12458000D01*
X16909000Y-9685000D02*
X16909000Y-9785000D01*
X16859000Y-9735000D02*
X16959000Y-9735000D01*
X16909000Y-11209000D02*
X16909000Y-11309000D01*
X16859000Y-11259000D02*
X16959000Y-11259000D01*
X17163000Y-9685000D02*
X17163000Y-9785000D01*
X17113000Y-9735000D02*
X17213000Y-9735000D01*
X17163000Y-11209000D02*
X17163000Y-11309000D01*
X17113000Y-11259000D02*
X17213000Y-11259000D01*
X17417000Y-9685000D02*
X17417000Y-9785000D01*
X17367000Y-9735000D02*
X17467000Y-9735000D01*
X17417000Y-11209000D02*
X17417000Y-11309000D01*
X17367000Y-11259000D02*
X17467000Y-11259000D01*
X17671000Y-9685000D02*
X17671000Y-9785000D01*
X17621000Y-9735000D02*
X17721000Y-9735000D01*
X17671000Y-11209000D02*
X17671000Y-11309000D01*
X17621000Y-11259000D02*
X17721000Y-11259000D01*
X17925000Y-9685000D02*
X17925000Y-9785000D01*
X17875000Y-9735000D02*
X17975000Y-9735000D01*
X17925000Y-11209000D02*
X17925000Y-11309000D01*
X17875000Y-11259000D02*
X17975000Y-11259000D01*
X18179000Y-9685000D02*
X18179000Y-9785000D01*
X18129000Y-9735000D02*
X18229000Y-9735000D01*
X18179000Y-11209000D02*
X18179000Y-11309000D01*
X18129000Y-11259000D02*
X18229000Y-11259000D01*
X18433000Y-9685000D02*
X18433000Y-9785000D01*
X18383000Y-9735000D02*
X18483000Y-9735000D01*
X18433000Y-11209000D02*
X18433000Y-11309000D01*
X18383000Y-11259000D02*
X18483000Y-11259000D01*
X18687000Y-9685000D02*
X18687000Y-9785000D01*
X18637000Y-9735000D02*
X18737000Y-9735000D01*
X18687000Y-11209000D02*
X18687000Y-11309000D01*
X18637000Y-11259000D02*
X18737000Y-11259000D01*
X18941000Y-9685000D02*
X18941000Y-9785000D01*
X18891000Y-9735000D02*
X18991000Y-9735000D01*
X18941000Y-11209000D02*
X18941000Y-11309000D01*
X18891000Y-11259000D02*
X18991000Y-11259000D01*
D12*
X12106569Y-12006569D02*
X12106569Y-11893431D01*
X11993431Y-11893431D01*
X11993431Y-12006569D01*
X12106569Y-12006569D01*
X13376569Y-12006569D02*
X13376569Y-11893431D01*
X13263431Y-11893431D01*
X13263431Y-12006569D01*
X13376569Y-12006569D01*
D13*
X10800000Y-8260000D02*
X10960000Y-8100000D01*
X10800000Y-7940000D01*
X10640000Y-8100000D01*
X10800000Y-8260000D01*
X10800000Y-13060000D02*
X10960000Y-12900000D01*
X10800000Y-12740000D01*
X10640000Y-12900000D01*
X10800000Y-13060000D01*
X18900000Y-8260000D02*
X19060000Y-8100000D01*
X18900000Y-7940000D01*
X18740000Y-8100000D01*
X18900000Y-8260000D01*
X18900000Y-13060000D02*
X19060000Y-12900000D01*
X18900000Y-12740000D01*
X18740000Y-12900000D01*
X18900000Y-13060000D01*
D11*
X10705777Y-13566484D02*
X10705777Y-13366484D01*
X10705777Y-13366484D02*
X10753396Y-13366484D01*
X10753396Y-13366484D02*
X10781967Y-13376008D01*
X10781967Y-13376008D02*
X10801015Y-13395055D01*
X10801015Y-13395055D02*
X10810539Y-13414103D01*
X10810539Y-13414103D02*
X10820063Y-13452198D01*
X10820063Y-13452198D02*
X10820063Y-13480769D01*
X10820063Y-13480769D02*
X10810539Y-13518865D01*
X10810539Y-13518865D02*
X10801015Y-13537912D01*
X10801015Y-13537912D02*
X10781967Y-13556960D01*
X10781967Y-13556960D02*
X10753396Y-13566484D01*
X10753396Y-13566484D02*
X10705777Y-13566484D01*
X10905777Y-13566484D02*
X10905777Y-13433150D01*
X10905777Y-13471246D02*
X10915301Y-13452198D01*
X10915301Y-13452198D02*
X10924824Y-13442674D01*
X10924824Y-13442674D02*
X10943872Y-13433150D01*
X10943872Y-13433150D02*
X10962920Y-13433150D01*
X11029586Y-13566484D02*
X11029586Y-13433150D01*
X11029586Y-13366484D02*
X11020063Y-13376008D01*
X11020063Y-13376008D02*
X11029586Y-13385531D01*
X11029586Y-13385531D02*
X11039110Y-13376008D01*
X11039110Y-13376008D02*
X11029586Y-13366484D01*
X11029586Y-13366484D02*
X11029586Y-13385531D01*
X11153396Y-13566484D02*
X11134348Y-13556960D01*
X11134348Y-13556960D02*
X11124824Y-13537912D01*
X11124824Y-13537912D02*
X11124824Y-13366484D01*
X11258158Y-13566484D02*
X11239110Y-13556960D01*
X11239110Y-13556960D02*
X11229586Y-13537912D01*
X11229586Y-13537912D02*
X11229586Y-13366484D01*
X11486729Y-13566484D02*
X11486729Y-13366484D01*
X11486729Y-13366484D02*
X11553396Y-13509341D01*
X11553396Y-13509341D02*
X11620062Y-13366484D01*
X11620062Y-13366484D02*
X11620062Y-13566484D01*
X11801015Y-13566484D02*
X11801015Y-13461722D01*
X11801015Y-13461722D02*
X11791491Y-13442674D01*
X11791491Y-13442674D02*
X11772443Y-13433150D01*
X11772443Y-13433150D02*
X11734348Y-13433150D01*
X11734348Y-13433150D02*
X11715301Y-13442674D01*
X11801015Y-13556960D02*
X11781967Y-13566484D01*
X11781967Y-13566484D02*
X11734348Y-13566484D01*
X11734348Y-13566484D02*
X11715301Y-13556960D01*
X11715301Y-13556960D02*
X11705777Y-13537912D01*
X11705777Y-13537912D02*
X11705777Y-13518865D01*
X11705777Y-13518865D02*
X11715301Y-13499817D01*
X11715301Y-13499817D02*
X11734348Y-13490293D01*
X11734348Y-13490293D02*
X11781967Y-13490293D01*
X11781967Y-13490293D02*
X11801015Y-13480769D01*
X11896253Y-13433150D02*
X11896253Y-13633150D01*
X11896253Y-13442674D02*
X11915301Y-13433150D01*
X11915301Y-13433150D02*
X11953396Y-13433150D01*
X11953396Y-13433150D02*
X11972443Y-13442674D01*
X11972443Y-13442674D02*
X11981967Y-13452198D01*
X11981967Y-13452198D02*
X11991491Y-13471246D01*
X11991491Y-13471246D02*
X11991491Y-13528388D01*
X11991491Y-13528388D02*
X11981967Y-13547436D01*
X11981967Y-13547436D02*
X11972443Y-13556960D01*
X11972443Y-13556960D02*
X11953396Y-13566484D01*
X11953396Y-13566484D02*
X11915301Y-13566484D01*
X11915301Y-13566484D02*
X11896253Y-13556960D01*
X12077205Y-13547436D02*
X12086729Y-13556960D01*
X12086729Y-13556960D02*
X12077205Y-13566484D01*
X12077205Y-13566484D02*
X12067682Y-13556960D01*
X12067682Y-13556960D02*
X12077205Y-13547436D01*
X12077205Y-13547436D02*
X12077205Y-13566484D01*
X12077205Y-13442674D02*
X12086729Y-13452198D01*
X12086729Y-13452198D02*
X12077205Y-13461722D01*
X12077205Y-13461722D02*
X12067682Y-13452198D01*
X12067682Y-13452198D02*
X12077205Y-13442674D01*
X12077205Y-13442674D02*
X12077205Y-13461722D01*
D10*
X10365000Y-13855000D02*
X10445000Y-13935000D01*
X10445000Y-13855000D02*
X10365000Y-13935000D01*
D11*
X10743872Y-13786484D02*
X10762920Y-13786484D01*
X10762920Y-13786484D02*
X10781967Y-13796008D01*
X10781967Y-13796008D02*
X10791491Y-13805531D01*
X10791491Y-13805531D02*
X10801015Y-13824579D01*
X10801015Y-13824579D02*
X10810539Y-13862674D01*
X10810539Y-13862674D02*
X10810539Y-13910293D01*
X10810539Y-13910293D02*
X10801015Y-13948388D01*
X10801015Y-13948388D02*
X10791491Y-13967436D01*
X10791491Y-13967436D02*
X10781967Y-13976960D01*
X10781967Y-13976960D02*
X10762920Y-13986484D01*
X10762920Y-13986484D02*
X10743872Y-13986484D01*
X10743872Y-13986484D02*
X10724824Y-13976960D01*
X10724824Y-13976960D02*
X10715301Y-13967436D01*
X10715301Y-13967436D02*
X10705777Y-13948388D01*
X10705777Y-13948388D02*
X10696253Y-13910293D01*
X10696253Y-13910293D02*
X10696253Y-13862674D01*
X10696253Y-13862674D02*
X10705777Y-13824579D01*
X10705777Y-13824579D02*
X10715301Y-13805531D01*
X10715301Y-13805531D02*
X10724824Y-13796008D01*
X10724824Y-13796008D02*
X10743872Y-13786484D01*
X10896253Y-13967436D02*
X10905777Y-13976960D01*
X10905777Y-13976960D02*
X10896253Y-13986484D01*
X10896253Y-13986484D02*
X10886729Y-13976960D01*
X10886729Y-13976960D02*
X10896253Y-13967436D01*
X10896253Y-13967436D02*
X10896253Y-13986484D01*
X11020063Y-13872198D02*
X11001015Y-13862674D01*
X11001015Y-13862674D02*
X10991491Y-13853150D01*
X10991491Y-13853150D02*
X10981967Y-13834103D01*
X10981967Y-13834103D02*
X10981967Y-13824579D01*
X10981967Y-13824579D02*
X10991491Y-13805531D01*
X10991491Y-13805531D02*
X11001015Y-13796008D01*
X11001015Y-13796008D02*
X11020063Y-13786484D01*
X11020063Y-13786484D02*
X11058158Y-13786484D01*
X11058158Y-13786484D02*
X11077205Y-13796008D01*
X11077205Y-13796008D02*
X11086729Y-13805531D01*
X11086729Y-13805531D02*
X11096253Y-13824579D01*
X11096253Y-13824579D02*
X11096253Y-13834103D01*
X11096253Y-13834103D02*
X11086729Y-13853150D01*
X11086729Y-13853150D02*
X11077205Y-13862674D01*
X11077205Y-13862674D02*
X11058158Y-13872198D01*
X11058158Y-13872198D02*
X11020063Y-13872198D01*
X11020063Y-13872198D02*
X11001015Y-13881722D01*
X11001015Y-13881722D02*
X10991491Y-13891246D01*
X10991491Y-13891246D02*
X10981967Y-13910293D01*
X10981967Y-13910293D02*
X10981967Y-13948388D01*
X10981967Y-13948388D02*
X10991491Y-13967436D01*
X10991491Y-13967436D02*
X11001015Y-13976960D01*
X11001015Y-13976960D02*
X11020063Y-13986484D01*
X11020063Y-13986484D02*
X11058158Y-13986484D01*
X11058158Y-13986484D02*
X11077205Y-13976960D01*
X11077205Y-13976960D02*
X11086729Y-13967436D01*
X11086729Y-13967436D02*
X11096253Y-13948388D01*
X11096253Y-13948388D02*
X11096253Y-13910293D01*
X11096253Y-13910293D02*
X11086729Y-13891246D01*
X11086729Y-13891246D02*
X11077205Y-13881722D01*
X11077205Y-13881722D02*
X11058158Y-13872198D01*
X11220062Y-13786484D02*
X11239110Y-13786484D01*
X11239110Y-13786484D02*
X11258158Y-13796008D01*
X11258158Y-13796008D02*
X11267682Y-13805531D01*
X11267682Y-13805531D02*
X11277205Y-13824579D01*
X11277205Y-13824579D02*
X11286729Y-13862674D01*
X11286729Y-13862674D02*
X11286729Y-13910293D01*
X11286729Y-13910293D02*
X11277205Y-13948388D01*
X11277205Y-13948388D02*
X11267682Y-13967436D01*
X11267682Y-13967436D02*
X11258158Y-13976960D01*
X11258158Y-13976960D02*
X11239110Y-13986484D01*
X11239110Y-13986484D02*
X11220062Y-13986484D01*
X11220062Y-13986484D02*
X11201015Y-13976960D01*
X11201015Y-13976960D02*
X11191491Y-13967436D01*
X11191491Y-13967436D02*
X11181967Y-13948388D01*
X11181967Y-13948388D02*
X11172444Y-13910293D01*
X11172444Y-13910293D02*
X11172444Y-13862674D01*
X11172444Y-13862674D02*
X11181967Y-13824579D01*
X11181967Y-13824579D02*
X11191491Y-13805531D01*
X11191491Y-13805531D02*
X11201015Y-13796008D01*
X11201015Y-13796008D02*
X11220062Y-13786484D01*
X11410539Y-13786484D02*
X11429586Y-13786484D01*
X11429586Y-13786484D02*
X11448634Y-13796008D01*
X11448634Y-13796008D02*
X11458158Y-13805531D01*
X11458158Y-13805531D02*
X11467682Y-13824579D01*
X11467682Y-13824579D02*
X11477205Y-13862674D01*
X11477205Y-13862674D02*
X11477205Y-13910293D01*
X11477205Y-13910293D02*
X11467682Y-13948388D01*
X11467682Y-13948388D02*
X11458158Y-13967436D01*
X11458158Y-13967436D02*
X11448634Y-13976960D01*
X11448634Y-13976960D02*
X11429586Y-13986484D01*
X11429586Y-13986484D02*
X11410539Y-13986484D01*
X11410539Y-13986484D02*
X11391491Y-13976960D01*
X11391491Y-13976960D02*
X11381967Y-13967436D01*
X11381967Y-13967436D02*
X11372443Y-13948388D01*
X11372443Y-13948388D02*
X11362920Y-13910293D01*
X11362920Y-13910293D02*
X11362920Y-13862674D01*
X11362920Y-13862674D02*
X11372443Y-13824579D01*
X11372443Y-13824579D02*
X11381967Y-13805531D01*
X11381967Y-13805531D02*
X11391491Y-13796008D01*
X11391491Y-13796008D02*
X11410539Y-13786484D01*
X11562920Y-13986484D02*
X11562920Y-13853150D01*
X11562920Y-13872198D02*
X11572443Y-13862674D01*
X11572443Y-13862674D02*
X11591491Y-13853150D01*
X11591491Y-13853150D02*
X11620063Y-13853150D01*
X11620063Y-13853150D02*
X11639110Y-13862674D01*
X11639110Y-13862674D02*
X11648634Y-13881722D01*
X11648634Y-13881722D02*
X11648634Y-13986484D01*
X11648634Y-13881722D02*
X11658158Y-13862674D01*
X11658158Y-13862674D02*
X11677205Y-13853150D01*
X11677205Y-13853150D02*
X11705777Y-13853150D01*
X11705777Y-13853150D02*
X11724824Y-13862674D01*
X11724824Y-13862674D02*
X11734348Y-13881722D01*
X11734348Y-13881722D02*
X11734348Y-13986484D01*
X11829586Y-13986484D02*
X11829586Y-13853150D01*
X11829586Y-13872198D02*
X11839110Y-13862674D01*
X11839110Y-13862674D02*
X11858158Y-13853150D01*
X11858158Y-13853150D02*
X11886729Y-13853150D01*
X11886729Y-13853150D02*
X11905777Y-13862674D01*
X11905777Y-13862674D02*
X11915301Y-13881722D01*
X11915301Y-13881722D02*
X11915301Y-13986484D01*
X11915301Y-13881722D02*
X11924824Y-13862674D01*
X11924824Y-13862674D02*
X11943872Y-13853150D01*
X11943872Y-13853150D02*
X11972443Y-13853150D01*
X11972443Y-13853150D02*
X11991491Y-13862674D01*
X11991491Y-13862674D02*
X12001015Y-13881722D01*
X12001015Y-13881722D02*
X12001015Y-13986484D01*
X12391491Y-13776960D02*
X12220063Y-14034103D01*
X12648634Y-13786484D02*
X12667682Y-13786484D01*
X12667682Y-13786484D02*
X12686729Y-13796008D01*
X12686729Y-13796008D02*
X12696253Y-13805531D01*
X12696253Y-13805531D02*
X12705777Y-13824579D01*
X12705777Y-13824579D02*
X12715301Y-13862674D01*
X12715301Y-13862674D02*
X12715301Y-13910293D01*
X12715301Y-13910293D02*
X12705777Y-13948388D01*
X12705777Y-13948388D02*
X12696253Y-13967436D01*
X12696253Y-13967436D02*
X12686729Y-13976960D01*
X12686729Y-13976960D02*
X12667682Y-13986484D01*
X12667682Y-13986484D02*
X12648634Y-13986484D01*
X12648634Y-13986484D02*
X12629586Y-13976960D01*
X12629586Y-13976960D02*
X12620063Y-13967436D01*
X12620063Y-13967436D02*
X12610539Y-13948388D01*
X12610539Y-13948388D02*
X12601015Y-13910293D01*
X12601015Y-13910293D02*
X12601015Y-13862674D01*
X12601015Y-13862674D02*
X12610539Y-13824579D01*
X12610539Y-13824579D02*
X12620063Y-13805531D01*
X12620063Y-13805531D02*
X12629586Y-13796008D01*
X12629586Y-13796008D02*
X12648634Y-13786484D01*
X12801015Y-13967436D02*
X12810539Y-13976960D01*
X12810539Y-13976960D02*
X12801015Y-13986484D01*
X12801015Y-13986484D02*
X12791491Y-13976960D01*
X12791491Y-13976960D02*
X12801015Y-13967436D01*
X12801015Y-13967436D02*
X12801015Y-13986484D01*
X12934348Y-13786484D02*
X12953396Y-13786484D01*
X12953396Y-13786484D02*
X12972444Y-13796008D01*
X12972444Y-13796008D02*
X12981967Y-13805531D01*
X12981967Y-13805531D02*
X12991491Y-13824579D01*
X12991491Y-13824579D02*
X13001015Y-13862674D01*
X13001015Y-13862674D02*
X13001015Y-13910293D01*
X13001015Y-13910293D02*
X12991491Y-13948388D01*
X12991491Y-13948388D02*
X12981967Y-13967436D01*
X12981967Y-13967436D02*
X12972444Y-13976960D01*
X12972444Y-13976960D02*
X12953396Y-13986484D01*
X12953396Y-13986484D02*
X12934348Y-13986484D01*
X12934348Y-13986484D02*
X12915301Y-13976960D01*
X12915301Y-13976960D02*
X12905777Y-13967436D01*
X12905777Y-13967436D02*
X12896253Y-13948388D01*
X12896253Y-13948388D02*
X12886729Y-13910293D01*
X12886729Y-13910293D02*
X12886729Y-13862674D01*
X12886729Y-13862674D02*
X12896253Y-13824579D01*
X12896253Y-13824579D02*
X12905777Y-13805531D01*
X12905777Y-13805531D02*
X12915301Y-13796008D01*
X12915301Y-13796008D02*
X12934348Y-13786484D01*
X13067682Y-13786484D02*
X13191491Y-13786484D01*
X13191491Y-13786484D02*
X13124825Y-13862674D01*
X13124825Y-13862674D02*
X13153396Y-13862674D01*
X13153396Y-13862674D02*
X13172444Y-13872198D01*
X13172444Y-13872198D02*
X13181967Y-13881722D01*
X13181967Y-13881722D02*
X13191491Y-13900769D01*
X13191491Y-13900769D02*
X13191491Y-13948388D01*
X13191491Y-13948388D02*
X13181967Y-13967436D01*
X13181967Y-13967436D02*
X13172444Y-13976960D01*
X13172444Y-13976960D02*
X13153396Y-13986484D01*
X13153396Y-13986484D02*
X13096253Y-13986484D01*
X13096253Y-13986484D02*
X13077206Y-13976960D01*
X13077206Y-13976960D02*
X13067682Y-13967436D01*
X13381967Y-13986484D02*
X13267682Y-13986484D01*
X13324825Y-13986484D02*
X13324825Y-13786484D01*
X13324825Y-13786484D02*
X13305777Y-13815055D01*
X13305777Y-13815055D02*
X13286729Y-13834103D01*
X13286729Y-13834103D02*
X13267682Y-13843627D01*
X13562920Y-13786484D02*
X13467682Y-13786484D01*
X13467682Y-13786484D02*
X13458158Y-13881722D01*
X13458158Y-13881722D02*
X13467682Y-13872198D01*
X13467682Y-13872198D02*
X13486729Y-13862674D01*
X13486729Y-13862674D02*
X13534348Y-13862674D01*
X13534348Y-13862674D02*
X13553396Y-13872198D01*
X13553396Y-13872198D02*
X13562920Y-13881722D01*
X13562920Y-13881722D02*
X13572444Y-13900769D01*
X13572444Y-13900769D02*
X13572444Y-13948388D01*
X13572444Y-13948388D02*
X13562920Y-13967436D01*
X13562920Y-13967436D02*
X13553396Y-13976960D01*
X13553396Y-13976960D02*
X13534348Y-13986484D01*
X13534348Y-13986484D02*
X13486729Y-13986484D01*
X13486729Y-13986484D02*
X13467682Y-13976960D01*
X13467682Y-13976960D02*
X13458158Y-13967436D01*
X13648634Y-13786484D02*
X13648634Y-13824579D01*
X13724825Y-13786484D02*
X13724825Y-13824579D01*
X14020063Y-14062674D02*
X14010539Y-14053150D01*
X14010539Y-14053150D02*
X13991491Y-14024579D01*
X13991491Y-14024579D02*
X13981968Y-14005531D01*
X13981968Y-14005531D02*
X13972444Y-13976960D01*
X13972444Y-13976960D02*
X13962920Y-13929341D01*
X13962920Y-13929341D02*
X13962920Y-13891246D01*
X13962920Y-13891246D02*
X13972444Y-13843627D01*
X13972444Y-13843627D02*
X13981968Y-13815055D01*
X13981968Y-13815055D02*
X13991491Y-13796008D01*
X13991491Y-13796008D02*
X14010539Y-13767436D01*
X14010539Y-13767436D02*
X14020063Y-13757912D01*
X14086729Y-13805531D02*
X14096253Y-13796008D01*
X14096253Y-13796008D02*
X14115301Y-13786484D01*
X14115301Y-13786484D02*
X14162920Y-13786484D01*
X14162920Y-13786484D02*
X14181968Y-13796008D01*
X14181968Y-13796008D02*
X14191491Y-13805531D01*
X14191491Y-13805531D02*
X14201015Y-13824579D01*
X14201015Y-13824579D02*
X14201015Y-13843627D01*
X14201015Y-13843627D02*
X14191491Y-13872198D01*
X14191491Y-13872198D02*
X14077206Y-13986484D01*
X14077206Y-13986484D02*
X14201015Y-13986484D01*
X14277206Y-13805531D02*
X14286729Y-13796008D01*
X14286729Y-13796008D02*
X14305777Y-13786484D01*
X14305777Y-13786484D02*
X14353396Y-13786484D01*
X14353396Y-13786484D02*
X14372444Y-13796008D01*
X14372444Y-13796008D02*
X14381968Y-13805531D01*
X14381968Y-13805531D02*
X14391491Y-13824579D01*
X14391491Y-13824579D02*
X14391491Y-13843627D01*
X14391491Y-13843627D02*
X14381968Y-13872198D01*
X14381968Y-13872198D02*
X14267682Y-13986484D01*
X14267682Y-13986484D02*
X14391491Y-13986484D01*
X14629587Y-13986484D02*
X14629587Y-13786484D01*
X14715301Y-13986484D02*
X14715301Y-13881722D01*
X14715301Y-13881722D02*
X14705777Y-13862674D01*
X14705777Y-13862674D02*
X14686730Y-13853150D01*
X14686730Y-13853150D02*
X14658158Y-13853150D01*
X14658158Y-13853150D02*
X14639110Y-13862674D01*
X14639110Y-13862674D02*
X14629587Y-13872198D01*
X14839110Y-13986484D02*
X14820063Y-13976960D01*
X14820063Y-13976960D02*
X14810539Y-13967436D01*
X14810539Y-13967436D02*
X14801015Y-13948388D01*
X14801015Y-13948388D02*
X14801015Y-13891246D01*
X14801015Y-13891246D02*
X14810539Y-13872198D01*
X14810539Y-13872198D02*
X14820063Y-13862674D01*
X14820063Y-13862674D02*
X14839110Y-13853150D01*
X14839110Y-13853150D02*
X14867682Y-13853150D01*
X14867682Y-13853150D02*
X14886730Y-13862674D01*
X14886730Y-13862674D02*
X14896253Y-13872198D01*
X14896253Y-13872198D02*
X14905777Y-13891246D01*
X14905777Y-13891246D02*
X14905777Y-13948388D01*
X14905777Y-13948388D02*
X14896253Y-13967436D01*
X14896253Y-13967436D02*
X14886730Y-13976960D01*
X14886730Y-13976960D02*
X14867682Y-13986484D01*
X14867682Y-13986484D02*
X14839110Y-13986484D01*
X15020063Y-13986484D02*
X15001015Y-13976960D01*
X15001015Y-13976960D02*
X14991491Y-13957912D01*
X14991491Y-13957912D02*
X14991491Y-13786484D01*
X15172444Y-13976960D02*
X15153396Y-13986484D01*
X15153396Y-13986484D02*
X15115301Y-13986484D01*
X15115301Y-13986484D02*
X15096253Y-13976960D01*
X15096253Y-13976960D02*
X15086730Y-13957912D01*
X15086730Y-13957912D02*
X15086730Y-13881722D01*
X15086730Y-13881722D02*
X15096253Y-13862674D01*
X15096253Y-13862674D02*
X15115301Y-13853150D01*
X15115301Y-13853150D02*
X15153396Y-13853150D01*
X15153396Y-13853150D02*
X15172444Y-13862674D01*
X15172444Y-13862674D02*
X15181968Y-13881722D01*
X15181968Y-13881722D02*
X15181968Y-13900769D01*
X15181968Y-13900769D02*
X15086730Y-13919817D01*
X15258158Y-13976960D02*
X15277206Y-13986484D01*
X15277206Y-13986484D02*
X15315301Y-13986484D01*
X15315301Y-13986484D02*
X15334349Y-13976960D01*
X15334349Y-13976960D02*
X15343872Y-13957912D01*
X15343872Y-13957912D02*
X15343872Y-13948388D01*
X15343872Y-13948388D02*
X15334349Y-13929341D01*
X15334349Y-13929341D02*
X15315301Y-13919817D01*
X15315301Y-13919817D02*
X15286730Y-13919817D01*
X15286730Y-13919817D02*
X15267682Y-13910293D01*
X15267682Y-13910293D02*
X15258158Y-13891246D01*
X15258158Y-13891246D02*
X15258158Y-13881722D01*
X15258158Y-13881722D02*
X15267682Y-13862674D01*
X15267682Y-13862674D02*
X15286730Y-13853150D01*
X15286730Y-13853150D02*
X15315301Y-13853150D01*
X15315301Y-13853150D02*
X15334349Y-13862674D01*
X15410539Y-14062674D02*
X15420063Y-14053150D01*
X15420063Y-14053150D02*
X15439111Y-14024579D01*
X15439111Y-14024579D02*
X15448634Y-14005531D01*
X15448634Y-14005531D02*
X15458158Y-13976960D01*
X15458158Y-13976960D02*
X15467682Y-13929341D01*
X15467682Y-13929341D02*
X15467682Y-13891246D01*
X15467682Y-13891246D02*
X15458158Y-13843627D01*
X15458158Y-13843627D02*
X15448634Y-13815055D01*
X15448634Y-13815055D02*
X15439111Y-13796008D01*
X15439111Y-13796008D02*
X15420063Y-13767436D01*
X15420063Y-13767436D02*
X15410539Y-13757912D01*
D10*
X10445000Y-14159000D02*
G75*
G02*
X10355000Y-14159000I-45000J0D01*
G01*
X10355000Y-14159000D02*
G75*
G02*
X10445000Y-14159000I45000J0D01*
G01*
D11*
X10743872Y-14050484D02*
X10762920Y-14050484D01*
X10762920Y-14050484D02*
X10781967Y-14060008D01*
X10781967Y-14060008D02*
X10791491Y-14069531D01*
X10791491Y-14069531D02*
X10801015Y-14088579D01*
X10801015Y-14088579D02*
X10810539Y-14126674D01*
X10810539Y-14126674D02*
X10810539Y-14174293D01*
X10810539Y-14174293D02*
X10801015Y-14212388D01*
X10801015Y-14212388D02*
X10791491Y-14231436D01*
X10791491Y-14231436D02*
X10781967Y-14240960D01*
X10781967Y-14240960D02*
X10762920Y-14250484D01*
X10762920Y-14250484D02*
X10743872Y-14250484D01*
X10743872Y-14250484D02*
X10724824Y-14240960D01*
X10724824Y-14240960D02*
X10715301Y-14231436D01*
X10715301Y-14231436D02*
X10705777Y-14212388D01*
X10705777Y-14212388D02*
X10696253Y-14174293D01*
X10696253Y-14174293D02*
X10696253Y-14126674D01*
X10696253Y-14126674D02*
X10705777Y-14088579D01*
X10705777Y-14088579D02*
X10715301Y-14069531D01*
X10715301Y-14069531D02*
X10724824Y-14060008D01*
X10724824Y-14060008D02*
X10743872Y-14050484D01*
X10896253Y-14231436D02*
X10905777Y-14240960D01*
X10905777Y-14240960D02*
X10896253Y-14250484D01*
X10896253Y-14250484D02*
X10886729Y-14240960D01*
X10886729Y-14240960D02*
X10896253Y-14231436D01*
X10896253Y-14231436D02*
X10896253Y-14250484D01*
X11001015Y-14250484D02*
X11039110Y-14250484D01*
X11039110Y-14250484D02*
X11058158Y-14240960D01*
X11058158Y-14240960D02*
X11067682Y-14231436D01*
X11067682Y-14231436D02*
X11086729Y-14202865D01*
X11086729Y-14202865D02*
X11096253Y-14164769D01*
X11096253Y-14164769D02*
X11096253Y-14088579D01*
X11096253Y-14088579D02*
X11086729Y-14069531D01*
X11086729Y-14069531D02*
X11077205Y-14060008D01*
X11077205Y-14060008D02*
X11058158Y-14050484D01*
X11058158Y-14050484D02*
X11020063Y-14050484D01*
X11020063Y-14050484D02*
X11001015Y-14060008D01*
X11001015Y-14060008D02*
X10991491Y-14069531D01*
X10991491Y-14069531D02*
X10981967Y-14088579D01*
X10981967Y-14088579D02*
X10981967Y-14136198D01*
X10981967Y-14136198D02*
X10991491Y-14155246D01*
X10991491Y-14155246D02*
X11001015Y-14164769D01*
X11001015Y-14164769D02*
X11020063Y-14174293D01*
X11020063Y-14174293D02*
X11058158Y-14174293D01*
X11058158Y-14174293D02*
X11077205Y-14164769D01*
X11077205Y-14164769D02*
X11086729Y-14155246D01*
X11086729Y-14155246D02*
X11096253Y-14136198D01*
X11220062Y-14050484D02*
X11239110Y-14050484D01*
X11239110Y-14050484D02*
X11258158Y-14060008D01*
X11258158Y-14060008D02*
X11267682Y-14069531D01*
X11267682Y-14069531D02*
X11277205Y-14088579D01*
X11277205Y-14088579D02*
X11286729Y-14126674D01*
X11286729Y-14126674D02*
X11286729Y-14174293D01*
X11286729Y-14174293D02*
X11277205Y-14212388D01*
X11277205Y-14212388D02*
X11267682Y-14231436D01*
X11267682Y-14231436D02*
X11258158Y-14240960D01*
X11258158Y-14240960D02*
X11239110Y-14250484D01*
X11239110Y-14250484D02*
X11220062Y-14250484D01*
X11220062Y-14250484D02*
X11201015Y-14240960D01*
X11201015Y-14240960D02*
X11191491Y-14231436D01*
X11191491Y-14231436D02*
X11181967Y-14212388D01*
X11181967Y-14212388D02*
X11172444Y-14174293D01*
X11172444Y-14174293D02*
X11172444Y-14126674D01*
X11172444Y-14126674D02*
X11181967Y-14088579D01*
X11181967Y-14088579D02*
X11191491Y-14069531D01*
X11191491Y-14069531D02*
X11201015Y-14060008D01*
X11201015Y-14060008D02*
X11220062Y-14050484D01*
X11410539Y-14050484D02*
X11429586Y-14050484D01*
X11429586Y-14050484D02*
X11448634Y-14060008D01*
X11448634Y-14060008D02*
X11458158Y-14069531D01*
X11458158Y-14069531D02*
X11467682Y-14088579D01*
X11467682Y-14088579D02*
X11477205Y-14126674D01*
X11477205Y-14126674D02*
X11477205Y-14174293D01*
X11477205Y-14174293D02*
X11467682Y-14212388D01*
X11467682Y-14212388D02*
X11458158Y-14231436D01*
X11458158Y-14231436D02*
X11448634Y-14240960D01*
X11448634Y-14240960D02*
X11429586Y-14250484D01*
X11429586Y-14250484D02*
X11410539Y-14250484D01*
X11410539Y-14250484D02*
X11391491Y-14240960D01*
X11391491Y-14240960D02*
X11381967Y-14231436D01*
X11381967Y-14231436D02*
X11372443Y-14212388D01*
X11372443Y-14212388D02*
X11362920Y-14174293D01*
X11362920Y-14174293D02*
X11362920Y-14126674D01*
X11362920Y-14126674D02*
X11372443Y-14088579D01*
X11372443Y-14088579D02*
X11381967Y-14069531D01*
X11381967Y-14069531D02*
X11391491Y-14060008D01*
X11391491Y-14060008D02*
X11410539Y-14050484D01*
X11562920Y-14250484D02*
X11562920Y-14117150D01*
X11562920Y-14136198D02*
X11572443Y-14126674D01*
X11572443Y-14126674D02*
X11591491Y-14117150D01*
X11591491Y-14117150D02*
X11620063Y-14117150D01*
X11620063Y-14117150D02*
X11639110Y-14126674D01*
X11639110Y-14126674D02*
X11648634Y-14145722D01*
X11648634Y-14145722D02*
X11648634Y-14250484D01*
X11648634Y-14145722D02*
X11658158Y-14126674D01*
X11658158Y-14126674D02*
X11677205Y-14117150D01*
X11677205Y-14117150D02*
X11705777Y-14117150D01*
X11705777Y-14117150D02*
X11724824Y-14126674D01*
X11724824Y-14126674D02*
X11734348Y-14145722D01*
X11734348Y-14145722D02*
X11734348Y-14250484D01*
X11829586Y-14250484D02*
X11829586Y-14117150D01*
X11829586Y-14136198D02*
X11839110Y-14126674D01*
X11839110Y-14126674D02*
X11858158Y-14117150D01*
X11858158Y-14117150D02*
X11886729Y-14117150D01*
X11886729Y-14117150D02*
X11905777Y-14126674D01*
X11905777Y-14126674D02*
X11915301Y-14145722D01*
X11915301Y-14145722D02*
X11915301Y-14250484D01*
X11915301Y-14145722D02*
X11924824Y-14126674D01*
X11924824Y-14126674D02*
X11943872Y-14117150D01*
X11943872Y-14117150D02*
X11972443Y-14117150D01*
X11972443Y-14117150D02*
X11991491Y-14126674D01*
X11991491Y-14126674D02*
X12001015Y-14145722D01*
X12001015Y-14145722D02*
X12001015Y-14250484D01*
X12391491Y-14040960D02*
X12220063Y-14298103D01*
X12648634Y-14050484D02*
X12667682Y-14050484D01*
X12667682Y-14050484D02*
X12686729Y-14060008D01*
X12686729Y-14060008D02*
X12696253Y-14069531D01*
X12696253Y-14069531D02*
X12705777Y-14088579D01*
X12705777Y-14088579D02*
X12715301Y-14126674D01*
X12715301Y-14126674D02*
X12715301Y-14174293D01*
X12715301Y-14174293D02*
X12705777Y-14212388D01*
X12705777Y-14212388D02*
X12696253Y-14231436D01*
X12696253Y-14231436D02*
X12686729Y-14240960D01*
X12686729Y-14240960D02*
X12667682Y-14250484D01*
X12667682Y-14250484D02*
X12648634Y-14250484D01*
X12648634Y-14250484D02*
X12629586Y-14240960D01*
X12629586Y-14240960D02*
X12620063Y-14231436D01*
X12620063Y-14231436D02*
X12610539Y-14212388D01*
X12610539Y-14212388D02*
X12601015Y-14174293D01*
X12601015Y-14174293D02*
X12601015Y-14126674D01*
X12601015Y-14126674D02*
X12610539Y-14088579D01*
X12610539Y-14088579D02*
X12620063Y-14069531D01*
X12620063Y-14069531D02*
X12629586Y-14060008D01*
X12629586Y-14060008D02*
X12648634Y-14050484D01*
X12801015Y-14231436D02*
X12810539Y-14240960D01*
X12810539Y-14240960D02*
X12801015Y-14250484D01*
X12801015Y-14250484D02*
X12791491Y-14240960D01*
X12791491Y-14240960D02*
X12801015Y-14231436D01*
X12801015Y-14231436D02*
X12801015Y-14250484D01*
X12934348Y-14050484D02*
X12953396Y-14050484D01*
X12953396Y-14050484D02*
X12972444Y-14060008D01*
X12972444Y-14060008D02*
X12981967Y-14069531D01*
X12981967Y-14069531D02*
X12991491Y-14088579D01*
X12991491Y-14088579D02*
X13001015Y-14126674D01*
X13001015Y-14126674D02*
X13001015Y-14174293D01*
X13001015Y-14174293D02*
X12991491Y-14212388D01*
X12991491Y-14212388D02*
X12981967Y-14231436D01*
X12981967Y-14231436D02*
X12972444Y-14240960D01*
X12972444Y-14240960D02*
X12953396Y-14250484D01*
X12953396Y-14250484D02*
X12934348Y-14250484D01*
X12934348Y-14250484D02*
X12915301Y-14240960D01*
X12915301Y-14240960D02*
X12905777Y-14231436D01*
X12905777Y-14231436D02*
X12896253Y-14212388D01*
X12896253Y-14212388D02*
X12886729Y-14174293D01*
X12886729Y-14174293D02*
X12886729Y-14126674D01*
X12886729Y-14126674D02*
X12896253Y-14088579D01*
X12896253Y-14088579D02*
X12905777Y-14069531D01*
X12905777Y-14069531D02*
X12915301Y-14060008D01*
X12915301Y-14060008D02*
X12934348Y-14050484D01*
X13067682Y-14050484D02*
X13191491Y-14050484D01*
X13191491Y-14050484D02*
X13124825Y-14126674D01*
X13124825Y-14126674D02*
X13153396Y-14126674D01*
X13153396Y-14126674D02*
X13172444Y-14136198D01*
X13172444Y-14136198D02*
X13181967Y-14145722D01*
X13181967Y-14145722D02*
X13191491Y-14164769D01*
X13191491Y-14164769D02*
X13191491Y-14212388D01*
X13191491Y-14212388D02*
X13181967Y-14231436D01*
X13181967Y-14231436D02*
X13172444Y-14240960D01*
X13172444Y-14240960D02*
X13153396Y-14250484D01*
X13153396Y-14250484D02*
X13096253Y-14250484D01*
X13096253Y-14250484D02*
X13077206Y-14240960D01*
X13077206Y-14240960D02*
X13067682Y-14231436D01*
X13372444Y-14050484D02*
X13277206Y-14050484D01*
X13277206Y-14050484D02*
X13267682Y-14145722D01*
X13267682Y-14145722D02*
X13277206Y-14136198D01*
X13277206Y-14136198D02*
X13296253Y-14126674D01*
X13296253Y-14126674D02*
X13343872Y-14126674D01*
X13343872Y-14126674D02*
X13362920Y-14136198D01*
X13362920Y-14136198D02*
X13372444Y-14145722D01*
X13372444Y-14145722D02*
X13381967Y-14164769D01*
X13381967Y-14164769D02*
X13381967Y-14212388D01*
X13381967Y-14212388D02*
X13372444Y-14231436D01*
X13372444Y-14231436D02*
X13362920Y-14240960D01*
X13362920Y-14240960D02*
X13343872Y-14250484D01*
X13343872Y-14250484D02*
X13296253Y-14250484D01*
X13296253Y-14250484D02*
X13277206Y-14240960D01*
X13277206Y-14240960D02*
X13267682Y-14231436D01*
X13553396Y-14117150D02*
X13553396Y-14250484D01*
X13505777Y-14040960D02*
X13458158Y-14183817D01*
X13458158Y-14183817D02*
X13581967Y-14183817D01*
X13648634Y-14050484D02*
X13648634Y-14088579D01*
X13724825Y-14050484D02*
X13724825Y-14088579D01*
X14020063Y-14326674D02*
X14010539Y-14317150D01*
X14010539Y-14317150D02*
X13991491Y-14288579D01*
X13991491Y-14288579D02*
X13981968Y-14269531D01*
X13981968Y-14269531D02*
X13972444Y-14240960D01*
X13972444Y-14240960D02*
X13962920Y-14193341D01*
X13962920Y-14193341D02*
X13962920Y-14155246D01*
X13962920Y-14155246D02*
X13972444Y-14107627D01*
X13972444Y-14107627D02*
X13981968Y-14079055D01*
X13981968Y-14079055D02*
X13991491Y-14060008D01*
X13991491Y-14060008D02*
X14010539Y-14031436D01*
X14010539Y-14031436D02*
X14020063Y-14021912D01*
X14086729Y-14069531D02*
X14096253Y-14060008D01*
X14096253Y-14060008D02*
X14115301Y-14050484D01*
X14115301Y-14050484D02*
X14162920Y-14050484D01*
X14162920Y-14050484D02*
X14181968Y-14060008D01*
X14181968Y-14060008D02*
X14191491Y-14069531D01*
X14191491Y-14069531D02*
X14201015Y-14088579D01*
X14201015Y-14088579D02*
X14201015Y-14107627D01*
X14201015Y-14107627D02*
X14191491Y-14136198D01*
X14191491Y-14136198D02*
X14077206Y-14250484D01*
X14077206Y-14250484D02*
X14201015Y-14250484D01*
X14439110Y-14250484D02*
X14439110Y-14050484D01*
X14524825Y-14250484D02*
X14524825Y-14145722D01*
X14524825Y-14145722D02*
X14515301Y-14126674D01*
X14515301Y-14126674D02*
X14496253Y-14117150D01*
X14496253Y-14117150D02*
X14467682Y-14117150D01*
X14467682Y-14117150D02*
X14448634Y-14126674D01*
X14448634Y-14126674D02*
X14439110Y-14136198D01*
X14648634Y-14250484D02*
X14629587Y-14240960D01*
X14629587Y-14240960D02*
X14620063Y-14231436D01*
X14620063Y-14231436D02*
X14610539Y-14212388D01*
X14610539Y-14212388D02*
X14610539Y-14155246D01*
X14610539Y-14155246D02*
X14620063Y-14136198D01*
X14620063Y-14136198D02*
X14629587Y-14126674D01*
X14629587Y-14126674D02*
X14648634Y-14117150D01*
X14648634Y-14117150D02*
X14677206Y-14117150D01*
X14677206Y-14117150D02*
X14696253Y-14126674D01*
X14696253Y-14126674D02*
X14705777Y-14136198D01*
X14705777Y-14136198D02*
X14715301Y-14155246D01*
X14715301Y-14155246D02*
X14715301Y-14212388D01*
X14715301Y-14212388D02*
X14705777Y-14231436D01*
X14705777Y-14231436D02*
X14696253Y-14240960D01*
X14696253Y-14240960D02*
X14677206Y-14250484D01*
X14677206Y-14250484D02*
X14648634Y-14250484D01*
X14829587Y-14250484D02*
X14810539Y-14240960D01*
X14810539Y-14240960D02*
X14801015Y-14221912D01*
X14801015Y-14221912D02*
X14801015Y-14050484D01*
X14981968Y-14240960D02*
X14962920Y-14250484D01*
X14962920Y-14250484D02*
X14924825Y-14250484D01*
X14924825Y-14250484D02*
X14905777Y-14240960D01*
X14905777Y-14240960D02*
X14896253Y-14221912D01*
X14896253Y-14221912D02*
X14896253Y-14145722D01*
X14896253Y-14145722D02*
X14905777Y-14126674D01*
X14905777Y-14126674D02*
X14924825Y-14117150D01*
X14924825Y-14117150D02*
X14962920Y-14117150D01*
X14962920Y-14117150D02*
X14981968Y-14126674D01*
X14981968Y-14126674D02*
X14991491Y-14145722D01*
X14991491Y-14145722D02*
X14991491Y-14164769D01*
X14991491Y-14164769D02*
X14896253Y-14183817D01*
X15067682Y-14240960D02*
X15086730Y-14250484D01*
X15086730Y-14250484D02*
X15124825Y-14250484D01*
X15124825Y-14250484D02*
X15143872Y-14240960D01*
X15143872Y-14240960D02*
X15153396Y-14221912D01*
X15153396Y-14221912D02*
X15153396Y-14212388D01*
X15153396Y-14212388D02*
X15143872Y-14193341D01*
X15143872Y-14193341D02*
X15124825Y-14183817D01*
X15124825Y-14183817D02*
X15096253Y-14183817D01*
X15096253Y-14183817D02*
X15077206Y-14174293D01*
X15077206Y-14174293D02*
X15067682Y-14155246D01*
X15067682Y-14155246D02*
X15067682Y-14145722D01*
X15067682Y-14145722D02*
X15077206Y-14126674D01*
X15077206Y-14126674D02*
X15096253Y-14117150D01*
X15096253Y-14117150D02*
X15124825Y-14117150D01*
X15124825Y-14117150D02*
X15143872Y-14126674D01*
X15220063Y-14326674D02*
X15229587Y-14317150D01*
X15229587Y-14317150D02*
X15248634Y-14288579D01*
X15248634Y-14288579D02*
X15258158Y-14269531D01*
X15258158Y-14269531D02*
X15267682Y-14240960D01*
X15267682Y-14240960D02*
X15277206Y-14193341D01*
X15277206Y-14193341D02*
X15277206Y-14155246D01*
X15277206Y-14155246D02*
X15267682Y-14107627D01*
X15267682Y-14107627D02*
X15258158Y-14079055D01*
X15258158Y-14079055D02*
X15248634Y-14060008D01*
X15248634Y-14060008D02*
X15229587Y-14031436D01*
X15229587Y-14031436D02*
X15220063Y-14021912D01*
D10*
X10395000Y-14373000D02*
X10395000Y-14473000D01*
X10345000Y-14423000D02*
X10445000Y-14423000D01*
D11*
X10810539Y-14514484D02*
X10696253Y-14514484D01*
X10753396Y-14514484D02*
X10753396Y-14314484D01*
X10753396Y-14314484D02*
X10734348Y-14343055D01*
X10734348Y-14343055D02*
X10715301Y-14362103D01*
X10715301Y-14362103D02*
X10696253Y-14371627D01*
X10896253Y-14495436D02*
X10905777Y-14504960D01*
X10905777Y-14504960D02*
X10896253Y-14514484D01*
X10896253Y-14514484D02*
X10886729Y-14504960D01*
X10886729Y-14504960D02*
X10896253Y-14495436D01*
X10896253Y-14495436D02*
X10896253Y-14514484D01*
X11029586Y-14314484D02*
X11048634Y-14314484D01*
X11048634Y-14314484D02*
X11067682Y-14324008D01*
X11067682Y-14324008D02*
X11077205Y-14333531D01*
X11077205Y-14333531D02*
X11086729Y-14352579D01*
X11086729Y-14352579D02*
X11096253Y-14390674D01*
X11096253Y-14390674D02*
X11096253Y-14438293D01*
X11096253Y-14438293D02*
X11086729Y-14476388D01*
X11086729Y-14476388D02*
X11077205Y-14495436D01*
X11077205Y-14495436D02*
X11067682Y-14504960D01*
X11067682Y-14504960D02*
X11048634Y-14514484D01*
X11048634Y-14514484D02*
X11029586Y-14514484D01*
X11029586Y-14514484D02*
X11010539Y-14504960D01*
X11010539Y-14504960D02*
X11001015Y-14495436D01*
X11001015Y-14495436D02*
X10991491Y-14476388D01*
X10991491Y-14476388D02*
X10981967Y-14438293D01*
X10981967Y-14438293D02*
X10981967Y-14390674D01*
X10981967Y-14390674D02*
X10991491Y-14352579D01*
X10991491Y-14352579D02*
X11001015Y-14333531D01*
X11001015Y-14333531D02*
X11010539Y-14324008D01*
X11010539Y-14324008D02*
X11029586Y-14314484D01*
X11220062Y-14314484D02*
X11239110Y-14314484D01*
X11239110Y-14314484D02*
X11258158Y-14324008D01*
X11258158Y-14324008D02*
X11267682Y-14333531D01*
X11267682Y-14333531D02*
X11277205Y-14352579D01*
X11277205Y-14352579D02*
X11286729Y-14390674D01*
X11286729Y-14390674D02*
X11286729Y-14438293D01*
X11286729Y-14438293D02*
X11277205Y-14476388D01*
X11277205Y-14476388D02*
X11267682Y-14495436D01*
X11267682Y-14495436D02*
X11258158Y-14504960D01*
X11258158Y-14504960D02*
X11239110Y-14514484D01*
X11239110Y-14514484D02*
X11220062Y-14514484D01*
X11220062Y-14514484D02*
X11201015Y-14504960D01*
X11201015Y-14504960D02*
X11191491Y-14495436D01*
X11191491Y-14495436D02*
X11181967Y-14476388D01*
X11181967Y-14476388D02*
X11172444Y-14438293D01*
X11172444Y-14438293D02*
X11172444Y-14390674D01*
X11172444Y-14390674D02*
X11181967Y-14352579D01*
X11181967Y-14352579D02*
X11191491Y-14333531D01*
X11191491Y-14333531D02*
X11201015Y-14324008D01*
X11201015Y-14324008D02*
X11220062Y-14314484D01*
X11410539Y-14314484D02*
X11429586Y-14314484D01*
X11429586Y-14314484D02*
X11448634Y-14324008D01*
X11448634Y-14324008D02*
X11458158Y-14333531D01*
X11458158Y-14333531D02*
X11467682Y-14352579D01*
X11467682Y-14352579D02*
X11477205Y-14390674D01*
X11477205Y-14390674D02*
X11477205Y-14438293D01*
X11477205Y-14438293D02*
X11467682Y-14476388D01*
X11467682Y-14476388D02*
X11458158Y-14495436D01*
X11458158Y-14495436D02*
X11448634Y-14504960D01*
X11448634Y-14504960D02*
X11429586Y-14514484D01*
X11429586Y-14514484D02*
X11410539Y-14514484D01*
X11410539Y-14514484D02*
X11391491Y-14504960D01*
X11391491Y-14504960D02*
X11381967Y-14495436D01*
X11381967Y-14495436D02*
X11372443Y-14476388D01*
X11372443Y-14476388D02*
X11362920Y-14438293D01*
X11362920Y-14438293D02*
X11362920Y-14390674D01*
X11362920Y-14390674D02*
X11372443Y-14352579D01*
X11372443Y-14352579D02*
X11381967Y-14333531D01*
X11381967Y-14333531D02*
X11391491Y-14324008D01*
X11391491Y-14324008D02*
X11410539Y-14314484D01*
X11562920Y-14514484D02*
X11562920Y-14381150D01*
X11562920Y-14400198D02*
X11572443Y-14390674D01*
X11572443Y-14390674D02*
X11591491Y-14381150D01*
X11591491Y-14381150D02*
X11620063Y-14381150D01*
X11620063Y-14381150D02*
X11639110Y-14390674D01*
X11639110Y-14390674D02*
X11648634Y-14409722D01*
X11648634Y-14409722D02*
X11648634Y-14514484D01*
X11648634Y-14409722D02*
X11658158Y-14390674D01*
X11658158Y-14390674D02*
X11677205Y-14381150D01*
X11677205Y-14381150D02*
X11705777Y-14381150D01*
X11705777Y-14381150D02*
X11724824Y-14390674D01*
X11724824Y-14390674D02*
X11734348Y-14409722D01*
X11734348Y-14409722D02*
X11734348Y-14514484D01*
X11829586Y-14514484D02*
X11829586Y-14381150D01*
X11829586Y-14400198D02*
X11839110Y-14390674D01*
X11839110Y-14390674D02*
X11858158Y-14381150D01*
X11858158Y-14381150D02*
X11886729Y-14381150D01*
X11886729Y-14381150D02*
X11905777Y-14390674D01*
X11905777Y-14390674D02*
X11915301Y-14409722D01*
X11915301Y-14409722D02*
X11915301Y-14514484D01*
X11915301Y-14409722D02*
X11924824Y-14390674D01*
X11924824Y-14390674D02*
X11943872Y-14381150D01*
X11943872Y-14381150D02*
X11972443Y-14381150D01*
X11972443Y-14381150D02*
X11991491Y-14390674D01*
X11991491Y-14390674D02*
X12001015Y-14409722D01*
X12001015Y-14409722D02*
X12001015Y-14514484D01*
X12391491Y-14304960D02*
X12220063Y-14562103D01*
X12648634Y-14314484D02*
X12667682Y-14314484D01*
X12667682Y-14314484D02*
X12686729Y-14324008D01*
X12686729Y-14324008D02*
X12696253Y-14333531D01*
X12696253Y-14333531D02*
X12705777Y-14352579D01*
X12705777Y-14352579D02*
X12715301Y-14390674D01*
X12715301Y-14390674D02*
X12715301Y-14438293D01*
X12715301Y-14438293D02*
X12705777Y-14476388D01*
X12705777Y-14476388D02*
X12696253Y-14495436D01*
X12696253Y-14495436D02*
X12686729Y-14504960D01*
X12686729Y-14504960D02*
X12667682Y-14514484D01*
X12667682Y-14514484D02*
X12648634Y-14514484D01*
X12648634Y-14514484D02*
X12629586Y-14504960D01*
X12629586Y-14504960D02*
X12620063Y-14495436D01*
X12620063Y-14495436D02*
X12610539Y-14476388D01*
X12610539Y-14476388D02*
X12601015Y-14438293D01*
X12601015Y-14438293D02*
X12601015Y-14390674D01*
X12601015Y-14390674D02*
X12610539Y-14352579D01*
X12610539Y-14352579D02*
X12620063Y-14333531D01*
X12620063Y-14333531D02*
X12629586Y-14324008D01*
X12629586Y-14324008D02*
X12648634Y-14314484D01*
X12801015Y-14495436D02*
X12810539Y-14504960D01*
X12810539Y-14504960D02*
X12801015Y-14514484D01*
X12801015Y-14514484D02*
X12791491Y-14504960D01*
X12791491Y-14504960D02*
X12801015Y-14495436D01*
X12801015Y-14495436D02*
X12801015Y-14514484D01*
X12934348Y-14314484D02*
X12953396Y-14314484D01*
X12953396Y-14314484D02*
X12972444Y-14324008D01*
X12972444Y-14324008D02*
X12981967Y-14333531D01*
X12981967Y-14333531D02*
X12991491Y-14352579D01*
X12991491Y-14352579D02*
X13001015Y-14390674D01*
X13001015Y-14390674D02*
X13001015Y-14438293D01*
X13001015Y-14438293D02*
X12991491Y-14476388D01*
X12991491Y-14476388D02*
X12981967Y-14495436D01*
X12981967Y-14495436D02*
X12972444Y-14504960D01*
X12972444Y-14504960D02*
X12953396Y-14514484D01*
X12953396Y-14514484D02*
X12934348Y-14514484D01*
X12934348Y-14514484D02*
X12915301Y-14504960D01*
X12915301Y-14504960D02*
X12905777Y-14495436D01*
X12905777Y-14495436D02*
X12896253Y-14476388D01*
X12896253Y-14476388D02*
X12886729Y-14438293D01*
X12886729Y-14438293D02*
X12886729Y-14390674D01*
X12886729Y-14390674D02*
X12896253Y-14352579D01*
X12896253Y-14352579D02*
X12905777Y-14333531D01*
X12905777Y-14333531D02*
X12915301Y-14324008D01*
X12915301Y-14324008D02*
X12934348Y-14314484D01*
X13067682Y-14314484D02*
X13191491Y-14314484D01*
X13191491Y-14314484D02*
X13124825Y-14390674D01*
X13124825Y-14390674D02*
X13153396Y-14390674D01*
X13153396Y-14390674D02*
X13172444Y-14400198D01*
X13172444Y-14400198D02*
X13181967Y-14409722D01*
X13181967Y-14409722D02*
X13191491Y-14428769D01*
X13191491Y-14428769D02*
X13191491Y-14476388D01*
X13191491Y-14476388D02*
X13181967Y-14495436D01*
X13181967Y-14495436D02*
X13172444Y-14504960D01*
X13172444Y-14504960D02*
X13153396Y-14514484D01*
X13153396Y-14514484D02*
X13096253Y-14514484D01*
X13096253Y-14514484D02*
X13077206Y-14504960D01*
X13077206Y-14504960D02*
X13067682Y-14495436D01*
X13286729Y-14514484D02*
X13324825Y-14514484D01*
X13324825Y-14514484D02*
X13343872Y-14504960D01*
X13343872Y-14504960D02*
X13353396Y-14495436D01*
X13353396Y-14495436D02*
X13372444Y-14466865D01*
X13372444Y-14466865D02*
X13381967Y-14428769D01*
X13381967Y-14428769D02*
X13381967Y-14352579D01*
X13381967Y-14352579D02*
X13372444Y-14333531D01*
X13372444Y-14333531D02*
X13362920Y-14324008D01*
X13362920Y-14324008D02*
X13343872Y-14314484D01*
X13343872Y-14314484D02*
X13305777Y-14314484D01*
X13305777Y-14314484D02*
X13286729Y-14324008D01*
X13286729Y-14324008D02*
X13277206Y-14333531D01*
X13277206Y-14333531D02*
X13267682Y-14352579D01*
X13267682Y-14352579D02*
X13267682Y-14400198D01*
X13267682Y-14400198D02*
X13277206Y-14419246D01*
X13277206Y-14419246D02*
X13286729Y-14428769D01*
X13286729Y-14428769D02*
X13305777Y-14438293D01*
X13305777Y-14438293D02*
X13343872Y-14438293D01*
X13343872Y-14438293D02*
X13362920Y-14428769D01*
X13362920Y-14428769D02*
X13372444Y-14419246D01*
X13372444Y-14419246D02*
X13381967Y-14400198D01*
X13553396Y-14381150D02*
X13553396Y-14514484D01*
X13505777Y-14304960D02*
X13458158Y-14447817D01*
X13458158Y-14447817D02*
X13581967Y-14447817D01*
X13648634Y-14314484D02*
X13648634Y-14352579D01*
X13724825Y-14314484D02*
X13724825Y-14352579D01*
X14020063Y-14590674D02*
X14010539Y-14581150D01*
X14010539Y-14581150D02*
X13991491Y-14552579D01*
X13991491Y-14552579D02*
X13981968Y-14533531D01*
X13981968Y-14533531D02*
X13972444Y-14504960D01*
X13972444Y-14504960D02*
X13962920Y-14457341D01*
X13962920Y-14457341D02*
X13962920Y-14419246D01*
X13962920Y-14419246D02*
X13972444Y-14371627D01*
X13972444Y-14371627D02*
X13981968Y-14343055D01*
X13981968Y-14343055D02*
X13991491Y-14324008D01*
X13991491Y-14324008D02*
X14010539Y-14295436D01*
X14010539Y-14295436D02*
X14020063Y-14285912D01*
X14181968Y-14381150D02*
X14181968Y-14514484D01*
X14134348Y-14304960D02*
X14086729Y-14447817D01*
X14086729Y-14447817D02*
X14210539Y-14447817D01*
X14315301Y-14400198D02*
X14296253Y-14390674D01*
X14296253Y-14390674D02*
X14286729Y-14381150D01*
X14286729Y-14381150D02*
X14277206Y-14362103D01*
X14277206Y-14362103D02*
X14277206Y-14352579D01*
X14277206Y-14352579D02*
X14286729Y-14333531D01*
X14286729Y-14333531D02*
X14296253Y-14324008D01*
X14296253Y-14324008D02*
X14315301Y-14314484D01*
X14315301Y-14314484D02*
X14353396Y-14314484D01*
X14353396Y-14314484D02*
X14372444Y-14324008D01*
X14372444Y-14324008D02*
X14381968Y-14333531D01*
X14381968Y-14333531D02*
X14391491Y-14352579D01*
X14391491Y-14352579D02*
X14391491Y-14362103D01*
X14391491Y-14362103D02*
X14381968Y-14381150D01*
X14381968Y-14381150D02*
X14372444Y-14390674D01*
X14372444Y-14390674D02*
X14353396Y-14400198D01*
X14353396Y-14400198D02*
X14315301Y-14400198D01*
X14315301Y-14400198D02*
X14296253Y-14409722D01*
X14296253Y-14409722D02*
X14286729Y-14419246D01*
X14286729Y-14419246D02*
X14277206Y-14438293D01*
X14277206Y-14438293D02*
X14277206Y-14476388D01*
X14277206Y-14476388D02*
X14286729Y-14495436D01*
X14286729Y-14495436D02*
X14296253Y-14504960D01*
X14296253Y-14504960D02*
X14315301Y-14514484D01*
X14315301Y-14514484D02*
X14353396Y-14514484D01*
X14353396Y-14514484D02*
X14372444Y-14504960D01*
X14372444Y-14504960D02*
X14381968Y-14495436D01*
X14381968Y-14495436D02*
X14391491Y-14476388D01*
X14391491Y-14476388D02*
X14391491Y-14438293D01*
X14391491Y-14438293D02*
X14381968Y-14419246D01*
X14381968Y-14419246D02*
X14372444Y-14409722D01*
X14372444Y-14409722D02*
X14353396Y-14400198D01*
X14629587Y-14514484D02*
X14629587Y-14314484D01*
X14715301Y-14514484D02*
X14715301Y-14409722D01*
X14715301Y-14409722D02*
X14705777Y-14390674D01*
X14705777Y-14390674D02*
X14686730Y-14381150D01*
X14686730Y-14381150D02*
X14658158Y-14381150D01*
X14658158Y-14381150D02*
X14639110Y-14390674D01*
X14639110Y-14390674D02*
X14629587Y-14400198D01*
X14839110Y-14514484D02*
X14820063Y-14504960D01*
X14820063Y-14504960D02*
X14810539Y-14495436D01*
X14810539Y-14495436D02*
X14801015Y-14476388D01*
X14801015Y-14476388D02*
X14801015Y-14419246D01*
X14801015Y-14419246D02*
X14810539Y-14400198D01*
X14810539Y-14400198D02*
X14820063Y-14390674D01*
X14820063Y-14390674D02*
X14839110Y-14381150D01*
X14839110Y-14381150D02*
X14867682Y-14381150D01*
X14867682Y-14381150D02*
X14886730Y-14390674D01*
X14886730Y-14390674D02*
X14896253Y-14400198D01*
X14896253Y-14400198D02*
X14905777Y-14419246D01*
X14905777Y-14419246D02*
X14905777Y-14476388D01*
X14905777Y-14476388D02*
X14896253Y-14495436D01*
X14896253Y-14495436D02*
X14886730Y-14504960D01*
X14886730Y-14504960D02*
X14867682Y-14514484D01*
X14867682Y-14514484D02*
X14839110Y-14514484D01*
X15020063Y-14514484D02*
X15001015Y-14504960D01*
X15001015Y-14504960D02*
X14991491Y-14485912D01*
X14991491Y-14485912D02*
X14991491Y-14314484D01*
X15172444Y-14504960D02*
X15153396Y-14514484D01*
X15153396Y-14514484D02*
X15115301Y-14514484D01*
X15115301Y-14514484D02*
X15096253Y-14504960D01*
X15096253Y-14504960D02*
X15086730Y-14485912D01*
X15086730Y-14485912D02*
X15086730Y-14409722D01*
X15086730Y-14409722D02*
X15096253Y-14390674D01*
X15096253Y-14390674D02*
X15115301Y-14381150D01*
X15115301Y-14381150D02*
X15153396Y-14381150D01*
X15153396Y-14381150D02*
X15172444Y-14390674D01*
X15172444Y-14390674D02*
X15181968Y-14409722D01*
X15181968Y-14409722D02*
X15181968Y-14428769D01*
X15181968Y-14428769D02*
X15086730Y-14447817D01*
X15258158Y-14504960D02*
X15277206Y-14514484D01*
X15277206Y-14514484D02*
X15315301Y-14514484D01*
X15315301Y-14514484D02*
X15334349Y-14504960D01*
X15334349Y-14504960D02*
X15343872Y-14485912D01*
X15343872Y-14485912D02*
X15343872Y-14476388D01*
X15343872Y-14476388D02*
X15334349Y-14457341D01*
X15334349Y-14457341D02*
X15315301Y-14447817D01*
X15315301Y-14447817D02*
X15286730Y-14447817D01*
X15286730Y-14447817D02*
X15267682Y-14438293D01*
X15267682Y-14438293D02*
X15258158Y-14419246D01*
X15258158Y-14419246D02*
X15258158Y-14409722D01*
X15258158Y-14409722D02*
X15267682Y-14390674D01*
X15267682Y-14390674D02*
X15286730Y-14381150D01*
X15286730Y-14381150D02*
X15315301Y-14381150D01*
X15315301Y-14381150D02*
X15334349Y-14390674D01*
X15410539Y-14590674D02*
X15420063Y-14581150D01*
X15420063Y-14581150D02*
X15439111Y-14552579D01*
X15439111Y-14552579D02*
X15448634Y-14533531D01*
X15448634Y-14533531D02*
X15458158Y-14504960D01*
X15458158Y-14504960D02*
X15467682Y-14457341D01*
X15467682Y-14457341D02*
X15467682Y-14419246D01*
X15467682Y-14419246D02*
X15458158Y-14371627D01*
X15458158Y-14371627D02*
X15448634Y-14343055D01*
X15448634Y-14343055D02*
X15439111Y-14324008D01*
X15439111Y-14324008D02*
X15420063Y-14295436D01*
X15420063Y-14295436D02*
X15410539Y-14285912D01*
D12*
X10421569Y-14743569D02*
X10421569Y-14630431D01*
X10308431Y-14630431D01*
X10308431Y-14743569D01*
X10421569Y-14743569D01*
D11*
X10810539Y-14778484D02*
X10696253Y-14778484D01*
X10753396Y-14778484D02*
X10753396Y-14578484D01*
X10753396Y-14578484D02*
X10734348Y-14607055D01*
X10734348Y-14607055D02*
X10715301Y-14626103D01*
X10715301Y-14626103D02*
X10696253Y-14635627D01*
X10896253Y-14759436D02*
X10905777Y-14768960D01*
X10905777Y-14768960D02*
X10896253Y-14778484D01*
X10896253Y-14778484D02*
X10886729Y-14768960D01*
X10886729Y-14768960D02*
X10896253Y-14759436D01*
X10896253Y-14759436D02*
X10896253Y-14778484D01*
X11077205Y-14578484D02*
X11039110Y-14578484D01*
X11039110Y-14578484D02*
X11020063Y-14588008D01*
X11020063Y-14588008D02*
X11010539Y-14597531D01*
X11010539Y-14597531D02*
X10991491Y-14626103D01*
X10991491Y-14626103D02*
X10981967Y-14664198D01*
X10981967Y-14664198D02*
X10981967Y-14740388D01*
X10981967Y-14740388D02*
X10991491Y-14759436D01*
X10991491Y-14759436D02*
X11001015Y-14768960D01*
X11001015Y-14768960D02*
X11020063Y-14778484D01*
X11020063Y-14778484D02*
X11058158Y-14778484D01*
X11058158Y-14778484D02*
X11077205Y-14768960D01*
X11077205Y-14768960D02*
X11086729Y-14759436D01*
X11086729Y-14759436D02*
X11096253Y-14740388D01*
X11096253Y-14740388D02*
X11096253Y-14692769D01*
X11096253Y-14692769D02*
X11086729Y-14673722D01*
X11086729Y-14673722D02*
X11077205Y-14664198D01*
X11077205Y-14664198D02*
X11058158Y-14654674D01*
X11058158Y-14654674D02*
X11020063Y-14654674D01*
X11020063Y-14654674D02*
X11001015Y-14664198D01*
X11001015Y-14664198D02*
X10991491Y-14673722D01*
X10991491Y-14673722D02*
X10981967Y-14692769D01*
X11220062Y-14578484D02*
X11239110Y-14578484D01*
X11239110Y-14578484D02*
X11258158Y-14588008D01*
X11258158Y-14588008D02*
X11267682Y-14597531D01*
X11267682Y-14597531D02*
X11277205Y-14616579D01*
X11277205Y-14616579D02*
X11286729Y-14654674D01*
X11286729Y-14654674D02*
X11286729Y-14702293D01*
X11286729Y-14702293D02*
X11277205Y-14740388D01*
X11277205Y-14740388D02*
X11267682Y-14759436D01*
X11267682Y-14759436D02*
X11258158Y-14768960D01*
X11258158Y-14768960D02*
X11239110Y-14778484D01*
X11239110Y-14778484D02*
X11220062Y-14778484D01*
X11220062Y-14778484D02*
X11201015Y-14768960D01*
X11201015Y-14768960D02*
X11191491Y-14759436D01*
X11191491Y-14759436D02*
X11181967Y-14740388D01*
X11181967Y-14740388D02*
X11172444Y-14702293D01*
X11172444Y-14702293D02*
X11172444Y-14654674D01*
X11172444Y-14654674D02*
X11181967Y-14616579D01*
X11181967Y-14616579D02*
X11191491Y-14597531D01*
X11191491Y-14597531D02*
X11201015Y-14588008D01*
X11201015Y-14588008D02*
X11220062Y-14578484D01*
X11410539Y-14578484D02*
X11429586Y-14578484D01*
X11429586Y-14578484D02*
X11448634Y-14588008D01*
X11448634Y-14588008D02*
X11458158Y-14597531D01*
X11458158Y-14597531D02*
X11467682Y-14616579D01*
X11467682Y-14616579D02*
X11477205Y-14654674D01*
X11477205Y-14654674D02*
X11477205Y-14702293D01*
X11477205Y-14702293D02*
X11467682Y-14740388D01*
X11467682Y-14740388D02*
X11458158Y-14759436D01*
X11458158Y-14759436D02*
X11448634Y-14768960D01*
X11448634Y-14768960D02*
X11429586Y-14778484D01*
X11429586Y-14778484D02*
X11410539Y-14778484D01*
X11410539Y-14778484D02*
X11391491Y-14768960D01*
X11391491Y-14768960D02*
X11381967Y-14759436D01*
X11381967Y-14759436D02*
X11372443Y-14740388D01*
X11372443Y-14740388D02*
X11362920Y-14702293D01*
X11362920Y-14702293D02*
X11362920Y-14654674D01*
X11362920Y-14654674D02*
X11372443Y-14616579D01*
X11372443Y-14616579D02*
X11381967Y-14597531D01*
X11381967Y-14597531D02*
X11391491Y-14588008D01*
X11391491Y-14588008D02*
X11410539Y-14578484D01*
X11562920Y-14778484D02*
X11562920Y-14645150D01*
X11562920Y-14664198D02*
X11572443Y-14654674D01*
X11572443Y-14654674D02*
X11591491Y-14645150D01*
X11591491Y-14645150D02*
X11620063Y-14645150D01*
X11620063Y-14645150D02*
X11639110Y-14654674D01*
X11639110Y-14654674D02*
X11648634Y-14673722D01*
X11648634Y-14673722D02*
X11648634Y-14778484D01*
X11648634Y-14673722D02*
X11658158Y-14654674D01*
X11658158Y-14654674D02*
X11677205Y-14645150D01*
X11677205Y-14645150D02*
X11705777Y-14645150D01*
X11705777Y-14645150D02*
X11724824Y-14654674D01*
X11724824Y-14654674D02*
X11734348Y-14673722D01*
X11734348Y-14673722D02*
X11734348Y-14778484D01*
X11829586Y-14778484D02*
X11829586Y-14645150D01*
X11829586Y-14664198D02*
X11839110Y-14654674D01*
X11839110Y-14654674D02*
X11858158Y-14645150D01*
X11858158Y-14645150D02*
X11886729Y-14645150D01*
X11886729Y-14645150D02*
X11905777Y-14654674D01*
X11905777Y-14654674D02*
X11915301Y-14673722D01*
X11915301Y-14673722D02*
X11915301Y-14778484D01*
X11915301Y-14673722D02*
X11924824Y-14654674D01*
X11924824Y-14654674D02*
X11943872Y-14645150D01*
X11943872Y-14645150D02*
X11972443Y-14645150D01*
X11972443Y-14645150D02*
X11991491Y-14654674D01*
X11991491Y-14654674D02*
X12001015Y-14673722D01*
X12001015Y-14673722D02*
X12001015Y-14778484D01*
X12391491Y-14568960D02*
X12220063Y-14826103D01*
X12648634Y-14578484D02*
X12667682Y-14578484D01*
X12667682Y-14578484D02*
X12686729Y-14588008D01*
X12686729Y-14588008D02*
X12696253Y-14597531D01*
X12696253Y-14597531D02*
X12705777Y-14616579D01*
X12705777Y-14616579D02*
X12715301Y-14654674D01*
X12715301Y-14654674D02*
X12715301Y-14702293D01*
X12715301Y-14702293D02*
X12705777Y-14740388D01*
X12705777Y-14740388D02*
X12696253Y-14759436D01*
X12696253Y-14759436D02*
X12686729Y-14768960D01*
X12686729Y-14768960D02*
X12667682Y-14778484D01*
X12667682Y-14778484D02*
X12648634Y-14778484D01*
X12648634Y-14778484D02*
X12629586Y-14768960D01*
X12629586Y-14768960D02*
X12620063Y-14759436D01*
X12620063Y-14759436D02*
X12610539Y-14740388D01*
X12610539Y-14740388D02*
X12601015Y-14702293D01*
X12601015Y-14702293D02*
X12601015Y-14654674D01*
X12601015Y-14654674D02*
X12610539Y-14616579D01*
X12610539Y-14616579D02*
X12620063Y-14597531D01*
X12620063Y-14597531D02*
X12629586Y-14588008D01*
X12629586Y-14588008D02*
X12648634Y-14578484D01*
X12801015Y-14759436D02*
X12810539Y-14768960D01*
X12810539Y-14768960D02*
X12801015Y-14778484D01*
X12801015Y-14778484D02*
X12791491Y-14768960D01*
X12791491Y-14768960D02*
X12801015Y-14759436D01*
X12801015Y-14759436D02*
X12801015Y-14778484D01*
X12934348Y-14578484D02*
X12953396Y-14578484D01*
X12953396Y-14578484D02*
X12972444Y-14588008D01*
X12972444Y-14588008D02*
X12981967Y-14597531D01*
X12981967Y-14597531D02*
X12991491Y-14616579D01*
X12991491Y-14616579D02*
X13001015Y-14654674D01*
X13001015Y-14654674D02*
X13001015Y-14702293D01*
X13001015Y-14702293D02*
X12991491Y-14740388D01*
X12991491Y-14740388D02*
X12981967Y-14759436D01*
X12981967Y-14759436D02*
X12972444Y-14768960D01*
X12972444Y-14768960D02*
X12953396Y-14778484D01*
X12953396Y-14778484D02*
X12934348Y-14778484D01*
X12934348Y-14778484D02*
X12915301Y-14768960D01*
X12915301Y-14768960D02*
X12905777Y-14759436D01*
X12905777Y-14759436D02*
X12896253Y-14740388D01*
X12896253Y-14740388D02*
X12886729Y-14702293D01*
X12886729Y-14702293D02*
X12886729Y-14654674D01*
X12886729Y-14654674D02*
X12896253Y-14616579D01*
X12896253Y-14616579D02*
X12905777Y-14597531D01*
X12905777Y-14597531D02*
X12915301Y-14588008D01*
X12915301Y-14588008D02*
X12934348Y-14578484D01*
X13172444Y-14578484D02*
X13134348Y-14578484D01*
X13134348Y-14578484D02*
X13115301Y-14588008D01*
X13115301Y-14588008D02*
X13105777Y-14597531D01*
X13105777Y-14597531D02*
X13086729Y-14626103D01*
X13086729Y-14626103D02*
X13077206Y-14664198D01*
X13077206Y-14664198D02*
X13077206Y-14740388D01*
X13077206Y-14740388D02*
X13086729Y-14759436D01*
X13086729Y-14759436D02*
X13096253Y-14768960D01*
X13096253Y-14768960D02*
X13115301Y-14778484D01*
X13115301Y-14778484D02*
X13153396Y-14778484D01*
X13153396Y-14778484D02*
X13172444Y-14768960D01*
X13172444Y-14768960D02*
X13181967Y-14759436D01*
X13181967Y-14759436D02*
X13191491Y-14740388D01*
X13191491Y-14740388D02*
X13191491Y-14692769D01*
X13191491Y-14692769D02*
X13181967Y-14673722D01*
X13181967Y-14673722D02*
X13172444Y-14664198D01*
X13172444Y-14664198D02*
X13153396Y-14654674D01*
X13153396Y-14654674D02*
X13115301Y-14654674D01*
X13115301Y-14654674D02*
X13096253Y-14664198D01*
X13096253Y-14664198D02*
X13086729Y-14673722D01*
X13086729Y-14673722D02*
X13077206Y-14692769D01*
X13258158Y-14578484D02*
X13381967Y-14578484D01*
X13381967Y-14578484D02*
X13315301Y-14654674D01*
X13315301Y-14654674D02*
X13343872Y-14654674D01*
X13343872Y-14654674D02*
X13362920Y-14664198D01*
X13362920Y-14664198D02*
X13372444Y-14673722D01*
X13372444Y-14673722D02*
X13381967Y-14692769D01*
X13381967Y-14692769D02*
X13381967Y-14740388D01*
X13381967Y-14740388D02*
X13372444Y-14759436D01*
X13372444Y-14759436D02*
X13362920Y-14768960D01*
X13362920Y-14768960D02*
X13343872Y-14778484D01*
X13343872Y-14778484D02*
X13286729Y-14778484D01*
X13286729Y-14778484D02*
X13267682Y-14768960D01*
X13267682Y-14768960D02*
X13258158Y-14759436D01*
X13505777Y-14578484D02*
X13524825Y-14578484D01*
X13524825Y-14578484D02*
X13543872Y-14588008D01*
X13543872Y-14588008D02*
X13553396Y-14597531D01*
X13553396Y-14597531D02*
X13562920Y-14616579D01*
X13562920Y-14616579D02*
X13572444Y-14654674D01*
X13572444Y-14654674D02*
X13572444Y-14702293D01*
X13572444Y-14702293D02*
X13562920Y-14740388D01*
X13562920Y-14740388D02*
X13553396Y-14759436D01*
X13553396Y-14759436D02*
X13543872Y-14768960D01*
X13543872Y-14768960D02*
X13524825Y-14778484D01*
X13524825Y-14778484D02*
X13505777Y-14778484D01*
X13505777Y-14778484D02*
X13486729Y-14768960D01*
X13486729Y-14768960D02*
X13477206Y-14759436D01*
X13477206Y-14759436D02*
X13467682Y-14740388D01*
X13467682Y-14740388D02*
X13458158Y-14702293D01*
X13458158Y-14702293D02*
X13458158Y-14654674D01*
X13458158Y-14654674D02*
X13467682Y-14616579D01*
X13467682Y-14616579D02*
X13477206Y-14597531D01*
X13477206Y-14597531D02*
X13486729Y-14588008D01*
X13486729Y-14588008D02*
X13505777Y-14578484D01*
X13648634Y-14578484D02*
X13648634Y-14616579D01*
X13724825Y-14578484D02*
X13724825Y-14616579D01*
X14020063Y-14854674D02*
X14010539Y-14845150D01*
X14010539Y-14845150D02*
X13991491Y-14816579D01*
X13991491Y-14816579D02*
X13981968Y-14797531D01*
X13981968Y-14797531D02*
X13972444Y-14768960D01*
X13972444Y-14768960D02*
X13962920Y-14721341D01*
X13962920Y-14721341D02*
X13962920Y-14683246D01*
X13962920Y-14683246D02*
X13972444Y-14635627D01*
X13972444Y-14635627D02*
X13981968Y-14607055D01*
X13981968Y-14607055D02*
X13991491Y-14588008D01*
X13991491Y-14588008D02*
X14010539Y-14559436D01*
X14010539Y-14559436D02*
X14020063Y-14549912D01*
X14086729Y-14597531D02*
X14096253Y-14588008D01*
X14096253Y-14588008D02*
X14115301Y-14578484D01*
X14115301Y-14578484D02*
X14162920Y-14578484D01*
X14162920Y-14578484D02*
X14181968Y-14588008D01*
X14181968Y-14588008D02*
X14191491Y-14597531D01*
X14191491Y-14597531D02*
X14201015Y-14616579D01*
X14201015Y-14616579D02*
X14201015Y-14635627D01*
X14201015Y-14635627D02*
X14191491Y-14664198D01*
X14191491Y-14664198D02*
X14077206Y-14778484D01*
X14077206Y-14778484D02*
X14201015Y-14778484D01*
X14439110Y-14778484D02*
X14439110Y-14578484D01*
X14524825Y-14778484D02*
X14524825Y-14673722D01*
X14524825Y-14673722D02*
X14515301Y-14654674D01*
X14515301Y-14654674D02*
X14496253Y-14645150D01*
X14496253Y-14645150D02*
X14467682Y-14645150D01*
X14467682Y-14645150D02*
X14448634Y-14654674D01*
X14448634Y-14654674D02*
X14439110Y-14664198D01*
X14648634Y-14778484D02*
X14629587Y-14768960D01*
X14629587Y-14768960D02*
X14620063Y-14759436D01*
X14620063Y-14759436D02*
X14610539Y-14740388D01*
X14610539Y-14740388D02*
X14610539Y-14683246D01*
X14610539Y-14683246D02*
X14620063Y-14664198D01*
X14620063Y-14664198D02*
X14629587Y-14654674D01*
X14629587Y-14654674D02*
X14648634Y-14645150D01*
X14648634Y-14645150D02*
X14677206Y-14645150D01*
X14677206Y-14645150D02*
X14696253Y-14654674D01*
X14696253Y-14654674D02*
X14705777Y-14664198D01*
X14705777Y-14664198D02*
X14715301Y-14683246D01*
X14715301Y-14683246D02*
X14715301Y-14740388D01*
X14715301Y-14740388D02*
X14705777Y-14759436D01*
X14705777Y-14759436D02*
X14696253Y-14768960D01*
X14696253Y-14768960D02*
X14677206Y-14778484D01*
X14677206Y-14778484D02*
X14648634Y-14778484D01*
X14829587Y-14778484D02*
X14810539Y-14768960D01*
X14810539Y-14768960D02*
X14801015Y-14749912D01*
X14801015Y-14749912D02*
X14801015Y-14578484D01*
X14981968Y-14768960D02*
X14962920Y-14778484D01*
X14962920Y-14778484D02*
X14924825Y-14778484D01*
X14924825Y-14778484D02*
X14905777Y-14768960D01*
X14905777Y-14768960D02*
X14896253Y-14749912D01*
X14896253Y-14749912D02*
X14896253Y-14673722D01*
X14896253Y-14673722D02*
X14905777Y-14654674D01*
X14905777Y-14654674D02*
X14924825Y-14645150D01*
X14924825Y-14645150D02*
X14962920Y-14645150D01*
X14962920Y-14645150D02*
X14981968Y-14654674D01*
X14981968Y-14654674D02*
X14991491Y-14673722D01*
X14991491Y-14673722D02*
X14991491Y-14692769D01*
X14991491Y-14692769D02*
X14896253Y-14711817D01*
X15067682Y-14768960D02*
X15086730Y-14778484D01*
X15086730Y-14778484D02*
X15124825Y-14778484D01*
X15124825Y-14778484D02*
X15143872Y-14768960D01*
X15143872Y-14768960D02*
X15153396Y-14749912D01*
X15153396Y-14749912D02*
X15153396Y-14740388D01*
X15153396Y-14740388D02*
X15143872Y-14721341D01*
X15143872Y-14721341D02*
X15124825Y-14711817D01*
X15124825Y-14711817D02*
X15096253Y-14711817D01*
X15096253Y-14711817D02*
X15077206Y-14702293D01*
X15077206Y-14702293D02*
X15067682Y-14683246D01*
X15067682Y-14683246D02*
X15067682Y-14673722D01*
X15067682Y-14673722D02*
X15077206Y-14654674D01*
X15077206Y-14654674D02*
X15096253Y-14645150D01*
X15096253Y-14645150D02*
X15124825Y-14645150D01*
X15124825Y-14645150D02*
X15143872Y-14654674D01*
X15220063Y-14854674D02*
X15229587Y-14845150D01*
X15229587Y-14845150D02*
X15248634Y-14816579D01*
X15248634Y-14816579D02*
X15258158Y-14797531D01*
X15258158Y-14797531D02*
X15267682Y-14768960D01*
X15267682Y-14768960D02*
X15277206Y-14721341D01*
X15277206Y-14721341D02*
X15277206Y-14683246D01*
X15277206Y-14683246D02*
X15267682Y-14635627D01*
X15267682Y-14635627D02*
X15258158Y-14607055D01*
X15258158Y-14607055D02*
X15248634Y-14588008D01*
X15248634Y-14588008D02*
X15229587Y-14559436D01*
X15229587Y-14559436D02*
X15220063Y-14549912D01*
X10345000Y-15067000D02*
X10445000Y-14967000D01*
X10345000Y-14867000D01*
X10245000Y-14967000D01*
X10345000Y-15067000D01*
X10686729Y-14858484D02*
X10810539Y-14858484D01*
X10810539Y-14858484D02*
X10743872Y-14934674D01*
X10743872Y-14934674D02*
X10772444Y-14934674D01*
X10772444Y-14934674D02*
X10791491Y-14944198D01*
X10791491Y-14944198D02*
X10801015Y-14953722D01*
X10801015Y-14953722D02*
X10810539Y-14972769D01*
X10810539Y-14972769D02*
X10810539Y-15020388D01*
X10810539Y-15020388D02*
X10801015Y-15039436D01*
X10801015Y-15039436D02*
X10791491Y-15048960D01*
X10791491Y-15048960D02*
X10772444Y-15058484D01*
X10772444Y-15058484D02*
X10715301Y-15058484D01*
X10715301Y-15058484D02*
X10696253Y-15048960D01*
X10696253Y-15048960D02*
X10686729Y-15039436D01*
X10896253Y-15039436D02*
X10905777Y-15048960D01*
X10905777Y-15048960D02*
X10896253Y-15058484D01*
X10896253Y-15058484D02*
X10886729Y-15048960D01*
X10886729Y-15048960D02*
X10896253Y-15039436D01*
X10896253Y-15039436D02*
X10896253Y-15058484D01*
X10981967Y-14877531D02*
X10991491Y-14868008D01*
X10991491Y-14868008D02*
X11010539Y-14858484D01*
X11010539Y-14858484D02*
X11058158Y-14858484D01*
X11058158Y-14858484D02*
X11077205Y-14868008D01*
X11077205Y-14868008D02*
X11086729Y-14877531D01*
X11086729Y-14877531D02*
X11096253Y-14896579D01*
X11096253Y-14896579D02*
X11096253Y-14915627D01*
X11096253Y-14915627D02*
X11086729Y-14944198D01*
X11086729Y-14944198D02*
X10972444Y-15058484D01*
X10972444Y-15058484D02*
X11096253Y-15058484D01*
X11220062Y-14858484D02*
X11239110Y-14858484D01*
X11239110Y-14858484D02*
X11258158Y-14868008D01*
X11258158Y-14868008D02*
X11267682Y-14877531D01*
X11267682Y-14877531D02*
X11277205Y-14896579D01*
X11277205Y-14896579D02*
X11286729Y-14934674D01*
X11286729Y-14934674D02*
X11286729Y-14982293D01*
X11286729Y-14982293D02*
X11277205Y-15020388D01*
X11277205Y-15020388D02*
X11267682Y-15039436D01*
X11267682Y-15039436D02*
X11258158Y-15048960D01*
X11258158Y-15048960D02*
X11239110Y-15058484D01*
X11239110Y-15058484D02*
X11220062Y-15058484D01*
X11220062Y-15058484D02*
X11201015Y-15048960D01*
X11201015Y-15048960D02*
X11191491Y-15039436D01*
X11191491Y-15039436D02*
X11181967Y-15020388D01*
X11181967Y-15020388D02*
X11172444Y-14982293D01*
X11172444Y-14982293D02*
X11172444Y-14934674D01*
X11172444Y-14934674D02*
X11181967Y-14896579D01*
X11181967Y-14896579D02*
X11191491Y-14877531D01*
X11191491Y-14877531D02*
X11201015Y-14868008D01*
X11201015Y-14868008D02*
X11220062Y-14858484D01*
X11410539Y-14858484D02*
X11429586Y-14858484D01*
X11429586Y-14858484D02*
X11448634Y-14868008D01*
X11448634Y-14868008D02*
X11458158Y-14877531D01*
X11458158Y-14877531D02*
X11467682Y-14896579D01*
X11467682Y-14896579D02*
X11477205Y-14934674D01*
X11477205Y-14934674D02*
X11477205Y-14982293D01*
X11477205Y-14982293D02*
X11467682Y-15020388D01*
X11467682Y-15020388D02*
X11458158Y-15039436D01*
X11458158Y-15039436D02*
X11448634Y-15048960D01*
X11448634Y-15048960D02*
X11429586Y-15058484D01*
X11429586Y-15058484D02*
X11410539Y-15058484D01*
X11410539Y-15058484D02*
X11391491Y-15048960D01*
X11391491Y-15048960D02*
X11381967Y-15039436D01*
X11381967Y-15039436D02*
X11372443Y-15020388D01*
X11372443Y-15020388D02*
X11362920Y-14982293D01*
X11362920Y-14982293D02*
X11362920Y-14934674D01*
X11362920Y-14934674D02*
X11372443Y-14896579D01*
X11372443Y-14896579D02*
X11381967Y-14877531D01*
X11381967Y-14877531D02*
X11391491Y-14868008D01*
X11391491Y-14868008D02*
X11410539Y-14858484D01*
X11562920Y-15058484D02*
X11562920Y-14925150D01*
X11562920Y-14944198D02*
X11572443Y-14934674D01*
X11572443Y-14934674D02*
X11591491Y-14925150D01*
X11591491Y-14925150D02*
X11620063Y-14925150D01*
X11620063Y-14925150D02*
X11639110Y-14934674D01*
X11639110Y-14934674D02*
X11648634Y-14953722D01*
X11648634Y-14953722D02*
X11648634Y-15058484D01*
X11648634Y-14953722D02*
X11658158Y-14934674D01*
X11658158Y-14934674D02*
X11677205Y-14925150D01*
X11677205Y-14925150D02*
X11705777Y-14925150D01*
X11705777Y-14925150D02*
X11724824Y-14934674D01*
X11724824Y-14934674D02*
X11734348Y-14953722D01*
X11734348Y-14953722D02*
X11734348Y-15058484D01*
X11829586Y-15058484D02*
X11829586Y-14925150D01*
X11829586Y-14944198D02*
X11839110Y-14934674D01*
X11839110Y-14934674D02*
X11858158Y-14925150D01*
X11858158Y-14925150D02*
X11886729Y-14925150D01*
X11886729Y-14925150D02*
X11905777Y-14934674D01*
X11905777Y-14934674D02*
X11915301Y-14953722D01*
X11915301Y-14953722D02*
X11915301Y-15058484D01*
X11915301Y-14953722D02*
X11924824Y-14934674D01*
X11924824Y-14934674D02*
X11943872Y-14925150D01*
X11943872Y-14925150D02*
X11972443Y-14925150D01*
X11972443Y-14925150D02*
X11991491Y-14934674D01*
X11991491Y-14934674D02*
X12001015Y-14953722D01*
X12001015Y-14953722D02*
X12001015Y-15058484D01*
X12391491Y-14848960D02*
X12220063Y-15106103D01*
X12648634Y-14858484D02*
X12667682Y-14858484D01*
X12667682Y-14858484D02*
X12686729Y-14868008D01*
X12686729Y-14868008D02*
X12696253Y-14877531D01*
X12696253Y-14877531D02*
X12705777Y-14896579D01*
X12705777Y-14896579D02*
X12715301Y-14934674D01*
X12715301Y-14934674D02*
X12715301Y-14982293D01*
X12715301Y-14982293D02*
X12705777Y-15020388D01*
X12705777Y-15020388D02*
X12696253Y-15039436D01*
X12696253Y-15039436D02*
X12686729Y-15048960D01*
X12686729Y-15048960D02*
X12667682Y-15058484D01*
X12667682Y-15058484D02*
X12648634Y-15058484D01*
X12648634Y-15058484D02*
X12629586Y-15048960D01*
X12629586Y-15048960D02*
X12620063Y-15039436D01*
X12620063Y-15039436D02*
X12610539Y-15020388D01*
X12610539Y-15020388D02*
X12601015Y-14982293D01*
X12601015Y-14982293D02*
X12601015Y-14934674D01*
X12601015Y-14934674D02*
X12610539Y-14896579D01*
X12610539Y-14896579D02*
X12620063Y-14877531D01*
X12620063Y-14877531D02*
X12629586Y-14868008D01*
X12629586Y-14868008D02*
X12648634Y-14858484D01*
X12801015Y-15039436D02*
X12810539Y-15048960D01*
X12810539Y-15048960D02*
X12801015Y-15058484D01*
X12801015Y-15058484D02*
X12791491Y-15048960D01*
X12791491Y-15048960D02*
X12801015Y-15039436D01*
X12801015Y-15039436D02*
X12801015Y-15058484D01*
X13001015Y-15058484D02*
X12886729Y-15058484D01*
X12943872Y-15058484D02*
X12943872Y-14858484D01*
X12943872Y-14858484D02*
X12924825Y-14887055D01*
X12924825Y-14887055D02*
X12905777Y-14906103D01*
X12905777Y-14906103D02*
X12886729Y-14915627D01*
X13077206Y-14877531D02*
X13086729Y-14868008D01*
X13086729Y-14868008D02*
X13105777Y-14858484D01*
X13105777Y-14858484D02*
X13153396Y-14858484D01*
X13153396Y-14858484D02*
X13172444Y-14868008D01*
X13172444Y-14868008D02*
X13181967Y-14877531D01*
X13181967Y-14877531D02*
X13191491Y-14896579D01*
X13191491Y-14896579D02*
X13191491Y-14915627D01*
X13191491Y-14915627D02*
X13181967Y-14944198D01*
X13181967Y-14944198D02*
X13067682Y-15058484D01*
X13067682Y-15058484D02*
X13191491Y-15058484D01*
X13362920Y-14858484D02*
X13324825Y-14858484D01*
X13324825Y-14858484D02*
X13305777Y-14868008D01*
X13305777Y-14868008D02*
X13296253Y-14877531D01*
X13296253Y-14877531D02*
X13277206Y-14906103D01*
X13277206Y-14906103D02*
X13267682Y-14944198D01*
X13267682Y-14944198D02*
X13267682Y-15020388D01*
X13267682Y-15020388D02*
X13277206Y-15039436D01*
X13277206Y-15039436D02*
X13286729Y-15048960D01*
X13286729Y-15048960D02*
X13305777Y-15058484D01*
X13305777Y-15058484D02*
X13343872Y-15058484D01*
X13343872Y-15058484D02*
X13362920Y-15048960D01*
X13362920Y-15048960D02*
X13372444Y-15039436D01*
X13372444Y-15039436D02*
X13381967Y-15020388D01*
X13381967Y-15020388D02*
X13381967Y-14972769D01*
X13381967Y-14972769D02*
X13372444Y-14953722D01*
X13372444Y-14953722D02*
X13362920Y-14944198D01*
X13362920Y-14944198D02*
X13343872Y-14934674D01*
X13343872Y-14934674D02*
X13305777Y-14934674D01*
X13305777Y-14934674D02*
X13286729Y-14944198D01*
X13286729Y-14944198D02*
X13277206Y-14953722D01*
X13277206Y-14953722D02*
X13267682Y-14972769D01*
X13505777Y-14858484D02*
X13524825Y-14858484D01*
X13524825Y-14858484D02*
X13543872Y-14868008D01*
X13543872Y-14868008D02*
X13553396Y-14877531D01*
X13553396Y-14877531D02*
X13562920Y-14896579D01*
X13562920Y-14896579D02*
X13572444Y-14934674D01*
X13572444Y-14934674D02*
X13572444Y-14982293D01*
X13572444Y-14982293D02*
X13562920Y-15020388D01*
X13562920Y-15020388D02*
X13553396Y-15039436D01*
X13553396Y-15039436D02*
X13543872Y-15048960D01*
X13543872Y-15048960D02*
X13524825Y-15058484D01*
X13524825Y-15058484D02*
X13505777Y-15058484D01*
X13505777Y-15058484D02*
X13486729Y-15048960D01*
X13486729Y-15048960D02*
X13477206Y-15039436D01*
X13477206Y-15039436D02*
X13467682Y-15020388D01*
X13467682Y-15020388D02*
X13458158Y-14982293D01*
X13458158Y-14982293D02*
X13458158Y-14934674D01*
X13458158Y-14934674D02*
X13467682Y-14896579D01*
X13467682Y-14896579D02*
X13477206Y-14877531D01*
X13477206Y-14877531D02*
X13486729Y-14868008D01*
X13486729Y-14868008D02*
X13505777Y-14858484D01*
X13648634Y-14858484D02*
X13648634Y-14896579D01*
X13724825Y-14858484D02*
X13724825Y-14896579D01*
X14020063Y-15134674D02*
X14010539Y-15125150D01*
X14010539Y-15125150D02*
X13991491Y-15096579D01*
X13991491Y-15096579D02*
X13981968Y-15077531D01*
X13981968Y-15077531D02*
X13972444Y-15048960D01*
X13972444Y-15048960D02*
X13962920Y-15001341D01*
X13962920Y-15001341D02*
X13962920Y-14963246D01*
X13962920Y-14963246D02*
X13972444Y-14915627D01*
X13972444Y-14915627D02*
X13981968Y-14887055D01*
X13981968Y-14887055D02*
X13991491Y-14868008D01*
X13991491Y-14868008D02*
X14010539Y-14839436D01*
X14010539Y-14839436D02*
X14020063Y-14829912D01*
X14181968Y-14925150D02*
X14181968Y-15058484D01*
X14134348Y-14848960D02*
X14086729Y-14991817D01*
X14086729Y-14991817D02*
X14210539Y-14991817D01*
X14439110Y-15058484D02*
X14439110Y-14858484D01*
X14524825Y-15058484D02*
X14524825Y-14953722D01*
X14524825Y-14953722D02*
X14515301Y-14934674D01*
X14515301Y-14934674D02*
X14496253Y-14925150D01*
X14496253Y-14925150D02*
X14467682Y-14925150D01*
X14467682Y-14925150D02*
X14448634Y-14934674D01*
X14448634Y-14934674D02*
X14439110Y-14944198D01*
X14648634Y-15058484D02*
X14629587Y-15048960D01*
X14629587Y-15048960D02*
X14620063Y-15039436D01*
X14620063Y-15039436D02*
X14610539Y-15020388D01*
X14610539Y-15020388D02*
X14610539Y-14963246D01*
X14610539Y-14963246D02*
X14620063Y-14944198D01*
X14620063Y-14944198D02*
X14629587Y-14934674D01*
X14629587Y-14934674D02*
X14648634Y-14925150D01*
X14648634Y-14925150D02*
X14677206Y-14925150D01*
X14677206Y-14925150D02*
X14696253Y-14934674D01*
X14696253Y-14934674D02*
X14705777Y-14944198D01*
X14705777Y-14944198D02*
X14715301Y-14963246D01*
X14715301Y-14963246D02*
X14715301Y-15020388D01*
X14715301Y-15020388D02*
X14705777Y-15039436D01*
X14705777Y-15039436D02*
X14696253Y-15048960D01*
X14696253Y-15048960D02*
X14677206Y-15058484D01*
X14677206Y-15058484D02*
X14648634Y-15058484D01*
X14829587Y-15058484D02*
X14810539Y-15048960D01*
X14810539Y-15048960D02*
X14801015Y-15029912D01*
X14801015Y-15029912D02*
X14801015Y-14858484D01*
X14981968Y-15048960D02*
X14962920Y-15058484D01*
X14962920Y-15058484D02*
X14924825Y-15058484D01*
X14924825Y-15058484D02*
X14905777Y-15048960D01*
X14905777Y-15048960D02*
X14896253Y-15029912D01*
X14896253Y-15029912D02*
X14896253Y-14953722D01*
X14896253Y-14953722D02*
X14905777Y-14934674D01*
X14905777Y-14934674D02*
X14924825Y-14925150D01*
X14924825Y-14925150D02*
X14962920Y-14925150D01*
X14962920Y-14925150D02*
X14981968Y-14934674D01*
X14981968Y-14934674D02*
X14991491Y-14953722D01*
X14991491Y-14953722D02*
X14991491Y-14972769D01*
X14991491Y-14972769D02*
X14896253Y-14991817D01*
X15067682Y-15048960D02*
X15086730Y-15058484D01*
X15086730Y-15058484D02*
X15124825Y-15058484D01*
X15124825Y-15058484D02*
X15143872Y-15048960D01*
X15143872Y-15048960D02*
X15153396Y-15029912D01*
X15153396Y-15029912D02*
X15153396Y-15020388D01*
X15153396Y-15020388D02*
X15143872Y-15001341D01*
X15143872Y-15001341D02*
X15124825Y-14991817D01*
X15124825Y-14991817D02*
X15096253Y-14991817D01*
X15096253Y-14991817D02*
X15077206Y-14982293D01*
X15077206Y-14982293D02*
X15067682Y-14963246D01*
X15067682Y-14963246D02*
X15067682Y-14953722D01*
X15067682Y-14953722D02*
X15077206Y-14934674D01*
X15077206Y-14934674D02*
X15096253Y-14925150D01*
X15096253Y-14925150D02*
X15124825Y-14925150D01*
X15124825Y-14925150D02*
X15143872Y-14934674D01*
X15220063Y-15134674D02*
X15229587Y-15125150D01*
X15229587Y-15125150D02*
X15248634Y-15096579D01*
X15248634Y-15096579D02*
X15258158Y-15077531D01*
X15258158Y-15077531D02*
X15267682Y-15048960D01*
X15267682Y-15048960D02*
X15277206Y-15001341D01*
X15277206Y-15001341D02*
X15277206Y-14963246D01*
X15277206Y-14963246D02*
X15267682Y-14915627D01*
X15267682Y-14915627D02*
X15258158Y-14887055D01*
X15258158Y-14887055D02*
X15248634Y-14868008D01*
X15248634Y-14868008D02*
X15229587Y-14839436D01*
X15229587Y-14839436D02*
X15220063Y-14829912D01*
X15581968Y-15134674D02*
X15572444Y-15125150D01*
X15572444Y-15125150D02*
X15553396Y-15096579D01*
X15553396Y-15096579D02*
X15543872Y-15077531D01*
X15543872Y-15077531D02*
X15534349Y-15048960D01*
X15534349Y-15048960D02*
X15524825Y-15001341D01*
X15524825Y-15001341D02*
X15524825Y-14963246D01*
X15524825Y-14963246D02*
X15534349Y-14915627D01*
X15534349Y-14915627D02*
X15543872Y-14887055D01*
X15543872Y-14887055D02*
X15553396Y-14868008D01*
X15553396Y-14868008D02*
X15572444Y-14839436D01*
X15572444Y-14839436D02*
X15581968Y-14829912D01*
X15658158Y-14925150D02*
X15658158Y-15058484D01*
X15658158Y-14944198D02*
X15667682Y-14934674D01*
X15667682Y-14934674D02*
X15686730Y-14925150D01*
X15686730Y-14925150D02*
X15715301Y-14925150D01*
X15715301Y-14925150D02*
X15734349Y-14934674D01*
X15734349Y-14934674D02*
X15743872Y-14953722D01*
X15743872Y-14953722D02*
X15743872Y-15058484D01*
X15867682Y-15058484D02*
X15848634Y-15048960D01*
X15848634Y-15048960D02*
X15839111Y-15039436D01*
X15839111Y-15039436D02*
X15829587Y-15020388D01*
X15829587Y-15020388D02*
X15829587Y-14963246D01*
X15829587Y-14963246D02*
X15839111Y-14944198D01*
X15839111Y-14944198D02*
X15848634Y-14934674D01*
X15848634Y-14934674D02*
X15867682Y-14925150D01*
X15867682Y-14925150D02*
X15896253Y-14925150D01*
X15896253Y-14925150D02*
X15915301Y-14934674D01*
X15915301Y-14934674D02*
X15924825Y-14944198D01*
X15924825Y-14944198D02*
X15934349Y-14963246D01*
X15934349Y-14963246D02*
X15934349Y-15020388D01*
X15934349Y-15020388D02*
X15924825Y-15039436D01*
X15924825Y-15039436D02*
X15915301Y-15048960D01*
X15915301Y-15048960D02*
X15896253Y-15058484D01*
X15896253Y-15058484D02*
X15867682Y-15058484D01*
X15991492Y-14925150D02*
X16067682Y-14925150D01*
X16020063Y-14858484D02*
X16020063Y-15029912D01*
X16020063Y-15029912D02*
X16029587Y-15048960D01*
X16029587Y-15048960D02*
X16048634Y-15058484D01*
X16048634Y-15058484D02*
X16067682Y-15058484D01*
X16286730Y-14925150D02*
X16286730Y-15125150D01*
X16286730Y-14934674D02*
X16305777Y-14925150D01*
X16305777Y-14925150D02*
X16343873Y-14925150D01*
X16343873Y-14925150D02*
X16362920Y-14934674D01*
X16362920Y-14934674D02*
X16372444Y-14944198D01*
X16372444Y-14944198D02*
X16381968Y-14963246D01*
X16381968Y-14963246D02*
X16381968Y-15020388D01*
X16381968Y-15020388D02*
X16372444Y-15039436D01*
X16372444Y-15039436D02*
X16362920Y-15048960D01*
X16362920Y-15048960D02*
X16343873Y-15058484D01*
X16343873Y-15058484D02*
X16305777Y-15058484D01*
X16305777Y-15058484D02*
X16286730Y-15048960D01*
X16496253Y-15058484D02*
X16477206Y-15048960D01*
X16477206Y-15048960D02*
X16467682Y-15029912D01*
X16467682Y-15029912D02*
X16467682Y-14858484D01*
X16658158Y-15058484D02*
X16658158Y-14953722D01*
X16658158Y-14953722D02*
X16648634Y-14934674D01*
X16648634Y-14934674D02*
X16629587Y-14925150D01*
X16629587Y-14925150D02*
X16591492Y-14925150D01*
X16591492Y-14925150D02*
X16572444Y-14934674D01*
X16658158Y-15048960D02*
X16639111Y-15058484D01*
X16639111Y-15058484D02*
X16591492Y-15058484D01*
X16591492Y-15058484D02*
X16572444Y-15048960D01*
X16572444Y-15048960D02*
X16562920Y-15029912D01*
X16562920Y-15029912D02*
X16562920Y-15010865D01*
X16562920Y-15010865D02*
X16572444Y-14991817D01*
X16572444Y-14991817D02*
X16591492Y-14982293D01*
X16591492Y-14982293D02*
X16639111Y-14982293D01*
X16639111Y-14982293D02*
X16658158Y-14972769D01*
X16724825Y-14925150D02*
X16801015Y-14925150D01*
X16753396Y-14858484D02*
X16753396Y-15029912D01*
X16753396Y-15029912D02*
X16762920Y-15048960D01*
X16762920Y-15048960D02*
X16781968Y-15058484D01*
X16781968Y-15058484D02*
X16801015Y-15058484D01*
X16943873Y-15048960D02*
X16924825Y-15058484D01*
X16924825Y-15058484D02*
X16886730Y-15058484D01*
X16886730Y-15058484D02*
X16867682Y-15048960D01*
X16867682Y-15048960D02*
X16858158Y-15029912D01*
X16858158Y-15029912D02*
X16858158Y-14953722D01*
X16858158Y-14953722D02*
X16867682Y-14934674D01*
X16867682Y-14934674D02*
X16886730Y-14925150D01*
X16886730Y-14925150D02*
X16924825Y-14925150D01*
X16924825Y-14925150D02*
X16943873Y-14934674D01*
X16943873Y-14934674D02*
X16953396Y-14953722D01*
X16953396Y-14953722D02*
X16953396Y-14972769D01*
X16953396Y-14972769D02*
X16858158Y-14991817D01*
X17124825Y-15058484D02*
X17124825Y-14858484D01*
X17124825Y-15048960D02*
X17105777Y-15058484D01*
X17105777Y-15058484D02*
X17067682Y-15058484D01*
X17067682Y-15058484D02*
X17048635Y-15048960D01*
X17048635Y-15048960D02*
X17039111Y-15039436D01*
X17039111Y-15039436D02*
X17029587Y-15020388D01*
X17029587Y-15020388D02*
X17029587Y-14963246D01*
X17029587Y-14963246D02*
X17039111Y-14944198D01*
X17039111Y-14944198D02*
X17048635Y-14934674D01*
X17048635Y-14934674D02*
X17067682Y-14925150D01*
X17067682Y-14925150D02*
X17105777Y-14925150D01*
X17105777Y-14925150D02*
X17124825Y-14934674D01*
X17201016Y-15134674D02*
X17210539Y-15125150D01*
X17210539Y-15125150D02*
X17229587Y-15096579D01*
X17229587Y-15096579D02*
X17239111Y-15077531D01*
X17239111Y-15077531D02*
X17248635Y-15048960D01*
X17248635Y-15048960D02*
X17258158Y-15001341D01*
X17258158Y-15001341D02*
X17258158Y-14963246D01*
X17258158Y-14963246D02*
X17248635Y-14915627D01*
X17248635Y-14915627D02*
X17239111Y-14887055D01*
X17239111Y-14887055D02*
X17229587Y-14868008D01*
X17229587Y-14868008D02*
X17210539Y-14839436D01*
X17210539Y-14839436D02*
X17201016Y-14829912D01*
M02*
