%TF.GenerationSoftware,KiCad,Pcbnew,10.0.5*%
%TF.CreationDate,2026-08-22T18:58:28-07:00*%
%TF.ProjectId,kbdrelay-carrier-test2,6b626472-656c-4617-992d-636172726965,rev?*%
%TF.SameCoordinates,Original*%
%TF.FileFunction,Copper,L2,Bot*%
%TF.FilePolarity,Positive*%
%FSLAX46Y46*%
G04 Gerber Fmt 4.6, Leading zero omitted, Abs format (unit mm)*
G04 Created by KiCad (PCBNEW 10.0.5) date 2026-08-22 18:58:28*
%MOMM*%
%LPD*%
G01*
G04 APERTURE LIST*
G04 Aperture macros list*
%AMRoundRect*
0 Rectangle with rounded corners*
0 $1 Rounding radius*
0 $2 $3 $4 $5 $6 $7 $8 $9 X,Y pos of 4 corners*
0 Add a 4 corners polygon primitive as box body*
4,1,4,$2,$3,$4,$5,$6,$7,$8,$9,$2,$3,0*
0 Add four circle primitives for the rounded corners*
1,1,$1+$1,$2,$3*
1,1,$1+$1,$4,$5*
1,1,$1+$1,$6,$7*
1,1,$1+$1,$8,$9*
0 Add four rect primitives between the rounded corners*
20,1,$1+$1,$2,$3,$4,$5,0*
20,1,$1+$1,$4,$5,$6,$7,0*
20,1,$1+$1,$6,$7,$8,$9,0*
20,1,$1+$1,$8,$9,$2,$3,0*%
G04 Aperture macros list end*
%ADD10C,0.300000*%
%TA.AperFunction,NonConductor*%
%ADD11C,0.300000*%
%TD*%
%TA.AperFunction,ComponentPad*%
%ADD12C,2.000000*%
%TD*%
%TA.AperFunction,ComponentPad*%
%ADD13R,1.700000X1.700000*%
%TD*%
%TA.AperFunction,ComponentPad*%
%ADD14C,1.700000*%
%TD*%
%TA.AperFunction,ComponentPad*%
%ADD15C,1.600000*%
%TD*%
%TA.AperFunction,ComponentPad*%
%ADD16RoundRect,0.250000X-0.750000X-0.750000X0.750000X-0.750000X0.750000X0.750000X-0.750000X0.750000X0*%
%TD*%
%TA.AperFunction,ComponentPad*%
%ADD17RoundRect,0.250000X1.350000X1.350000X-1.350000X1.350000X-1.350000X-1.350000X1.350000X-1.350000X0*%
%TD*%
%TA.AperFunction,ComponentPad*%
%ADD18C,3.200000*%
%TD*%
%TA.AperFunction,Conductor*%
%ADD19C,1.000000*%
%TD*%
%TA.AperFunction,Conductor*%
%ADD20C,0.800000*%
%TD*%
%TA.AperFunction,Conductor*%
%ADD21C,1.500000*%
%TD*%
G04 APERTURE END LIST*
D10*
D11*
X152195237Y-129862019D02*
X151966665Y-129957257D01*
X151966665Y-129957257D02*
X151890475Y-130052495D01*
X151890475Y-130052495D02*
X151814284Y-130242971D01*
X151814284Y-130242971D02*
X151814284Y-130528685D01*
X151814284Y-130528685D02*
X151890475Y-130719161D01*
X151890475Y-130719161D02*
X151966665Y-130814400D01*
X151966665Y-130814400D02*
X152119046Y-130909638D01*
X152119046Y-130909638D02*
X152728570Y-130909638D01*
X152728570Y-130909638D02*
X152728570Y-128909638D01*
X152728570Y-128909638D02*
X152195237Y-128909638D01*
X152195237Y-128909638D02*
X152042856Y-129004876D01*
X152042856Y-129004876D02*
X151966665Y-129100114D01*
X151966665Y-129100114D02*
X151890475Y-129290590D01*
X151890475Y-129290590D02*
X151890475Y-129481066D01*
X151890475Y-129481066D02*
X151966665Y-129671542D01*
X151966665Y-129671542D02*
X152042856Y-129766780D01*
X152042856Y-129766780D02*
X152195237Y-129862019D01*
X152195237Y-129862019D02*
X152728570Y-129862019D01*
X150823808Y-128909638D02*
X150519046Y-128909638D01*
X150519046Y-128909638D02*
X150366665Y-129004876D01*
X150366665Y-129004876D02*
X150214284Y-129195352D01*
X150214284Y-129195352D02*
X150138094Y-129576304D01*
X150138094Y-129576304D02*
X150138094Y-130242971D01*
X150138094Y-130242971D02*
X150214284Y-130623923D01*
X150214284Y-130623923D02*
X150366665Y-130814400D01*
X150366665Y-130814400D02*
X150519046Y-130909638D01*
X150519046Y-130909638D02*
X150823808Y-130909638D01*
X150823808Y-130909638D02*
X150976189Y-130814400D01*
X150976189Y-130814400D02*
X151128570Y-130623923D01*
X151128570Y-130623923D02*
X151204761Y-130242971D01*
X151204761Y-130242971D02*
X151204761Y-129576304D01*
X151204761Y-129576304D02*
X151128570Y-129195352D01*
X151128570Y-129195352D02*
X150976189Y-129004876D01*
X150976189Y-129004876D02*
X150823808Y-128909638D01*
X149680952Y-128909638D02*
X148766666Y-128909638D01*
X149223809Y-130909638D02*
X149223809Y-128909638D01*
X148461904Y-128909638D02*
X147547618Y-128909638D01*
X148004761Y-130909638D02*
X148004761Y-128909638D01*
X146709522Y-128909638D02*
X146404760Y-128909638D01*
X146404760Y-128909638D02*
X146252379Y-129004876D01*
X146252379Y-129004876D02*
X146099998Y-129195352D01*
X146099998Y-129195352D02*
X146023808Y-129576304D01*
X146023808Y-129576304D02*
X146023808Y-130242971D01*
X146023808Y-130242971D02*
X146099998Y-130623923D01*
X146099998Y-130623923D02*
X146252379Y-130814400D01*
X146252379Y-130814400D02*
X146404760Y-130909638D01*
X146404760Y-130909638D02*
X146709522Y-130909638D01*
X146709522Y-130909638D02*
X146861903Y-130814400D01*
X146861903Y-130814400D02*
X147014284Y-130623923D01*
X147014284Y-130623923D02*
X147090475Y-130242971D01*
X147090475Y-130242971D02*
X147090475Y-129576304D01*
X147090475Y-129576304D02*
X147014284Y-129195352D01*
X147014284Y-129195352D02*
X146861903Y-129004876D01*
X146861903Y-129004876D02*
X146709522Y-128909638D01*
X145338094Y-130909638D02*
X145338094Y-128909638D01*
X145338094Y-128909638D02*
X144804761Y-130338209D01*
X144804761Y-130338209D02*
X144271427Y-128909638D01*
X144271427Y-128909638D02*
X144271427Y-130909638D01*
D12*
%TO.P,F1,1*%
%TO.N,/+5V_PROT*%
X113040000Y-117500000D03*
%TO.P,F1,2*%
%TO.N,/+5V_KBD*%
X107960000Y-117500000D03*
%TD*%
D13*
%TO.P,J2,1,Pin_1_1*%
%TO.N,Net-(J2-Pin_1)*%
X164500000Y-119500000D03*
D14*
%TO.P,J2,2,Pin_2_2*%
%TO.N,Net-(J2-Pin_2)*%
X164500000Y-122040000D03*
%TO.P,J2,3,Pin_3_3*%
%TO.N,GND*%
X164500000Y-124580000D03*
%TD*%
D15*
%TO.P,R9,1*%
%TO.N,Net-(U2-RX)*%
X178660000Y-124500000D03*
%TO.P,R9,2*%
%TO.N,Net-(J2-Pin_2)*%
X168500000Y-124500000D03*
%TD*%
D16*
%TO.P,C1,1*%
%TO.N,/+5V_PROT*%
X114250000Y-126500000D03*
D12*
%TO.P,C1,2*%
%TO.N,GND*%
X119250000Y-126500000D03*
%TD*%
D15*
%TO.P,R4,1*%
%TO.N,/CS_KBD*%
X149500000Y-96500000D03*
%TO.P,R4,2*%
%TO.N,/CS_TGT*%
X159660000Y-96500000D03*
%TD*%
%TO.P,C2,1*%
%TO.N,/+5V_PROT*%
X124500000Y-126500000D03*
%TO.P,C2,2*%
%TO.N,GND*%
X129500000Y-126500000D03*
%TD*%
D13*
%TO.P,J1,1,Pin_1_1*%
%TO.N,Net-(J1-Pin_1)*%
X125500000Y-83500000D03*
D14*
%TO.P,J1,2,Pin_2_2*%
%TO.N,Net-(J1-Pin_2)*%
X125500000Y-86040000D03*
%TO.P,J1,3,Pin_3_3*%
%TO.N,GND*%
X125500000Y-88580000D03*
%TD*%
D17*
%TO.P,D1,1,K_1*%
%TO.N,/+5V_PROT*%
X120500000Y-118500000D03*
D18*
%TO.P,D1,2,A_2*%
%TO.N,/+5V_IN*%
X133200000Y-118500000D03*
%TD*%
D13*
%TO.P,J3,1,Pin_1_1*%
%TO.N,/+5V_IN*%
X137500000Y-119500000D03*
D14*
%TO.P,J3,2,Pin_2_2*%
%TO.N,GND*%
X137500000Y-122040000D03*
%TD*%
D15*
%TO.P,R1,1*%
%TO.N,Net-(U1-GPIO4)*%
X149500000Y-111500000D03*
%TO.P,R1,2*%
%TO.N,Net-(U2-GPIO4)*%
X159660000Y-111500000D03*
%TD*%
%TO.P,R5,1*%
%TO.N,/DRDY_KBD*%
X149500000Y-91500000D03*
%TO.P,R5,2*%
%TO.N,/DRDY_TGT*%
X159660000Y-91500000D03*
%TD*%
%TO.P,R6,1*%
%TO.N,Net-(J1-Pin_1)*%
X112500000Y-83500000D03*
%TO.P,R6,2*%
%TO.N,Net-(U1-TX)*%
X122660000Y-83500000D03*
%TD*%
%TO.P,R2,1*%
%TO.N,Net-(U1-GPIO5)*%
X149500000Y-106500000D03*
%TO.P,R2,2*%
%TO.N,Net-(U2-GPIO5)*%
X159660000Y-106500000D03*
%TD*%
%TO.P,R3,1*%
%TO.N,Net-(U1-GPIO6)*%
X149500000Y-101500000D03*
%TO.P,R3,2*%
%TO.N,Net-(U2-GPIO6)*%
X159660000Y-101500000D03*
%TD*%
D14*
%TO.P,U2,1,VDD_1*%
%TO.N,unconnected-(U2-VDD-Pad1)*%
X189410000Y-97350000D03*
%TO.P,U2,2,GND_2*%
%TO.N,GND*%
X186870000Y-97350000D03*
%TO.P,U2,3,3V3(OUT)_3*%
%TO.N,unconnected-(U2-3V3(OUT)-Pad3)*%
X184330000Y-97350000D03*
%TO.P,U2,4,GPIO1_4*%
%TO.N,unconnected-(U2-GPIO1-Pad4)*%
X181790000Y-97350000D03*
%TO.P,U2,5,GPIO2_5*%
%TO.N,unconnected-(U2-GPIO2-Pad5)*%
X179250000Y-97350000D03*
%TO.P,U2,6,GPIO3_6*%
%TO.N,unconnected-(U2-GPIO3-Pad6)*%
X176710000Y-97350000D03*
%TO.P,U2,7,GPIO4_7*%
%TO.N,Net-(U2-GPIO4)*%
X174170000Y-97350000D03*
%TO.P,U2,8,GPIO5_8*%
%TO.N,Net-(U2-GPIO5)*%
X171630000Y-97350000D03*
%TO.P,U2,9,GPIO6_9*%
%TO.N,Net-(U2-GPIO6)*%
X169090000Y-97350000D03*
%TO.P,U2,10,GPIO7_10*%
%TO.N,/CS_TGT*%
X169090000Y-112590000D03*
%TO.P,U2,11,GPIO8_11*%
%TO.N,/DRDY_TGT*%
X171630000Y-112590000D03*
%TO.P,U2,12,GPIO9_12*%
%TO.N,unconnected-(U2-GPIO9-Pad12)*%
X174170000Y-112590000D03*
%TO.P,U2,13,GPIO10_13*%
%TO.N,unconnected-(U2-GPIO10-Pad13)*%
X176710000Y-112590000D03*
%TO.P,U2,14,GPIO11_14*%
%TO.N,unconnected-(U2-GPIO11-Pad14)*%
X179250000Y-112590000D03*
%TO.P,U2,15,GPIO12_15*%
%TO.N,unconnected-(U2-GPIO12-Pad15)*%
X181790000Y-112590000D03*
%TO.P,U2,16,GPIO13_16*%
%TO.N,unconnected-(U2-GPIO13-Pad16)*%
X184330000Y-112590000D03*
%TO.P,U2,17,RX_17*%
%TO.N,Net-(U2-RX)*%
X186870000Y-112590000D03*
%TO.P,U2,18,TX_18*%
%TO.N,Net-(U2-TX)*%
X189410000Y-112590000D03*
%TD*%
D15*
%TO.P,R7,1*%
%TO.N,Net-(J1-Pin_2)*%
X112500000Y-88500000D03*
%TO.P,R7,2*%
%TO.N,Net-(U1-RX)*%
X122660000Y-88500000D03*
%TD*%
D14*
%TO.P,U1,1,VDD_1*%
%TO.N,/+5V_KBD*%
X107590000Y-112650000D03*
%TO.P,U1,2,GND_2*%
%TO.N,GND*%
X110130000Y-112650000D03*
%TO.P,U1,3,3V3(OUT)_3*%
%TO.N,unconnected-(U1-3V3(OUT)-Pad3)*%
X112670000Y-112650000D03*
%TO.P,U1,4,GPIO1_4*%
%TO.N,unconnected-(U1-GPIO1-Pad4)*%
X115210000Y-112650000D03*
%TO.P,U1,5,GPIO2_5*%
%TO.N,unconnected-(U1-GPIO2-Pad5)*%
X117750000Y-112650000D03*
%TO.P,U1,6,GPIO3_6*%
%TO.N,unconnected-(U1-GPIO3-Pad6)*%
X120290000Y-112650000D03*
%TO.P,U1,7,GPIO4_7*%
%TO.N,Net-(U1-GPIO4)*%
X122830000Y-112650000D03*
%TO.P,U1,8,GPIO5_8*%
%TO.N,Net-(U1-GPIO5)*%
X125370000Y-112650000D03*
%TO.P,U1,9,GPIO6_9*%
%TO.N,Net-(U1-GPIO6)*%
X127910000Y-112650000D03*
%TO.P,U1,10,GPIO7_10*%
%TO.N,/CS_KBD*%
X127910000Y-97410000D03*
%TO.P,U1,11,GPIO8_11*%
%TO.N,/DRDY_KBD*%
X125370000Y-97410000D03*
%TO.P,U1,12,GPIO9_12*%
%TO.N,unconnected-(U1-GPIO9-Pad12)*%
X122830000Y-97410000D03*
%TO.P,U1,13,GPIO10_13*%
%TO.N,unconnected-(U1-GPIO10-Pad13)*%
X120290000Y-97410000D03*
%TO.P,U1,14,GPIO11_14*%
%TO.N,unconnected-(U1-GPIO11-Pad14)*%
X117750000Y-97410000D03*
%TO.P,U1,15,GPIO12_15*%
%TO.N,unconnected-(U1-GPIO12-Pad15)*%
X115210000Y-97410000D03*
%TO.P,U1,16,GPIO13_16*%
%TO.N,unconnected-(U1-GPIO13-Pad16)*%
X112670000Y-97410000D03*
%TO.P,U1,17,RX_17*%
%TO.N,Net-(U1-RX)*%
X110130000Y-97410000D03*
%TO.P,U1,18,TX_18*%
%TO.N,Net-(U1-TX)*%
X107590000Y-97410000D03*
%TD*%
D15*
%TO.P,R8,1*%
%TO.N,Net-(U2-TX)*%
X178660000Y-119500000D03*
%TO.P,R8,2*%
%TO.N,Net-(J2-Pin_1)*%
X168500000Y-119500000D03*
%TD*%
%TO.N,/+5V_PROT*%
D19*
X114250000Y-126500000D02*
X114250000Y-118710000D01*
X124450000Y-124250000D02*
X124500000Y-126500000D01*
X114250000Y-118710000D02*
X113040000Y-117500000D01*
X119500000Y-117500000D02*
X120500000Y-118500000D01*
X120500000Y-118500000D02*
X124450000Y-124250000D01*
X113040000Y-117500000D02*
X119500000Y-117500000D01*
%TO.N,/+5V_KBD*%
X107590000Y-117130000D02*
X107960000Y-117500000D01*
X107590000Y-112650000D02*
X107590000Y-117130000D01*
D20*
X107960000Y-113020000D02*
X107590000Y-112650000D01*
%TO.N,Net-(J2-Pin_1)*%
D19*
X164500000Y-119500000D02*
X168500000Y-119500000D01*
%TO.N,Net-(J2-Pin_2)*%
X164500000Y-122040000D02*
X167250000Y-122000000D01*
X167250000Y-122000000D02*
X168500000Y-124500000D01*
%TO.N,Net-(U2-RX)*%
X191500000Y-115250000D02*
X180328428Y-124500000D01*
X188295787Y-109750000D02*
X189500000Y-109750000D01*
X189500000Y-109750000D02*
X191500000Y-111500000D01*
X186870000Y-111175787D02*
X188295787Y-109750000D01*
X180328428Y-124500000D02*
X178660000Y-124500000D01*
X191500000Y-111500000D02*
X191500000Y-115250000D01*
X186870000Y-112590000D02*
X186870000Y-111175787D01*
%TO.N,/CS_KBD*%
D20*
X127910000Y-97410000D02*
X129250000Y-96650000D01*
D19*
X129250000Y-96650000D02*
X149500000Y-96500000D01*
%TO.N,/CS_TGT*%
X168050000Y-113450000D02*
X169090000Y-112590000D01*
X159660000Y-96500000D02*
X157000000Y-98750000D01*
X157000000Y-98750000D02*
X157000000Y-112500000D01*
X157000000Y-112500000D02*
X157750000Y-113450000D01*
X157750000Y-113450000D02*
X168050000Y-113450000D01*
%TO.N,Net-(J1-Pin_1)*%
X123750000Y-80500000D02*
X125500000Y-83500000D01*
X114250000Y-80500000D02*
X123750000Y-80500000D01*
X112500000Y-83500000D02*
X114250000Y-80500000D01*
%TO.N,Net-(J1-Pin_2)*%
X117500000Y-86000000D02*
X125500000Y-86040000D01*
X112500000Y-88500000D02*
X117500000Y-86000000D01*
%TO.N,/+5V_IN*%
D21*
X133200000Y-118500000D02*
X137500000Y-119500000D01*
%TO.N,Net-(U1-GPIO4)*%
D19*
X124450000Y-114850000D02*
X146050000Y-114850000D01*
X122830000Y-112650000D02*
X123050000Y-113450000D01*
X123050000Y-113450000D02*
X124450000Y-114850000D01*
X146050000Y-114850000D02*
X149500000Y-111500000D01*
%TO.N,Net-(U2-GPIO4)*%
X174170000Y-97350000D02*
X174170000Y-100920000D01*
X174170000Y-100920000D02*
X163750000Y-111500000D01*
X163750000Y-111500000D02*
X159660000Y-111500000D01*
%TO.N,/DRDY_KBD*%
X125370000Y-97410000D02*
X125650000Y-96450000D01*
X130449999Y-91650000D02*
X149500000Y-91500000D01*
X125650000Y-96450000D02*
X130449999Y-91650000D01*
%TO.N,/DRDY_TGT*%
X154750000Y-113500000D02*
X157250000Y-116250000D01*
X159660000Y-91500000D02*
X154500000Y-95750000D01*
X169000000Y-116250000D02*
X171630000Y-112590000D01*
X157250000Y-116250000D02*
X169000000Y-116250000D01*
X154500000Y-95750000D02*
X154750000Y-113500000D01*
%TO.N,Net-(U1-TX)*%
X107500000Y-89250000D02*
X111000000Y-86000000D01*
X107590000Y-97410000D02*
X107500000Y-89250000D01*
X113000000Y-86000000D02*
X116000000Y-83500000D01*
X116000000Y-83500000D02*
X122660000Y-83500000D01*
X111000000Y-86000000D02*
X113000000Y-86000000D01*
%TO.N,Net-(U1-GPIO5)*%
X126000000Y-109250000D02*
X131250000Y-104500000D01*
X147500000Y-104500000D02*
X149500000Y-106500000D01*
X125370000Y-112650000D02*
X126000000Y-109250000D01*
X131250000Y-104500000D02*
X147500000Y-104500000D01*
%TO.N,Net-(U2-GPIO5)*%
X171630000Y-97350000D02*
X171630000Y-99880000D01*
X165010000Y-106500000D02*
X171630000Y-99880000D01*
X159660000Y-106500000D02*
X165010000Y-106500000D01*
%TO.N,Net-(U1-GPIO6)*%
X150000000Y-109000000D02*
X152000000Y-107250000D01*
X132500000Y-109000000D02*
X150000000Y-109000000D01*
X152000000Y-107250000D02*
X152000000Y-103750000D01*
X127910000Y-112650000D02*
X132500000Y-109000000D01*
X152000000Y-103750000D02*
X149500000Y-101500000D01*
%TO.N,Net-(U2-GPIO6)*%
X165150000Y-97350000D02*
X169090000Y-97350000D01*
X159660000Y-101500000D02*
X161000000Y-101500000D01*
X161000000Y-101500000D02*
X165150000Y-97350000D01*
%TO.N,Net-(U2-TX)*%
X183850000Y-114650000D02*
X188050000Y-114650000D01*
X188050000Y-114650000D02*
X189410000Y-112590000D01*
X178660000Y-119500000D02*
X183850000Y-114650000D01*
%TO.N,Net-(U1-RX)*%
X110130000Y-97410000D02*
X110130000Y-96207919D01*
X117837919Y-88500000D02*
X122660000Y-88500000D01*
X110130000Y-96207919D02*
X117837919Y-88500000D01*
%TD*%
%TA.AperFunction,Conductor*%
%TO.N,GND*%
G36*
X152711080Y-109358712D02*
G01*
X152769400Y-109425362D01*
X152793025Y-109510717D01*
X152793212Y-109516991D01*
X152848775Y-113461988D01*
X152848570Y-113474253D01*
X152845724Y-113534025D01*
X152850042Y-113585731D01*
X152850712Y-113599482D01*
X152851443Y-113651314D01*
X152851443Y-113651321D01*
X152860080Y-113710472D01*
X152861477Y-113722658D01*
X152866457Y-113782288D01*
X152877484Y-113832974D01*
X152879944Y-113846525D01*
X152887436Y-113897839D01*
X152903726Y-113955380D01*
X152906701Y-113967276D01*
X152919417Y-114025719D01*
X152919421Y-114025732D01*
X152936962Y-114074527D01*
X152941169Y-114087638D01*
X152955298Y-114137544D01*
X152978960Y-114192468D01*
X152983464Y-114203878D01*
X153003700Y-114260165D01*
X153003702Y-114260170D01*
X153027465Y-114306262D01*
X153033348Y-114318713D01*
X153053867Y-114366342D01*
X153053870Y-114366347D01*
X153084499Y-114417714D01*
X153090447Y-114428426D01*
X153102698Y-114452188D01*
X153117865Y-114481607D01*
X153147435Y-114524194D01*
X153154895Y-114535773D01*
X153181462Y-114580328D01*
X153181465Y-114580331D01*
X153218542Y-114627268D01*
X153225842Y-114637118D01*
X153259952Y-114686244D01*
X153294848Y-114724630D01*
X153303720Y-114735094D01*
X153335889Y-114775817D01*
X153378778Y-114817514D01*
X153387305Y-114826332D01*
X155781717Y-117460185D01*
X155784873Y-117463656D01*
X155795501Y-117476373D01*
X155815508Y-117502448D01*
X155818060Y-117505773D01*
X155818064Y-117505778D01*
X155870819Y-117558533D01*
X155877354Y-117565386D01*
X155927528Y-117620578D01*
X155927535Y-117620585D01*
X155952615Y-117641799D01*
X155955816Y-117644506D01*
X155968006Y-117655720D01*
X155994221Y-117681935D01*
X155994223Y-117681937D01*
X156053430Y-117727369D01*
X156060790Y-117733299D01*
X156078701Y-117748449D01*
X156117747Y-117781476D01*
X156117749Y-117781477D01*
X156148907Y-117801501D01*
X156162465Y-117811034D01*
X156191869Y-117833597D01*
X156191873Y-117833599D01*
X156256487Y-117870904D01*
X156264564Y-117875826D01*
X156327331Y-117916163D01*
X156360853Y-117931956D01*
X156375523Y-117939628D01*
X156407627Y-117958164D01*
X156476579Y-117986725D01*
X156485197Y-117990538D01*
X156552702Y-118022341D01*
X156588006Y-118033625D01*
X156603557Y-118039320D01*
X156637793Y-118053502D01*
X156709874Y-118072815D01*
X156718922Y-118075472D01*
X156790005Y-118098194D01*
X156826484Y-118104775D01*
X156842625Y-118108386D01*
X156878435Y-118117982D01*
X156878441Y-118117982D01*
X156878442Y-118117983D01*
X156952406Y-118127721D01*
X156961757Y-118129179D01*
X157035178Y-118142425D01*
X157072211Y-118144188D01*
X157088696Y-118145662D01*
X157125435Y-118150500D01*
X157200012Y-118150500D01*
X157209476Y-118150724D01*
X157234327Y-118151908D01*
X157284025Y-118154275D01*
X157284025Y-118154274D01*
X157284027Y-118154275D01*
X157309461Y-118152150D01*
X157320967Y-118151190D01*
X157337528Y-118150500D01*
X162078978Y-118150500D01*
X162165321Y-118170207D01*
X162234562Y-118225426D01*
X162272989Y-118305218D01*
X162274357Y-118387287D01*
X162252345Y-118501100D01*
X162252344Y-118501104D01*
X162249500Y-118554661D01*
X162249500Y-120445338D01*
X162252344Y-120498890D01*
X162252344Y-120498893D01*
X162252345Y-120498899D01*
X162297613Y-120732962D01*
X162297614Y-120732966D01*
X162297615Y-120732968D01*
X162300580Y-120740825D01*
X162381787Y-120956008D01*
X162381788Y-120956009D01*
X162408642Y-121001772D01*
X162435344Y-121086214D01*
X162422763Y-121173879D01*
X162420862Y-121178640D01*
X162364364Y-121315039D01*
X162364360Y-121315051D01*
X162288006Y-121600011D01*
X162249500Y-121892486D01*
X162249500Y-122187513D01*
X162287198Y-122473847D01*
X162288007Y-122479993D01*
X162334238Y-122652529D01*
X162364360Y-122764948D01*
X162364362Y-122764954D01*
X162477255Y-123037502D01*
X162477259Y-123037511D01*
X162624755Y-123292985D01*
X162624758Y-123292989D01*
X162804357Y-123527046D01*
X163012953Y-123735642D01*
X163012957Y-123735645D01*
X163012958Y-123735646D01*
X163247006Y-123915238D01*
X163247010Y-123915241D01*
X163247014Y-123915244D01*
X163446499Y-124030415D01*
X163502493Y-124062743D01*
X163775048Y-124175639D01*
X164060007Y-124251993D01*
X164320729Y-124286318D01*
X164352486Y-124290499D01*
X164352492Y-124290500D01*
X164352494Y-124290500D01*
X164647508Y-124290500D01*
X164647511Y-124290499D01*
X164939993Y-124251993D01*
X165224952Y-124175639D01*
X165497507Y-124062743D01*
X165695297Y-123948547D01*
X165779922Y-123922444D01*
X165791870Y-123921909D01*
X165959022Y-123919478D01*
X166045642Y-123937928D01*
X166115679Y-123992134D01*
X166139906Y-124029461D01*
X166278491Y-124306630D01*
X166299478Y-124392671D01*
X166299500Y-124395626D01*
X166299500Y-124644228D01*
X166337151Y-124930217D01*
X166411809Y-125208845D01*
X166487397Y-125391333D01*
X166522195Y-125475342D01*
X166522196Y-125475345D01*
X166666421Y-125725151D01*
X166842028Y-125954007D01*
X167045992Y-126157971D01*
X167083290Y-126186591D01*
X167235649Y-126303500D01*
X167274848Y-126333578D01*
X167429813Y-126423047D01*
X167524655Y-126477804D01*
X167791155Y-126588191D01*
X168069783Y-126662849D01*
X168355772Y-126700500D01*
X168355775Y-126700500D01*
X168644225Y-126700500D01*
X168644228Y-126700500D01*
X168930217Y-126662849D01*
X169208845Y-126588191D01*
X169475345Y-126477804D01*
X169725156Y-126333575D01*
X169954004Y-126157974D01*
X170157974Y-125954004D01*
X170333575Y-125725156D01*
X170477804Y-125475345D01*
X170588191Y-125208845D01*
X170662849Y-124930217D01*
X170700500Y-124644228D01*
X170700500Y-124355772D01*
X170662849Y-124069783D01*
X170588191Y-123791155D01*
X170477804Y-123524655D01*
X170423047Y-123429813D01*
X170333578Y-123274848D01*
X170157971Y-123045992D01*
X169954007Y-122842028D01*
X169953997Y-122842019D01*
X169733734Y-122673006D01*
X169677230Y-122604810D01*
X169676886Y-122604125D01*
X169271314Y-121792981D01*
X169250327Y-121706940D01*
X169268750Y-121620314D01*
X169322934Y-121550260D01*
X169373144Y-121520136D01*
X169475345Y-121477804D01*
X169725156Y-121333575D01*
X169954004Y-121157974D01*
X170157974Y-120954004D01*
X170333575Y-120725156D01*
X170477804Y-120475345D01*
X170588191Y-120208845D01*
X170662849Y-119930217D01*
X170700500Y-119644228D01*
X170700500Y-119355772D01*
X170662849Y-119069783D01*
X170588191Y-118791155D01*
X170477804Y-118524655D01*
X170398494Y-118387287D01*
X170333578Y-118274848D01*
X170157971Y-118045992D01*
X170155140Y-118043161D01*
X170154259Y-118041759D01*
X170153680Y-118041099D01*
X170153785Y-118041006D01*
X170108021Y-117968173D01*
X170098105Y-117880166D01*
X170127356Y-117796573D01*
X170169813Y-117748451D01*
X170178232Y-117741560D01*
X170183062Y-117737732D01*
X170255776Y-117681938D01*
X170269949Y-117667763D01*
X170284625Y-117654481D01*
X170300120Y-117641799D01*
X170300122Y-117641796D01*
X170300128Y-117641792D01*
X170362839Y-117575009D01*
X170367126Y-117570586D01*
X170431938Y-117505776D01*
X170444146Y-117489864D01*
X170456955Y-117474787D01*
X170470671Y-117460183D01*
X170524123Y-117385795D01*
X170527810Y-117380832D01*
X170583599Y-117308127D01*
X170593624Y-117290763D01*
X170604361Y-117274134D01*
X170620019Y-117252344D01*
X172436781Y-114724073D01*
X172503168Y-114665458D01*
X172522213Y-114656356D01*
X172627507Y-114612743D01*
X172800504Y-114512863D01*
X172885128Y-114486761D01*
X172972702Y-114499960D01*
X172999491Y-114512861D01*
X173172493Y-114612743D01*
X173445048Y-114725639D01*
X173730007Y-114801993D01*
X173995636Y-114836964D01*
X174022486Y-114840499D01*
X174022492Y-114840500D01*
X174022494Y-114840500D01*
X174317508Y-114840500D01*
X174317511Y-114840499D01*
X174609993Y-114801993D01*
X174894952Y-114725639D01*
X175167507Y-114612743D01*
X175340502Y-114512864D01*
X175425129Y-114486760D01*
X175512703Y-114499960D01*
X175539491Y-114512861D01*
X175712493Y-114612743D01*
X175985048Y-114725639D01*
X176270007Y-114801993D01*
X176535636Y-114836964D01*
X176562486Y-114840499D01*
X176562492Y-114840500D01*
X176562494Y-114840500D01*
X176857508Y-114840500D01*
X176857511Y-114840499D01*
X177149993Y-114801993D01*
X177434952Y-114725639D01*
X177707507Y-114612743D01*
X177880502Y-114512864D01*
X177965129Y-114486760D01*
X178052703Y-114499960D01*
X178079491Y-114512861D01*
X178252493Y-114612743D01*
X178525048Y-114725639D01*
X178810007Y-114801993D01*
X179075636Y-114836964D01*
X179102486Y-114840499D01*
X179102492Y-114840500D01*
X179102494Y-114840500D01*
X179397508Y-114840500D01*
X179397511Y-114840499D01*
X179689993Y-114801993D01*
X179974952Y-114725639D01*
X180247507Y-114612743D01*
X180420504Y-114512863D01*
X180505127Y-114486760D01*
X180592701Y-114499960D01*
X180619496Y-114512864D01*
X180659177Y-114535773D01*
X180753847Y-114590431D01*
X180818769Y-114650669D01*
X180851124Y-114733111D01*
X180844506Y-114821426D01*
X180800224Y-114898124D01*
X180790218Y-114908166D01*
X178211678Y-117317784D01*
X178135138Y-117362338D01*
X178127313Y-117364607D01*
X177951155Y-117411808D01*
X177684657Y-117522195D01*
X177684654Y-117522196D01*
X177434848Y-117666421D01*
X177205992Y-117842028D01*
X177002028Y-118045992D01*
X176826421Y-118274848D01*
X176682196Y-118524654D01*
X176682195Y-118524657D01*
X176571810Y-118791152D01*
X176571808Y-118791158D01*
X176544974Y-118891306D01*
X176497151Y-119069783D01*
X176459500Y-119355772D01*
X176459500Y-119644228D01*
X176497151Y-119930217D01*
X176571809Y-120208845D01*
X176635087Y-120361614D01*
X176682195Y-120475342D01*
X176682196Y-120475345D01*
X176826421Y-120725151D01*
X177002028Y-120954007D01*
X177205992Y-121157971D01*
X177434848Y-121333578D01*
X177589813Y-121423047D01*
X177684655Y-121477804D01*
X177951155Y-121588191D01*
X178229783Y-121662849D01*
X178515772Y-121700500D01*
X178515775Y-121700500D01*
X178804225Y-121700500D01*
X178804228Y-121700500D01*
X179090217Y-121662849D01*
X179368845Y-121588191D01*
X179635345Y-121477804D01*
X179885156Y-121333575D01*
X180114004Y-121157974D01*
X180317974Y-120954004D01*
X180493575Y-120725156D01*
X180637804Y-120475345D01*
X180748191Y-120208845D01*
X180754565Y-120185053D01*
X180795945Y-120106753D01*
X180810906Y-120091166D01*
X184542423Y-116604103D01*
X184618963Y-116559550D01*
X184678294Y-116550500D01*
X186396978Y-116550500D01*
X186483321Y-116570207D01*
X186552562Y-116625426D01*
X186590989Y-116705218D01*
X186590989Y-116793782D01*
X186552562Y-116873574D01*
X186523893Y-116902775D01*
X184243230Y-118791152D01*
X179795499Y-122473847D01*
X179716426Y-122513733D01*
X179627878Y-122515361D01*
X179592433Y-122504421D01*
X179368853Y-122411812D01*
X179368849Y-122411810D01*
X179368845Y-122411809D01*
X179090217Y-122337151D01*
X178804228Y-122299500D01*
X178515772Y-122299500D01*
X178229783Y-122337151D01*
X178229780Y-122337151D01*
X178229778Y-122337152D01*
X177951158Y-122411808D01*
X177951152Y-122411810D01*
X177684657Y-122522195D01*
X177684654Y-122522196D01*
X177434848Y-122666421D01*
X177205992Y-122842028D01*
X177002028Y-123045992D01*
X176826421Y-123274848D01*
X176682196Y-123524654D01*
X176682195Y-123524657D01*
X176571810Y-123791152D01*
X176571808Y-123791158D01*
X176507700Y-124030415D01*
X176497151Y-124069783D01*
X176459500Y-124355772D01*
X176459500Y-124644228D01*
X176497151Y-124930217D01*
X176571809Y-125208845D01*
X176647397Y-125391333D01*
X176682195Y-125475342D01*
X176682196Y-125475345D01*
X176826421Y-125725151D01*
X177002028Y-125954007D01*
X177205992Y-126157971D01*
X177243290Y-126186591D01*
X177395649Y-126303500D01*
X177434848Y-126333578D01*
X177589813Y-126423047D01*
X177684655Y-126477804D01*
X177951155Y-126588191D01*
X178229783Y-126662849D01*
X178515772Y-126700500D01*
X178515775Y-126700500D01*
X178804225Y-126700500D01*
X178804228Y-126700500D01*
X179090217Y-126662849D01*
X179368845Y-126588191D01*
X179635345Y-126477804D01*
X179723061Y-126427161D01*
X179807690Y-126401056D01*
X179822561Y-126400500D01*
X180229863Y-126400500D01*
X180248504Y-126401374D01*
X180274404Y-126403812D01*
X180274410Y-126403811D01*
X180274413Y-126403812D01*
X180359988Y-126400637D01*
X180367366Y-126400500D01*
X180452996Y-126400500D01*
X180463370Y-126399133D01*
X180478777Y-126397104D01*
X180497353Y-126395540D01*
X180523364Y-126394576D01*
X180607848Y-126380248D01*
X180615065Y-126379162D01*
X180699993Y-126367982D01*
X180725109Y-126361251D01*
X180743341Y-126357271D01*
X180768988Y-126352923D01*
X180850844Y-126327701D01*
X180857870Y-126325677D01*
X180940635Y-126303502D01*
X180964657Y-126293551D01*
X180982218Y-126287224D01*
X181007073Y-126279567D01*
X181084951Y-126243870D01*
X181091658Y-126240945D01*
X181170801Y-126208164D01*
X181193325Y-126195159D01*
X181209897Y-126186600D01*
X181233547Y-126175761D01*
X181306059Y-126130231D01*
X181312381Y-126126423D01*
X181333690Y-126114120D01*
X181386555Y-126083599D01*
X181407202Y-126067755D01*
X181422519Y-126057106D01*
X181444533Y-126043284D01*
X181444535Y-126043283D01*
X181510495Y-125988667D01*
X181516244Y-125984084D01*
X181555446Y-125954004D01*
X181584204Y-125931938D01*
X181602593Y-125913547D01*
X181616398Y-125900980D01*
X181749035Y-125791158D01*
X191673587Y-117573683D01*
X191752660Y-117533798D01*
X191841208Y-117532170D01*
X191921694Y-117569123D01*
X191978176Y-117637338D01*
X191999466Y-117723304D01*
X191999500Y-117726962D01*
X191999500Y-131800500D01*
X191979793Y-131886843D01*
X191924574Y-131956084D01*
X191844782Y-131994511D01*
X191800500Y-131999500D01*
X154483070Y-131999500D01*
X154396727Y-131979793D01*
X154327486Y-131924574D01*
X154289059Y-131844782D01*
X154284070Y-131800500D01*
X154284070Y-128878712D01*
X187149500Y-128878712D01*
X187149500Y-129121288D01*
X187181162Y-129361789D01*
X187243946Y-129596100D01*
X187336776Y-129820212D01*
X187384890Y-129903548D01*
X187458060Y-130030284D01*
X187605737Y-130222741D01*
X187777258Y-130394262D01*
X187969715Y-130541939D01*
X188048335Y-130587329D01*
X188179788Y-130663224D01*
X188403900Y-130756054D01*
X188638211Y-130818838D01*
X188878712Y-130850500D01*
X188878715Y-130850500D01*
X189121285Y-130850500D01*
X189121288Y-130850500D01*
X189361789Y-130818838D01*
X189596100Y-130756054D01*
X189820212Y-130663224D01*
X190030289Y-130541936D01*
X190222738Y-130394265D01*
X190394265Y-130222738D01*
X190541936Y-130030289D01*
X190663224Y-129820212D01*
X190756054Y-129596100D01*
X190818838Y-129361789D01*
X190850500Y-129121288D01*
X190850500Y-128878712D01*
X190818838Y-128638211D01*
X190756054Y-128403900D01*
X190663224Y-128179788D01*
X190587329Y-128048335D01*
X190541939Y-127969715D01*
X190394262Y-127777258D01*
X190222741Y-127605737D01*
X190030284Y-127458060D01*
X189903548Y-127384890D01*
X189820212Y-127336776D01*
X189596100Y-127243946D01*
X189596098Y-127243945D01*
X189596097Y-127243945D01*
X189361801Y-127181165D01*
X189361795Y-127181163D01*
X189361789Y-127181162D01*
X189121288Y-127149500D01*
X188878712Y-127149500D01*
X188638211Y-127181162D01*
X188638198Y-127181165D01*
X188403902Y-127243945D01*
X188179792Y-127336774D01*
X188179790Y-127336775D01*
X187969715Y-127458060D01*
X187777258Y-127605737D01*
X187605737Y-127777258D01*
X187458060Y-127969715D01*
X187336775Y-128179790D01*
X187336774Y-128179792D01*
X187243945Y-128403902D01*
X187194238Y-128589412D01*
X187181162Y-128638211D01*
X187149500Y-128878712D01*
X154284070Y-128878712D01*
X154284070Y-127351339D01*
X142714968Y-127351339D01*
X142714968Y-131800500D01*
X142695261Y-131886843D01*
X142640042Y-131956084D01*
X142560250Y-131994511D01*
X142515968Y-131999500D01*
X105199500Y-131999500D01*
X105113157Y-131979793D01*
X105043916Y-131924574D01*
X105005489Y-131844782D01*
X105000500Y-131800500D01*
X105000500Y-128878712D01*
X106149500Y-128878712D01*
X106149500Y-129121288D01*
X106181162Y-129361789D01*
X106243946Y-129596100D01*
X106336776Y-129820212D01*
X106384890Y-129903548D01*
X106458060Y-130030284D01*
X106605737Y-130222741D01*
X106777258Y-130394262D01*
X106969715Y-130541939D01*
X107048335Y-130587329D01*
X107179788Y-130663224D01*
X107403900Y-130756054D01*
X107638211Y-130818838D01*
X107878712Y-130850500D01*
X107878715Y-130850500D01*
X108121285Y-130850500D01*
X108121288Y-130850500D01*
X108361789Y-130818838D01*
X108596100Y-130756054D01*
X108820212Y-130663224D01*
X109030289Y-130541936D01*
X109222738Y-130394265D01*
X109394265Y-130222738D01*
X109541936Y-130030289D01*
X109663224Y-129820212D01*
X109756054Y-129596100D01*
X109818838Y-129361789D01*
X109850500Y-129121288D01*
X109850500Y-128878712D01*
X109818838Y-128638211D01*
X109756054Y-128403900D01*
X109663224Y-128179788D01*
X109587329Y-128048335D01*
X109541939Y-127969715D01*
X109394262Y-127777258D01*
X109222741Y-127605737D01*
X109030284Y-127458060D01*
X108903548Y-127384890D01*
X108820212Y-127336776D01*
X108596100Y-127243946D01*
X108596098Y-127243945D01*
X108596097Y-127243945D01*
X108361801Y-127181165D01*
X108361795Y-127181163D01*
X108361789Y-127181162D01*
X108121288Y-127149500D01*
X107878712Y-127149500D01*
X107638211Y-127181162D01*
X107638198Y-127181165D01*
X107403902Y-127243945D01*
X107179792Y-127336774D01*
X107179790Y-127336775D01*
X106969715Y-127458060D01*
X106777258Y-127605737D01*
X106605737Y-127777258D01*
X106458060Y-127969715D01*
X106336775Y-128179790D01*
X106336774Y-128179792D01*
X106243945Y-128403902D01*
X106194238Y-128589412D01*
X106181162Y-128638211D01*
X106149500Y-128878712D01*
X105000500Y-128878712D01*
X105000500Y-113192671D01*
X105020207Y-113106328D01*
X105075426Y-113037087D01*
X105155218Y-112998660D01*
X105243782Y-112998660D01*
X105323574Y-113037087D01*
X105378793Y-113106328D01*
X105391719Y-113141167D01*
X105454358Y-113374944D01*
X105454360Y-113374948D01*
X105454361Y-113374952D01*
X105547577Y-113599996D01*
X105567255Y-113647502D01*
X105567255Y-113647504D01*
X105569459Y-113651321D01*
X105610645Y-113722658D01*
X105662839Y-113813059D01*
X105688944Y-113897688D01*
X105689500Y-113912559D01*
X105689500Y-116686809D01*
X105678333Y-116752534D01*
X105649685Y-116834403D01*
X105589687Y-117097273D01*
X105561217Y-117349949D01*
X105559500Y-117365191D01*
X105559500Y-117634809D01*
X105561901Y-117656115D01*
X105586482Y-117874284D01*
X105589688Y-117902732D01*
X105621420Y-118041759D01*
X105649685Y-118165596D01*
X105738727Y-118420063D01*
X105738733Y-118420079D01*
X105855716Y-118662997D01*
X105936243Y-118791155D01*
X105999165Y-118891293D01*
X105999174Y-118891306D01*
X106167258Y-119102076D01*
X106167266Y-119102085D01*
X106357914Y-119292733D01*
X106357923Y-119292741D01*
X106568693Y-119460825D01*
X106568705Y-119460833D01*
X106568711Y-119460838D01*
X106797003Y-119604284D01*
X107039921Y-119721267D01*
X107294409Y-119810316D01*
X107557268Y-119870312D01*
X107825191Y-119900500D01*
X107825192Y-119900500D01*
X108094808Y-119900500D01*
X108094809Y-119900500D01*
X108362732Y-119870312D01*
X108625591Y-119810316D01*
X108880079Y-119721267D01*
X109122997Y-119604284D01*
X109351289Y-119460838D01*
X109351300Y-119460828D01*
X109351306Y-119460825D01*
X109562076Y-119292741D01*
X109562085Y-119292734D01*
X109752734Y-119102085D01*
X109793315Y-119051197D01*
X109920825Y-118891306D01*
X109920828Y-118891300D01*
X109920838Y-118891289D01*
X110064284Y-118662997D01*
X110181267Y-118420079D01*
X110270316Y-118165591D01*
X110305990Y-118009292D01*
X110344416Y-117929502D01*
X110413657Y-117874284D01*
X110500000Y-117854577D01*
X110586343Y-117874284D01*
X110655585Y-117929503D01*
X110694009Y-118009292D01*
X110714301Y-118098193D01*
X110729685Y-118165596D01*
X110818727Y-118420063D01*
X110818733Y-118420079D01*
X110935716Y-118662997D01*
X111016243Y-118791155D01*
X111079165Y-118891293D01*
X111079174Y-118891306D01*
X111247258Y-119102076D01*
X111247266Y-119102085D01*
X111437914Y-119292733D01*
X111437923Y-119292741D01*
X111648693Y-119460825D01*
X111648705Y-119460833D01*
X111648711Y-119460838D01*
X111877003Y-119604284D01*
X112119921Y-119721267D01*
X112216226Y-119754965D01*
X112291213Y-119802081D01*
X112338332Y-119877069D01*
X112349500Y-119942797D01*
X112349500Y-124482257D01*
X112329793Y-124568600D01*
X112301821Y-124611497D01*
X112160590Y-124776855D01*
X112024844Y-124998376D01*
X111925428Y-125238385D01*
X111867209Y-125480885D01*
X111864779Y-125491006D01*
X111849500Y-125685147D01*
X111849500Y-125685148D01*
X111849500Y-125685154D01*
X111849500Y-127314845D01*
X111864779Y-127508995D01*
X111925428Y-127761614D01*
X112011627Y-127969715D01*
X112024846Y-128001628D01*
X112160588Y-128223140D01*
X112160590Y-128223143D01*
X112329310Y-128420689D01*
X112525428Y-128588189D01*
X112526860Y-128589412D01*
X112748372Y-128725154D01*
X112988390Y-128824573D01*
X113241006Y-128885221D01*
X113435147Y-128900500D01*
X115064852Y-128900499D01*
X115258994Y-128885221D01*
X115511610Y-128824573D01*
X115751628Y-128725154D01*
X115973140Y-128589412D01*
X116170689Y-128420689D01*
X116339412Y-128223140D01*
X116475154Y-128001628D01*
X116574573Y-127761610D01*
X116635221Y-127508994D01*
X116650500Y-127314853D01*
X116650499Y-125685148D01*
X116635221Y-125491006D01*
X116574573Y-125238390D01*
X116475154Y-124998372D01*
X116339412Y-124776860D01*
X116339409Y-124776855D01*
X116198179Y-124611497D01*
X116157090Y-124533043D01*
X116150500Y-124482257D01*
X116150500Y-119599500D01*
X116170207Y-119513157D01*
X116225426Y-119443916D01*
X116305218Y-119405489D01*
X116349500Y-119400500D01*
X117300501Y-119400500D01*
X117386844Y-119420207D01*
X117456085Y-119475426D01*
X117494512Y-119555218D01*
X117499501Y-119599500D01*
X117499501Y-119914852D01*
X117512869Y-120084726D01*
X117514779Y-120108995D01*
X117575428Y-120361614D01*
X117665137Y-120578189D01*
X117674846Y-120601628D01*
X117760146Y-120740825D01*
X117810590Y-120823143D01*
X117979310Y-121020689D01*
X118176856Y-121189409D01*
X118176860Y-121189412D01*
X118398372Y-121325154D01*
X118638390Y-121424573D01*
X118891006Y-121485221D01*
X119085147Y-121500500D01*
X120150755Y-121500499D01*
X120237098Y-121520206D01*
X120306339Y-121575424D01*
X120314781Y-121586820D01*
X122528955Y-124809984D01*
X122561601Y-124892311D01*
X122563880Y-124918242D01*
X122574074Y-125376969D01*
X122556290Y-125463728D01*
X122547465Y-125480885D01*
X122522197Y-125524652D01*
X122411810Y-125791152D01*
X122411808Y-125791158D01*
X122339216Y-126062077D01*
X122337151Y-126069783D01*
X122299500Y-126355772D01*
X122299500Y-126644228D01*
X122337151Y-126930217D01*
X122411809Y-127208845D01*
X122515036Y-127458060D01*
X122522195Y-127475342D01*
X122522196Y-127475345D01*
X122666421Y-127725151D01*
X122842028Y-127954007D01*
X123045992Y-128157971D01*
X123274848Y-128333578D01*
X123396650Y-128403900D01*
X123524655Y-128477804D01*
X123791155Y-128588191D01*
X124069783Y-128662849D01*
X124355772Y-128700500D01*
X124355775Y-128700500D01*
X124644225Y-128700500D01*
X124644228Y-128700500D01*
X124930217Y-128662849D01*
X125208845Y-128588191D01*
X125475345Y-128477804D01*
X125725156Y-128333575D01*
X125954004Y-128157974D01*
X126157974Y-127954004D01*
X126333575Y-127725156D01*
X126477804Y-127475345D01*
X126588191Y-127208845D01*
X126662849Y-126930217D01*
X126700500Y-126644228D01*
X126700500Y-126355772D01*
X126662849Y-126069783D01*
X126588191Y-125791155D01*
X126477804Y-125524655D01*
X126400829Y-125391330D01*
X126374725Y-125306704D01*
X126374219Y-125296285D01*
X126351775Y-124286307D01*
X126352000Y-124271450D01*
X126354420Y-124225489D01*
X126349279Y-124159989D01*
X126348721Y-124148904D01*
X126347263Y-124083243D01*
X126340241Y-124037747D01*
X126338527Y-124022997D01*
X126334928Y-123977122D01*
X126321291Y-123912898D01*
X126319279Y-123901915D01*
X126309266Y-123837026D01*
X126296371Y-123792854D01*
X126292740Y-123778428D01*
X126291020Y-123770330D01*
X126283185Y-123733425D01*
X126270786Y-123698389D01*
X126261283Y-123671532D01*
X126257855Y-123660908D01*
X126239456Y-123597876D01*
X126220905Y-123555762D01*
X126215422Y-123541934D01*
X126200077Y-123498568D01*
X126200076Y-123498567D01*
X126200075Y-123498565D01*
X126170277Y-123440052D01*
X126165509Y-123430002D01*
X126139028Y-123369885D01*
X126115133Y-123330544D01*
X126107903Y-123317568D01*
X126087021Y-123276563D01*
X126049848Y-123222450D01*
X126043793Y-123213084D01*
X126009701Y-123156954D01*
X126009694Y-123156944D01*
X125980886Y-123121079D01*
X125972014Y-123109148D01*
X124345079Y-120740825D01*
X123535473Y-119562285D01*
X123502827Y-119479958D01*
X123500499Y-119449606D01*
X123500499Y-117085154D01*
X123499346Y-117070497D01*
X123485221Y-116891006D01*
X123474145Y-116844875D01*
X123473153Y-116756319D01*
X123510681Y-116676100D01*
X123579299Y-116620108D01*
X123665415Y-116599434D01*
X123743798Y-116614568D01*
X123837793Y-116653502D01*
X124078435Y-116717982D01*
X124325430Y-116750500D01*
X124325433Y-116750501D01*
X124325435Y-116750501D01*
X124580738Y-116750501D01*
X124580770Y-116750500D01*
X130395891Y-116750500D01*
X130482234Y-116770207D01*
X130551475Y-116825426D01*
X130589902Y-116905218D01*
X130589902Y-116993782D01*
X130571832Y-117041118D01*
X130572177Y-117041284D01*
X130570211Y-117045365D01*
X130570062Y-117045757D01*
X130569758Y-117046306D01*
X130569754Y-117046312D01*
X130569754Y-117046314D01*
X130522026Y-117145422D01*
X130423527Y-117349957D01*
X130423527Y-117349958D01*
X130312225Y-117668041D01*
X130312224Y-117668044D01*
X130237232Y-117996609D01*
X130199500Y-118331496D01*
X130199500Y-118668503D01*
X130237232Y-119003390D01*
X130312224Y-119331955D01*
X130312225Y-119331958D01*
X130423527Y-119650041D01*
X130423527Y-119650042D01*
X130423530Y-119650048D01*
X130423531Y-119650051D01*
X130569754Y-119953686D01*
X130749054Y-120239039D01*
X130959175Y-120502523D01*
X131197477Y-120740825D01*
X131460961Y-120950946D01*
X131746314Y-121130246D01*
X132049949Y-121276469D01*
X132368046Y-121387776D01*
X132696606Y-121462767D01*
X133031496Y-121500500D01*
X133031497Y-121500500D01*
X133368503Y-121500500D01*
X133368504Y-121500500D01*
X133703394Y-121462767D01*
X134031954Y-121387776D01*
X134350051Y-121276469D01*
X134653686Y-121130246D01*
X134681400Y-121112831D01*
X134764990Y-121083582D01*
X134832346Y-121087502D01*
X135523723Y-121248288D01*
X135603356Y-121287040D01*
X135630786Y-121313842D01*
X135656113Y-121343881D01*
X135656116Y-121343884D01*
X135838379Y-121497555D01*
X136043992Y-121618213D01*
X136267038Y-121702387D01*
X136501101Y-121747655D01*
X136548710Y-121750183D01*
X136554661Y-121750500D01*
X136554662Y-121750500D01*
X138445339Y-121750500D01*
X138450694Y-121750215D01*
X138498899Y-121747655D01*
X138732962Y-121702387D01*
X138956008Y-121618213D01*
X139161621Y-121497555D01*
X139343884Y-121343884D01*
X139497555Y-121161621D01*
X139618213Y-120956008D01*
X139702387Y-120732962D01*
X139747655Y-120498899D01*
X139750500Y-120445338D01*
X139750500Y-118554662D01*
X139747655Y-118501101D01*
X139702387Y-118267038D01*
X139618213Y-118043992D01*
X139497555Y-117838379D01*
X139414273Y-117739601D01*
X139343884Y-117656115D01*
X139219949Y-117551623D01*
X139161621Y-117502445D01*
X138956008Y-117381787D01*
X138786412Y-117317784D01*
X138732968Y-117297615D01*
X138732966Y-117297614D01*
X138732962Y-117297613D01*
X138498899Y-117252345D01*
X138498893Y-117252344D01*
X138498890Y-117252344D01*
X138445339Y-117249500D01*
X138445338Y-117249500D01*
X137339602Y-117249500D01*
X137294526Y-117244328D01*
X136860227Y-117143328D01*
X136780592Y-117104575D01*
X136725658Y-117035107D01*
X136706305Y-116948685D01*
X136726366Y-116862423D01*
X136781867Y-116793408D01*
X136861817Y-116755310D01*
X136905303Y-116750500D01*
X146034532Y-116750500D01*
X146037458Y-116750522D01*
X146146594Y-116752127D01*
X146146595Y-116752126D01*
X146146606Y-116752127D01*
X146148709Y-116751881D01*
X146149049Y-116751842D01*
X146172118Y-116750500D01*
X146174567Y-116750500D01*
X146206915Y-116746240D01*
X146282792Y-116736250D01*
X146285605Y-116735901D01*
X146311254Y-116732908D01*
X146394043Y-116723246D01*
X146394045Y-116723245D01*
X146394057Y-116723244D01*
X146396423Y-116722646D01*
X146419147Y-116718300D01*
X146421565Y-116717982D01*
X146527031Y-116689721D01*
X146529798Y-116689001D01*
X146635621Y-116662309D01*
X146637893Y-116661406D01*
X146659836Y-116654137D01*
X146662207Y-116653502D01*
X146763081Y-116611716D01*
X146765649Y-116610674D01*
X146867164Y-116570366D01*
X146869299Y-116569174D01*
X146890115Y-116559098D01*
X146892373Y-116558164D01*
X146986967Y-116503549D01*
X146989424Y-116502156D01*
X147084727Y-116448987D01*
X147086686Y-116447529D01*
X147106017Y-116434817D01*
X147108127Y-116433599D01*
X147194789Y-116367099D01*
X147196951Y-116365465D01*
X147284584Y-116300248D01*
X147286315Y-116298567D01*
X147303840Y-116283423D01*
X147305776Y-116281938D01*
X147383095Y-116204617D01*
X147384976Y-116202764D01*
X149990447Y-113672814D01*
X150066120Y-113626805D01*
X150077564Y-113623367D01*
X150208845Y-113588191D01*
X150475345Y-113477804D01*
X150725156Y-113333575D01*
X150954004Y-113157974D01*
X151157974Y-112954004D01*
X151333575Y-112725156D01*
X151477804Y-112475345D01*
X151588191Y-112208845D01*
X151662849Y-111930217D01*
X151700500Y-111644228D01*
X151700500Y-111355772D01*
X151662849Y-111069783D01*
X151588191Y-110791155D01*
X151477804Y-110524655D01*
X151447391Y-110471979D01*
X151421288Y-110387355D01*
X151434486Y-110299781D01*
X151484375Y-110226606D01*
X151488653Y-110222750D01*
X152463192Y-109370029D01*
X152541147Y-109328005D01*
X152629618Y-109323965D01*
X152711080Y-109358712D01*
G37*
%TD.AperFunction*%
%TA.AperFunction,Conductor*%
G36*
X191886843Y-78020207D02*
G01*
X191956084Y-78075426D01*
X191994511Y-78155218D01*
X191999500Y-78199500D01*
X191999500Y-96807328D01*
X191979793Y-96893671D01*
X191924574Y-96962912D01*
X191844782Y-97001339D01*
X191756218Y-97001339D01*
X191676426Y-96962912D01*
X191621207Y-96893671D01*
X191608281Y-96858833D01*
X191594480Y-96807328D01*
X191545639Y-96625048D01*
X191432743Y-96352493D01*
X191385591Y-96270823D01*
X191285244Y-96097014D01*
X191285241Y-96097010D01*
X191105642Y-95862953D01*
X190897046Y-95654357D01*
X190662989Y-95474758D01*
X190662985Y-95474755D01*
X190407511Y-95327259D01*
X190407504Y-95327256D01*
X190134952Y-95214361D01*
X189849993Y-95138007D01*
X189849990Y-95138006D01*
X189849988Y-95138006D01*
X189557513Y-95099500D01*
X189557506Y-95099500D01*
X189262494Y-95099500D01*
X189262486Y-95099500D01*
X188970011Y-95138006D01*
X188685051Y-95214360D01*
X188685045Y-95214362D01*
X188412497Y-95327255D01*
X188412488Y-95327259D01*
X188157014Y-95474755D01*
X188157010Y-95474758D01*
X187922953Y-95654357D01*
X187922950Y-95654361D01*
X187714361Y-95862950D01*
X187714357Y-95862953D01*
X187534758Y-96097010D01*
X187534755Y-96097014D01*
X187387259Y-96352488D01*
X187387255Y-96352497D01*
X187274362Y-96625045D01*
X187274360Y-96625051D01*
X187269222Y-96644228D01*
X187199530Y-96904325D01*
X187198006Y-96910011D01*
X187159500Y-97202486D01*
X187159500Y-97497513D01*
X187195967Y-97774500D01*
X187198007Y-97789993D01*
X187274361Y-98074952D01*
X187299211Y-98134944D01*
X187387255Y-98347502D01*
X187387259Y-98347511D01*
X187534755Y-98602985D01*
X187534758Y-98602989D01*
X187714357Y-98837046D01*
X187922953Y-99045642D01*
X188157010Y-99225241D01*
X188157014Y-99225244D01*
X188391809Y-99360801D01*
X188412493Y-99372743D01*
X188685048Y-99485639D01*
X188970007Y-99561993D01*
X189235636Y-99596964D01*
X189262486Y-99600499D01*
X189262492Y-99600500D01*
X189262494Y-99600500D01*
X189557508Y-99600500D01*
X189557511Y-99600499D01*
X189849993Y-99561993D01*
X190134952Y-99485639D01*
X190407507Y-99372743D01*
X190534368Y-99299500D01*
X190662985Y-99225244D01*
X190662989Y-99225241D01*
X190662989Y-99225240D01*
X190662994Y-99225238D01*
X190897042Y-99045646D01*
X190897046Y-99045642D01*
X190897050Y-99045639D01*
X191105639Y-98837050D01*
X191105642Y-98837046D01*
X191105646Y-98837042D01*
X191285238Y-98602994D01*
X191285241Y-98602989D01*
X191285244Y-98602985D01*
X191386195Y-98428131D01*
X191432743Y-98347507D01*
X191545639Y-98074952D01*
X191608281Y-97841166D01*
X191649663Y-97762866D01*
X191720921Y-97710275D01*
X191807940Y-97693810D01*
X191893486Y-97716732D01*
X191960615Y-97774500D01*
X191996031Y-97855674D01*
X191999500Y-97892671D01*
X191999500Y-108973188D01*
X191979793Y-109059531D01*
X191924574Y-109128772D01*
X191844782Y-109167199D01*
X191756218Y-109167199D01*
X191676426Y-109128772D01*
X191669458Y-109122951D01*
X190804103Y-108365766D01*
X190794444Y-108356730D01*
X190755776Y-108318062D01*
X190710538Y-108283349D01*
X190700649Y-108275243D01*
X190690737Y-108266570D01*
X190657743Y-108237701D01*
X190612261Y-108207384D01*
X190601496Y-108199678D01*
X190558126Y-108166400D01*
X190558124Y-108166399D01*
X190508752Y-108137894D01*
X190497879Y-108131141D01*
X190450446Y-108099524D01*
X190450444Y-108099523D01*
X190401384Y-108075397D01*
X190389715Y-108069168D01*
X190342375Y-108041837D01*
X190342373Y-108041836D01*
X190289697Y-108020016D01*
X190278038Y-108014741D01*
X190226881Y-107989584D01*
X190226882Y-107989584D01*
X190175093Y-107972068D01*
X190162702Y-107967412D01*
X190112216Y-107946501D01*
X190112212Y-107946499D01*
X190057148Y-107931745D01*
X190044903Y-107928038D01*
X189990884Y-107909769D01*
X189937258Y-107899163D01*
X189924372Y-107896167D01*
X189871565Y-107882018D01*
X189871559Y-107882017D01*
X189815051Y-107874577D01*
X189802427Y-107872500D01*
X189746488Y-107861439D01*
X189691934Y-107857924D01*
X189678759Y-107856634D01*
X189663362Y-107854607D01*
X189624565Y-107849500D01*
X189624564Y-107849500D01*
X189567555Y-107849500D01*
X189554762Y-107849088D01*
X189552923Y-107848969D01*
X189497871Y-107845422D01*
X189497862Y-107845422D01*
X189444883Y-107848955D01*
X189443326Y-107849059D01*
X189430089Y-107849500D01*
X188426557Y-107849500D01*
X188426525Y-107849499D01*
X188420352Y-107849499D01*
X188171221Y-107849499D01*
X188171216Y-107849499D01*
X187924227Y-107882017D01*
X187924219Y-107882018D01*
X187683582Y-107946497D01*
X187453418Y-108041834D01*
X187453416Y-108041835D01*
X187453414Y-108041836D01*
X187406073Y-108069168D01*
X187237663Y-108166399D01*
X187237660Y-108166401D01*
X187040012Y-108318060D01*
X186992307Y-108365766D01*
X186863849Y-108494224D01*
X186863845Y-108494228D01*
X185614228Y-109743845D01*
X185614224Y-109743849D01*
X185526142Y-109831931D01*
X185438060Y-109920012D01*
X185286401Y-110117660D01*
X185286398Y-110117663D01*
X185163391Y-110330719D01*
X185103152Y-110395641D01*
X185020711Y-110427996D01*
X184939548Y-110423439D01*
X184769993Y-110378007D01*
X184769988Y-110378006D01*
X184769983Y-110378005D01*
X184477513Y-110339500D01*
X184477506Y-110339500D01*
X184182494Y-110339500D01*
X184182486Y-110339500D01*
X183890011Y-110378006D01*
X183605051Y-110454360D01*
X183605045Y-110454362D01*
X183332497Y-110567255D01*
X183332488Y-110567259D01*
X183159499Y-110667134D01*
X183074870Y-110693239D01*
X182987296Y-110680039D01*
X182960501Y-110667134D01*
X182787511Y-110567259D01*
X182787502Y-110567255D01*
X182727026Y-110542205D01*
X182514952Y-110454361D01*
X182229993Y-110378007D01*
X182229990Y-110378006D01*
X182229988Y-110378006D01*
X181937513Y-110339500D01*
X181937506Y-110339500D01*
X181642494Y-110339500D01*
X181642486Y-110339500D01*
X181350011Y-110378006D01*
X181065051Y-110454360D01*
X181065045Y-110454362D01*
X180792497Y-110567255D01*
X180792488Y-110567259D01*
X180619499Y-110667134D01*
X180534870Y-110693239D01*
X180447296Y-110680039D01*
X180420501Y-110667134D01*
X180247511Y-110567259D01*
X180247502Y-110567255D01*
X180187026Y-110542205D01*
X179974952Y-110454361D01*
X179689993Y-110378007D01*
X179689990Y-110378006D01*
X179689988Y-110378006D01*
X179397513Y-110339500D01*
X179397506Y-110339500D01*
X179102494Y-110339500D01*
X179102486Y-110339500D01*
X178810011Y-110378006D01*
X178525051Y-110454360D01*
X178525045Y-110454362D01*
X178252497Y-110567255D01*
X178252488Y-110567259D01*
X178079499Y-110667134D01*
X177994870Y-110693239D01*
X177907296Y-110680039D01*
X177880501Y-110667134D01*
X177707511Y-110567259D01*
X177707502Y-110567255D01*
X177647026Y-110542205D01*
X177434952Y-110454361D01*
X177149993Y-110378007D01*
X177149990Y-110378006D01*
X177149988Y-110378006D01*
X176857513Y-110339500D01*
X176857506Y-110339500D01*
X176562494Y-110339500D01*
X176562486Y-110339500D01*
X176270011Y-110378006D01*
X175985051Y-110454360D01*
X175985045Y-110454362D01*
X175712497Y-110567255D01*
X175712488Y-110567259D01*
X175539499Y-110667134D01*
X175454870Y-110693239D01*
X175367296Y-110680039D01*
X175340501Y-110667134D01*
X175167511Y-110567259D01*
X175167502Y-110567255D01*
X175107026Y-110542205D01*
X174894952Y-110454361D01*
X174609993Y-110378007D01*
X174609990Y-110378006D01*
X174609988Y-110378006D01*
X174317513Y-110339500D01*
X174317506Y-110339500D01*
X174022494Y-110339500D01*
X174022486Y-110339500D01*
X173730011Y-110378006D01*
X173445051Y-110454360D01*
X173445045Y-110454362D01*
X173172497Y-110567255D01*
X173172488Y-110567259D01*
X172999499Y-110667134D01*
X172914870Y-110693239D01*
X172827296Y-110680039D01*
X172800501Y-110667134D01*
X172627511Y-110567259D01*
X172627502Y-110567255D01*
X172567026Y-110542205D01*
X172354952Y-110454361D01*
X172069993Y-110378007D01*
X172069990Y-110378006D01*
X172069988Y-110378006D01*
X171777513Y-110339500D01*
X171777506Y-110339500D01*
X171482494Y-110339500D01*
X171482486Y-110339500D01*
X171190011Y-110378006D01*
X170905051Y-110454360D01*
X170905045Y-110454362D01*
X170632497Y-110567255D01*
X170632488Y-110567259D01*
X170459499Y-110667134D01*
X170374870Y-110693239D01*
X170287296Y-110680039D01*
X170260501Y-110667134D01*
X170087511Y-110567259D01*
X170087502Y-110567255D01*
X170027026Y-110542205D01*
X169814952Y-110454361D01*
X169529993Y-110378007D01*
X169529990Y-110378006D01*
X169529988Y-110378006D01*
X169237513Y-110339500D01*
X169237506Y-110339500D01*
X168942494Y-110339500D01*
X168942486Y-110339500D01*
X168650011Y-110378006D01*
X168365051Y-110454360D01*
X168365045Y-110454362D01*
X168092497Y-110567255D01*
X168092488Y-110567259D01*
X167837014Y-110714755D01*
X167837010Y-110714758D01*
X167602953Y-110894357D01*
X167602950Y-110894361D01*
X167394361Y-111102950D01*
X167394357Y-111102953D01*
X167214758Y-111337010D01*
X167214755Y-111337014D01*
X167149525Y-111449999D01*
X167089287Y-111514921D01*
X167006846Y-111547277D01*
X166977186Y-111549500D01*
X166844015Y-111549500D01*
X166757672Y-111529793D01*
X166688431Y-111474574D01*
X166650004Y-111394782D01*
X166650004Y-111306218D01*
X166688431Y-111226426D01*
X166702233Y-111210862D01*
X168624552Y-109259025D01*
X175518544Y-102259174D01*
X175519229Y-102258484D01*
X175601938Y-102175776D01*
X175601946Y-102175766D01*
X175606239Y-102170872D01*
X175606456Y-102171062D01*
X175607425Y-102169948D01*
X175607206Y-102169759D01*
X175611453Y-102164839D01*
X175611463Y-102164830D01*
X175681673Y-102071872D01*
X175682521Y-102070756D01*
X175753599Y-101978127D01*
X175753605Y-101978116D01*
X175757221Y-101972706D01*
X175757464Y-101972868D01*
X175758282Y-101971634D01*
X175758037Y-101971473D01*
X175761606Y-101966040D01*
X175761614Y-101966031D01*
X175819226Y-101864460D01*
X175819707Y-101863620D01*
X175878164Y-101762373D01*
X175878171Y-101762354D01*
X175881050Y-101756520D01*
X175881307Y-101756647D01*
X175881950Y-101755332D01*
X175881691Y-101755207D01*
X175884529Y-101749339D01*
X175884532Y-101749334D01*
X175928396Y-101641110D01*
X175928818Y-101640081D01*
X175973502Y-101532207D01*
X175973503Y-101532202D01*
X175975597Y-101526036D01*
X175975867Y-101526127D01*
X175976338Y-101524723D01*
X175976067Y-101524634D01*
X175978110Y-101518457D01*
X175978114Y-101518449D01*
X176007507Y-101405308D01*
X176007732Y-101404456D01*
X176037982Y-101291565D01*
X176037983Y-101291556D01*
X176039256Y-101285160D01*
X176039537Y-101285216D01*
X176039817Y-101283783D01*
X176039535Y-101283730D01*
X176040757Y-101277328D01*
X176040759Y-101277322D01*
X176055118Y-101161425D01*
X176055268Y-101160252D01*
X176070500Y-101044565D01*
X176070926Y-101038068D01*
X176071209Y-101038086D01*
X176071300Y-101036604D01*
X176071018Y-101036588D01*
X176071394Y-101030086D01*
X176070506Y-100913527D01*
X176070500Y-100912010D01*
X176070500Y-99762643D01*
X176090207Y-99676300D01*
X176145426Y-99607059D01*
X176225218Y-99568632D01*
X176295475Y-99565346D01*
X176562486Y-99600499D01*
X176562492Y-99600500D01*
X176562494Y-99600500D01*
X176857508Y-99600500D01*
X176857511Y-99600499D01*
X177149993Y-99561993D01*
X177434952Y-99485639D01*
X177707507Y-99372743D01*
X177880502Y-99272864D01*
X177965129Y-99246760D01*
X178052703Y-99259960D01*
X178079491Y-99272861D01*
X178252493Y-99372743D01*
X178525048Y-99485639D01*
X178810007Y-99561993D01*
X179075636Y-99596964D01*
X179102486Y-99600499D01*
X179102492Y-99600500D01*
X179102494Y-99600500D01*
X179397508Y-99600500D01*
X179397511Y-99600499D01*
X179689993Y-99561993D01*
X179974952Y-99485639D01*
X180247507Y-99372743D01*
X180420502Y-99272864D01*
X180505129Y-99246760D01*
X180592703Y-99259960D01*
X180619491Y-99272861D01*
X180792493Y-99372743D01*
X181065048Y-99485639D01*
X181350007Y-99561993D01*
X181615636Y-99596964D01*
X181642486Y-99600499D01*
X181642492Y-99600500D01*
X181642494Y-99600500D01*
X181937508Y-99600500D01*
X181937511Y-99600499D01*
X182229993Y-99561993D01*
X182514952Y-99485639D01*
X182787507Y-99372743D01*
X182960502Y-99272864D01*
X183045129Y-99246760D01*
X183132703Y-99259960D01*
X183159491Y-99272861D01*
X183332493Y-99372743D01*
X183605048Y-99485639D01*
X183890007Y-99561993D01*
X184155636Y-99596964D01*
X184182486Y-99600499D01*
X184182492Y-99600500D01*
X184182494Y-99600500D01*
X184477508Y-99600500D01*
X184477511Y-99600499D01*
X184769993Y-99561993D01*
X185054952Y-99485639D01*
X185327507Y-99372743D01*
X185454368Y-99299500D01*
X185582985Y-99225244D01*
X185582989Y-99225241D01*
X185582989Y-99225240D01*
X185582994Y-99225238D01*
X185817042Y-99045646D01*
X185817046Y-99045642D01*
X185817050Y-99045639D01*
X186025639Y-98837050D01*
X186025642Y-98837046D01*
X186025646Y-98837042D01*
X186205238Y-98602994D01*
X186205241Y-98602989D01*
X186205244Y-98602985D01*
X186306195Y-98428131D01*
X186352743Y-98347507D01*
X186465639Y-98074952D01*
X186541993Y-97789993D01*
X186580500Y-97497506D01*
X186580500Y-97202494D01*
X186541993Y-96910007D01*
X186465639Y-96625048D01*
X186352743Y-96352493D01*
X186305591Y-96270823D01*
X186205244Y-96097014D01*
X186205241Y-96097010D01*
X186025642Y-95862953D01*
X185817046Y-95654357D01*
X185582989Y-95474758D01*
X185582985Y-95474755D01*
X185327511Y-95327259D01*
X185327504Y-95327256D01*
X185054952Y-95214361D01*
X184769993Y-95138007D01*
X184769990Y-95138006D01*
X184769988Y-95138006D01*
X184477513Y-95099500D01*
X184477506Y-95099500D01*
X184182494Y-95099500D01*
X184182486Y-95099500D01*
X183890011Y-95138006D01*
X183605051Y-95214360D01*
X183605045Y-95214362D01*
X183332497Y-95327255D01*
X183332488Y-95327259D01*
X183159499Y-95427134D01*
X183074870Y-95453239D01*
X182987296Y-95440039D01*
X182960501Y-95427134D01*
X182787511Y-95327259D01*
X182787504Y-95327256D01*
X182514952Y-95214361D01*
X182229993Y-95138007D01*
X182229990Y-95138006D01*
X182229988Y-95138006D01*
X181937513Y-95099500D01*
X181937506Y-95099500D01*
X181642494Y-95099500D01*
X181642486Y-95099500D01*
X181350011Y-95138006D01*
X181065051Y-95214360D01*
X181065045Y-95214362D01*
X180792497Y-95327255D01*
X180792488Y-95327259D01*
X180619499Y-95427134D01*
X180534870Y-95453239D01*
X180447296Y-95440039D01*
X180420501Y-95427134D01*
X180247511Y-95327259D01*
X180247504Y-95327256D01*
X179974952Y-95214361D01*
X179689993Y-95138007D01*
X179689990Y-95138006D01*
X179689988Y-95138006D01*
X179397513Y-95099500D01*
X179397506Y-95099500D01*
X179102494Y-95099500D01*
X179102486Y-95099500D01*
X178810011Y-95138006D01*
X178525051Y-95214360D01*
X178525045Y-95214362D01*
X178252497Y-95327255D01*
X178252488Y-95327259D01*
X178079499Y-95427134D01*
X177994870Y-95453239D01*
X177907296Y-95440039D01*
X177880501Y-95427134D01*
X177707511Y-95327259D01*
X177707504Y-95327256D01*
X177434952Y-95214361D01*
X177149993Y-95138007D01*
X177149990Y-95138006D01*
X177149988Y-95138006D01*
X176857513Y-95099500D01*
X176857506Y-95099500D01*
X176562494Y-95099500D01*
X176562486Y-95099500D01*
X176270011Y-95138006D01*
X175985051Y-95214360D01*
X175985045Y-95214362D01*
X175712497Y-95327255D01*
X175712488Y-95327259D01*
X175539499Y-95427134D01*
X175454870Y-95453239D01*
X175367296Y-95440039D01*
X175340501Y-95427134D01*
X175167511Y-95327259D01*
X175167504Y-95327256D01*
X174894952Y-95214361D01*
X174609993Y-95138007D01*
X174609990Y-95138006D01*
X174609988Y-95138006D01*
X174317513Y-95099500D01*
X174317506Y-95099500D01*
X174022494Y-95099500D01*
X174022486Y-95099500D01*
X173730011Y-95138006D01*
X173445051Y-95214360D01*
X173445045Y-95214362D01*
X173172497Y-95327255D01*
X173172488Y-95327259D01*
X172999499Y-95427134D01*
X172914870Y-95453239D01*
X172827296Y-95440039D01*
X172800501Y-95427134D01*
X172627511Y-95327259D01*
X172627504Y-95327256D01*
X172354952Y-95214361D01*
X172069993Y-95138007D01*
X172069990Y-95138006D01*
X172069988Y-95138006D01*
X171777513Y-95099500D01*
X171777506Y-95099500D01*
X171482494Y-95099500D01*
X171482486Y-95099500D01*
X171190011Y-95138006D01*
X170905051Y-95214360D01*
X170905045Y-95214362D01*
X170632497Y-95327255D01*
X170632488Y-95327259D01*
X170459499Y-95427134D01*
X170374870Y-95453239D01*
X170287296Y-95440039D01*
X170260501Y-95427134D01*
X170087511Y-95327259D01*
X170087504Y-95327256D01*
X169814952Y-95214361D01*
X169529993Y-95138007D01*
X169529990Y-95138006D01*
X169529988Y-95138006D01*
X169237513Y-95099500D01*
X169237506Y-95099500D01*
X168942494Y-95099500D01*
X168942486Y-95099500D01*
X168650011Y-95138006D01*
X168365051Y-95214360D01*
X168365045Y-95214362D01*
X168092497Y-95327255D01*
X168092495Y-95327256D01*
X168092493Y-95327257D01*
X167926938Y-95422839D01*
X167842311Y-95448944D01*
X167827440Y-95449500D01*
X165280770Y-95449500D01*
X165280738Y-95449499D01*
X165274565Y-95449499D01*
X165025434Y-95449499D01*
X165025429Y-95449499D01*
X164778440Y-95482017D01*
X164778432Y-95482018D01*
X164537795Y-95546497D01*
X164307631Y-95641834D01*
X164307629Y-95641835D01*
X164091876Y-95766399D01*
X164091873Y-95766401D01*
X163894225Y-95918060D01*
X163806144Y-96006142D01*
X163718062Y-96094224D01*
X163718058Y-96094228D01*
X161682988Y-98129297D01*
X161607999Y-98176416D01*
X161519993Y-98186332D01*
X161436400Y-98157081D01*
X161373776Y-98094457D01*
X161344525Y-98010864D01*
X161354441Y-97922857D01*
X161384395Y-97867441D01*
X161493575Y-97725156D01*
X161637804Y-97475345D01*
X161748191Y-97208845D01*
X161822849Y-96930217D01*
X161860500Y-96644228D01*
X161860500Y-96355772D01*
X161822849Y-96069783D01*
X161748191Y-95791155D01*
X161637804Y-95524655D01*
X161574923Y-95415743D01*
X161493578Y-95274848D01*
X161317971Y-95045992D01*
X161114007Y-94842028D01*
X160885151Y-94666421D01*
X160635345Y-94522196D01*
X160368845Y-94411809D01*
X160183787Y-94362223D01*
X160090221Y-94337152D01*
X160090220Y-94337151D01*
X160090217Y-94337151D01*
X159804228Y-94299500D01*
X159804220Y-94299499D01*
X159797730Y-94299074D01*
X159797810Y-94297850D01*
X159718692Y-94279793D01*
X159649451Y-94224574D01*
X159611024Y-94144782D01*
X159611024Y-94056218D01*
X159649451Y-93976426D01*
X159678518Y-93946895D01*
X159783334Y-93860564D01*
X159966659Y-93709569D01*
X160045832Y-93669889D01*
X160067188Y-93665880D01*
X160090217Y-93662849D01*
X160368845Y-93588191D01*
X160635345Y-93477804D01*
X160885156Y-93333575D01*
X161114004Y-93157974D01*
X161317974Y-92954004D01*
X161493575Y-92725156D01*
X161637804Y-92475345D01*
X161748191Y-92208845D01*
X161822849Y-91930217D01*
X161860500Y-91644228D01*
X161860500Y-91355772D01*
X161822849Y-91069783D01*
X161748191Y-90791155D01*
X161637804Y-90524655D01*
X161566123Y-90400500D01*
X161493578Y-90274848D01*
X161317971Y-90045992D01*
X161114007Y-89842028D01*
X160885151Y-89666421D01*
X160635345Y-89522196D01*
X160368845Y-89411809D01*
X160090217Y-89337151D01*
X159804228Y-89299500D01*
X159515772Y-89299500D01*
X159229783Y-89337151D01*
X159229780Y-89337151D01*
X159229778Y-89337152D01*
X158951158Y-89411808D01*
X158951152Y-89411810D01*
X158684657Y-89522195D01*
X158684654Y-89522196D01*
X158434848Y-89666421D01*
X158205992Y-89842028D01*
X158002028Y-90045992D01*
X157826421Y-90274848D01*
X157682194Y-90524657D01*
X157682193Y-90524659D01*
X157611797Y-90694612D01*
X157560548Y-90766841D01*
X157554461Y-90772064D01*
X153308312Y-94269376D01*
X153305153Y-94271924D01*
X153224181Y-94335889D01*
X153218268Y-94341971D01*
X153202128Y-94356835D01*
X153195587Y-94362223D01*
X153125234Y-94437604D01*
X153122435Y-94440542D01*
X153050525Y-94514507D01*
X153050515Y-94514519D01*
X153045443Y-94521324D01*
X153031397Y-94538147D01*
X153025620Y-94544337D01*
X153025604Y-94544358D01*
X152965705Y-94628258D01*
X152963315Y-94631534D01*
X152901656Y-94714279D01*
X152901652Y-94714284D01*
X152897522Y-94721677D01*
X152885776Y-94740216D01*
X152880856Y-94747108D01*
X152880851Y-94747116D01*
X152832384Y-94838177D01*
X152830442Y-94841737D01*
X152780142Y-94931766D01*
X152777006Y-94939648D01*
X152767784Y-94959551D01*
X152763801Y-94967034D01*
X152763801Y-94967036D01*
X152727632Y-95063652D01*
X152726170Y-95067438D01*
X152688053Y-95163257D01*
X152685976Y-95171468D01*
X152679428Y-95192414D01*
X152676460Y-95200343D01*
X152653211Y-95300852D01*
X152652256Y-95304795D01*
X152626971Y-95404775D01*
X152626968Y-95404787D01*
X152625981Y-95413197D01*
X152622226Y-95434804D01*
X152620314Y-95443071D01*
X152610384Y-95545759D01*
X152609952Y-95549796D01*
X152597933Y-95652218D01*
X152598052Y-95660678D01*
X152597149Y-95682610D01*
X152596334Y-95691034D01*
X152596334Y-95691050D01*
X152599891Y-95794176D01*
X152599989Y-95798232D01*
X152678240Y-101353942D01*
X152659751Y-101440554D01*
X152605513Y-101510567D01*
X152526270Y-101550113D01*
X152437715Y-101551360D01*
X152357389Y-101514061D01*
X152346136Y-101504661D01*
X151642132Y-100871058D01*
X151591137Y-100798649D01*
X151589652Y-100794682D01*
X151477807Y-100524662D01*
X151477805Y-100524657D01*
X151477804Y-100524655D01*
X151423047Y-100429813D01*
X151333578Y-100274848D01*
X151157971Y-100045992D01*
X150954007Y-99842028D01*
X150725151Y-99666421D01*
X150475345Y-99522196D01*
X150208845Y-99411809D01*
X149930217Y-99337151D01*
X149644228Y-99299500D01*
X149355772Y-99299500D01*
X149069783Y-99337151D01*
X149069780Y-99337151D01*
X149069778Y-99337152D01*
X148791158Y-99411808D01*
X148791152Y-99411810D01*
X148524657Y-99522195D01*
X148524654Y-99522196D01*
X148274848Y-99666421D01*
X148045992Y-99842028D01*
X147842028Y-100045992D01*
X147666421Y-100274848D01*
X147522196Y-100524654D01*
X147522195Y-100524657D01*
X147411810Y-100791152D01*
X147411808Y-100791158D01*
X147345856Y-101037297D01*
X147337151Y-101069783D01*
X147299500Y-101355772D01*
X147299500Y-101644228D01*
X147315053Y-101762368D01*
X147337152Y-101930221D01*
X147411808Y-102208841D01*
X147411810Y-102208847D01*
X147459651Y-102324346D01*
X147474486Y-102411658D01*
X147449968Y-102496760D01*
X147390954Y-102562797D01*
X147309132Y-102596688D01*
X147275799Y-102599500D01*
X131302474Y-102599500D01*
X131292537Y-102599252D01*
X131278128Y-102598531D01*
X131220496Y-102595650D01*
X131220494Y-102595650D01*
X131220492Y-102595650D01*
X131181073Y-102598848D01*
X131164982Y-102599500D01*
X131125434Y-102599500D01*
X131053939Y-102608911D01*
X131044059Y-102609961D01*
X130972194Y-102615791D01*
X130972179Y-102615793D01*
X130933501Y-102624111D01*
X130917639Y-102626856D01*
X130878445Y-102632016D01*
X130878436Y-102632017D01*
X130808762Y-102650685D01*
X130799110Y-102653014D01*
X130728630Y-102668173D01*
X130728605Y-102668180D01*
X130691371Y-102681466D01*
X130676008Y-102686257D01*
X130637795Y-102696496D01*
X130637792Y-102696498D01*
X130571164Y-102724094D01*
X130561898Y-102727664D01*
X130493988Y-102751897D01*
X130493985Y-102751898D01*
X130458781Y-102769942D01*
X130444171Y-102776698D01*
X130407632Y-102791833D01*
X130407628Y-102791835D01*
X130345176Y-102827891D01*
X130336452Y-102832641D01*
X130272281Y-102865533D01*
X130272276Y-102865536D01*
X130239742Y-102888011D01*
X130226139Y-102896616D01*
X130191878Y-102916397D01*
X130191872Y-102916400D01*
X130134654Y-102960305D01*
X130126625Y-102966153D01*
X130067307Y-103007132D01*
X130067300Y-103007138D01*
X130037977Y-103033667D01*
X130025619Y-103043970D01*
X129994224Y-103068061D01*
X129943217Y-103119067D01*
X129936017Y-103125916D01*
X124727103Y-107838744D01*
X124726756Y-107839057D01*
X124635618Y-107921125D01*
X124634409Y-107922374D01*
X124634083Y-107922710D01*
X124632621Y-107924210D01*
X124553386Y-108017432D01*
X124553087Y-108017784D01*
X124473830Y-108110593D01*
X124472468Y-108112427D01*
X124472185Y-108112807D01*
X124471256Y-108114050D01*
X124404888Y-108216787D01*
X124404634Y-108217178D01*
X124338174Y-108319529D01*
X124337281Y-108321134D01*
X124337026Y-108321591D01*
X124336076Y-108323286D01*
X124336033Y-108323377D01*
X124290133Y-108420207D01*
X124283875Y-108433408D01*
X124283674Y-108433830D01*
X124230937Y-108544406D01*
X124230212Y-108546240D01*
X124230016Y-108546733D01*
X124229349Y-108548403D01*
X124191760Y-108665038D01*
X124191617Y-108665479D01*
X124153973Y-108781355D01*
X124153410Y-108783597D01*
X124153287Y-108784083D01*
X124152918Y-108785533D01*
X124130873Y-108906090D01*
X124130788Y-108906549D01*
X123857834Y-110379630D01*
X123822726Y-110460938D01*
X123755816Y-110518960D01*
X123670358Y-110542205D01*
X123586012Y-110527226D01*
X123554960Y-110514364D01*
X123554956Y-110514362D01*
X123554952Y-110514361D01*
X123269993Y-110438007D01*
X123269990Y-110438006D01*
X123269988Y-110438006D01*
X122977513Y-110399500D01*
X122977506Y-110399500D01*
X122682494Y-110399500D01*
X122682486Y-110399500D01*
X122390011Y-110438006D01*
X122105051Y-110514360D01*
X122105045Y-110514362D01*
X121832497Y-110627255D01*
X121832488Y-110627259D01*
X121659499Y-110727134D01*
X121574870Y-110753239D01*
X121487296Y-110740039D01*
X121460501Y-110727134D01*
X121287511Y-110627259D01*
X121287502Y-110627255D01*
X121082173Y-110542205D01*
X121014952Y-110514361D01*
X120729993Y-110438007D01*
X120729990Y-110438006D01*
X120729988Y-110438006D01*
X120437513Y-110399500D01*
X120437506Y-110399500D01*
X120142494Y-110399500D01*
X120142486Y-110399500D01*
X119850011Y-110438006D01*
X119565051Y-110514360D01*
X119565045Y-110514362D01*
X119292497Y-110627255D01*
X119292488Y-110627259D01*
X119119499Y-110727134D01*
X119034870Y-110753239D01*
X118947296Y-110740039D01*
X118920501Y-110727134D01*
X118747511Y-110627259D01*
X118747502Y-110627255D01*
X118542173Y-110542205D01*
X118474952Y-110514361D01*
X118189993Y-110438007D01*
X118189990Y-110438006D01*
X118189988Y-110438006D01*
X117897513Y-110399500D01*
X117897506Y-110399500D01*
X117602494Y-110399500D01*
X117602486Y-110399500D01*
X117310011Y-110438006D01*
X117025051Y-110514360D01*
X117025045Y-110514362D01*
X116752497Y-110627255D01*
X116752488Y-110627259D01*
X116579499Y-110727134D01*
X116494870Y-110753239D01*
X116407296Y-110740039D01*
X116380501Y-110727134D01*
X116207511Y-110627259D01*
X116207502Y-110627255D01*
X116002173Y-110542205D01*
X115934952Y-110514361D01*
X115649993Y-110438007D01*
X115649990Y-110438006D01*
X115649988Y-110438006D01*
X115357513Y-110399500D01*
X115357506Y-110399500D01*
X115062494Y-110399500D01*
X115062486Y-110399500D01*
X114770011Y-110438006D01*
X114485051Y-110514360D01*
X114485045Y-110514362D01*
X114212497Y-110627255D01*
X114212488Y-110627259D01*
X114039499Y-110727134D01*
X113954870Y-110753239D01*
X113867296Y-110740039D01*
X113840501Y-110727134D01*
X113667511Y-110627259D01*
X113667502Y-110627255D01*
X113462173Y-110542205D01*
X113394952Y-110514361D01*
X113109993Y-110438007D01*
X113109990Y-110438006D01*
X113109988Y-110438006D01*
X112817513Y-110399500D01*
X112817506Y-110399500D01*
X112522494Y-110399500D01*
X112522486Y-110399500D01*
X112230011Y-110438006D01*
X111945051Y-110514360D01*
X111945045Y-110514362D01*
X111672497Y-110627255D01*
X111672488Y-110627259D01*
X111417014Y-110774755D01*
X111417010Y-110774758D01*
X111182953Y-110954357D01*
X111182950Y-110954361D01*
X110974361Y-111162950D01*
X110974357Y-111162953D01*
X110794758Y-111397010D01*
X110794755Y-111397014D01*
X110647259Y-111652488D01*
X110647255Y-111652497D01*
X110534362Y-111925045D01*
X110534360Y-111925051D01*
X110458006Y-112210011D01*
X110419500Y-112502486D01*
X110419500Y-112797513D01*
X110458006Y-113089986D01*
X110458007Y-113089993D01*
X110534361Y-113374952D01*
X110627577Y-113599996D01*
X110647255Y-113647502D01*
X110647259Y-113647511D01*
X110794755Y-113902985D01*
X110794758Y-113902989D01*
X110974357Y-114137046D01*
X111182953Y-114345642D01*
X111182957Y-114345645D01*
X111182958Y-114345646D01*
X111417006Y-114525238D01*
X111417010Y-114525241D01*
X111417014Y-114525244D01*
X111644096Y-114656348D01*
X111672493Y-114672743D01*
X111945048Y-114785639D01*
X112218987Y-114859040D01*
X112297287Y-114900422D01*
X112349878Y-114971680D01*
X112366343Y-115058699D01*
X112343421Y-115144245D01*
X112285653Y-115211374D01*
X112233208Y-115239092D01*
X112119931Y-115278729D01*
X112119918Y-115278734D01*
X111876997Y-115395719D01*
X111648706Y-115539165D01*
X111648693Y-115539174D01*
X111437923Y-115707258D01*
X111437914Y-115707266D01*
X111247266Y-115897914D01*
X111247258Y-115897923D01*
X111079174Y-116108693D01*
X111079165Y-116108706D01*
X110935719Y-116336997D01*
X110818734Y-116579918D01*
X110818727Y-116579936D01*
X110729685Y-116834403D01*
X110694011Y-116990704D01*
X110655584Y-117070497D01*
X110586342Y-117125715D01*
X110500000Y-117145422D01*
X110413657Y-117125715D01*
X110344415Y-117070496D01*
X110305989Y-116990704D01*
X110270316Y-116834409D01*
X110181267Y-116579921D01*
X110064284Y-116337003D01*
X109920838Y-116108711D01*
X109920833Y-116108705D01*
X109920825Y-116108693D01*
X109752741Y-115897923D01*
X109752733Y-115897914D01*
X109562081Y-115707262D01*
X109557910Y-115703534D01*
X109559175Y-115702117D01*
X109510166Y-115640602D01*
X109490500Y-115554344D01*
X109490500Y-114023417D01*
X109510207Y-113937074D01*
X109517153Y-113923930D01*
X109578284Y-113818050D01*
X109668605Y-113599994D01*
X109729692Y-113372014D01*
X109731144Y-113360980D01*
X109736218Y-113335466D01*
X109801993Y-113089993D01*
X109840500Y-112797506D01*
X109840500Y-112502494D01*
X109801993Y-112210007D01*
X109725639Y-111925048D01*
X109612743Y-111652493D01*
X109560010Y-111561156D01*
X109465244Y-111397014D01*
X109465241Y-111397010D01*
X109285642Y-111162953D01*
X109077046Y-110954357D01*
X108842989Y-110774758D01*
X108842985Y-110774755D01*
X108587511Y-110627259D01*
X108587502Y-110627255D01*
X108382173Y-110542205D01*
X108314952Y-110514361D01*
X108029993Y-110438007D01*
X108029990Y-110438006D01*
X108029988Y-110438006D01*
X107737513Y-110399500D01*
X107737506Y-110399500D01*
X107442494Y-110399500D01*
X107442486Y-110399500D01*
X107150011Y-110438006D01*
X106865051Y-110514360D01*
X106865045Y-110514362D01*
X106592497Y-110627255D01*
X106592488Y-110627259D01*
X106337014Y-110774755D01*
X106337010Y-110774758D01*
X106102953Y-110954357D01*
X106102950Y-110954361D01*
X105894361Y-111162950D01*
X105894357Y-111162953D01*
X105714758Y-111397010D01*
X105714755Y-111397014D01*
X105567259Y-111652488D01*
X105567255Y-111652497D01*
X105454362Y-111925045D01*
X105454360Y-111925051D01*
X105391719Y-112158833D01*
X105350337Y-112237133D01*
X105279079Y-112289724D01*
X105192059Y-112306189D01*
X105106514Y-112283267D01*
X105039385Y-112225498D01*
X105003969Y-112144325D01*
X105000500Y-112107328D01*
X105000500Y-97952671D01*
X105020207Y-97866328D01*
X105075426Y-97797087D01*
X105155218Y-97758660D01*
X105243782Y-97758660D01*
X105323574Y-97797087D01*
X105378793Y-97866328D01*
X105391719Y-97901167D01*
X105454358Y-98134944D01*
X105454360Y-98134950D01*
X105454361Y-98134952D01*
X105567255Y-98407502D01*
X105567259Y-98407511D01*
X105714755Y-98662985D01*
X105714758Y-98662989D01*
X105894357Y-98897046D01*
X106102953Y-99105642D01*
X106102957Y-99105645D01*
X106102958Y-99105646D01*
X106241806Y-99212188D01*
X106337010Y-99285241D01*
X106337014Y-99285244D01*
X106525767Y-99394219D01*
X106592493Y-99432743D01*
X106865048Y-99545639D01*
X107150007Y-99621993D01*
X107415636Y-99656964D01*
X107442486Y-99660499D01*
X107442492Y-99660500D01*
X107442494Y-99660500D01*
X107737508Y-99660500D01*
X107737511Y-99660499D01*
X108029993Y-99621993D01*
X108314952Y-99545639D01*
X108587507Y-99432743D01*
X108760502Y-99332864D01*
X108845129Y-99306760D01*
X108932703Y-99319960D01*
X108959491Y-99332861D01*
X109132493Y-99432743D01*
X109405048Y-99545639D01*
X109690007Y-99621993D01*
X109955636Y-99656964D01*
X109982486Y-99660499D01*
X109982492Y-99660500D01*
X109982494Y-99660500D01*
X110277508Y-99660500D01*
X110277511Y-99660499D01*
X110569993Y-99621993D01*
X110854952Y-99545639D01*
X111127507Y-99432743D01*
X111300502Y-99332864D01*
X111385129Y-99306760D01*
X111472703Y-99319960D01*
X111499491Y-99332861D01*
X111672493Y-99432743D01*
X111945048Y-99545639D01*
X112230007Y-99621993D01*
X112495636Y-99656964D01*
X112522486Y-99660499D01*
X112522492Y-99660500D01*
X112522494Y-99660500D01*
X112817508Y-99660500D01*
X112817511Y-99660499D01*
X113109993Y-99621993D01*
X113394952Y-99545639D01*
X113667507Y-99432743D01*
X113840502Y-99332864D01*
X113925129Y-99306760D01*
X114012703Y-99319960D01*
X114039491Y-99332861D01*
X114212493Y-99432743D01*
X114485048Y-99545639D01*
X114770007Y-99621993D01*
X115035636Y-99656964D01*
X115062486Y-99660499D01*
X115062492Y-99660500D01*
X115062494Y-99660500D01*
X115357508Y-99660500D01*
X115357511Y-99660499D01*
X115649993Y-99621993D01*
X115934952Y-99545639D01*
X116207507Y-99432743D01*
X116380502Y-99332864D01*
X116465129Y-99306760D01*
X116552703Y-99319960D01*
X116579491Y-99332861D01*
X116752493Y-99432743D01*
X117025048Y-99545639D01*
X117310007Y-99621993D01*
X117575636Y-99656964D01*
X117602486Y-99660499D01*
X117602492Y-99660500D01*
X117602494Y-99660500D01*
X117897508Y-99660500D01*
X117897511Y-99660499D01*
X118189993Y-99621993D01*
X118474952Y-99545639D01*
X118747507Y-99432743D01*
X118920502Y-99332864D01*
X119005129Y-99306760D01*
X119092703Y-99319960D01*
X119119491Y-99332861D01*
X119292493Y-99432743D01*
X119565048Y-99545639D01*
X119850007Y-99621993D01*
X120115636Y-99656964D01*
X120142486Y-99660499D01*
X120142492Y-99660500D01*
X120142494Y-99660500D01*
X120437508Y-99660500D01*
X120437511Y-99660499D01*
X120729993Y-99621993D01*
X121014952Y-99545639D01*
X121287507Y-99432743D01*
X121460502Y-99332864D01*
X121545129Y-99306760D01*
X121632703Y-99319960D01*
X121659491Y-99332861D01*
X121832493Y-99432743D01*
X122105048Y-99545639D01*
X122390007Y-99621993D01*
X122655636Y-99656964D01*
X122682486Y-99660499D01*
X122682492Y-99660500D01*
X122682494Y-99660500D01*
X122977508Y-99660500D01*
X122977511Y-99660499D01*
X123269993Y-99621993D01*
X123554952Y-99545639D01*
X123827507Y-99432743D01*
X124000502Y-99332864D01*
X124085129Y-99306760D01*
X124172703Y-99319960D01*
X124199491Y-99332861D01*
X124372493Y-99432743D01*
X124645048Y-99545639D01*
X124930007Y-99621993D01*
X125195636Y-99656964D01*
X125222486Y-99660499D01*
X125222492Y-99660500D01*
X125222494Y-99660500D01*
X125517508Y-99660500D01*
X125517511Y-99660499D01*
X125809993Y-99621993D01*
X126094952Y-99545639D01*
X126367507Y-99432743D01*
X126540502Y-99332864D01*
X126625129Y-99306760D01*
X126712703Y-99319960D01*
X126739491Y-99332861D01*
X126912493Y-99432743D01*
X127185048Y-99545639D01*
X127470007Y-99621993D01*
X127735636Y-99656964D01*
X127762486Y-99660499D01*
X127762492Y-99660500D01*
X127762494Y-99660500D01*
X128057508Y-99660500D01*
X128057511Y-99660499D01*
X128349993Y-99621993D01*
X128634952Y-99545639D01*
X128907507Y-99432743D01*
X129073078Y-99337151D01*
X129162985Y-99285244D01*
X129162989Y-99285241D01*
X129162989Y-99285240D01*
X129162994Y-99285238D01*
X129397042Y-99105646D01*
X129397046Y-99105642D01*
X129397050Y-99105639D01*
X129605639Y-98897050D01*
X129605642Y-98897046D01*
X129605646Y-98897042D01*
X129785238Y-98662994D01*
X129795776Y-98644740D01*
X129856010Y-98579820D01*
X129938451Y-98547462D01*
X129966638Y-98545243D01*
X148350793Y-98409063D01*
X148437276Y-98428131D01*
X148451739Y-98435705D01*
X148524655Y-98477804D01*
X148524662Y-98477807D01*
X148524661Y-98477807D01*
X148687468Y-98545243D01*
X148791155Y-98588191D01*
X149069783Y-98662849D01*
X149355772Y-98700500D01*
X149355775Y-98700500D01*
X149644225Y-98700500D01*
X149644228Y-98700500D01*
X149930217Y-98662849D01*
X150208845Y-98588191D01*
X150475345Y-98477804D01*
X150725156Y-98333575D01*
X150954004Y-98157974D01*
X151157974Y-97954004D01*
X151333575Y-97725156D01*
X151477804Y-97475345D01*
X151588191Y-97208845D01*
X151662849Y-96930217D01*
X151700500Y-96644228D01*
X151700500Y-96355772D01*
X151662849Y-96069783D01*
X151588191Y-95791155D01*
X151477804Y-95524655D01*
X151414923Y-95415743D01*
X151333578Y-95274848D01*
X151157971Y-95045992D01*
X150954007Y-94842028D01*
X150725151Y-94666421D01*
X150475345Y-94522196D01*
X150208845Y-94411809D01*
X150023787Y-94362223D01*
X149930221Y-94337152D01*
X149930220Y-94337151D01*
X149930217Y-94337151D01*
X149644228Y-94299500D01*
X149355772Y-94299500D01*
X149069783Y-94337151D01*
X149069780Y-94337151D01*
X149069778Y-94337152D01*
X148791158Y-94411808D01*
X148791152Y-94411810D01*
X148524649Y-94522198D01*
X148421931Y-94581503D01*
X148337302Y-94607608D01*
X148323905Y-94608159D01*
X130529639Y-94739968D01*
X130443153Y-94720900D01*
X130373504Y-94666197D01*
X130334488Y-94586691D01*
X130333832Y-94498130D01*
X130371666Y-94418054D01*
X130387443Y-94400267D01*
X131185763Y-93601947D01*
X131260749Y-93554830D01*
X131324906Y-93543669D01*
X148351626Y-93409600D01*
X148438119Y-93428627D01*
X148452684Y-93436251D01*
X148524655Y-93477804D01*
X148791155Y-93588191D01*
X149069783Y-93662849D01*
X149355772Y-93700500D01*
X149355775Y-93700500D01*
X149644225Y-93700500D01*
X149644228Y-93700500D01*
X149930217Y-93662849D01*
X150208845Y-93588191D01*
X150475345Y-93477804D01*
X150725156Y-93333575D01*
X150954004Y-93157974D01*
X151157974Y-92954004D01*
X151333575Y-92725156D01*
X151477804Y-92475345D01*
X151588191Y-92208845D01*
X151662849Y-91930217D01*
X151700500Y-91644228D01*
X151700500Y-91355772D01*
X151662849Y-91069783D01*
X151588191Y-90791155D01*
X151477804Y-90524655D01*
X151406123Y-90400500D01*
X151333578Y-90274848D01*
X151157971Y-90045992D01*
X150954007Y-89842028D01*
X150725151Y-89666421D01*
X150475345Y-89522196D01*
X150208845Y-89411809D01*
X149930217Y-89337151D01*
X149644228Y-89299500D01*
X149355772Y-89299500D01*
X149069783Y-89337151D01*
X149069780Y-89337151D01*
X149069778Y-89337152D01*
X148791158Y-89411808D01*
X148791152Y-89411810D01*
X148524658Y-89522194D01*
X148420978Y-89582054D01*
X148336349Y-89608158D01*
X148323046Y-89608708D01*
X130443443Y-89749493D01*
X130441876Y-89749499D01*
X130325427Y-89749499D01*
X130318933Y-89749924D01*
X130318916Y-89749666D01*
X130316955Y-89749802D01*
X130316975Y-89750062D01*
X130310469Y-89750540D01*
X130195350Y-89766618D01*
X130193802Y-89766828D01*
X130078440Y-89782017D01*
X130078436Y-89782017D01*
X130078434Y-89782018D01*
X130078431Y-89782018D01*
X130072034Y-89783291D01*
X130071982Y-89783030D01*
X130070062Y-89783420D01*
X130070116Y-89783681D01*
X130063723Y-89785005D01*
X129951651Y-89815981D01*
X129950144Y-89816392D01*
X129837796Y-89846496D01*
X129831633Y-89848589D01*
X129831549Y-89848341D01*
X129829678Y-89848985D01*
X129829764Y-89849231D01*
X129823615Y-89851372D01*
X129716522Y-89896722D01*
X129715082Y-89897325D01*
X129607626Y-89941836D01*
X129601792Y-89944713D01*
X129601677Y-89944481D01*
X129599897Y-89945368D01*
X129600013Y-89945599D01*
X129594208Y-89948518D01*
X129493955Y-90007456D01*
X129492606Y-90008241D01*
X129391870Y-90066402D01*
X129386450Y-90070024D01*
X129386304Y-90069806D01*
X129384669Y-90070908D01*
X129384817Y-90071125D01*
X129379426Y-90074788D01*
X129287668Y-90146350D01*
X129286433Y-90147306D01*
X129194231Y-90218055D01*
X129189329Y-90222355D01*
X129189159Y-90222161D01*
X129187666Y-90223481D01*
X129187837Y-90223673D01*
X129182981Y-90227998D01*
X129101364Y-90310912D01*
X129100260Y-90312024D01*
X124322492Y-95089793D01*
X124319366Y-95092851D01*
X124246032Y-95163030D01*
X124239681Y-95170940D01*
X124225239Y-95187046D01*
X124218073Y-95194212D01*
X124218063Y-95194224D01*
X124156289Y-95274727D01*
X124153591Y-95278164D01*
X124097327Y-95348244D01*
X124027904Y-95403235D01*
X123941497Y-95422659D01*
X123855219Y-95402669D01*
X123842651Y-95396000D01*
X123827507Y-95387257D01*
X123806979Y-95378754D01*
X123554952Y-95274361D01*
X123269993Y-95198007D01*
X123269990Y-95198006D01*
X123269988Y-95198006D01*
X122977513Y-95159500D01*
X122977506Y-95159500D01*
X122682494Y-95159500D01*
X122682486Y-95159500D01*
X122390011Y-95198006D01*
X122105051Y-95274360D01*
X122105045Y-95274362D01*
X121832497Y-95387255D01*
X121832488Y-95387259D01*
X121659499Y-95487134D01*
X121574870Y-95513239D01*
X121487296Y-95500039D01*
X121460501Y-95487134D01*
X121287511Y-95387259D01*
X121287502Y-95387255D01*
X121266979Y-95378754D01*
X121014952Y-95274361D01*
X120729993Y-95198007D01*
X120729990Y-95198006D01*
X120729988Y-95198006D01*
X120437513Y-95159500D01*
X120437506Y-95159500D01*
X120142494Y-95159500D01*
X120142486Y-95159500D01*
X119850011Y-95198006D01*
X119565051Y-95274360D01*
X119565045Y-95274362D01*
X119292497Y-95387255D01*
X119292488Y-95387259D01*
X119119499Y-95487134D01*
X119034870Y-95513239D01*
X118947296Y-95500039D01*
X118920501Y-95487134D01*
X118747511Y-95387259D01*
X118747502Y-95387255D01*
X118726979Y-95378754D01*
X118474952Y-95274361D01*
X118189993Y-95198007D01*
X118189990Y-95198006D01*
X118189988Y-95198006D01*
X117897513Y-95159500D01*
X117897506Y-95159500D01*
X117602494Y-95159500D01*
X117602486Y-95159500D01*
X117310011Y-95198006D01*
X117025051Y-95274360D01*
X117025045Y-95274362D01*
X116752497Y-95387255D01*
X116752488Y-95387259D01*
X116579499Y-95487134D01*
X116494870Y-95513239D01*
X116407296Y-95500039D01*
X116380501Y-95487134D01*
X116207511Y-95387259D01*
X116207502Y-95387255D01*
X116186979Y-95378754D01*
X115934952Y-95274361D01*
X115649993Y-95198007D01*
X115649990Y-95198006D01*
X115649988Y-95198006D01*
X115357513Y-95159500D01*
X115357506Y-95159500D01*
X115062494Y-95159500D01*
X115062486Y-95159500D01*
X114770011Y-95198006D01*
X114485051Y-95274360D01*
X114485045Y-95274362D01*
X114212497Y-95387255D01*
X114212494Y-95387256D01*
X114212493Y-95387257D01*
X114212490Y-95387259D01*
X114163153Y-95415743D01*
X114078524Y-95441846D01*
X113990950Y-95428645D01*
X113917777Y-95378754D01*
X113873496Y-95302055D01*
X113866879Y-95213740D01*
X113899236Y-95131299D01*
X113922937Y-95102693D01*
X118566845Y-90458786D01*
X118641833Y-90411667D01*
X118707559Y-90400500D01*
X121497439Y-90400500D01*
X121583782Y-90420207D01*
X121596939Y-90427161D01*
X121684655Y-90477804D01*
X121951155Y-90588191D01*
X122229783Y-90662849D01*
X122515772Y-90700500D01*
X122515775Y-90700500D01*
X122804225Y-90700500D01*
X122804228Y-90700500D01*
X123090217Y-90662849D01*
X123368845Y-90588191D01*
X123635345Y-90477804D01*
X123885156Y-90333575D01*
X124114004Y-90157974D01*
X124317974Y-89954004D01*
X124493575Y-89725156D01*
X124637804Y-89475345D01*
X124748191Y-89208845D01*
X124822849Y-88930217D01*
X124860500Y-88644228D01*
X124860500Y-88452643D01*
X124880207Y-88366300D01*
X124935426Y-88297059D01*
X125015218Y-88258632D01*
X125085475Y-88255346D01*
X125352486Y-88290499D01*
X125352492Y-88290500D01*
X125352494Y-88290500D01*
X125647508Y-88290500D01*
X125647511Y-88290499D01*
X125939993Y-88251993D01*
X126224952Y-88175639D01*
X126497507Y-88062743D01*
X126635192Y-87983251D01*
X126752985Y-87915244D01*
X126752989Y-87915241D01*
X126752989Y-87915240D01*
X126752994Y-87915238D01*
X126987042Y-87735646D01*
X126987046Y-87735642D01*
X126987050Y-87735639D01*
X127195639Y-87527050D01*
X127195642Y-87527046D01*
X127195646Y-87527042D01*
X127375238Y-87292994D01*
X127375241Y-87292989D01*
X127375244Y-87292985D01*
X127454580Y-87155567D01*
X127522743Y-87037507D01*
X127635639Y-86764952D01*
X127711993Y-86479993D01*
X127750500Y-86187506D01*
X127750500Y-85892494D01*
X127711993Y-85600007D01*
X127635639Y-85315048D01*
X127579136Y-85178640D01*
X127564302Y-85091330D01*
X127588819Y-85006228D01*
X127591338Y-85001803D01*
X127618213Y-84956008D01*
X127702387Y-84732962D01*
X127747655Y-84498899D01*
X127750500Y-84445338D01*
X127750500Y-82554662D01*
X127747655Y-82501101D01*
X127702387Y-82267038D01*
X127618213Y-82043992D01*
X127497555Y-81838379D01*
X127431983Y-81760607D01*
X127343884Y-81656115D01*
X127204371Y-81538489D01*
X127161621Y-81502445D01*
X126956008Y-81381787D01*
X126903014Y-81361788D01*
X126732968Y-81297615D01*
X126732966Y-81297614D01*
X126732962Y-81297613D01*
X126498899Y-81252345D01*
X126498893Y-81252344D01*
X126498885Y-81252343D01*
X126492788Y-81252019D01*
X126483846Y-81249471D01*
X126474579Y-81250208D01*
X126441611Y-81237439D01*
X126407614Y-81227754D01*
X126400664Y-81221580D01*
X126391993Y-81218222D01*
X126367827Y-81192409D01*
X126341403Y-81168936D01*
X126331465Y-81153570D01*
X126225822Y-80972468D01*
X126171131Y-80878712D01*
X187149500Y-80878712D01*
X187149500Y-81121288D01*
X187181162Y-81361789D01*
X187243946Y-81596100D01*
X187336776Y-81820212D01*
X187384890Y-81903548D01*
X187458060Y-82030284D01*
X187605737Y-82222741D01*
X187777258Y-82394262D01*
X187969715Y-82541939D01*
X188048335Y-82587329D01*
X188179788Y-82663224D01*
X188403900Y-82756054D01*
X188638211Y-82818838D01*
X188878712Y-82850500D01*
X188878715Y-82850500D01*
X189121285Y-82850500D01*
X189121288Y-82850500D01*
X189361789Y-82818838D01*
X189596100Y-82756054D01*
X189820212Y-82663224D01*
X190030289Y-82541936D01*
X190222738Y-82394265D01*
X190394265Y-82222738D01*
X190541936Y-82030289D01*
X190663224Y-81820212D01*
X190756054Y-81596100D01*
X190818838Y-81361789D01*
X190850500Y-81121288D01*
X190850500Y-80878712D01*
X190818838Y-80638211D01*
X190756054Y-80403900D01*
X190663224Y-80179788D01*
X190587329Y-80048335D01*
X190541939Y-79969715D01*
X190394262Y-79777258D01*
X190222741Y-79605737D01*
X190030284Y-79458060D01*
X189903548Y-79384890D01*
X189820212Y-79336776D01*
X189596100Y-79243946D01*
X189596098Y-79243945D01*
X189596097Y-79243945D01*
X189361801Y-79181165D01*
X189361795Y-79181163D01*
X189361789Y-79181162D01*
X189121288Y-79149500D01*
X188878712Y-79149500D01*
X188638211Y-79181162D01*
X188638198Y-79181165D01*
X188403902Y-79243945D01*
X188179792Y-79336774D01*
X188179790Y-79336775D01*
X188179788Y-79336776D01*
X188173989Y-79340124D01*
X187969715Y-79458060D01*
X187777258Y-79605737D01*
X187605737Y-79777258D01*
X187458060Y-79969715D01*
X187346942Y-80162178D01*
X187336776Y-80179788D01*
X187243946Y-80403900D01*
X187181162Y-80638211D01*
X187149500Y-80878712D01*
X126171131Y-80878712D01*
X126030831Y-80638198D01*
X125393931Y-79546369D01*
X125393552Y-79545715D01*
X125333602Y-79441878D01*
X125332062Y-79439573D01*
X125331977Y-79439438D01*
X125331526Y-79438768D01*
X125331058Y-79438070D01*
X125330513Y-79437254D01*
X125330388Y-79437081D01*
X125328853Y-79434806D01*
X125328847Y-79434796D01*
X125255527Y-79340124D01*
X125255034Y-79339484D01*
X125181946Y-79244234D01*
X125181940Y-79244227D01*
X125181938Y-79244224D01*
X125181931Y-79244217D01*
X125180102Y-79242131D01*
X125179976Y-79241978D01*
X125179529Y-79241473D01*
X125178917Y-79240779D01*
X125178268Y-79240039D01*
X125178127Y-79239889D01*
X125176299Y-79237823D01*
X125091138Y-79153421D01*
X125090506Y-79152792D01*
X125005780Y-79068065D01*
X125003675Y-79066219D01*
X125003551Y-79066104D01*
X125003121Y-79065730D01*
X125002417Y-79065116D01*
X125001598Y-79064398D01*
X125001426Y-79064257D01*
X124999349Y-79062451D01*
X124903984Y-78989952D01*
X124903389Y-78989498D01*
X124850666Y-78949042D01*
X124808121Y-78916396D01*
X124805800Y-78914845D01*
X124805683Y-78914762D01*
X124805150Y-78914409D01*
X124804457Y-78913948D01*
X124803507Y-78913313D01*
X124803324Y-78913200D01*
X124801043Y-78911690D01*
X124697040Y-78852262D01*
X124696272Y-78851820D01*
X124592378Y-78791838D01*
X124589899Y-78790616D01*
X124589714Y-78790517D01*
X124588778Y-78790061D01*
X124588050Y-78789704D01*
X124587400Y-78789383D01*
X124587232Y-78789308D01*
X124584724Y-78788085D01*
X124584720Y-78788083D01*
X124584715Y-78788081D01*
X124584709Y-78788078D01*
X124473643Y-78742653D01*
X124472822Y-78742315D01*
X124362218Y-78696501D01*
X124359571Y-78695603D01*
X124359355Y-78695523D01*
X124358319Y-78695176D01*
X124357586Y-78694929D01*
X124356949Y-78694713D01*
X124356814Y-78694672D01*
X124354136Y-78693776D01*
X124237945Y-78663199D01*
X124237086Y-78662971D01*
X124121567Y-78632017D01*
X124118848Y-78631477D01*
X124118636Y-78631428D01*
X124117674Y-78631241D01*
X124116917Y-78631092D01*
X124116128Y-78630935D01*
X124115949Y-78630906D01*
X124113210Y-78630374D01*
X123994110Y-78615234D01*
X123993233Y-78615121D01*
X123874566Y-78599500D01*
X123871803Y-78599319D01*
X123871580Y-78599297D01*
X123870640Y-78599240D01*
X123869876Y-78599192D01*
X123869015Y-78599135D01*
X123868823Y-78599130D01*
X123866058Y-78598961D01*
X123866057Y-78598961D01*
X123787833Y-78599311D01*
X123746180Y-78599498D01*
X123745291Y-78599500D01*
X114254709Y-78599500D01*
X114253819Y-78599498D01*
X114133942Y-78598961D01*
X114131177Y-78599130D01*
X114130998Y-78599135D01*
X114130132Y-78599192D01*
X114129354Y-78599241D01*
X114128407Y-78599299D01*
X114128198Y-78599319D01*
X114125431Y-78599500D01*
X114006764Y-78615121D01*
X114005888Y-78615234D01*
X113886789Y-78630373D01*
X113884021Y-78630911D01*
X113883877Y-78630934D01*
X113883181Y-78631073D01*
X113882511Y-78631204D01*
X113881412Y-78631417D01*
X113881167Y-78631474D01*
X113878449Y-78632014D01*
X113841050Y-78642035D01*
X113762916Y-78662971D01*
X113762164Y-78663170D01*
X113645870Y-78693775D01*
X113643172Y-78694677D01*
X113642994Y-78694730D01*
X113642369Y-78694943D01*
X113641586Y-78695207D01*
X113640672Y-78695512D01*
X113640459Y-78695592D01*
X113637798Y-78696495D01*
X113527141Y-78742330D01*
X113526322Y-78742667D01*
X113415265Y-78788088D01*
X113412728Y-78789325D01*
X113412580Y-78789392D01*
X113411934Y-78789711D01*
X113411196Y-78790073D01*
X113410341Y-78790489D01*
X113410141Y-78790596D01*
X113407621Y-78791838D01*
X113303823Y-78851765D01*
X113303056Y-78852206D01*
X113198967Y-78911684D01*
X113196633Y-78913229D01*
X113196456Y-78913338D01*
X113195660Y-78913870D01*
X113195053Y-78914273D01*
X113194368Y-78914726D01*
X113194208Y-78914840D01*
X113191874Y-78916399D01*
X113096689Y-78989437D01*
X113095982Y-78989976D01*
X113000654Y-79062448D01*
X112998527Y-79064297D01*
X112998359Y-79064434D01*
X112997659Y-79065048D01*
X112997146Y-79065496D01*
X112996480Y-79066074D01*
X112996350Y-79066196D01*
X112994238Y-79068048D01*
X112909489Y-79152796D01*
X112908862Y-79153420D01*
X112823686Y-79237839D01*
X112821817Y-79239951D01*
X112821685Y-79240091D01*
X112821179Y-79240669D01*
X112820577Y-79241352D01*
X112820054Y-79241941D01*
X112819919Y-79242106D01*
X112818059Y-79244227D01*
X112745012Y-79339422D01*
X112744471Y-79340124D01*
X112671154Y-79434794D01*
X112669578Y-79437130D01*
X112669458Y-79437297D01*
X112668930Y-79438087D01*
X112668542Y-79438664D01*
X112668075Y-79439356D01*
X112667973Y-79439519D01*
X112666404Y-79441867D01*
X112606389Y-79545814D01*
X112605943Y-79546582D01*
X111443998Y-81538489D01*
X111383470Y-81603141D01*
X111371608Y-81610557D01*
X111274844Y-81666425D01*
X111274840Y-81666427D01*
X111274840Y-81666428D01*
X111045992Y-81842028D01*
X110842028Y-82045992D01*
X110666421Y-82274848D01*
X110522196Y-82524654D01*
X110522195Y-82524657D01*
X110411810Y-82791152D01*
X110411808Y-82791158D01*
X110337152Y-83069778D01*
X110299500Y-83355774D01*
X110299500Y-83644225D01*
X110337151Y-83930218D01*
X110360603Y-84017742D01*
X110363913Y-84106243D01*
X110328497Y-84187417D01*
X110261368Y-84245185D01*
X110237688Y-84255787D01*
X110221429Y-84261827D01*
X110221425Y-84261829D01*
X110198495Y-84273959D01*
X110181605Y-84281903D01*
X110157627Y-84291835D01*
X110083404Y-84334687D01*
X110076963Y-84338248D01*
X110001215Y-84378320D01*
X110001213Y-84378321D01*
X110001210Y-84378323D01*
X109980055Y-84393345D01*
X109964352Y-84403421D01*
X109941881Y-84416395D01*
X109941866Y-84416405D01*
X109873879Y-84468573D01*
X109867959Y-84472944D01*
X109798087Y-84522562D01*
X109798079Y-84522568D01*
X109779074Y-84540216D01*
X109764816Y-84552260D01*
X109744231Y-84568055D01*
X109744219Y-84568066D01*
X109683615Y-84628669D01*
X109678313Y-84633779D01*
X106270570Y-87798111D01*
X106258043Y-87808812D01*
X106228511Y-87831995D01*
X106228508Y-87831998D01*
X106176667Y-87884993D01*
X106169829Y-87891655D01*
X106115520Y-87942087D01*
X106115519Y-87942088D01*
X106091577Y-87971007D01*
X106080554Y-87983251D01*
X106054299Y-88010091D01*
X106009821Y-88069399D01*
X106003907Y-88076903D01*
X105956643Y-88133994D01*
X105936683Y-88165786D01*
X105927356Y-88179361D01*
X105904828Y-88209401D01*
X105904825Y-88209405D01*
X105868472Y-88274005D01*
X105863587Y-88282218D01*
X105824187Y-88344975D01*
X105824181Y-88344986D01*
X105808539Y-88379117D01*
X105801065Y-88393789D01*
X105782649Y-88426517D01*
X105755044Y-88495294D01*
X105751274Y-88504070D01*
X105720396Y-88571451D01*
X105720390Y-88571466D01*
X105709334Y-88607356D01*
X105703837Y-88622884D01*
X105689855Y-88657722D01*
X105671465Y-88729510D01*
X105668873Y-88738704D01*
X105647050Y-88809551D01*
X105640775Y-88846571D01*
X105637350Y-88862688D01*
X105628034Y-88899055D01*
X105619170Y-88972641D01*
X105617799Y-88982097D01*
X105605413Y-89055167D01*
X105605411Y-89055184D01*
X105604020Y-89092722D01*
X105602729Y-89109142D01*
X105598242Y-89146399D01*
X105598241Y-89146405D01*
X105599058Y-89220493D01*
X105598934Y-89230047D01*
X105596245Y-89302680D01*
X105596191Y-89304139D01*
X105596680Y-89309332D01*
X105599711Y-89341533D01*
X105600574Y-89357984D01*
X105675697Y-96169129D01*
X105656943Y-96255684D01*
X105649049Y-96270823D01*
X105567257Y-96412492D01*
X105454362Y-96685045D01*
X105454360Y-96685051D01*
X105391719Y-96918833D01*
X105350337Y-96997133D01*
X105279079Y-97049724D01*
X105192059Y-97066189D01*
X105106514Y-97043267D01*
X105039385Y-96985498D01*
X105003969Y-96904325D01*
X105000500Y-96867328D01*
X105000500Y-80878712D01*
X106149500Y-80878712D01*
X106149500Y-81121288D01*
X106181162Y-81361789D01*
X106243946Y-81596100D01*
X106336776Y-81820212D01*
X106384890Y-81903548D01*
X106458060Y-82030284D01*
X106605737Y-82222741D01*
X106777258Y-82394262D01*
X106969715Y-82541939D01*
X107048335Y-82587329D01*
X107179788Y-82663224D01*
X107403900Y-82756054D01*
X107638211Y-82818838D01*
X107878712Y-82850500D01*
X107878715Y-82850500D01*
X108121285Y-82850500D01*
X108121288Y-82850500D01*
X108361789Y-82818838D01*
X108596100Y-82756054D01*
X108820212Y-82663224D01*
X109030289Y-82541936D01*
X109222738Y-82394265D01*
X109394265Y-82222738D01*
X109541936Y-82030289D01*
X109663224Y-81820212D01*
X109756054Y-81596100D01*
X109818838Y-81361789D01*
X109850500Y-81121288D01*
X109850500Y-80878712D01*
X109818838Y-80638211D01*
X109756054Y-80403900D01*
X109663224Y-80179788D01*
X109587329Y-80048335D01*
X109541939Y-79969715D01*
X109394262Y-79777258D01*
X109222741Y-79605737D01*
X109030284Y-79458060D01*
X108903548Y-79384890D01*
X108820212Y-79336776D01*
X108596100Y-79243946D01*
X108596098Y-79243945D01*
X108596097Y-79243945D01*
X108361801Y-79181165D01*
X108361795Y-79181163D01*
X108361789Y-79181162D01*
X108121288Y-79149500D01*
X107878712Y-79149500D01*
X107638211Y-79181162D01*
X107638198Y-79181165D01*
X107403902Y-79243945D01*
X107179792Y-79336774D01*
X107179790Y-79336775D01*
X107179788Y-79336776D01*
X107173989Y-79340124D01*
X106969715Y-79458060D01*
X106777258Y-79605737D01*
X106605737Y-79777258D01*
X106458060Y-79969715D01*
X106346942Y-80162178D01*
X106336776Y-80179788D01*
X106243946Y-80403900D01*
X106181162Y-80638211D01*
X106149500Y-80878712D01*
X105000500Y-80878712D01*
X105000500Y-78199500D01*
X105020207Y-78113157D01*
X105075426Y-78043916D01*
X105155218Y-78005489D01*
X105199500Y-78000500D01*
X191800500Y-78000500D01*
X191886843Y-78020207D01*
G37*
%TD.AperFunction*%
%TD*%
M02*
