M48
; DRILL file KiCad 10.0.5 date 2026-08-22T10:31:56
; FORMAT={-:-/ absolute / metric / decimal}
; #@! TF.CreationDate,2026-08-22T10:31:56-07:00
; #@! TF.GenerationSoftware,Kicad,Pcbnew,10.0.5
; #@! TF.FileFunction,MixedPlating,1,2
FMAT,2
METRIC
; #@! TA.AperFunction,Plated,PTH,ComponentDrill
T1C0.800
; #@! TA.AperFunction,Plated,PTH,ComponentDrill
T2C0.900
; #@! TA.AperFunction,Plated,PTH,ComponentDrill
T3C1.000
; #@! TA.AperFunction,Plated,PTH,ComponentDrill
T4C1.600
; #@! TA.AperFunction,NonPlated,NPTH,ComponentDrill
T5C3.200
%
G90
G05
T1
X112.5Y-83.5
X112.5Y-88.5
X122.66Y-83.5
X122.66Y-88.5
X124.5Y-126.5
X129.5Y-126.5
X138.5Y-126.5
X148.66Y-126.5
X149.5Y-91.5
X149.5Y-96.5
X149.5Y-101.5
X149.5Y-106.5
X149.5Y-111.5
X159.66Y-91.5
X159.66Y-96.5
X159.66Y-101.5
X159.66Y-106.5
X159.66Y-111.5
X168.5Y-119.5
X168.5Y-124.5
X178.66Y-119.5
X178.66Y-124.5
T2
X133.42Y-126.5
X135.96Y-126.5
T3
X107.59Y-97.41
X107.59Y-112.65
X107.96Y-119.5
X110.13Y-97.41
X110.13Y-112.65
X112.5Y-126.5
X112.67Y-97.41
X112.67Y-112.65
X113.04Y-119.5
X115.21Y-97.41
X115.21Y-112.65
X117.5Y-126.5
X117.75Y-97.41
X117.75Y-112.65
X120.29Y-97.41
X120.29Y-112.65
X122.83Y-97.41
X122.83Y-112.65
X125.37Y-97.41
X125.37Y-112.65
X125.5Y-83.5
X125.5Y-86.04
X125.5Y-88.58
X127.91Y-97.41
X127.91Y-112.65
X137.5Y-119.5
X137.5Y-122.04
X164.5Y-119.5
X164.5Y-122.04
X164.5Y-124.58
X169.09Y-97.35
X169.09Y-112.59
X171.63Y-97.35
X171.63Y-112.59
X174.17Y-97.35
X174.17Y-112.59
X176.71Y-97.35
X176.71Y-112.59
X179.25Y-97.35
X179.25Y-112.59
X181.79Y-97.35
X181.79Y-112.59
X184.33Y-97.35
X184.33Y-112.59
X186.87Y-97.35
X186.87Y-112.59
X189.41Y-97.35
X189.41Y-112.59
T4
X120.5Y-119.5
X133.2Y-119.5
T5
X108.0Y-81.0
X108.0Y-129.0
X189.0Y-81.0
X189.0Y-129.0
M30
